#File written by RizomUV 2022.1.57.gfabcfb8. Compilation :Sep 28 2022,23:52:22
mtllib Mesa y sombrilla.mtl
#begin vertices
v 35.02882 0.9833 2.961185
v 35.02282 0.9833 2.955184
v 35.02882 1.039639 2.961185
v 35.02882 1.045639 2.955184
v 35.02282 1.039639 2.955184
v 35.02282 0.9833 1.775107
v 35.02882 0.9833 1.769107
v 35.02882 1.045639 1.775107
v 35.02882 1.039639 1.769107
v 35.02282 1.039639 1.775107
v 35.95504 0.9833 2.955184
v 35.94904 0.9833 2.961185
v 35.94904 1.045639 2.955184
v 35.94904 1.039639 2.961185
v 35.95504 1.039639 2.955184
v 35.94904 0.9833 1.769107
v 35.95504 0.9833 1.775107
v 35.94904 1.045639 1.775107
v 35.95504 1.039639 1.775107
v 35.94904 1.039639 1.769107
v 35.07409 0.297561 2.106138
v 35.07409 0.291561 2.112138
v 35.07409 0.33275 2.112138
v 35.07409 0.32675 2.106138
v 35.07409 0.291561 2.15191
v 35.07409 0.297561 2.15791
v 35.07409 0.32675 2.15791
v 35.07409 0.33275 2.15191
v 35.90376 0.291561 2.112138
v 35.90376 0.297561 2.106138
v 35.90376 0.32675 2.106138
v 35.90376 0.33275 2.112138
v 35.90376 0.297561 2.15791
v 35.90376 0.291561 2.15191
v 35.90376 0.33275 2.15191
v 35.90376 0.32675 2.15791
v 35.8666 1.037084 2.806678
v 35.8606 1.035837 2.81395
v 35.92365 1.035837 2.81395
v 35.91765 1.037084 2.806678
v 35.8606 1.021834 2.895585
v 35.8666 1.020587 2.902853
v 35.91765 1.020587 2.902853
v 35.92365 1.021834 2.895585
v 35.8606 0.003614 1.770335
v 35.8666 0.003614 1.761803
v 35.91765 0.003614 1.761803
v 35.92365 0.003614 1.770335
v 35.8666 0.003614 1.875726
v 35.8606 0.003614 1.867198
v 35.92365 0.003614 1.867198
v 35.91765 0.003614 1.875726
v 35.11125 1.037084 2.806678
v 35.11725 1.035837 2.81395
v 35.05421 1.035837 2.81395
v 35.0602 1.037084 2.806678
v 35.11725 1.021834 2.895585
v 35.11125 1.020587 2.902853
v 35.0602 1.020587 2.902853
v 35.05421 1.021834 2.895585
v 35.11725 0.003614 1.770335
v 35.11125 0.003614 1.761803
v 35.06021 0.003614 1.761803
v 35.05421 0.003614 1.770335
v 35.11125 0.003614 1.875726
v 35.11725 0.003614 1.867198
v 35.05421 0.003614 1.867198
v 35.06021 0.003614 1.875726
v 35.8415 1.037084 1.915565
v 35.84749 1.035837 1.908294
v 35.78445 1.035837 1.908294
v 35.79045 1.037084 1.915565
v 35.84749 1.021834 1.826659
v 35.8415 1.020587 1.81939
v 35.79045 1.020587 1.81939
v 35.78445 1.021834 1.826659
v 35.84749 0.003614 2.951908
v 35.84149 0.003614 2.96044
v 35.79045 0.003614 2.96044
v 35.78445 0.003614 2.951908
v 35.84149 0.003614 2.846517
v 35.84749 0.003614 2.855045
v 35.78445 0.003614 2.855045
v 35.79045 0.003614 2.846517
v 35.13636 1.037084 1.915565
v 35.13036 1.035837 1.908294
v 35.1934 1.035837 1.908294
v 35.1874 1.037084 1.915565
v 35.13036 1.021834 1.826659
v 35.13636 1.020587 1.81939
v 35.1874 1.020587 1.81939
v 35.1934 1.021834 1.826659
v 35.13036 0.003614 2.951908
v 35.13636 0.003614 2.96044
v 35.1874 0.003614 2.96044
v 35.1934 0.003614 2.951908
v 35.13636 0.003614 2.846517
v 35.13036 0.003614 2.855045
v 35.1934 0.003614 2.855045
v 35.1874 0.003614 2.846517
v 35.15615 0.291561 2.565106
v 35.15615 0.291561 2.616877
v 35.8217 0.291561 2.565106
v 35.8217 0.291561 2.616877
v 35.15615 0.33275 2.571106
v 35.15615 0.32675 2.565106
v 35.15615 0.32675 2.616877
v 35.15615 0.33275 2.610877
v 35.8217 0.32675 2.565106
v 35.8217 0.33275 2.571106
v 35.8217 0.33275 2.610877
v 35.8217 0.32675 2.616877
v 35.48893 0.124483 2.336597
v 35.48893 2.260247 2.336597
v 35.49985 0.124483 2.33877
v 35.49985 2.260247 2.33877
v 35.50911 0.124483 2.344959
v 35.50911 2.260247 2.344959
v 35.5153 0.124483 2.354221
v 35.5153 2.260247 2.354221
v 35.51747 0.124483 2.365146
v 35.51747 2.260247 2.365146
v 35.5153 0.124483 2.376071
v 35.5153 2.260247 2.376071
v 35.50911 0.124483 2.385333
v 35.50911 2.260247 2.385333
v 35.49985 0.124483 2.391521
v 35.49985 2.260247 2.391521
v 35.48893 0.124483 2.393695
v 35.48893 2.260247 2.393695
v 35.478 0.124483 2.391521
v 35.478 2.260247 2.391521
v 35.46874 0.124483 2.385333
v 35.46874 2.260247 2.385333
v 35.46255 0.124483 2.376071
v 35.46255 2.260247 2.376071
v 35.46038 0.124483 2.365146
v 35.46038 2.260247 2.365146
v 35.46255 0.124483 2.354221
v 35.46255 2.260247 2.354221
v 35.46874 0.124483 2.344959
v 35.46874 2.260247 2.344959
v 35.478 0.124483 2.33877
v 35.478 2.260247 2.33877
v 35.48893 0.011435 2.173142
v 35.5624 0.011435 2.187757
v 35.6247 0.011435 2.229378
v 35.66631 0.011435 2.291669
v 35.68093 0.011435 2.365146
v 35.66631 0.011435 2.438622
v 35.6247 0.011435 2.500913
v 35.5624 0.011435 2.542534
v 35.48893 0.011435 2.557149
v 35.41545 0.011435 2.542534
v 35.35316 0.011435 2.500913
v 35.31154 0.011435 2.438622
v 35.29692 0.011435 2.365146
v 35.31154 0.011435 2.291669
v 35.35316 0.011435 2.229378
v 35.41545 0.011435 2.187757
v 35.48893 -0.005509 2.173142
v 35.5624 -0.005509 2.187757
v 35.6247 -0.005509 2.229378
v 35.66631 -0.005509 2.291669
v 35.68093 -0.005509 2.365146
v 35.66631 -0.005509 2.438622
v 35.6247 -0.005509 2.500913
v 35.5624 -0.005509 2.542534
v 35.48893 -0.005509 2.557149
v 35.41545 -0.005509 2.542534
v 35.35316 -0.005509 2.500913
v 35.31154 -0.005509 2.438622
v 35.29692 -0.005509 2.365146
v 35.31154 -0.005509 2.291669
v 35.35316 -0.005509 2.229378
v 35.41545 -0.005509 2.187757
v 35.45414 2.222341 2.39993
v 35.52371 2.222341 2.39993
v 35.45414 2.222341 2.330362
v 35.52371 2.222341 2.330362
v 35.45414 2.242742 2.330362
v 35.45414 2.242742 2.39993
v 35.52371 2.242742 2.39993
v 35.52371 2.242742 2.330362
v 34.47923 1.93907 1.363452
v 34.48723 1.93907 1.355452
v 34.4869 1.93336 1.363117
v 34.48164 1.938596 1.357864
v 34.48254 1.934935 1.358762
v 34.48706 1.934558 1.357628
v 34.48141 1.934558 1.363284
v 34.4869 1.93336 3.367175
v 34.48723 1.93907 3.37484
v 34.47923 1.93907 3.36684
v 34.48706 1.934084 3.372595
v 34.48254 1.934837 3.371529
v 34.48157 1.93907 3.372496
v 34.48148 1.934084 3.367007
v 36.49095 1.93336 3.367175
v 36.49862 1.93907 3.36684
v 36.49062 1.93907 3.37484
v 36.49638 1.934084 3.367007
v 36.49531 1.934837 3.371529
v 36.49628 1.93907 3.372496
v 36.49079 1.934084 3.372595
v 36.49095 1.93336 1.363117
v 36.49062 1.93907 1.355452
v 36.49862 1.93907 1.363452
v 36.49079 1.934084 1.357697
v 36.49531 1.934837 1.358762
v 36.49628 1.93907 1.357795
v 36.49638 1.934084 1.363284
v 34.4869 1.953761 1.363117
v 34.48723 1.943471 1.355452
v 34.47923 1.943471 1.363452
v 34.48706 1.949799 1.357697
v 34.48254 1.948475 1.358762
v 34.48157 1.943471 1.357795
v 34.48148 1.949799 1.363284
v 34.47923 1.943471 3.36684
v 34.48723 1.943471 3.37484
v 34.4869 1.953761 3.367175
v 34.48164 1.942997 3.372427
v 34.48254 1.948574 3.371529
v 34.48706 1.950273 3.372664
v 34.48141 1.950273 3.367007
v 36.49062 1.943471 3.37484
v 36.49862 1.943471 3.36684
v 36.49095 1.953761 3.367175
v 36.49621 1.942997 3.372427
v 36.49531 1.948574 3.371529
v 36.49645 1.950273 3.367007
v 36.49079 1.950273 3.372664
v 36.49862 1.943471 1.363452
v 36.49062 1.943471 1.355452
v 36.49095 1.953761 1.363117
v 36.49621 1.942997 1.357864
v 36.49531 1.948574 1.358762
v 36.49079 1.950273 1.357628
v 36.49645 1.950273 1.363284
#end vertices

#begin 287 textures vertices 
vt 0.5243497 0.9906345 0
vt 0.5282486 0.9906345 0
vt 0.5243497 0.9647496 0
vt 0.5243497 0.9608507 0
vt 0.5282486 0.9647496 0
vt 0.9702546 0.468884 0
vt 0.5429611 0.9906342 0
vt 0.5429611 0.9608507 0
vt 0.5429611 0.9647492 0
vt 0.5390625 0.9647492 0
vt 0.4450521 0.001631806 0
vt 0.1015551 0.9906345 0
vt 0.1015551 0.9608507 0
vt 0.1015551 0.9647496 0
vt 0.09765625 0.9647496 0
vt 0.9657556 0.9906342 0
vt 0.9696542 0.9906342 0
vt 0.9657556 0.9608507 0
vt 0.9696542 0.9647492 0
vt 0.9657556 0.9647492 0
vt 0.3665501 0.910813 0
vt 0.3665501 0.9080629 0
vt 0.3665501 0.9230232 0
vt 0.3665501 0.9202731 0
vt 0.3665501 0.8951728 0
vt 0.3665501 0.8924228 0
vt 0.3665501 0.9386633 0
vt 0.3665501 0.9359132 0
vt 0.09765625 0.9080629 0
vt 0.09765625 0.910813 0
vt 0.09765625 0.9202731 0
vt 0.09765625 0.9230232 0
vt 0.09765625 0.9481234 0
vt 0.09765625 0.8951728 0
vt 0.09765625 0.9359132 0
vt 0.09765625 0.9386633 0
vt 0.250361 0.369924 0
vt 0.2528574 0.369924 0
vt 0.2350463 0.369924 0
vt 0.2375426 0.369924 0
vt 0.1947483 0.369924 0
vt 0.1972511 0.369924 0
vt 0.2100695 0.369924 0
vt 0.212565 0.369924 0
vt 0.1722669 0.00390625 0
vt 0.250361 0.00390625 0
vt 0.2375426 0.00390625 0
vt 0.2350463 0.00390625 0
vt 0.1972511 0.00390625 0
vt 0.1947483 0.00390625 0
vt 0.212565 0.00390625 0
vt 0.2100695 0.00390625 0
vt 0.09289006 0.369924 0
vt 0.1709842 0.369924 0
vt 0.1082048 0.369924 0
vt 0.1057085 0.369924 0
vt 0.1485028 0.369924 0
vt 0.146 0.369924 0
vt 0.1331816 0.369924 0
vt 0.1306861 0.369924 0
vt 0.09039371 0.00390625 0
vt 0.09289006 0.00390625 0
vt 0.1057085 0.00390625 0
vt 0.1082048 0.00390625 0
vt 0.146 0.00390625 0
vt 0.1485028 0.00390625 0
vt 0.1306861 0.00390625 0
vt 0.1331816 0.00390625 0
vt 0.2663425 0.3699238 0
vt 0.2688386 0.3699238 0
vt 0.331618 0.3699238 0
vt 0.3341141 0.3699238 0
vt 0.2913199 0.3699238 0
vt 0.2938226 0.3699238 0
vt 0.3066412 0.3699238 0
vt 0.3091367 0.3699238 0
vt 0.2688386 0.00390625 0
vt 0.2663425 0.00390625 0
vt 0.2535239 0.00390625 0
vt 0.331618 0.00390625 0
vt 0.2938226 0.00390625 0
vt 0.2913199 0.00390625 0
vt 0.3091367 0.00390625 0
vt 0.3066412 0.00390625 0
vt 0.4029633 0.3699238 0
vt 0.4004672 0.3699238 0
vt 0.3376878 0.3699238 0
vt 0.4157819 0.3699238 0
vt 0.3779859 0.3699238 0
vt 0.3754832 0.3699238 0
vt 0.3626646 0.3699238 0
vt 0.3601691 0.3699238 0
vt 0.4004672 0.00390625 0
vt 0.4029633 0.00390625 0
vt 0.3351917 0.00390625 0
vt 0.3376878 0.00390625 0
vt 0.3754832 0.00390625 0
vt 0.3779859 0.00390625 0
vt 0.3601691 0.00390625 0
vt 0.3626646 0.00390625 0
vt 0.3764641 0.9530382 0
vt 0.3764641 0.8969404 0
vt 0.6701709 0.9530382 0
vt 0.6701709 0.8969404 0
vt 0.3764641 0.9337648 0
vt 0.3764641 0.9375093 0
vt 0.3764641 0.9124693 0
vt 0.3764641 0.9162139 0
vt 0.6701709 0.9375093 0
vt 0.6701709 0.9337648 0
vt 0.6701709 0.9162139 0
vt 0.6701709 0.9124693 0
vt 0.07101366 0.00390625 0
vt 0.07101366 0.9936662 0
vt 0.0658516 0.00390625 0
vt 0.0658516 0.9936662 0
vt 0.06068931 0.00390625 0
vt 0.06068931 0.9936662 0
vt 0.05552729 0.00390625 0
vt 0.05552729 0.9936662 0
vt 0.05036513 0.00390625 0
vt 0.05036513 0.9936662 0
vt 0.04520298 0.00390625 0
vt 0.04520298 0.9936662 0
vt 0.04004095 0.00390625 0
vt 0.04004095 0.9936662 0
vt 0.03487892 0.00390625 0
vt 0.03487892 0.9936662 0
vt 0.02971677 0.00390625 0
vt 0.02971677 0.9936662 0
vt 0.02455461 0.00390625 0
vt 0.02455461 0.9936662 0
vt 0.01939259 0.00390625 0
vt 0.01939259 0.9936662 0
vt 0.01423056 0.00390625 0
vt 0.01423056 0.9936662 0
vt 0.009068403 0.00390625 0
vt 0.009068403 0.9936662 0
vt 0.00390625 0.00390625 0
vt 0.08650004 0.9936662 0
vt 0.08133801 0.00390625 0
vt 0.08133801 0.9936662 0
vt 0.07617573 0.00390625 0
vt 0.07617573 0.9936662 0
vt 0.212112 0.3993576 0
vt 0.1966494 0.3858435 0
vt 0.1778546 0.3776223 0
vt 0.1574573 0.375267 0
vt 0.1372445 0.3790926 0
vt 0.1190807 0.3888147 0
vt 0.1046308 0.4035248 0
vt 0.0953198 0.4219087 0
vt 0.09188213 0.4421947 0
vt 0.09467833 0.4625448 0
vt 0.1033633 0.4811514 0
vt 0.117185 0.4963895 0
vt 0.1349186 0.5070497 0
vt 0.2282807 0.4579643 0
vt 0.2283171 0.4368857 0
vt 0.2229856 0.4168442 0
vt 0.2157251 0.3962082 0
vt 0.1991607 0.3818508 0
vt 0.1791185 0.3729171 0
vt 0.1572832 0.3705518 0
vt 0.1356706 0.3745655 0
vt 0.1161547 0.3849114 0
vt 0.1007196 0.4007513 0
vt 0.09075682 0.4204343 0
vt 0.08708895 0.4421428 0
vt 0.09008302 0.4639117 0
vt 0.09936927 0.4837942 0
vt 0.114132 0.499989 0
vt 0.1328265 0.5113978 0
vt 0.1535152 0.5175466 0
vt 0.2330446 0.4360653 0
vt 0.2273444 0.4148511 0
vt 0.7782593 0.6872264 0
vt 0.792091 0.6872966 0
vt 0.7783281 0.6733927 0
vt 0.7921616 0.673464 0
vt 0.3570482 0.6872419 0
vt 0.3569385 0.6734632 0
vt 0.3707168 0.6734956 0
vt 0.3708265 0.6872743 0
vt 0.5772671 0.4746356 0
vt 0.5774626 0.4744372 0
vt 0.5786948 0.4758526 0
vt 0.5773114 0.4744836 0
vt 0.5778235 0.4749902 0
vt 0.5780514 0.475101 0
vt 0.5779366 0.4752171 0
vt 0.5807659 0.886849 0
vt 0.5795108 0.8883183 0
vt 0.5793097 0.888118 0
vt 0.5801484 0.8875889 0
vt 0.5798756 0.8877482 0
vt 0.5793008 0.8883289 0
vt 0.5800324 0.8874735 0
vt 0.9916903 0.884825 0
vt 0.9931591 0.8860807 0
vt 0.9929593 0.8862814 0
vt 0.99243 0.8854427 0
vt 0.9925893 0.8857155 0
vt 0.9931701 0.8862907 0
vt 0.9923142 0.8855568 0
vt 0.9897023 0.4738896 0
vt 0.9909573 0.4724211 0
vt 0.9911592 0.4726203 0
vt 0.9903198 0.4731502 0
vt 0.9905928 0.4729907 0
vt 0.9911677 0.4724101 0
vt 0.9904345 0.4732655 0
vt 0.574977 0.4721725 0
vt 0.5769026 0.4738615 0
vt 0.5766848 0.474081 0
vt 0.5759738 0.4730023 0
vt 0.5760467 0.4732316 0
vt 0.5766904 0.4738693 0
vt 0.5758166 0.473161 0
vt 0.5787344 0.8886784 0
vt 0.5789555 0.8889005 0
vt 0.5770182 0.8906333 0
vt 0.5788027 0.8888323 0
vt 0.5780906 0.8895496 0
vt 0.5779771 0.8898234 0
vt 0.5778182 0.8896661 0
vt 0.9935198 0.8868567 0
vt 0.9937411 0.8866362 0
vt 0.9954764 0.8885757 0
vt 0.9936738 0.8867891 0
vt 0.9943924 0.8875012 0
vt 0.994667 0.8876156 0
vt 0.994508 0.887773 0
vt 0.9917347 0.4720598 0
vt 0.9915124 0.4718392 0
vt 0.993451 0.4701042 0
vt 0.9916658 0.4719066 0
vt 0.9923764 0.4711877 0
vt 0.9924917 0.4709134 0
vt 0.9926477 0.4710725 0
vt 0.09765625 0.8924228 0
vt 0.3665501 0.9481234 0
vt 0.151451 0.4372507 0
vt 0.1709842 0.00390625 0
vt 0.2528574 0.00390625 0
vt 0.09039371 0.369924 0
vt 0.1722669 0.369924 0
vt 0.1702893 0.4393803 0
vt 0.3341141 0.00390625 0
vt 0.2535239 0.3699238 0
vt 0.3351917 0.3699238 0
vt 0.4157819 0.00390625 0
vt 0.1660545 0.4345015 0
vt 0.1685684 0.4366019 0
vt 0.1630624 0.4331581 0
vt 0.159813 0.4327551 0
vt 0.1566075 0.4334001 0
vt 0.1537129 0.4349053 0
vt 0.1499387 0.4401432 0
vt 0.1494223 0.4433687 0
vt 0.1498141 0.4466206 0
vt 0.1512103 0.4495827 0
vt 0.1533524 0.4520532 0
vt 0.1561515 0.4537162 0
vt 0.00390625 0.9936662 0
vt 0.08650004 0.00390625 0
vt 0.1710016 0.4456604 0
vt 0.1592307 0.4544715 0
vt 0.1711547 0.442499 0
vt 0.1596407 0.4772698 0
vt 0.155134 0.5129569 0
vt 0.2332027 0.4577087 0
vt 0.1607832 0.8846108 0
vt 0.5669818 0.4761267 0
vt 0.5681243 0.8834677 0
vt 0.4450521 0.4400335 0
vt 0.4450521 0.03048236 0
vt 0.4450521 0.4438099 0
vt 0.09765625 0.9906345 0
vt 0.4450521 0.02670592 0
vt 0.4450521 0.468884 0
vt 0.9702546 0.03048236 0
vt 0.9702546 0.4438099 0
vt 0.9702546 0.4400335 0
vt 0.5390625 0.9906342 0
vt 0.9702546 0.02670592 0
vt 0.9702546 0.001631806 0
#end 287 textures vertices 

#begin 140 normals 
vn -0.5773 0.5774 0.5774
vn -0.5773 0.5774 -0.5774
vn 0.5773 0.5774 0.5774
vn 0.5773 0.5774 -0.5774
vn -0.7071 -0 0.7071
vn -0.7071 0.7071 -0
vn -0.7071 -0 -0.7071
vn -0 0.7071 -0.7071
vn 0.7071 -0 -0.7071
vn 0.7071 0.7071 -0
vn 0.7071 -0 0.7071
vn -0 0.7071 0.7071
vn -1 -0 -0
vn -0 -0 1
vn -0 1 -0
vn -0 -0 -1
vn 1 -0 -0
vn -0 -0.7071 0.7071
vn -0 0.7071 0.7071
vn -0 -0.7071 -0.7071
vn -0 0.7071 -0.7071
vn -0 -1 -0
vn -0 -0 -1
vn -0 1 -0
vn -0 -0 1
vn -0.7071 -0.5025 0.4975
vn 0.7071 -0.5025 0.4975
vn -0.7071 0.5027 -0.4972
vn 0.7071 0.5027 -0.4972
vn -1 -0 -0
vn -0 0.711 -0.7032
vn 1 -0 -0
vn -0 -0.7106 0.7036
vn 0.7071 -0.5025 -0.4975
vn -0.7071 -0.5025 -0.4975
vn 0.7071 0.5027 0.4972
vn -0.7071 0.5027 0.4972
vn 1 -0 -0
vn -0 0.711 0.7032
vn -1 -0 -0
vn -0 -0.7106 -0.7036
vn -0 0.7071 0.7071
vn -0 0.7071 -0.7071
vn -0 -0 -1
vn -0 1 -0
vn -0 -0 1
vn -0 -0 -1
vn 0.3827 -0 -0.9239
vn 0.7071 -0 -0.7071
vn 0.9239 -0 -0.3827
vn 1 -0 -0
vn 0.9239 -0 0.3827
vn 0.7071 -0 0.7071
vn 0.3827 -0 0.9239
vn -0 -0 1
vn -0.3827 -0 0.9239
vn -0.7071 -0 0.7071
vn -0.9239 -0 0.3827
vn -1 -0 -0
vn -0.9239 -0 -0.3827
vn -0.7071 -0 -0.7071
vn -0.3827 -0 -0.9239
vn 0.5255 0.8225 0.2177
vn 0.4022 0.8225 0.4022
vn -0.4022 0.8225 0.4022
vn -0.5255 0.8225 0.2177
vn -0.2177 0.8225 -0.5255
vn -0 0.8225 -0.5688
vn 0.5255 0.8225 -0.2177
vn 0.5688 0.8225 -0
vn -0 0.8225 0.5688
vn -0.2177 0.8225 0.5255
vn -0.5255 0.8225 -0.2177
vn -0.4022 0.8225 -0.4022
vn 0.2177 0.8225 -0.5255
vn 0.4022 0.8225 -0.4022
vn 0.2177 0.8225 0.5255
vn -0.5688 0.8225 -0
vn -0 -1 -0
vn -0 1 -0
vn -0.8818 -0.359 -0.3059
vn -0.3059 -0.359 -0.8818
vn -0.1752 -0.9688 -0.1752
vn -0.1648 -0.9724 0.1648
vn -0.3213 -0.3363 0.8853
vn -0.8853 -0.3363 0.3213
vn 0.1648 -0.9724 0.1648
vn 0.8853 -0.3363 0.3213
vn 0.3213 -0.3363 0.8853
vn 0.1648 -0.9724 -0.1648
vn 0.3213 -0.3363 -0.8853
vn 0.8853 -0.3363 -0.3213
vn -0.4605 0.7588 -0.4605
vn -0.3373 0.2787 -0.8992
vn -0.8992 0.2787 -0.3373
vn -0.8973 0.2445 0.3674
vn -0.3674 0.2445 0.8973
vn -0.4555 0.7648 0.4555
vn 0.3674 0.2445 0.8973
vn 0.8973 0.2445 0.3674
vn 0.4555 0.7648 0.4555
vn 0.8973 0.2445 -0.3674
vn 0.3674 0.2445 -0.8973
vn 0.4555 0.7648 -0.4555
vn -0.1735 -0.9848 -0.0001
vn -0.9066 -0.422 -0
vn -0 -0.9912 0.1324
vn -0 -0.4106 0.9118
vn 0.1324 -0.9912 -0
vn 0.9118 -0.4106 -0
vn -0.0001 -0.9848 -0.1735
vn -0 -0.422 -0.9066
vn -0.9477 0.3191 -0.0001
vn -0.564 0.8258 -0.0001
vn -0 0.3047 0.9525
vn -0 0.844 0.5363
vn 0.9525 0.3047 -0
vn 0.5363 0.844 -0
vn -0.0001 0.3191 -0.9477
vn -0.0001 0.8258 -0.564
vn -0.9211 -0.0098 -0.3892
vn -0.3892 -0.0098 -0.9211
vn 0.9208 0.0109 -0.3899
vn 0.3899 0.0109 -0.9208
vn 0.9208 0.0109 0.3899
vn 0.3899 0.0109 0.9208
vn -0.9208 0.0109 0.3899
vn -0.3899 0.0109 0.9208
vn 0.2863 -0.9582 -0
vn -1 -0 -0
vn -0 -0.9582 0.2863
vn -0 -0 -1
vn -0 -0 1
vn -0 -0.9582 -0.2863
vn 1 -0 -0
vn -0.2863 -0.9582 -0
vn -0.2863 0.9582 -0
vn -0 0.9582 -0.2863
vn -0 0.9582 0.2863
vn 0.2863 0.9582 -0
#end 140 normals 

#begin 172 faces
o Cube:085
s 0
f 3/3/1 4/4/1 5/5/1 
f 8/8/2 9/9/2 10/10/2 
f 13/13/3 14/14/3 15/15/3 
f 18/18/4 19/19/4 20/20/4 
f 1/1/5 3/3/5 5/5/5 2/2/5 
f 4/276/6 8/284/6 10/283/6 5/278/6 
f 9/9/7 7/7/7 6/285/7 10/10/7 
f 8/8/8 18/18/8 20/20/8 9/9/8 
f 19/19/9 17/17/9 16/16/9 20/20/9 
f 18/282/10 13/277/10 15/280/10 19/286/10 
f 14/14/11 12/12/11 11/279/11 15/15/11 
f 13/13/12 4/4/12 3/3/12 14/14/12 
f 2/281/13 5/278/13 10/283/13 6/6/13 
f 12/12/14 14/14/14 3/3/14 1/1/14 
f 18/282/15 8/284/15 4/276/15 13/277/15 
f 7/7/16 9/9/16 20/20/16 16/16/16 
f 17/287/17 19/286/17 15/280/17 11/11/17 
o Cube:086
s 0
f 33/241/18 26/26/18 25/25/18 34/34/18 
f 27/27/19 36/36/19 35/35/19 28/28/19 
f 21/21/20 30/30/20 29/29/20 22/22/20 
f 31/31/21 24/24/21 23/23/21 32/32/21 
f 25/25/22 22/22/22 29/29/22 34/34/22 
f 30/30/23 21/21/23 24/24/23 31/31/23 
f 35/35/24 32/32/24 23/23/24 28/28/24 
f 26/242/25 33/33/25 36/36/25 27/27/25 
o Cube:087
s 0
f 49/49/26 42/42/26 41/41/26 50/50/26 
f 43/43/27 52/52/27 51/51/27 44/44/27 
f 37/37/28 46/46/28 45/245/28 38/38/28 
f 47/47/29 40/40/29 39/39/29 48/48/29 
f 41/41/30 38/247/30 45/45/30 50/50/30 
f 46/46/31 37/37/31 40/40/31 47/47/31 
f 51/51/32 48/48/32 39/39/32 44/44/32 
f 42/42/33 49/49/33 52/52/33 43/43/33 
f 65/65/27 66/66/27 57/57/27 58/58/27 
f 59/59/26 60/60/26 67/67/26 68/68/26 
f 53/53/29 54/246/29 61/61/29 62/62/29 
f 63/63/28 64/64/28 55/55/28 56/56/28 
f 57/57/32 66/66/32 61/244/32 54/54/32 
f 62/62/31 63/63/31 56/56/31 53/53/31 
f 67/67/30 60/60/30 55/55/30 64/64/30 
f 58/58/33 59/59/33 68/68/33 65/65/33 
o Cube:088
s 0
f 81/81/34 74/74/34 73/73/34 82/82/34 
f 75/75/35 84/84/35 83/83/35 76/76/35 
f 69/69/36 78/78/36 77/77/36 70/70/36 
f 79/249/37 72/72/37 71/71/37 80/80/37 
f 73/73/38 70/70/38 77/77/38 82/82/38 
f 78/78/39 69/69/39 72/250/39 79/79/39 
f 83/83/40 80/80/40 71/71/40 76/76/40 
f 74/74/41 81/81/41 84/84/41 75/75/41 
f 97/97/35 98/98/35 89/89/35 90/90/35 
f 91/91/34 92/92/34 99/99/34 100/100/34 
f 85/85/37 86/86/37 93/93/37 94/94/37 
f 95/95/36 96/96/36 87/87/36 88/251/36 
f 89/89/40 98/98/40 93/93/40 86/86/40 
f 94/94/39 95/252/39 88/88/39 85/85/39 
f 99/99/38 92/92/38 87/87/38 96/96/38 
f 90/90/41 91/91/41 100/100/41 97/97/41 
o Cube:089
s 0
f 107/107/42 112/112/42 111/111/42 108/108/42 
f 109/109/43 106/106/43 105/105/43 110/110/43 
f 103/103/44 101/101/44 106/106/44 109/109/44 
f 111/111/45 110/110/45 105/105/45 108/108/45 
f 102/102/46 104/104/46 112/112/46 107/107/46 
o Cylinder:010
s 1
f 113/113/47 114/114/47 116/116/48 115/115/48 
f 115/115/48 116/116/48 118/118/49 117/117/49 
f 117/117/49 118/118/49 120/120/50 119/119/50 
f 119/119/50 120/120/50 122/122/51 121/121/51 
f 121/121/51 122/122/51 124/124/52 123/123/52 
f 123/123/52 124/124/52 126/126/53 125/125/53 
f 125/125/53 126/126/53 128/128/54 127/127/54 
f 127/127/54 128/128/54 130/130/55 129/129/55 
f 129/129/55 130/130/55 132/132/56 131/131/56 
f 131/131/56 132/132/56 134/134/57 133/133/57 
f 133/133/57 134/134/57 136/136/58 135/135/58 
f 135/135/58 136/136/58 138/138/59 137/137/59 
f 137/137/59 138/138/59 140/265/60 139/139/60 
f 139/266/60 140/140/60 142/142/61 141/141/61 
f 141/141/61 142/142/61 144/144/62 143/143/62 
f 143/143/62 144/144/62 114/114/47 113/113/47 
f 123/258/63 125/243/64 151/151/64 150/150/63 
f 133/262/65 135/263/66 156/156/66 155/155/65 
f 143/248/67 113/254/68 145/145/68 160/160/67 
f 119/256/69 121/257/70 149/149/70 148/148/69 
f 129/260/71 131/261/72 154/154/72 153/153/71 
f 139/267/73 141/269/74 159/159/74 158/158/73 
f 115/253/75 117/255/76 147/147/76 146/146/75 
f 125/243/64 127/259/77 152/152/77 151/151/64 
f 135/263/66 137/264/78 157/157/78 156/156/66 
f 121/257/70 123/258/63 150/150/63 149/149/70 
f 131/261/72 133/262/65 155/155/65 154/154/72 
f 141/269/74 143/248/67 160/160/67 159/159/74 
f 117/255/76 119/256/69 148/148/69 147/147/76 
f 127/259/77 129/260/71 153/153/71 152/152/77 
f 113/254/68 115/253/75 146/146/75 145/145/68 
f 137/264/78 139/268/73 158/271/73 157/157/78 
f 157/157/59 158/271/60 174/174/60 173/173/59 
f 150/150/52 151/151/53 167/167/53 166/166/52 
f 158/158/60 159/159/61 175/175/61 174/272/60 
f 151/151/53 152/152/54 168/168/54 167/167/53 
f 159/159/61 160/160/62 176/176/62 175/175/61 
f 152/152/54 153/153/55 169/169/55 168/168/54 
f 145/145/47 146/146/48 162/162/48 161/161/47 
f 160/160/62 145/145/47 161/161/47 176/176/62 
f 153/153/55 154/154/56 170/170/56 169/169/55 
f 146/146/48 147/147/49 163/163/49 162/162/48 
f 154/154/56 155/155/57 171/171/57 170/170/56 
f 147/147/49 148/148/50 164/164/50 163/163/49 
f 155/155/57 156/156/58 172/172/58 171/171/57 
f 148/148/50 149/149/51 165/165/51 164/164/50 
f 156/156/58 157/157/59 173/173/59 172/172/58 
f 149/149/51 150/150/52 166/166/52 165/165/51 
o Plane:007
s 0
f 177/177/79 179/179/79 180/180/79 178/178/79 
f 182/182/80 183/183/80 184/184/80 181/181/80 
f 185/185/81 188/188/81 189/189/81 191/191/81 
f 186/186/82 190/190/82 189/189/82 188/188/82 
f 187/187/83 191/191/83 189/189/83 190/190/83 
f 192/192/84 195/195/84 196/196/84 198/198/84 
f 193/193/85 197/197/85 196/196/85 195/195/85 
f 194/194/86 198/198/86 196/196/86 197/197/86 
f 199/199/87 202/202/87 203/203/87 205/205/87 
f 200/200/88 204/204/88 203/203/88 202/202/88 
f 201/201/89 205/205/89 203/203/89 204/204/89 
f 206/206/90 209/209/90 210/210/90 212/212/90 
f 207/207/91 211/211/91 210/210/91 209/209/91 
f 208/208/92 212/212/92 210/210/92 211/211/92 
f 213/213/93 216/216/93 217/217/93 219/219/93 
f 214/214/94 218/218/94 217/217/94 216/216/94 
f 215/215/95 219/219/95 217/217/95 218/218/95 
f 220/220/96 223/223/96 224/224/96 226/226/96 
f 221/221/97 225/225/97 224/224/97 223/223/97 
f 222/222/98 226/226/98 224/224/98 225/225/98 
f 227/227/99 230/230/99 231/231/99 233/233/99 
f 228/228/100 232/232/100 231/231/100 230/230/100 
f 229/229/101 233/233/101 231/231/101 232/232/101 
f 234/234/102 237/237/102 238/238/102 240/240/102 
f 235/235/103 239/239/103 238/238/103 237/237/103 
f 236/236/104 240/240/104 238/238/104 239/239/104 
f 187/187/105 192/192/105 198/198/105 191/191/105 
f 191/191/106 198/198/106 194/194/106 185/185/106 
f 192/192/107 199/199/107 205/205/107 195/195/107 
f 195/195/108 205/205/108 201/201/108 193/193/108 
f 199/199/109 206/206/109 212/212/109 202/202/109 
f 202/202/110 212/212/110 208/208/110 200/200/110 
f 206/206/111 187/187/111 190/190/111 209/209/111 
f 209/209/112 190/190/112 186/186/112 207/207/112 
f 215/215/113 220/220/113 226/226/113 219/219/113 
f 219/219/114 226/226/114 222/222/114 213/213/114 
f 221/221/115 227/227/115 233/233/115 225/225/115 
f 225/225/116 233/233/116 229/229/116 222/222/116 
f 228/228/117 234/234/117 240/240/117 232/232/117 
f 232/232/118 240/240/118 236/236/118 229/229/118 
f 235/235/119 214/214/119 216/216/119 239/239/119 
f 239/239/120 216/216/120 213/213/120 236/236/120 
f 185/185/121 215/215/121 218/218/121 188/188/121 
f 188/188/122 218/218/122 214/214/122 186/186/122 
f 234/234/123 208/208/123 211/211/123 237/237/123 
f 237/237/124 211/211/124 207/207/124 235/235/124 
f 200/200/125 228/228/125 230/230/125 204/204/125 
f 204/204/126 230/230/126 227/227/126 201/201/126 
f 220/220/127 194/194/127 197/197/127 223/223/127 
f 223/223/128 197/197/128 193/193/128 221/221/128 
f 179/179/129 177/177/129 192/192/129 187/187/129 
f 185/185/130 194/194/130 220/220/130 215/215/130 
f 180/180/131 179/179/131 187/187/131 206/206/131 
f 207/207/132 186/186/132 214/214/132 235/235/132 
f 193/193/133 201/201/133 227/227/133 221/221/133 
f 177/177/134 178/178/134 199/199/134 192/192/134 
f 200/200/135 208/208/135 234/234/135 228/228/135 
f 178/178/136 180/180/136 206/206/136 199/199/136 
f 182/182/137 181/181/137 213/273/137 222/270/137 
f 181/181/138 184/184/138 236/275/138 213/273/138 
f 183/183/139 182/182/139 222/270/139 229/274/139 
f 184/184/140 183/183/140 229/274/140 236/275/140 
#end 172 faces

#ZOMPROPERTIES_04{
#ZOMPROPERTIES_04 table {Mesh table {SymPlane table {Point vector3d 0 0 0 Normal vector3d 1 0 0 Threshold double 0.01 
#ZOMPROPERTIES_04 Enabled bool false EdgeID int -1 SymEdgeID int -1 UPos double 0.5 LocalMode bool false } RootGroup C
#ZOMPROPERTIES_04 SubMeshGroup {Children table {Tile_0_0 CSubMeshGroup {Children table {} BBoxUV box3d 0 0 0 0 0 0 BBo
#ZOMPROPERTIES_04 x3D box3d 0 0 0 0 0 0 Area3D double 0 AreaUV double 0.85575 IsRoot bool false Properties table {Sele
#ZOMPROPERTIES_04 cted bool false Box box3d 0 1 0 1 0 1 U int 0 V int 0 NU int 0 NV int 0 Tiling vector3d 1 1 1 TileRa
#ZOMPROPERTIES_04 tioMode string "1:1" Overflow string "Off" Pack table {BoxFrameEdit bool false Behavior string "Free
#ZOMPROPERTIES_04 " } } IsTile bool true PolyIDs ints { 78 87 109 95 107 81 90 84 92 80 89 98 101 96 83 100 103 105 97
#ZOMPROPERTIES_04  99 102 104 106 108 94 93 86 79 88 82 91 85 1 6 15 8 3 7 0 11 2 10 13 4 17 21 19 22 20 23 18 24 57 6
#ZOMPROPERTIES_04 1 60 58 59 41 45 43 46 48 42 47 44 49 53 51 54 56 50 55 52 33 40 34 39 36 38 35 37 25 32 26 31 28 30
#ZOMPROPERTIES_04  27 29 62 63 64 65 66 67 68 69 70 71 72 73 74 77 76 75 111 169 168 171 170 110 167 140 141 119 120 1
#ZOMPROPERTIES_04 57 164 139 138 165 160 136 114 142 143 122 123 154 166 148 149 132 130 146 128 129 147 127 144 161 1
#ZOMPROPERTIES_04 58 159 116 117 137 152 126 124 145 151 150 163 155 134 135 125 153 112 133 131 156 121 113 162 115 1
#ZOMPROPERTIES_04 18 5 12 14 9 16 } } } BBoxUV box3d 0 0 0 0 0 0 BBox3D box3d 0 0 0 0 0 0 Area3D double 0 AreaUV doubl
#ZOMPROPERTIES_04 e 0 IsRoot bool true Properties table {Selected bool false Box box3d 0 1 0 1 0 1 U int 0 V int 0 NU 
#ZOMPROPERTIES_04 int 1 NV int 1 Tiling vector3d 1 1 1 TileRatioMode string "1:1" Overflow string "Off" Pack table {Ro
#ZOMPROPERTIES_04 tate table {Mode int 0 Min double 0 Max double 90 Step double 0 } PaddingSize double 0.0078125 Margi
#ZOMPROPERTIES_04 nSize double 0.00390625 Resolution int 256 MapResolution int 2048 Scaling table {TexelDensity double
#ZOMPROPERTIES_04  1024 Mode int 2 } LayoutScalingMode int 2 MaxMutations int 1 BoxFrameEdit bool false Behavior strin
#ZOMPROPERTIES_04 g "Free" } } IsTile bool false PolyIDs ints { } } Maps table {Density table {PrimType string "Polygo
#ZOMPROPERTIES_04 n" Size int 1 DefaultValue double 1 ScaleType string "Log" MergeMode string "Average" MinValue doubl
#ZOMPROPERTIES_04 e 0.1 MaxValue double 4 Data doubles { r 172 1 } } Pin table {PrimType string "Vertex" Size int 1 De
#ZOMPROPERTIES_04 faultValue double 0 ScaleType string "Normalized" MergeMode string "Max" MinValue double 0 MaxValue 
#ZOMPROPERTIES_04 double 1 Data doubles { r 287 0 } } Protect table {PrimType string "Vertex" Size int 1 DefaultValue 
#ZOMPROPERTIES_04 double 0 ScaleType string "Normalized" MergeMode string "Average" MinValue double -1 MaxValue double
#ZOMPROPERTIES_04  1 Data doubles { r 287 0 } } } } }
#ZOMPROPERTIES_04}


#ZOMSCENE_01{
#ZOMSCENE_01 CScene {Settings table {AxisSystem table {UpVector string "y" } Unit string "cm" TexelDensityDisplay
#ZOMSCENE_01 Unit string "tx/cm" } }
#ZOMSCENE_01}

#begin 0 fatal error vertex (that RizomUV cannot handle)
#end 0 fatal error vertex (that RizomUV cannot handle)

#begin 0 error vertex
#end 0 error vertex
