#File written by RizomUV 2022.1.57.gfabcfb8. Compilation :Sep 28 2022,23:52:22
mtllib 15 low.mtl
#begin vertices
v -89.40263 -0.090405 -70.03897
v -89.40263 19.41994 -70.03897
v -52.6163 -0.090405 -81.84555
v -52.6163 19.41994 -81.84555
v -66.09077 19.41994 -69.67703
v -57.51179 19.41994 -69.67703
v -89.40263 5.912727 -70.03897
v -52.6163 5.912727 -81.84555
v -52.6163 3.88906 -81.84555
v -89.40263 3.88906 -70.03897
v -63.61474 -0.090405 -78.45383
v -68.52069 -0.090405 -81.47006
v -59.68127 -0.090405 -81.47006
v -59.68127 19.41994 -69.67703
v -63.61473 19.41994 -69.67703
v -53.4734 3.88906 -78.45383
v -74.92303 3.88906 -78.45383
v -53.4734 -0.090405 -81.47006
v -79.82898 -0.090405 -81.47006
v -69.21125 -0.090405 -70.03897
v -69.21125 19.41994 -70.03897
v -69.21125 5.912727 -70.03897
v -69.21125 3.88906 -70.03897
v -54.97504 -0.090405 -70.03897
v -54.97504 19.41994 -70.03897
v -54.97504 5.912727 -70.03897
v -54.97504 3.88906 -70.03897
v -68.17548 19.41994 -69.67703
v -68.17548 -0.090405 -69.67703
v -68.17548 5.912727 -69.67703
v -68.17548 3.88906 -69.67703
v -55.71895 -0.090405 -69.67703
v -55.71895 5.912727 -69.67703
v -55.71895 3.88906 -69.67703
v -55.71895 19.41994 -69.67703
v -89.40263 12.66633 -70.03897
v -57.51179 12.66633 -69.67703
v -52.6163 12.66633 -81.84555
v -66.09077 12.66633 -69.67703
v -59.68127 12.66633 -69.67703
v -63.61473 12.66633 -69.67703
v -69.21125 12.66633 -70.03897
v -54.97504 12.66633 -70.03897
v -68.17548 12.66633 -69.67703
v -55.71895 12.66633 -69.67703
v -63.61474 -0.090405 -72.98244
v -52.6163 -0.090405 -70.05497
v -52.63229 -0.090405 -70.03897
v -52.63229 19.41994 -70.03897
v -52.6163 19.41994 -70.05497
v -57.4958 -0.090405 -69.67703
v -57.51179 -0.090405 -69.69303
v -66.09077 -0.090405 -69.69303
v -66.10677 -0.090405 -69.67703
v -52.63229 5.912727 -70.03897
v -52.6163 5.912727 -70.05497
v -66.07477 5.912727 -69.69303
v -66.10677 5.928727 -69.67703
v -66.09077 5.896727 -69.69303
v -57.51179 5.896727 -69.69303
v -57.4958 5.928727 -69.67703
v -57.5278 5.912727 -69.69303
v -57.51179 -0.090405 -71.46314
v -57.5278 -0.090405 -71.47914
v -66.07477 -0.090405 -71.47914
v -66.09077 -0.090405 -71.46314
v -66.07477 5.912727 -71.46314
v -66.09077 5.896727 -71.46314
v -66.07477 5.896727 -71.47914
v -57.5278 5.896727 -71.47914
v -57.51179 5.896727 -71.46314
v -57.5278 5.912727 -71.46314
v -52.6163 3.88906 -70.05497
v -52.63229 3.88906 -70.03897
v -66.09077 3.88906 -69.69303
v -66.10677 3.88906 -69.67703
v -57.51179 3.88906 -69.69303
v -57.4958 3.88906 -69.67703
v -66.07477 3.88906 -71.47914
v -66.09077 3.88906 -71.46314
v -57.5278 3.88906 -71.47914
v -57.51179 3.88906 -71.46314
v -63.59873 3.88906 -78.45383
v -63.61473 3.87306 -78.45383
v -63.63073 3.88906 -78.45383
v -63.62837 3.88906 -78.46221
v -59.68127 -0.090405 -78.43783
v -59.68127 -0.074406 -78.45383
v -59.68127 3.87306 -78.45383
v -59.68127 3.88906 -78.43783
v -59.69727 3.88906 -78.45383
v -59.68127 3.88906 -78.46983
v -59.66527 3.88906 -78.45383
v -68.49467 3.88906 -81.45406
v -68.52069 3.87306 -81.47006
v -59.68127 3.87306 -81.47006
v -59.68127 3.88906 -81.45406
v -59.68127 5.912727 -69.69303
v -59.68127 5.928727 -69.67703
v -63.61473 5.928727 -69.67703
v -63.61473 5.912727 -69.69303
v -59.66527 -0.090405 -71.47914
v -59.68127 -0.090405 -71.49514
v -63.61474 -0.090405 -71.49514
v -63.63073 -0.090405 -71.47914
v -59.68127 5.896727 -71.47914
v -59.68127 5.912727 -71.46314
v -63.61473 5.912727 -71.46314
v -63.61473 5.896727 -71.47914
v -63.59873 3.88906 -71.49514
v -63.63073 3.905059 -71.47914
v -63.61473 3.87306 -71.49514
v -59.68127 3.87306 -71.49514
v -59.66527 3.90506 -71.47914
v -59.69727 3.88906 -71.49514
v -53.4734 3.88906 -81.45406
v -53.4734 3.87306 -81.47006
v -79.82898 3.87306 -81.47006
v -79.80296 3.88906 -81.45406
v -52.6163 12.66633 -70.05497
v -52.63229 12.66633 -70.03897
v -59.68127 3.87306 -72.96644
v -59.69727 3.88906 -72.99844
v -59.66527 3.87306 -72.98244
v -59.66527 -0.074406 -72.98244
v -59.68127 -0.090405 -72.98244
v -63.61473 3.87306 -72.98244
v -63.59873 3.88906 -72.98244
v -59.65296 3.87306 -78.45383
v -59.63696 3.87306 -78.43783
v -59.65296 3.88906 -78.43783
v -59.65296 -0.074406 -78.45383
v -59.65296 -0.090405 -78.43783
v -59.63696 -0.074406 -78.43783
v -59.65296 -0.090405 -72.99844
v -59.65296 -0.074406 -72.98244
v -59.63696 -0.074406 -72.99844
v -59.65296 3.88906 -72.99844
v -59.63696 3.87306 -72.99844
v -59.65296 3.87306 -72.98244
v -59.83802 3.06583 -72.41797
v -59.83802 5.06583 -72.41797
v -59.83802 3.06583 -78.66504
v -59.83802 5.06583 -78.66504
v -57.83802 3.06583 -72.41797
v -57.83802 5.06583 -72.41797
v -57.83802 3.06583 -78.66504
v -59.73878 1.330817 -72.41797
v -59.73878 -0.090276 -72.41797
v -59.73878 1.330817 -78.66504
v -59.73878 -0.090276 -78.66504
v -57.73878 1.330817 -72.41797
v -57.73878 -0.090276 -72.41797
v -57.73878 1.330817 -78.66504
v -63.53021 5.06583 -78.66504
v -63.62312 5.06583 -72.41797
v -63.53021 5.06583 -72.51522
v -63.56428 5.06583 -72.41797
v -63.53421 3.06583 -72.42197
v -63.53021 3.06983 -72.42197
v -63.53421 3.06983 -72.41797
v -63.53421 5.06583 -72.41797
v -63.53021 5.06583 -72.42197
v -63.53021 3.06983 -78.66504
v -63.53421 3.06583 -78.66504
v -63.62312 3.06583 -72.42197
v -63.62312 3.06983 -72.41797
v -63.61912 3.06583 -78.66504
v -63.62312 3.06583 -78.66104
v -63.53421 3.06583 -72.51522
v -63.53021 3.06983 -72.51522
v -63.61912 3.06183 -72.51522
v -63.62312 3.06583 -72.51522
v -63.56428 3.06183 -78.66104
v -63.56428 3.06583 -78.66504
v -63.56428 3.06583 -72.42197
v -63.56428 3.06983 -72.41797
v -63.56828 3.06183 -72.51522
v -63.56428 3.06183 -72.51923
v -63.56028 3.06583 -72.51122
v -63.62312 2.977338 -72.51923
v -63.61912 2.973338 -72.51923
v -63.61912 2.977338 -72.51522
v -63.62312 2.977338 -78.66104
v -63.61912 2.977338 -78.66504
v -63.61912 2.973338 -78.66104
v -63.56828 2.977338 -78.66504
v -63.56428 2.977338 -78.66104
v -63.56828 2.973338 -78.66104
v -63.56828 2.977338 -72.51522
v -63.56828 2.973338 -72.51923
v -63.56428 2.977338 -72.51923
v -63.51757 -0.090276 -78.66504
v -63.75593 -0.090276 -72.41797
v -63.8288 1.330817 -78.66504
v -63.74008 1.209835 -76.28493
v -63.72496 -0.096078 -76.28493
v -63.72496 1.209835 -76.28493
v -63.51757 -0.090276 -74.79808
v -63.75593 1.330817 -74.79808
v -63.51757 1.321817 -72.42697
v -63.52657 1.330817 -72.42697
v -63.52657 1.321817 -72.41797
v -63.51757 -0.090276 -72.42697
v -63.52657 -0.090276 -72.41797
v -63.52657 1.330817 -78.66504
v -63.51757 1.321817 -78.66504
v -63.75593 1.321817 -72.41797
v -63.75593 1.330817 -72.42697
v -63.52657 1.330817 -74.79808
v -63.51757 1.321817 -74.79808
v -63.52657 1.330817 -76.29393
v -63.5282 1.324614 -76.28493
v -63.51757 1.321817 -76.29393
v -63.51757 -0.090276 -76.29393
v -63.52814 -0.090572 -76.28493
v -63.82417 1.324507 -76.28493
v -63.8288 1.330817 -76.29393
v -63.62961 -0.112694 -74.80546
v -63.62961 -0.112694 -76.27755
v -63.6264 -0.112694 -74.86951
v -63.6264 -0.112694 -76.21349
v -63.62961 2.794551 -74.80546
v -63.62961 2.798552 -74.80946
v -63.62961 2.798552 -76.27354
v -63.62961 2.794551 -76.27755
v -63.56459 -0.112694 -74.86951
v -63.56059 -0.112694 -74.86552
v -63.56459 2.734496 -74.87352
v -63.56059 2.738495 -74.86552
v -63.56459 2.730495 -74.86951
v -63.56059 -0.112694 -76.21749
v -63.56459 -0.112694 -76.21349
v -63.56459 2.730495 -76.21349
v -63.56059 2.738495 -76.21749
v -63.56459 2.734496 -76.20949
v -63.56459 2.798552 -76.27354
v -63.56059 2.794551 -76.27354
v -63.56459 2.794551 -76.27755
v -63.56459 -0.112694 -76.27755
v -63.56059 -0.112694 -76.27354
v -63.56059 -0.112694 -74.80946
v -63.56459 -0.112694 -74.80546
v -63.56459 2.798552 -74.80946
v -63.56459 2.794551 -74.80546
v -63.56059 2.794551 -74.80946
v -63.6264 2.734496 -74.87352
v -63.6264 2.730495 -74.86951
v -63.6264 2.730495 -76.21349
v -63.6264 2.734496 -76.20949
v -63.64945 1.294216 -72.53899
v -63.64945 3.001359 -72.53899
v -63.64945 1.294216 -73.06245
v -63.64945 3.001359 -73.06245
v -63.58042 1.294216 -72.54198
v -63.58342 1.294216 -72.53899
v -63.58342 3.001359 -72.53899
v -63.58042 3.001359 -72.54198
v -63.58342 1.294216 -73.06245
v -63.58042 1.294216 -73.05946
v -63.58042 3.001359 -73.05946
v -63.58342 3.001359 -73.06245
v -59.64526 1.294426 -72.53899
v -59.64526 3.095477 -72.53899
v -59.64526 1.294426 -73.06245
v -59.64526 3.095477 -73.06245
v -59.71128 1.294426 -72.53899
v -59.71428 1.294426 -72.54198
v -59.71428 3.095477 -72.54198
v -59.71128 3.095477 -72.53899
v -59.71428 1.294426 -73.05946
v -59.71128 1.294426 -73.06245
v -59.71128 3.095477 -73.06245
v -59.71428 3.095477 -73.05946
v -63.5951 1.382454 -76.09602
v -63.5951 1.36527 -76.1132
v -63.5951 1.342818 -76.12251
v -63.5951 1.330667 -76.1237
v -63.5951 1.318517 -76.12251
v -63.5951 1.296065 -76.1132
v -63.5937 1.391753 -76.07333
v -63.59237 1.388209 -76.08479
v -63.59113 1.382454 -76.09535
v -63.59005 1.374708 -76.10461
v -63.58917 1.36527 -76.11221
v -63.5885 1.354502 -76.11785
v -63.5881 1.342818 -76.12133
v -63.58796 1.330667 -76.12251
v -63.5881 1.318517 -76.12133
v -63.5885 1.306833 -76.11785
v -63.58917 1.296065 -76.11221
v -63.59005 1.286627 -76.10461
v -63.59113 1.278881 -76.09535
v -63.59237 1.273126 -76.08479
v -63.5937 1.269581 -76.07333
v -63.59237 1.391753 -76.07264
v -63.58974 1.388209 -76.08343
v -63.58732 1.382454 -76.09338
v -63.5852 1.374708 -76.1021
v -63.58346 1.36527 -76.10926
v -63.58217 1.354502 -76.11458
v -63.58137 1.342818 -76.11785
v -63.5811 1.330667 -76.11896
v -63.58137 1.318517 -76.11785
v -63.58217 1.306833 -76.11458
v -63.58346 1.296065 -76.10926
v -63.5852 1.286627 -76.1021
v -63.58732 1.278881 -76.09338
v -63.58974 1.273126 -76.08343
v -63.59237 1.269581 -76.07264
v -63.59113 1.391753 -76.07152
v -63.58732 1.388209 -76.08124
v -63.58381 1.382454 -76.09019
v -63.58073 1.374708 -76.09804
v -63.5782 1.36527 -76.10448
v -63.57633 1.354502 -76.10926
v -63.57517 1.342818 -76.11221
v -63.57478 1.330667 -76.1132
v -63.57517 1.318517 -76.11221
v -63.57633 1.306833 -76.10926
v -63.5782 1.296065 -76.10448
v -63.58073 1.286627 -76.09804
v -63.58381 1.278881 -76.09019
v -63.58732 1.273126 -76.08124
v -63.59113 1.269581 -76.07152
v -63.59005 1.391753 -76.07001
v -63.5852 1.388209 -76.07827
v -63.58073 1.382454 -76.08588
v -63.57681 1.374708 -76.09256
v -63.5736 1.36527 -76.09804
v -63.57121 1.354502 -76.1021
v -63.56974 1.342818 -76.10461
v -63.56924 1.330667 -76.10545
v -63.56974 1.318517 -76.10461
v -63.57121 1.306833 -76.1021
v -63.5736 1.296065 -76.09804
v -63.57681 1.286627 -76.09256
v -63.58073 1.278881 -76.08588
v -63.5852 1.273126 -76.07827
v -63.59005 1.269581 -76.07001
v -63.58917 1.391753 -76.06817
v -63.58346 1.388209 -76.07466
v -63.5782 1.382454 -76.08064
v -63.5736 1.374708 -76.08588
v -63.56982 1.36527 -76.09019
v -63.56701 1.354502 -76.09338
v -63.56528 1.342818 -76.09535
v -63.56469 1.330667 -76.09602
v -63.56528 1.318517 -76.09535
v -63.56701 1.306833 -76.09338
v -63.56982 1.296065 -76.09019
v -63.5736 1.286627 -76.08588
v -63.5782 1.278881 -76.08064
v -63.58346 1.273126 -76.07466
v -63.58917 1.269581 -76.06817
v -63.5951 1.39295 -76.06142
v -63.5885 1.391753 -76.06606
v -63.58217 1.388209 -76.07054
v -63.57633 1.382454 -76.07466
v -63.57121 1.374708 -76.07827
v -63.56701 1.36527 -76.08124
v -63.56388 1.354502 -76.08343
v -63.56196 1.342818 -76.08479
v -63.56131 1.330667 -76.08525
v -63.56196 1.318517 -76.08479
v -63.56388 1.306833 -76.08343
v -63.56701 1.296065 -76.08124
v -63.57121 1.286627 -76.07827
v -63.57633 1.278881 -76.07466
v -63.58217 1.273126 -76.07054
v -63.5885 1.269581 -76.06606
v -63.5881 1.391753 -76.06379
v -63.58137 1.388209 -76.06606
v -63.57517 1.382454 -76.06817
v -63.56974 1.374708 -76.07001
v -63.56528 1.36527 -76.07152
v -63.56196 1.354502 -76.07264
v -63.55992 1.342818 -76.07333
v -63.55923 1.330667 -76.07357
v -63.55992 1.318517 -76.07333
v -63.56196 1.306833 -76.07264
v -63.56528 1.296065 -76.07152
v -63.56974 1.286627 -76.07001
v -63.57517 1.278881 -76.06817
v -63.58137 1.273126 -76.06606
v -63.5881 1.269581 -76.06379
v -63.58796 1.391753 -76.06142
v -63.5811 1.388209 -76.06142
v -63.57478 1.382454 -76.06142
v -63.56924 1.374708 -76.06142
v -63.56469 1.36527 -76.06142
v -63.56131 1.354502 -76.06142
v -63.55923 1.342818 -76.06142
v -63.55853 1.330667 -76.06142
v -63.55923 1.318517 -76.06142
v -63.56131 1.306833 -76.06142
v -63.56469 1.296065 -76.06142
v -63.56924 1.286627 -76.06142
v -63.57478 1.278881 -76.06142
v -63.5811 1.273126 -76.06142
v -63.58796 1.269581 -76.06142
v -63.5881 1.391753 -76.05904
v -63.58137 1.388209 -76.05677
v -63.57517 1.382454 -76.05466
v -63.56974 1.374708 -76.05283
v -63.56528 1.36527 -76.05132
v -63.56196 1.354502 -76.05019
v -63.55992 1.342818 -76.0495
v -63.55923 1.330667 -76.04926
v -63.55992 1.318517 -76.0495
v -63.56196 1.306833 -76.05019
v -63.56528 1.296065 -76.05132
v -63.56974 1.286627 -76.05283
v -63.57517 1.278881 -76.05466
v -63.58137 1.273126 -76.05677
v -63.5881 1.269581 -76.05904
v -63.5885 1.391753 -76.05677
v -63.58217 1.388209 -76.05229
v -63.57633 1.382454 -76.04817
v -63.57121 1.374708 -76.04456
v -63.56701 1.36527 -76.0416
v -63.56388 1.354502 -76.0394
v -63.56196 1.342818 -76.03804
v -63.56131 1.330667 -76.03758
v -63.56196 1.318517 -76.03804
v -63.56388 1.306833 -76.0394
v -63.56701 1.296065 -76.0416
v -63.57121 1.286627 -76.04456
v -63.57633 1.278881 -76.04817
v -63.58217 1.273126 -76.05229
v -63.5885 1.269581 -76.05677
v -63.58917 1.391753 -76.05466
v -63.58346 1.388209 -76.04817
v -63.5782 1.382454 -76.04219
v -63.5736 1.374708 -76.03695
v -63.56982 1.36527 -76.03265
v -63.56701 1.354502 -76.02945
v -63.56528 1.342818 -76.02748
v -63.56469 1.330667 -76.02682
v -63.56528 1.318517 -76.02748
v -63.56701 1.306833 -76.02945
v -63.56982 1.296065 -76.03265
v -63.5736 1.286627 -76.03695
v -63.5782 1.278881 -76.04219
v -63.58346 1.273126 -76.04817
v -63.58917 1.269581 -76.05466
v -63.59005 1.391753 -76.05283
v -63.5852 1.388209 -76.04456
v -63.58073 1.382454 -76.03695
v -63.57681 1.374708 -76.03027
v -63.5736 1.36527 -76.0248
v -63.57121 1.354502 -76.02073
v -63.56974 1.342818 -76.01822
v -63.56924 1.330667 -76.01738
v -63.56974 1.318517 -76.01822
v -63.57121 1.306833 -76.02073
v -63.5736 1.296065 -76.0248
v -63.57681 1.286627 -76.03027
v -63.58073 1.278881 -76.03695
v -63.5852 1.273126 -76.04456
v -63.59005 1.269581 -76.05283
v -63.59113 1.391753 -76.05132
v -63.58732 1.388209 -76.0416
v -63.58381 1.382454 -76.03265
v -63.58073 1.374708 -76.0248
v -63.5782 1.36527 -76.01836
v -63.57633 1.354502 -76.01357
v -63.57517 1.342818 -76.01063
v -63.57478 1.330667 -76.00963
v -63.57517 1.318517 -76.01063
v -63.57633 1.306833 -76.01357
v -63.5782 1.296065 -76.01836
v -63.58073 1.286627 -76.0248
v -63.58381 1.278881 -76.03265
v -63.58732 1.273126 -76.0416
v -63.59113 1.269581 -76.05132
v -63.59237 1.391753 -76.05019
v -63.58974 1.388209 -76.0394
v -63.58732 1.382454 -76.02945
v -63.5852 1.374708 -76.02073
v -63.58346 1.36527 -76.01357
v -63.58217 1.354502 -76.00826
v -63.58137 1.342818 -76.00498
v -63.5811 1.330667 -76.00388
v -63.58137 1.318517 -76.00498
v -63.58217 1.306833 -76.00826
v -63.58346 1.296065 -76.01357
v -63.5852 1.286627 -76.02073
v -63.58732 1.278881 -76.02945
v -63.58974 1.273126 -76.0394
v -63.59237 1.269581 -76.05019
v -63.5937 1.391753 -76.0495
v -63.59237 1.388209 -76.03804
v -63.59113 1.382454 -76.02748
v -63.59005 1.374708 -76.01822
v -63.58917 1.36527 -76.01063
v -63.5885 1.354502 -76.00498
v -63.5881 1.342818 -76.0015
v -63.58796 1.330667 -76.00033
v -63.5881 1.318517 -76.0015
v -63.5885 1.306833 -76.00498
v -63.58917 1.296065 -76.01063
v -63.59005 1.286627 -76.01822
v -63.59113 1.278881 -76.02748
v -63.59237 1.273126 -76.03804
v -63.5937 1.269581 -76.0495
v -63.5951 1.391753 -76.04926
v -63.5951 1.388209 -76.03758
v -63.5951 1.382454 -76.02682
v -63.5951 1.374708 -76.01738
v -63.5951 1.36527 -76.00963
v -63.5951 1.354502 -76.00388
v -63.5951 1.342818 -76.00033
v -63.5951 1.330667 -75.99913
v -63.5951 1.318517 -76.00033
v -63.5951 1.306833 -76.00388
v -63.5951 1.296065 -76.00963
v -63.5951 1.286627 -76.01738
v -63.5951 1.278881 -76.02682
v -63.5951 1.273126 -76.03758
v -63.5951 1.269581 -76.04926
v -63.5951 1.268385 -76.06142
v -63.5951 1.391753 -76.07357
v -63.5951 1.388209 -76.08525
v -63.5951 1.374708 -76.10545
v -63.5951 1.354502 -76.11896
v -63.5951 1.306833 -76.11896
v -63.5951 1.286627 -76.10545
v -63.5951 1.278881 -76.09602
v -63.5951 1.273126 -76.08525
v -63.5951 1.269581 -76.07357
#end vertices

#begin 549 textures vertices 
vt 0.2585632 0.00390625 0
vt 0.00390625 0.3005141 0
vt 0.9960937 0.6688995 0
vt 0.7258901 0.95057 0
vt 0.3575808 0.6056774 0
vt 0.4831946 0.7200941 0
vt 0.1807493 0.09550803 0
vt 0.912316 0.7552446 0
vt 0.9404626 0.7261685 0
vt 0.2069659 0.06467518 0
vt 0.1545384 0.7011656 0
vt 0.2444915 0.5627127 0
vt 0.3890273 0.6788133 0
vt 0.451635 0.6908588 0
vt 0.3940057 0.6383928 0
vt 0.4174564 0.8763301 0
vt 0.04146622 0.5852604 0
vt 0.4990696 0.7527083 0
vt 0.06094439 0.4023483 0
vt 0.5665846 0.266876 0
vt 0.3105581 0.5639468 0
vt 0.4894974 0.3597698 0
vt 0.5155617 0.3285581 0
vt 0.7921201 0.4714769 0
vt 0.5211466 0.7556049 0
vt 0.7067189 0.5570362 0
vt 0.7355511 0.5281486 0
vt 0.3267842 0.5783094 0
vt 0.5834375 0.2806877 0
vt 0.5066168 0.3742769 0
vt 0.5325468 0.3426886 0
vt 0.7804449 0.4597995 0
vt 0.6946036 0.5453271 0
vt 0.7237342 0.5164359 0
vt 0.5091787 0.7443698 0
vt 0.09254581 0.1979473 0
vt 0.5753532 0.6202909 0
vt 0.8189506 0.8525205 0
vt 0.448103 0.5042877 0
vt 0.5432835 0.5907768 0
vt 0.4848911 0.5374416 0
vt 0.4002496 0.4621194 0
vt 0.6136125 0.6561201 0
vt 0.4167958 0.476624 0
vt 0.6015494 0.644741 0
vt 0.089252 0.8005289 0
vt 0.8257513 0.5045529 0
vt 0.8254306 0.5042368 0
vt 0.5550043 0.7875106 0
vt 0.5553308 0.7878195 0
vt 0.755405 0.434531 0
vt 0.7550862 0.4342072 0
vt 0.6514566 0.00390625 0
vt 0.6156288 0.3066428 0
vt 0.7409338 0.5901295 0
vt 0.7412658 0.5904465 0
vt 0.546875 0.1689952 0
vt 0.538728 0.4018179 0
vt 0.5471423 0.1683144 0
vt 0.820415 0.4200806 0
vt 0.668514 0.5200375 0
vt 0.7547495 0.4150065 0
vt 0.941212 0.2592771 0
vt 0.9407559 0.2586977 0
vt 0.7003814 0.03587188 0
vt 0.6997618 0.03546899 0
vt 0.5942363 0.1922706 0
vt 0.5943286 0.1915414 0
vt 0.5948197 0.1918557 0
vt 0.7911971 0.3721178 0
vt 0.7915513 0.372591 0
vt 0.7908493 0.3727562 0
vt 0.7696507 0.5614375 0
vt 0.7693234 0.5611201 0
vt 0.5805446 0.1108059 0
vt 0.5648359 0.3687761 0
vt 0.8725507 0.3819868 0
vt 0.6986035 0.491102 0
vt 0.6306888 0.1415418 0
vt 0.63006 0.1411269 0
vt 0.8389535 0.3345103 0
vt 0.8393878 0.335126 0
vt 0.2282879 0.7476194 0
vt 0.2278546 0.7473702 0
vt 0.2277357 0.7471477 0
vt 0.2278988 0.747051 0
vt 0.3633708 0.845133 0
vt 0.3628713 0.8436197 0
vt 0.2979811 0.7995215 0
vt 0.2971748 0.7996787 0
vt 0.2972514 0.7991776 0
vt 0.2978912 0.7991026 0
vt 0.2981211 0.7995956 0
vt 0.1893625 0.6286608 0
vt 0.1892477 0.6279249 0
vt 0.337031 0.7474455 0
vt 0.3367306 0.7478368 0
vt 0.7058453 0.3683533 0
vt 0.6348524 0.4910233 0
vt 0.5757588 0.4372325 0
vt 0.6142952 0.2837311 0
vt 0.8988297 0.2027473 0
vt 0.8984024 0.2021566 0
vt 0.07191281 0.8278138 0
vt 0.7661259 0.07905366 0
vt 0.7454281 0.3255633 0
vt 0.7449573 0.3261413 0
vt 0.6533123 0.2414457 0
vt 0.6538531 0.2409311 0
vt 0.1435426 0.8743848 0
vt 0.6952163 0.1898038 0
vt 0.1431547 0.8741104 0
vt 0.2129112 0.9231249 0
vt 0.7930499 0.2803862 0
vt 0.2124739 0.9228908 0
vt 0.450178 0.8232033 0
vt 0.4504424 0.8228055 0
vt 0.00390625 0.4662559 0
vt 0.004004851 0.4669936 0
vt 0.6480502 0.6887585 0
vt 0.6477212 0.688445 0
vt 0.229921 0.8965848 0
vt 0.2298155 0.8954189 0
vt 0.2303176 0.8963384 0
vt 0.3016494 0.9427697 0
vt 0.3019779 0.9432615 0
vt 0.1605893 0.8469141 0
vt 0.1609941 0.8471795 0
vt 0.2978666 0.8000364 0
vt 0.2977443 0.8004345 0
vt 0.2974792 0.800112 0
vt 0.3626065 0.8441597 0
vt 0.362836 0.8448483 0
vt 0.3624183 0.8446033 0
vt 0.3018946 0.9424797 0
vt 0.3016386 0.9425399 0
vt 0.3016437 0.942125 0
vt 0.2305628 0.8957705 0
vt 0.2309334 0.8959675 0
vt 0.2305404 0.8962137 0
vt 0.1477574 0.9333735 0
vt 0.1394743 0.9696075 0
vt 0.03977966 0.8766639 0
vt 0.02268491 0.9137945 0
vt 0.1736852 0.9086024 0
vt 0.1857873 0.9558401 0
vt 0.06082653 0.839734 0
vt 0.04841546 0.6709134 0
vt 0.02366601 0.6618739 0
vt 0.03964254 0.792936 0
vt 0.01087254 0.7895812 0
vt 0.084347 0.6640752 0
vt 0.0647275 0.6359498 0
vt 0.0817003 0.7950887 0
vt 0.9252742 0.2150861 0
vt 0.8164062 0.03791661 0
vt 0.8195067 0.04326952 0
vt 0.8173718 0.03959185 0
vt 0.8741062 0.006592456 0
vt 0.8740823 0.006726257 0
vt 0.8740105 0.006565437 0
vt 0.8178667 0.040449 0
vt 0.8179599 0.04061032 0
vt 0.9809974 0.1808091 0
vt 0.9811551 0.1807109 0
vt 0.8736547 0.00390625 0
vt 0.8729672 0.00395836 0
vt 0.9878116 0.1766806 0
vt 0.9883019 0.176135 0
vt 0.875566 0.009225701 0
vt 0.8754123 0.009325638 0
vt 0.8816236 0.004976698 0
vt 0.8820581 0.004651082 0
vt 0.9820281 0.1800079 0
vt 0.9819927 0.1801893 0
vt 0.8738423 0.005791119 0
vt 0.8736547 0.005696394 0
vt 0.8770964 0.008356552 0
vt 0.8764862 0.008777238 0
vt 0.8762021 0.008649465 0
vt 0.8800693 0.006384281 0
vt 0.8799364 0.006485027 0
vt 0.8799383 0.006431467 0
vt 0.985882 0.1775017 0
vt 0.985812 0.1776169 0
vt 0.9857309 0.1775946 0
vt 0.9843805 0.17866 0
vt 0.9842401 0.1785524 0
vt 0.9843883 0.1784558 0
vt 0.8785839 0.007369376 0
vt 0.8787176 0.007353983 0
vt 0.8785809 0.007448297 0
vt 0.5814117 0.818209 0
vt 0.4598164 0.9166439 0
vt 0.5854412 0.9029389 0
vt 0.4620329 0.8933524 0
vt 0.4533469 0.8268125 0
vt 0.4622087 0.8923496 0
vt 0.5910889 0.9105903 0
vt 0.5931946 0.9923854 0
vt 0.4790167 0.9822953 0
vt 0.4788509 0.9828281 0
vt 0.4786062 0.9826011 0
vt 0.4721393 0.9139005 0
vt 0.4714819 0.9140469 0
vt 0.5854324 0.887833 0
vt 0.5854273 0.8871934 0
vt 0.4725961 0.9905901 0
vt 0.4742255 0.9919195 0
vt 0.5934959 0.9808062 0
vt 0.593507 0.9801611 0
vt 0.4711499 0.8928482 0
vt 0.4706589 0.8926941 0
vt 0.4712064 0.8922932 0
vt 0.4636975 0.8244206 0
vt 0.4630037 0.824582 0
vt 0.4677314 0.9052095 0
vt 0.4683888 0.9060632 0
vt 0.6155255 0.3173984 0
vt 0.7505992 0.4347058 0
vt 0.6229976 0.3183588 0
vt 0.7484528 0.4274933 0
vt 0.6009557 0.4287401 0
vt 0.6013194 0.4298234 0
vt 0.6431869 0.4659909 0
vt 0.6443318 0.466176 0
vt 0.6206136 0.3180579 0
vt 0.6203965 0.3180303 0
vt 0.6064791 0.4274392 0
vt 0.606055 0.4273632 0
vt 0.6062987 0.4270676 0
vt 0.7491918 0.429997 0
vt 0.74913 0.429787 0
vt 0.6451421 0.4606417 0
vt 0.6448914 0.4609281 0
vt 0.6447535 0.4605197 0
vt 0.6439871 0.463722 0
vt 0.6440673 0.4635289 0
vt 0.6440961 0.463739 0
vt 0.749881 0.4322918 0
vt 0.7498179 0.4320812 0
vt 0.6182455 0.3177586 0
vt 0.6180276 0.3177297 0
vt 0.6034259 0.4287084 0
vt 0.6033899 0.4286037 0
vt 0.6036029 0.4285998 0
vt 0.6087787 0.4263191 0
vt 0.608772 0.426303 0
vt 0.6455129 0.4581173 0
vt 0.6454992 0.4581306 0
vt 0.00390625 0.0160158 0
vt 0.03532404 0.06204893 0
vt 0.02164909 0.00390625 0
vt 0.05306687 0.04993938 0
vt 0.005800872 0.01472272 0
vt 0.005686507 0.01480077 0
vt 0.03710429 0.0608339 0
vt 0.03721866 0.06075585 0
vt 0.01986883 0.005121282 0
vt 0.01975448 0.005199323 0
vt 0.05117227 0.05123245 0
vt 0.05128661 0.05115441 0
vt 0.100721 0.01038764 0
vt 0.08298021 0.06644582 0
vt 0.08024077 0.00390625 0
vt 0.0625 0.05996443 0
vt 0.09866606 0.009737315 0
vt 0.09853408 0.009695545 0
vt 0.08079331 0.06575372 0
vt 0.08092529 0.06579549 0
vt 0.08242766 0.004598335 0
vt 0.08229569 0.004556572 0
vt 0.06455492 0.06061475 0
vt 0.06468689 0.06065652 0
vt 0.1138848 0.007778804 0
vt 0.1142861 0.006889518 0
vt 0.1142986 0.005911558 0
vt 0.1141572 0.005445623 0
vt 0.113938 0.00501089 0
vt 0.1132542 0.004311633 0
vt 0.1131575 0.008390692 0
vt 0.1134934 0.008081061 0
vt 0.1137692 0.007716173 0
vt 0.1139717 0.007305637 0
vt 0.1140916 0.006865394 0
vt 0.1141257 0.006412211 0
vt 0.1140748 0.005962691 0
vt 0.1139437 0.005531091 0
vt 0.1137408 0.005128283 0
vt 0.1134675 0.004767807 0
vt 0.1131301 0.004463354 0
vt 0.1127395 0.004227456 0
vt 0.1123097 0.004069982 0
vt 0.1118583 0.003996214 0
vt 0.1114015 0.004003874 0
vt 0.1131129 0.008366205 0
vt 0.1134019 0.008046471 0
vt 0.1136316 0.00768535 0
vt 0.1137939 0.007291148 0
vt 0.1138838 0.006875311 0
vt 0.1138996 0.006450426 0
vt 0.1138424 0.00602893 0
vt 0.1137169 0.005621878 0
vt 0.1135269 0.005240714 0
vt 0.1132774 0.004896191 0
vt 0.1129729 0.00459952 0
vt 0.1126208 0.004360597 0
vt 0.1122314 0.004187245 0
vt 0.1118159 0.004084366 0
vt 0.1113861 0.004052413 0
vt 0.1130569 0.008351863 0
vt 0.1132928 0.008031775 0
vt 0.1134741 0.007681545 0
vt 0.1135968 0.007305837 0
vt 0.1136574 0.006912518 0
vt 0.1136548 0.0065108 0
vt 0.1135901 0.006110673 0
vt 0.113467 0.00572192 0
vt 0.1132879 0.005355647 0
vt 0.1130586 0.00502141 0
vt 0.1127833 0.004728817 0
vt 0.1124681 0.004485942 0
vt 0.11212 0.004298703 0
vt 0.1117471 0.004170316 0
vt 0.1113555 0.004101397 0
vt 0.1129914 0.008347577 0
vt 0.1131684 0.008035344 0
vt 0.1132989 0.007700655 0
vt 0.1133803 0.007344689 0
vt 0.11341 0.006972204 0
vt 0.113387 0.006590383 0
vt 0.1133127 0.006207542 0
vt 0.1131895 0.005833006 0
vt 0.1130202 0.00547697 0
vt 0.1128098 0.005148587 0
vt 0.112563 0.004856374 0
vt 0.1122845 0.004607241 0
vt 0.11198 0.004405771 0
vt 0.1116546 0.004253571 0
vt 0.111311 0.00414971 0
vt 0.1129186 0.008352728 0
vt 0.1130324 0.008054914 0
vt 0.1131089 0.007739105 0
vt 0.1131461 0.007403491 0
vt 0.1131421 0.007050752 0
vt 0.1130962 0.00668654 0
vt 0.1130097 0.006318409 0
vt 0.112885 0.005954879 0
vt 0.1127244 0.005605776 0
vt 0.112533 0.005279627 0
vt 0.1123149 0.004984361 0
vt 0.1120744 0.004726291 0
vt 0.1118159 0.004509026 0
vt 0.1115426 0.004333269 0
vt 0.1112547 0.004196227 0
vt 0.1127701 0.008642258 0
vt 0.1128405 0.008366946 0
vt 0.1128879 0.008088473 0
vt 0.1129076 0.007793782 0
vt 0.1128979 0.007478826 0
vt 0.1128575 0.007144811 0
vt 0.1127859 0.006796695 0
vt 0.1126851 0.006441034 0
vt 0.1125574 0.006086034 0
vt 0.1124049 0.005740974 0
vt 0.1122325 0.005413989 0
vt 0.112044 0.005112683 0
vt 0.1118428 0.004843036 0
vt 0.1116325 0.004608352 0
vt 0.1114149 0.004408697 0
vt 0.1111885 0.004239775 0
vt 0.1127605 0.008388922 0
vt 0.1127384 0.008133902 0
vt 0.1126994 0.007861853 0
vt 0.1126404 0.007567662 0
vt 0.1125611 0.007251719 0
vt 0.1124619 0.006918034 0
vt 0.1123449 0.006572862 0
vt 0.1122128 0.006223989 0
vt 0.1120677 0.005880309 0
vt 0.1119142 0.005549756 0
vt 0.1117557 0.005239797 0
vt 0.1115951 0.004956389 0
vt 0.1114348 0.004702746 0
vt 0.1112754 0.004478916 0
vt 0.1111153 0.004279124 0
vt 0.1126802 0.008417513 0
vt 0.1125887 0.008188894 0
vt 0.1124893 0.007940672 0
vt 0.1123798 0.007667205 0
vt 0.1122602 0.007368286 0
vt 0.1121318 0.007047505 0
vt 0.111997 0.006710806 0
vt 0.1118588 0.006365664 0
vt 0.1117207 0.006020549 0
vt 0.1115859 0.00568385 0
vt 0.1114575 0.005363069 0
vt 0.1113378 0.005064151 0
vt 0.1112284 0.004790684 0
vt 0.111129 0.004542463 0
vt 0.1110375 0.00431383 0
vt 0.1126023 0.008452232 0
vt 0.1124423 0.008252452 0
vt 0.1122828 0.00802861 0
vt 0.1121225 0.007774977 0
vt 0.1119619 0.007491569 0
vt 0.1118035 0.007181611 0
vt 0.11165 0.006851047 0
vt 0.1115049 0.00650735 0
vt 0.1113728 0.006158494 0
vt 0.1112557 0.005813334 0
vt 0.1111566 0.005479649 0
vt 0.1110772 0.005163707 0
vt 0.1110183 0.004869503 0
vt 0.1109792 0.004597468 0
vt 0.1109572 0.004342435 0
vt 0.1125292 0.008491581 0
vt 0.1123028 0.00832267 0
vt 0.1120851 0.008123014 0
vt 0.1118749 0.00788833 0
vt 0.1116736 0.007618683 0
vt 0.1114852 0.007317377 0
vt 0.1113127 0.006990393 0
vt 0.1111602 0.006645305 0
vt 0.1110325 0.006290334 0
vt 0.1109317 0.005934673 0
vt 0.1108602 0.005586558 0
vt 0.1108198 0.005252543 0
vt 0.11081 0.004937587 0
vt 0.1108298 0.004642898 0
vt 0.1108771 0.004364412 0
vt 0.1124629 0.008535118 0
vt 0.112175 0.008398097 0
vt 0.1119017 0.00822233 0
vt 0.1116432 0.008005074 0
vt 0.1114027 0.007747006 0
vt 0.1111846 0.00745174 0
vt 0.1109932 0.007125591 0
vt 0.1108326 0.006776459 0
vt 0.110708 0.006412958 0
vt 0.1106214 0.006044829 0
vt 0.1105756 0.005680617 0
vt 0.1105716 0.005327879 0
vt 0.1106088 0.00499225 0
vt 0.1106853 0.004676456 0
vt 0.1107991 0.004378614 0
vt 0.1124066 0.008581647 0
vt 0.1120631 0.008477794 0
vt 0.1117377 0.008325593 0
vt 0.1114331 0.008124124 0
vt 0.1111547 0.007874985 0
vt 0.1109078 0.00758278 0
vt 0.1106974 0.007254397 0
vt 0.1105281 0.006898332 0
vt 0.110405 0.006523826 0
vt 0.1103307 0.006140986 0
vt 0.1103077 0.005759151 0
vt 0.1103374 0.005386681 0
vt 0.1104188 0.005030715 0
vt 0.1105493 0.004696026 0
vt 0.1107263 0.00438378 0
vt 0.1123622 0.00862996 0
vt 0.1119706 0.008561048 0
vt 0.1115977 0.008432661 0
vt 0.1112496 0.008245418 0
vt 0.1109343 0.008002549 0
vt 0.1106591 0.007709951 0
vt 0.1104298 0.007375712 0
vt 0.1102506 0.007009416 0
vt 0.1101276 0.006620685 0
vt 0.1100629 0.006220555 0
vt 0.1100602 0.005818852 0
vt 0.1101208 0.005425517 0
vt 0.1102435 0.005049826 0
vt 0.1104249 0.004699596 0
vt 0.1106607 0.004379495 0
vt 0.1123316 0.008678945 0
vt 0.1119017 0.008646997 0
vt 0.1114863 0.008544118 0
vt 0.1110968 0.008370765 0
vt 0.1107448 0.008131844 0
vt 0.1104402 0.007835173 0
vt 0.1101908 0.007490651 0
vt 0.1100007 0.00710945 0
vt 0.1098753 0.006702438 0
vt 0.1098181 0.006280943 0
vt 0.1098338 0.005856044 0
vt 0.1099237 0.005440224 0
vt 0.110086 0.005046022 0
vt 0.1103157 0.004684901 0
vt 0.1106048 0.004365152 0
vt 0.1123162 0.008727475 0
vt 0.1118594 0.008735149 0
vt 0.1114079 0.008661381 0
vt 0.1109782 0.008503906 0
vt 0.1105876 0.008268013 0
vt 0.1102502 0.007963555 0
vt 0.1099768 0.007603081 0
vt 0.1097739 0.007200241 0
vt 0.1096428 0.006768678 0
vt 0.1095919 0.006319159 0
vt 0.1096261 0.005865959 0
vt 0.109746 0.005425736 0
vt 0.1099484 0.0050152 0
vt 0.1102242 0.004650311 0
vt 0.1105602 0.004340647 0
vt 0.1123133 0.008774119 0
vt 0.1118473 0.008825113 0
vt 0.1113675 0.008786449 0
vt 0.1108983 0.008650476 0
vt 0.1104634 0.008419726 0
vt 0.1100849 0.008104573 0
vt 0.1097796 0.007720475 0
vt 0.1095604 0.007285708 0
vt 0.1094191 0.00681981 0
vt 0.109375 0.006331151 0
vt 0.1094315 0.005841856 0
vt 0.109587 0.005374775 0
vt 0.1098328 0.00495257 0
vt 0.1101534 0.00459352 0
vt 0.1105259 0.004308886 0
vt 0.1109475 0.00408909 0
vt 0.1131918 0.008422475 0
vt 0.1135642 0.008137853 0
vt 0.1141306 0.007356599 0
vt 0.1143427 0.006400205 0
vt 0.1136328 0.004626797 0
vt 0.1128194 0.004080886 0
vt 0.1123501 0.003944914 0
vt 0.1118703 0.00390625 0
vt 0.1114044 0.003957235 0
vt 0.5395153 0.4015514 0
vt 0.5395428 0.4019708 0
vt 0.6982897 0.4907732 0
vt 0.5760731 0.4369043 0
vt 0.6351504 0.4906803 0
vt 0.6682884 0.5192456 0
vt 0.9751421 0.3053634 0
vt 0.6686989 0.519232 0
vt 0.5651942 0.3690555 0
vt 0.6159829 0.3069277 0
vt 0.7667428 0.07944201 0
vt 0.6964122 0.1892874 0
vt 0.7927439 0.2791093 0
vt 0.7934876 0.279161 0
vt 0.2846281 0.9702049 0
vt 0.6965172 0.1900154 0
vt 0.8197627 0.4204111 0
vt 0.5556478 0.2325923 0
#end 549 textures vertices 

#begin 350 normals 
vn -0 -0 1
vn -0 -1 -0
vn 1 -0 -0
vn -1 -0 -0
vn -0.3299 -0 0.944
vn 0.4375 -0 0.8992
vn -0 -0 -1
vn -0 1 -0
vn 0.3015 -0.3015 0.9045
vn -0.3015 -0.3015 0.9045
vn 0.5774 -0.5773 0.5774
vn -0.5774 -0.5773 0.5774
vn -0 -0.464 -0.8859
vn -0.3015 -0.9045 -0.3015
vn -0.5774 -0.5774 0.5773
vn -0.5774 0.5774 0.5773
vn -0.5774 0.5774 -0.5773
vn -0.5774 -0.5774 -0.5773
vn 0.7071 -0 0.7071
vn -0.7071 -0.7071 -0
vn -0.7071 -0 0.7071
vn 0.7071 -0.7071 -0
vn -0 -0.7071 0.7071
vn -0.4479 0.0018 -0.8941
vn -0.7071 0.7071 -0
vn -0.7071 -0 -0.7071
vn -0.3074 0.5441 -0.7807
vn -0 0.7071 0.7071
vn -0 -0.7071 -0.7071
vn -1 -0 -0
vn -0 -0 1
vn -0 -1 -0
vn -1 -0 -0
vn -0 -0 1
vn -0 1 -0
vn -0 -1 -0
vn 1 -0 -0
vn -1 -0 -0
vn -0 -0 -1
vn -0 -0 1
vn 0.5774 -0.5774 0.5774
vn 0.3015 -0.9045 0.3015
vn -0.5774 -0.5773 0.5774
vn -0.5773 -0.5774 -0.5773
vn 0.5773 -0.5774 -0.5773
vn 0.5774 -0.5773 0.5774
vn 0.7071 -0.7071 -0
vn 0.7071 -0 0.7071
vn -0 -0.7071 0.7071
vn -0.0317 -0.4343 0.9002
vn 0.8945 -0.4471 -0.0003
vn -0.7071 -0.7071 -0
vn -0 -0.7071 -0.7071
vn -0.4553 -0.0206 0.8901
vn -0.7071 -0 -0.7071
vn 0.8901 -0.0206 -0.4553
vn -0 1 -0
vn 1 -0 -0
vn -0 -0 1
vn 0.5774 0.5773 0.5774
vn 0.6022 0.6022 0.5242
vn 0.7071 -0 0.7071
vn -0 0.7071 0.7071
vn -0.0001 0.8211 0.5708
vn 0.6472 -0 0.7623
vn 0.7071 0.7071 -0
vn 1 -0 -0
vn -0 1 -0
vn -0 -0 -1
vn -0 -0 1
vn -0 -1 -0
vn 0.9045 -0.3015 -0.3015
vn 0.9045 -0.3015 0.3015
vn 0.5773 0.5774 -0.5774
vn 0.5773 0.5774 0.5774
vn -0 0.7071 -0.7071
vn 0.7071 -0 -0.7071
vn 0.7071 0.7071 -0
vn 0.7071 -0 0.7071
vn -0 0.7071 0.7071
vn 0.7071 -0.7071 -0
vn -0 -0.7071 -0.7071
vn -0 -0.7071 0.7071
vn -0 -0 1
vn -0 -0 -1
vn 0.7071 -0 -0.7071
vn 0.7071 -0 0.7071
vn 1 -0 -0
vn -0 -0 1
vn -0 -0 -1
vn -0.7071 -0 -0.7071
vn -0.7071 -0 0.7071
vn -1 -0 -0
vn 0.0935 0.825 -0.5573
vn 0.1385 0.5474 -0.8253
vn 0.1624 0.1914 -0.968
vn 0.1654 -0 -0.9862
vn 0.1624 -0.1914 -0.968
vn 0.1385 -0.5474 -0.8253
vn 0.082 0.9705 -0.2267
vn 0.1282 0.9167 -0.3784
vn 0.1839 0.8194 -0.5429
vn 0.2318 0.6916 -0.6841
vn 0.2702 0.5394 -0.7975
vn 0.2982 0.3693 -0.8802
vn 0.3152 0.1875 -0.9303
vn 0.3209 -0 -0.9471
vn 0.3152 -0.1875 -0.9303
vn 0.2982 -0.3693 -0.8802
vn 0.2702 -0.5394 -0.7975
vn 0.2318 -0.6916 -0.6841
vn 0.1839 -0.8194 -0.5429
vn 0.1282 -0.9167 -0.3784
vn 0.082 -0.9705 -0.2267
vn 0.1303 0.9741 -0.1846
vn 0.2477 0.903 -0.3511
vn 0.3499 0.7947 -0.496
vn 0.4334 0.6593 -0.6144
vn 0.4972 0.506 -0.7048
vn 0.5417 0.342 -0.7678
vn 0.5679 0.1722 -0.8049
vn 0.5765 -0 -0.8171
vn 0.5679 -0.1722 -0.8049
vn 0.5417 -0.342 -0.7678
vn 0.4972 -0.506 -0.7048
vn 0.4334 -0.6593 -0.6144
vn 0.3499 -0.7947 -0.496
vn 0.2477 -0.903 -0.3511
vn 0.1303 -0.9741 -0.1846
vn 0.188 0.9682 -0.1652
vn 0.3518 0.8835 -0.3092
vn 0.4868 0.7616 -0.4278
vn 0.5903 0.6185 -0.5187
vn 0.6647 0.4659 -0.584
vn 0.7141 0.3105 -0.6274
vn 0.7421 0.155 -0.6521
vn 0.7512 -0 -0.6601
vn 0.7421 -0.155 -0.6521
vn 0.7141 -0.3105 -0.6274
vn 0.6647 -0.4659 -0.584
vn 0.5903 -0.6185 -0.5187
vn 0.4868 -0.7616 -0.4278
vn 0.3518 -0.8835 -0.3092
vn 0.188 -0.9682 -0.1652
vn 0.2375 0.9613 -0.1395
vn 0.437 0.8621 -0.2565
vn 0.5918 0.7274 -0.3474
vn 0.7032 0.5789 -0.4128
vn 0.779 0.429 -0.4573
vn 0.8272 0.2826 -0.4857
vn 0.8538 0.1401 -0.5013
vn 0.8624 -0 -0.5063
vn 0.8538 -0.1401 -0.5013
vn 0.8272 -0.2826 -0.4857
vn 0.779 -0.429 -0.4573
vn 0.7032 -0.5789 -0.4128
vn 0.5918 -0.7274 -0.3474
vn 0.437 -0.8621 -0.2565
vn 0.2375 -0.9613 -0.1395
vn 0.2773 0.9546 -0.1088
vn 0.5019 0.8422 -0.1969
vn 0.6672 0.6974 -0.2617
vn 0.7799 0.546 -0.306
vn 0.8533 0.3997 -0.3348
vn 0.8986 0.2611 -0.3525
vn 0.9232 0.1289 -0.3622
vn 0.9309 -0 -0.3652
vn 0.9232 -0.1289 -0.3622
vn 0.8986 -0.2611 -0.3525
vn 0.8533 -0.3997 -0.3348
vn 0.7799 -0.546 -0.306
vn 0.6672 -0.6974 -0.2617
vn 0.5019 -0.8422 -0.1969
vn 0.2773 -0.9546 -0.1088
vn 0.1196 0.9928 -0
vn 0.3064 0.949 -0.0745
vn 0.5472 0.8263 -0.1331
vn 0.7172 0.6747 -0.1744
vn 0.8287 0.5221 -0.2015
vn 0.8992 0.379 -0.2187
vn 0.9418 0.2463 -0.229
vn 0.9645 0.1212 -0.2346
vn 0.9717 -0 -0.2363
vn 0.9645 -0.1212 -0.2346
vn 0.9418 -0.2463 -0.229
vn 0.8992 -0.379 -0.2187
vn 0.8287 -0.5221 -0.2015
vn 0.7172 -0.6747 -0.1744
vn 0.5472 -0.8263 -0.1331
vn 0.3064 -0.949 -0.0745
vn 0.324 0.9453 -0.0378
vn 0.5738 0.8162 -0.067
vn 0.7456 0.6607 -0.0871
vn 0.8557 0.5078 -0.0999
vn 0.924 0.3669 -0.1079
vn 0.9648 0.2377 -0.1127
vn 0.9865 0.1167 -0.1152
vn 0.9932 -0 -0.116
vn 0.9865 -0.1167 -0.1152
vn 0.9648 -0.2377 -0.1127
vn 0.924 -0.3669 -0.1079
vn 0.8557 -0.5078 -0.0999
vn 0.7456 -0.6607 -0.0871
vn 0.5738 -0.8162 -0.067
vn 0.324 -0.9453 -0.0378
vn 0.3299 0.944 -0
vn 0.5826 0.8128 -0
vn 0.7548 0.656 -0
vn 0.8643 0.5031 -0
vn 0.9318 0.3629 -0
vn 0.972 0.2348 -0
vn 0.9933 0.1153 -0
vn 1 -0 -0
vn 0.9933 -0.1153 -0
vn 0.972 -0.2348 -0
vn 0.9318 -0.3629 -0
vn 0.8643 -0.5031 -0
vn 0.7548 -0.656 -0
vn 0.5826 -0.8128 -0
vn 0.3299 -0.944 -0
vn 0.324 0.9453 0.0378
vn 0.5738 0.8162 0.067
vn 0.7456 0.6607 0.0871
vn 0.8557 0.5078 0.0999
vn 0.924 0.3669 0.1079
vn 0.9648 0.2377 0.1127
vn 0.9865 0.1167 0.1152
vn 0.9932 -0 0.116
vn 0.9865 -0.1167 0.1152
vn 0.9648 -0.2377 0.1127
vn 0.924 -0.3669 0.1079
vn 0.8557 -0.5078 0.0999
vn 0.7456 -0.6607 0.0871
vn 0.5738 -0.8162 0.067
vn 0.324 -0.9453 0.0378
vn 0.3064 0.949 0.0745
vn 0.5472 0.8263 0.1331
vn 0.7172 0.6747 0.1744
vn 0.8287 0.5221 0.2015
vn 0.8992 0.379 0.2187
vn 0.9418 0.2463 0.229
vn 0.9645 0.1212 0.2346
vn 0.9717 -0 0.2363
vn 0.9645 -0.1212 0.2346
vn 0.9418 -0.2463 0.229
vn 0.8992 -0.379 0.2187
vn 0.8287 -0.5221 0.2015
vn 0.7172 -0.6747 0.1744
vn 0.5472 -0.8263 0.1331
vn 0.3064 -0.949 0.0745
vn 0.2773 0.9546 0.1088
vn 0.5019 0.8422 0.1969
vn 0.6672 0.6974 0.2617
vn 0.7799 0.546 0.306
vn 0.8533 0.3997 0.3348
vn 0.8986 0.2611 0.3525
vn 0.9232 0.1289 0.3622
vn 0.9309 -0 0.3652
vn 0.9232 -0.1289 0.3622
vn 0.8986 -0.2611 0.3525
vn 0.8533 -0.3997 0.3348
vn 0.7799 -0.546 0.306
vn 0.6672 -0.6974 0.2617
vn 0.5019 -0.8422 0.1969
vn 0.2773 -0.9546 0.1088
vn 0.2375 0.9613 0.1395
vn 0.437 0.8621 0.2565
vn 0.5918 0.7274 0.3474
vn 0.7032 0.5789 0.4128
vn 0.779 0.429 0.4573
vn 0.8272 0.2826 0.4857
vn 0.8538 0.1401 0.5013
vn 0.8624 -0 0.5063
vn 0.8538 -0.1401 0.5013
vn 0.8272 -0.2826 0.4857
vn 0.779 -0.429 0.4573
vn 0.7032 -0.5789 0.4128
vn 0.5918 -0.7274 0.3474
vn 0.437 -0.8621 0.2565
vn 0.2375 -0.9613 0.1395
vn 0.188 0.9682 0.1652
vn 0.3518 0.8835 0.3092
vn 0.4868 0.7616 0.4278
vn 0.5903 0.6185 0.5187
vn 0.6647 0.4659 0.584
vn 0.7141 0.3105 0.6274
vn 0.7421 0.155 0.6521
vn 0.7512 -0 0.6601
vn 0.7421 -0.155 0.6521
vn 0.7141 -0.3105 0.6274
vn 0.6647 -0.4659 0.584
vn 0.5903 -0.6185 0.5187
vn 0.4868 -0.7616 0.4278
vn 0.3518 -0.8835 0.3092
vn 0.188 -0.9682 0.1652
vn 0.1303 0.9741 0.1846
vn 0.2477 0.903 0.3511
vn 0.3499 0.7947 0.496
vn 0.4334 0.6593 0.6144
vn 0.4972 0.506 0.7048
vn 0.5417 0.342 0.7678
vn 0.5679 0.1722 0.8049
vn 0.5765 -0 0.8171
vn 0.5679 -0.1722 0.8049
vn 0.5417 -0.342 0.7678
vn 0.4972 -0.506 0.7048
vn 0.4334 -0.6593 0.6144
vn 0.3499 -0.7947 0.496
vn 0.2477 -0.903 0.3511
vn 0.1303 -0.9741 0.1846
vn 0.082 0.9705 0.2267
vn 0.1282 0.9167 0.3784
vn 0.1839 0.8194 0.5429
vn 0.2318 0.6916 0.6841
vn 0.2702 0.5394 0.7975
vn 0.2982 0.3693 0.8802
vn 0.3152 0.1875 0.9303
vn 0.3209 -0 0.9471
vn 0.3152 -0.1875 0.9303
vn 0.2982 -0.3693 0.8802
vn 0.2702 -0.5394 0.7975
vn 0.2318 -0.6916 0.6841
vn 0.1839 -0.8194 0.5429
vn 0.1282 -0.9167 0.3784
vn 0.082 -0.9705 0.2267
vn 0.0486 0.9558 0.2899
vn 0.0649 0.9198 0.3871
vn 0.0935 0.825 0.5573
vn 0.1183 0.6991 0.7052
vn 0.1385 0.5474 0.8253
vn 0.1533 0.376 0.9138
vn 0.1624 0.1914 0.968
vn 0.1654 -0 0.9862
vn 0.1624 -0.1914 0.968
vn 0.1533 -0.376 0.9138
vn 0.1385 -0.5474 0.8253
vn 0.1183 -0.6991 0.7052
vn 0.0935 -0.825 0.5573
vn 0.0649 -0.9198 0.3871
vn 0.0486 -0.9558 0.2899
vn 0.1196 -0.9928 -0
vn 0.0486 0.9558 -0.2899
vn 0.0649 0.9198 -0.3871
vn 0.1183 0.6991 -0.7052
vn 0.1533 0.376 -0.9138
vn 0.1533 -0.376 -0.9138
vn 0.1183 -0.6991 -0.7052
vn 0.0935 -0.825 -0.5573
vn 0.0649 -0.9198 -0.3871
vn 0.0486 -0.9558 -0.2899
#end 350 normals 

#begin 452 faces
o Cube:007
s 0
f 121/121/1 49/49/1 25/25/1 43/43/1 
f 93/93/2 92/92/2 97/97/2 116/116/2 16/16/2 
f 45/45/1 35/35/1 6/6/1 37/37/1 
f 42/42/1 21/21/1 2/2/1 36/36/1 
f 89/89/1 88/88/1 132/132/1 129/129/1 
f 114/114/1 102/102/1 64/64/1 81/81/1 
f 96/96/1 13/13/1 18/18/1 117/117/1 
f 62/62/2 98/98/2 107/107/2 72/72/2 
f 76/76/1 58/58/1 30/30/1 31/31/1 
f 23/23/1 22/22/1 7/7/1 10/10/1 
f 33/33/1 45/45/1 37/37/1 61/61/1 
f 74/74/1 55/55/1 26/26/1 27/27/1 
f 94/94/2 86/86/2 85/85/2 17/17/2 119/119/2 
f 8/8/3 38/38/3 120/120/3 56/56/3 
f 69/69/1 79/79/1 111/111/1 109/109/1 
f 39/39/1 58/58/1 100/100/1 41/41/1 
f 106/106/1 114/114/1 81/81/1 70/70/1 
f 48/48/1 74/74/1 27/27/1 24/24/1 
f 52/538/4 77/77/4 82/82/4 63/63/4 
f 20/20/1 23/23/1 10/10/1 1/1/1 
f 54/54/1 76/76/1 31/31/1 29/29/1 
f 40/40/1 99/99/1 61/61/1 37/37/1 
f 92/92/2 91/91/2 83/83/2 86/86/2 94/94/2 97/97/2 
f 59/59/3 75/75/3 80/80/3 68/68/3 
f 79/79/1 65/65/1 105/105/1 111/111/1 
f 99/99/1 40/40/1 41/41/1 100/100/1 
f 115/115/2 110/110/2 128/128/2 123/123/2 
f 123/123/2 128/128/2 83/83/2 91/91/2 90/90/2 
f 103/546/4 113/113/4 122/122/4 126/126/4 
f 40/40/1 14/14/1 15/15/1 41/41/1 
f 123/123/2 90/90/2 131/131/2 138/138/2 
f 13/13/1 96/96/1 95/95/1 12/12/1 
f 127/127/3 46/46/3 11/11/3 84/84/3 
f 29/29/5 31/31/5 23/23/5 20/20/5 
f 31/31/5 30/30/5 22/22/5 23/23/5 
f 44/44/5 28/28/5 21/21/5 42/42/5 
f 38/38/3 4/4/3 50/50/3 120/120/3 
f 55/55/1 121/121/1 43/43/1 26/26/1 
f 32/32/1 34/34/1 78/78/1 51/51/1 
f 39/39/1 5/5/1 28/28/1 44/44/1 
f 34/34/1 33/33/1 61/61/1 78/78/1 
f 75/75/3 53/53/3 66/66/3 80/80/3 
f 24/24/6 27/27/6 34/34/6 32/32/6 
f 27/27/6 26/26/6 33/33/6 34/34/6 
f 43/43/6 25/25/6 35/35/6 45/45/6 
f 26/26/6 43/43/6 45/45/6 33/33/6 
f 101/101/2 57/549/2 67/67/2 108/108/2 
f 58/58/1 39/39/1 44/44/1 30/30/1 
f 30/30/5 44/44/5 42/42/5 22/22/5 
f 101/101/2 108/108/2 107/107/2 98/98/2 
f 5/5/1 39/39/1 41/41/1 15/15/1 
f 14/14/1 40/40/1 37/37/1 6/6/1 
f 22/22/1 42/42/1 36/36/1 7/7/1 
f 77/77/4 60/60/4 71/71/4 82/82/4 
f 9/9/3 8/8/3 56/56/3 73/73/3 
f 114/114/1 106/106/1 109/109/1 111/111/1 
f 125/125/7 124/124/7 140/140/7 136/136/7 
f 112/112/3 104/104/3 46/46/3 127/127/3 
f 12/12/1 95/95/1 118/118/1 19/19/1 
f 137/137/4 139/139/4 130/130/4 134/134/4 
f 87/87/8 126/126/8 135/135/8 133/133/8 
f 57/533/9 58/58/9 59/532/9 
f 60/539/10 61/61/10 62/537/10 
f 67/67/11 68/68/11 69/69/11 
f 70/70/12 71/71/12 72/72/12 
f 83/83/13 84/84/13 85/85/13 86/86/13 
f 89/89/14 90/90/14 91/91/14 92/92/14 93/93/14 
f 110/547/9 111/111/9 112/543/9 
f 113/545/10 114/114/10 115/544/10 
f 122/122/14 123/123/14 124/124/14 
f 129/129/15 130/130/15 131/131/15 
f 132/132/16 133/133/16 134/134/16 
f 135/135/17 136/136/17 137/137/17 
f 138/138/18 139/139/18 140/140/18 
f 74/74/19 48/48/19 47/47/19 73/73/19 
f 122/122/20 113/113/20 115/115/20 123/123/20 
f 76/76/19 54/54/19 53/541/19 75/540/19 
f 121/121/19 55/55/19 56/56/19 120/120/19 
f 78/78/21 61/61/21 60/539/21 77/534/21 
f 80/80/19 66/66/19 65/65/19 79/79/19 
f 82/82/21 71/71/21 70/70/21 81/81/21 
f 62/548/20 72/72/20 71/71/20 60/60/20 
f 67/67/22 57/57/22 59/59/22 68/68/22 
f 55/55/19 74/74/19 73/73/19 56/56/19 
f 58/58/19 76/76/19 75/540/19 59/532/19 
f 51/51/21 78/78/21 77/534/21 52/52/21 
f 68/68/19 80/80/19 79/79/19 69/69/19 
f 63/63/21 82/82/21 81/81/21 64/64/21 
f 110/547/23 115/544/23 114/114/23 111/111/23 
f 107/107/23 108/108/23 109/109/23 106/106/23 
f 128/128/22 110/110/22 112/112/22 127/127/22 
f 99/99/23 100/100/23 101/535/23 98/536/23 
f 102/102/21 114/114/21 113/545/21 103/103/21 
f 111/111/19 105/105/19 104/542/19 112/543/19 
f 98/536/23 62/537/23 61/61/23 99/99/23 
f 57/533/23 101/535/23 100/100/23 58/58/23 
f 95/95/23 96/96/23 97/97/23 94/94/23 
f 106/106/23 70/70/23 72/72/23 107/107/23 
f 69/69/23 109/109/23 108/108/23 67/67/23 
f 116/116/23 97/97/23 96/96/23 117/117/23 
f 94/94/23 119/119/23 118/118/23 95/95/23 
f 49/49/19 121/121/19 120/120/19 50/50/19 
f 83/83/22 128/128/22 127/127/22 84/84/22 
f 124/124/24 125/125/24 126/126/24 122/122/24 
f 129/129/21 132/132/21 134/134/21 130/130/21 
f 137/137/25 134/134/25 133/133/25 135/135/25 
f 130/130/20 139/139/20 138/138/20 131/131/20 
f 139/139/26 137/137/26 136/136/26 140/140/26 
f 125/125/27 136/136/27 135/135/27 126/126/27 
f 132/132/28 88/88/28 87/87/28 133/133/28 
f 89/89/23 129/129/23 131/131/23 90/90/23 
f 140/140/29 124/124/29 123/123/29 138/138/29 
f 3/3/3 9/9/3 73/73/3 47/47/3 
o Cube:746
s 0
f 141/141/30 142/142/30 144/144/30 143/143/30 
f 145/145/31 146/146/31 142/142/31 141/141/31 
f 143/143/32 147/147/32 145/145/32 141/141/32 
o Cube:747
s 0
f 148/148/33 150/150/33 151/151/33 149/149/33 
f 152/152/34 148/148/34 149/149/34 153/153/34 
f 150/150/35 148/148/35 152/152/35 154/154/35 
o Cube:748
s 0
f 165/165/36 170/170/36 180/180/36 175/175/36 
f 171/171/37 164/164/37 155/155/37 157/157/37 
f 169/169/38 184/184/38 181/181/38 173/173/38 
f 175/175/39 187/187/39 185/185/39 168/168/39 
f 177/177/40 161/161/40 162/162/40 158/158/40 
f 167/167/40 177/177/40 158/158/40 156/156/40 
f 160/160/37 171/171/37 157/157/37 163/163/37 
f 180/180/36 176/176/36 166/166/36 173/173/36 
f 172/172/40 183/183/40 190/190/40 178/178/40 
f 179/179/37 192/192/37 188/188/37 174/174/37 
f 189/189/36 191/191/36 182/182/36 186/186/36 
f 159/159/41 160/160/41 161/161/41 
f 178/178/42 179/179/42 180/180/42 
f 181/181/43 182/182/43 183/183/43 
f 184/184/44 185/185/44 186/186/44 
f 187/187/45 188/188/45 189/189/45 
f 190/190/46 191/191/46 192/192/46 
f 171/171/47 160/160/47 159/159/47 170/170/47 
f 160/160/48 163/163/48 162/162/48 161/161/48 
f 177/177/49 167/167/49 166/166/49 176/176/49 
f 164/164/47 171/171/47 170/170/47 165/165/47 
f 161/161/49 177/177/49 176/176/49 159/159/49 
f 172/172/50 178/178/50 180/180/50 173/173/50 
f 175/175/51 180/180/51 179/179/51 174/174/51 
f 181/181/52 184/184/52 186/186/52 182/182/52 
f 185/185/53 187/187/53 189/189/53 186/186/53 
f 182/182/49 191/191/49 190/190/49 183/183/49 
f 188/188/47 192/192/47 191/191/47 189/189/47 
f 173/173/54 181/181/54 183/183/54 172/172/54 
f 184/184/55 169/169/55 168/168/55 185/185/55 
f 187/187/56 175/175/56 174/174/56 188/188/56 
f 178/178/48 190/190/48 192/192/48 179/179/48 
f 170/170/36 159/159/36 176/176/36 180/180/36 
o Cube:749
s 0
f 210/210/57 200/200/57 209/209/57 202/202/57 
f 206/206/57 195/195/57 218/218/57 212/212/57 
f 214/214/58 215/215/58 193/193/58 207/207/58 
f 216/216/59 213/213/59 198/198/59 197/197/59 
f 213/213/59 217/217/59 196/196/59 198/198/59 
f 208/208/59 194/194/59 205/205/59 203/203/59 
f 201/201/60 202/202/60 203/203/60 
f 212/212/61 213/213/61 214/214/61 
f 203/203/62 205/205/62 204/204/62 201/201/62 
f 202/202/63 209/209/63 208/208/63 203/203/63 
f 212/212/64 218/218/64 217/217/64 213/213/64 
f 215/215/65 214/214/65 213/213/65 216/216/65 
f 210/210/66 202/202/66 201/201/66 211/211/66 
f 214/214/66 207/207/66 206/206/66 212/212/66 
f 201/201/58 204/204/58 199/199/58 211/211/58 
o Cube:750
s 0
f 228/228/67 230/230/67 246/246/67 242/242/67 
f 237/237/68 225/225/68 224/224/68 244/244/68 
f 230/230/67 235/235/67 238/238/67 246/246/67 
f 220/220/69 226/226/69 239/239/69 240/240/69 
f 233/233/70 234/234/70 249/249/70 222/222/70 
f 235/235/67 232/232/67 241/241/67 238/238/67 
f 236/236/71 229/229/71 247/247/71 250/250/71 
f 231/231/69 227/227/69 221/221/69 248/248/69 
f 229/229/72 230/230/72 231/231/72 
f 234/234/73 235/235/73 236/236/73 
f 237/237/74 238/238/74 239/239/74 
f 244/244/75 245/245/75 246/246/75 
f 225/225/76 237/237/76 239/239/76 226/226/76 
f 238/238/77 241/241/77 240/240/77 239/239/77 
f 237/237/78 244/244/78 246/246/78 238/238/78 
f 245/245/79 243/243/79 242/242/79 246/246/79 
f 244/244/80 224/224/80 223/223/80 245/245/80 
f 234/234/79 233/233/79 232/232/79 235/235/79 
f 235/235/81 230/230/81 229/229/81 236/236/81 
f 230/230/77 228/228/77 227/227/77 231/231/77 
f 247/247/82 229/229/82 231/231/82 248/248/82 
f 249/249/83 234/234/83 236/236/83 250/250/83 
f 243/243/70 245/245/70 223/223/70 219/219/70 
o Cube:751
s 0
f 256/256/84 257/257/84 252/252/84 251/251/84 
f 253/253/85 254/254/85 262/262/85 259/259/85 
f 261/261/86 260/260/86 259/259/86 262/262/86 
f 257/257/87 256/256/87 255/255/87 258/258/87 
f 260/260/88 261/261/88 258/258/88 255/255/88 
o Cube:752
s 0
f 267/267/89 263/263/89 264/264/89 270/270/89 
f 265/265/90 272/272/90 273/273/90 266/266/90 
f 273/273/91 272/272/91 271/271/91 274/274/91 
f 269/269/92 268/268/92 267/267/92 270/270/92 
f 271/271/93 268/268/93 269/269/93 274/274/93 
o Sphere:006
s 1
f 529/529/348 528/528/347 292/292/111 293/293/112 
f 526/526/345 276/276/95 285/285/104 286/286/105 
f 530/530/349 529/529/348 293/293/112 294/294/113 
f 277/277/96 526/526/345 286/286/105 287/287/106 
f 531/531/350 530/530/349 294/294/113 295/295/114 
f 278/278/97 277/277/96 287/287/106 288/288/107 
f 279/279/98 278/278/97 288/288/107 289/289/108 
f 524/524/343 523/523/342 281/281/100 282/282/101 
f 527/527/346 279/279/98 289/289/108 290/290/109 
f 275/275/94 524/524/343 282/282/101 283/283/102 
f 280/280/99 527/527/346 290/290/109 291/291/110 
f 525/525/344 275/275/94 283/283/102 284/284/103 
f 528/528/347 280/280/99 291/291/110 292/292/111 
f 276/276/95 525/525/344 284/284/103 285/285/104 
f 292/292/111 291/291/110 306/306/125 307/307/126 
f 285/285/104 284/284/103 299/299/118 300/300/119 
f 293/293/112 292/292/111 307/307/126 308/308/127 
f 286/286/105 285/285/104 300/300/119 301/301/120 
f 294/294/113 293/293/112 308/308/127 309/309/128 
f 287/287/106 286/286/105 301/301/120 302/302/121 
f 295/295/114 294/294/113 309/309/128 310/310/129 
f 288/288/107 287/287/106 302/302/121 303/303/122 
f 281/281/100 356/356/175 296/296/115 
f 522/522/341 295/295/114 310/310/129 
f 289/289/108 288/288/107 303/303/122 304/304/123 
f 282/282/101 281/281/100 296/296/115 297/297/116 
f 290/290/109 289/289/108 304/304/123 305/305/124 
f 283/283/102 282/282/101 297/297/116 298/298/117 
f 291/291/110 290/290/109 305/305/124 306/306/125 
f 284/284/103 283/283/102 298/298/117 299/299/118 
f 296/296/115 356/356/175 311/311/130 
f 522/522/341 310/310/129 325/325/144 
f 304/304/123 303/303/122 318/318/137 319/319/138 
f 297/297/116 296/296/115 311/311/130 312/312/131 
f 305/305/124 304/304/123 319/319/138 320/320/139 
f 298/298/117 297/297/116 312/312/131 313/313/132 
f 306/306/125 305/305/124 320/320/139 321/321/140 
f 299/299/118 298/298/117 313/313/132 314/314/133 
f 307/307/126 306/306/125 321/321/140 322/322/141 
f 300/300/119 299/299/118 314/314/133 315/315/134 
f 308/308/127 307/307/126 322/322/141 323/323/142 
f 301/301/120 300/300/119 315/315/134 316/316/135 
f 309/309/128 308/308/127 323/323/142 324/324/143 
f 302/302/121 301/301/120 316/316/135 317/317/136 
f 310/310/129 309/309/128 324/324/143 325/325/144 
f 303/303/122 302/302/121 317/317/136 318/318/137 
f 315/315/134 314/314/133 329/329/148 330/330/149 
f 323/323/142 322/322/141 337/337/156 338/338/157 
f 316/316/135 315/315/134 330/330/149 331/331/150 
f 324/324/143 323/323/142 338/338/157 339/339/158 
f 317/317/136 316/316/135 331/331/150 332/332/151 
f 325/325/144 324/324/143 339/339/158 340/340/159 
f 318/318/137 317/317/136 332/332/151 333/333/152 
f 311/311/130 356/356/175 326/326/145 
f 522/522/341 325/325/144 340/340/159 
f 319/319/138 318/318/137 333/333/152 334/334/153 
f 312/312/131 311/311/130 326/326/145 327/327/146 
f 320/320/139 319/319/138 334/334/153 335/335/154 
f 313/313/132 312/312/131 327/327/146 328/328/147 
f 321/321/140 320/320/139 335/335/154 336/336/155 
f 314/314/133 313/313/132 328/328/147 329/329/148 
f 322/322/141 321/321/140 336/336/155 337/337/156 
f 334/334/153 333/333/152 348/348/167 349/349/168 
f 327/327/146 326/326/145 341/341/160 342/342/161 
f 335/335/154 334/334/153 349/349/168 350/350/169 
f 328/328/147 327/327/146 342/342/161 343/343/162 
f 336/336/155 335/335/154 350/350/169 351/351/170 
f 329/329/148 328/328/147 343/343/162 344/344/163 
f 337/337/156 336/336/155 351/351/170 352/352/171 
f 330/330/149 329/329/148 344/344/163 345/345/164 
f 338/338/157 337/337/156 352/352/171 353/353/172 
f 331/331/150 330/330/149 345/345/164 346/346/165 
f 339/339/158 338/338/157 353/353/172 354/354/173 
f 332/332/151 331/331/150 346/346/165 347/347/166 
f 340/340/159 339/339/158 354/354/173 355/355/174 
f 333/333/152 332/332/151 347/347/166 348/348/167 
f 326/326/145 356/356/175 341/341/160 
f 522/522/341 340/340/159 355/355/174 
f 353/353/172 352/352/171 368/368/187 369/369/188 
f 346/346/165 345/345/164 361/361/180 362/362/181 
f 354/354/173 353/353/172 369/369/188 370/370/189 
f 347/347/166 346/346/165 362/362/181 363/363/182 
f 355/355/174 354/354/173 370/370/189 371/371/190 
f 348/348/167 347/347/166 363/363/182 364/364/183 
f 341/341/160 356/356/175 357/357/176 
f 522/522/341 355/355/174 371/371/190 
f 349/349/168 348/348/167 364/364/183 365/365/184 
f 342/342/161 341/341/160 357/357/176 358/358/177 
f 350/350/169 349/349/168 365/365/184 366/366/185 
f 343/343/162 342/342/161 358/358/177 359/359/178 
f 351/351/170 350/350/169 366/366/185 367/367/186 
f 344/344/163 343/343/162 359/359/178 360/360/179 
f 352/352/171 351/351/170 367/367/186 368/368/187 
f 345/345/164 344/344/163 360/360/179 361/361/180 
f 358/358/177 357/357/176 372/372/191 373/373/192 
f 366/366/185 365/365/184 380/380/199 381/381/200 
f 359/359/178 358/358/177 373/373/192 374/374/193 
f 367/367/186 366/366/185 381/381/200 382/382/201 
f 360/360/179 359/359/178 374/374/193 375/375/194 
f 368/368/187 367/367/186 382/382/201 383/383/202 
f 361/361/180 360/360/179 375/375/194 376/376/195 
f 369/369/188 368/368/187 383/383/202 384/384/203 
f 362/362/181 361/361/180 376/376/195 377/377/196 
f 370/370/189 369/369/188 384/384/203 385/385/204 
f 363/363/182 362/362/181 377/377/196 378/378/197 
f 371/371/190 370/370/189 385/385/204 386/386/205 
f 364/364/183 363/363/182 378/378/197 379/379/198 
f 357/357/176 356/356/175 372/372/191 
f 522/522/341 371/371/190 386/386/205 
f 365/365/184 364/364/183 379/379/198 380/380/199 
f 377/377/196 376/376/195 391/391/210 392/392/211 
f 385/385/204 384/384/203 399/399/218 400/400/219 
f 378/378/197 377/377/196 392/392/211 393/393/212 
f 386/386/205 385/385/204 400/400/219 401/401/220 
f 379/379/198 378/378/197 393/393/212 394/394/213 
f 372/372/191 356/356/175 387/387/206 
f 522/522/341 386/386/205 401/401/220 
f 380/380/199 379/379/198 394/394/213 395/395/214 
f 373/373/192 372/372/191 387/387/206 388/388/207 
f 381/381/200 380/380/199 395/395/214 396/396/215 
f 374/374/193 373/373/192 388/388/207 389/389/208 
f 382/382/201 381/381/200 396/396/215 397/397/216 
f 375/375/194 374/374/193 389/389/208 390/390/209 
f 383/383/202 382/382/201 397/397/216 398/398/217 
f 376/376/195 375/375/194 390/390/209 391/391/210 
f 384/384/203 383/383/202 398/398/217 399/399/218 
f 396/396/215 395/395/214 410/410/229 411/411/230 
f 389/389/208 388/388/207 403/403/222 404/404/223 
f 397/397/216 396/396/215 411/411/230 412/412/231 
f 390/390/209 389/389/208 404/404/223 405/405/224 
f 398/398/217 397/397/216 412/412/231 413/413/232 
f 391/391/210 390/390/209 405/405/224 406/406/225 
f 399/399/218 398/398/217 413/413/232 414/414/233 
f 392/392/211 391/391/210 406/406/225 407/407/226 
f 400/400/219 399/399/218 414/414/233 415/415/234 
f 393/393/212 392/392/211 407/407/226 408/408/227 
f 401/401/220 400/400/219 415/415/234 416/416/235 
f 394/394/213 393/393/212 408/408/227 409/409/228 
f 387/387/206 356/356/175 402/402/221 
f 522/522/341 401/401/220 416/416/235 
f 395/395/214 394/394/213 409/409/228 410/410/229 
f 388/388/207 387/387/206 402/402/221 403/403/222 
f 415/415/234 414/414/233 429/429/248 430/430/249 
f 408/408/227 407/407/226 422/422/241 423/423/242 
f 416/416/235 415/415/234 430/430/249 431/431/250 
f 409/409/228 408/408/227 423/423/242 424/424/243 
f 402/402/221 356/356/175 417/417/236 
f 522/522/341 416/416/235 431/431/250 
f 410/410/229 409/409/228 424/424/243 425/425/244 
f 403/403/222 402/402/221 417/417/236 418/418/237 
f 411/411/230 410/410/229 425/425/244 426/426/245 
f 404/404/223 403/403/222 418/418/237 419/419/238 
f 412/412/231 411/411/230 426/426/245 427/427/246 
f 405/405/224 404/404/223 419/419/238 420/420/239 
f 413/413/232 412/412/231 427/427/246 428/428/247 
f 406/406/225 405/405/224 420/420/239 421/421/240 
f 414/414/233 413/413/232 428/428/247 429/429/248 
f 407/407/226 406/406/225 421/421/240 422/422/241 
f 427/427/246 426/426/245 441/441/260 442/442/261 
f 420/420/239 419/419/238 434/434/253 435/435/254 
f 428/428/247 427/427/246 442/442/261 443/443/262 
f 421/421/240 420/420/239 435/435/254 436/436/255 
f 429/429/248 428/428/247 443/443/262 444/444/263 
f 422/422/241 421/421/240 436/436/255 437/437/256 
f 430/430/249 429/429/248 444/444/263 445/445/264 
f 423/423/242 422/422/241 437/437/256 438/438/257 
f 431/431/250 430/430/249 445/445/264 446/446/265 
f 424/424/243 423/423/242 438/438/257 439/439/258 
f 417/417/236 356/356/175 432/432/251 
f 522/522/341 431/431/250 446/446/265 
f 425/425/244 424/424/243 439/439/258 440/440/259 
f 418/418/237 417/417/236 432/432/251 433/433/252 
f 426/426/245 425/425/244 440/440/259 441/441/260 
f 419/419/238 418/418/237 433/433/252 434/434/253 
f 446/446/265 445/445/264 460/460/279 461/461/280 
f 439/439/258 438/438/257 453/453/272 454/454/273 
f 432/432/251 356/356/175 447/447/266 
f 522/522/341 446/446/265 461/461/280 
f 440/440/259 439/439/258 454/454/273 455/455/274 
f 433/433/252 432/432/251 447/447/266 448/448/267 
f 441/441/260 440/440/259 455/455/274 456/456/275 
f 434/434/253 433/433/252 448/448/267 449/449/268 
f 442/442/261 441/441/260 456/456/275 457/457/276 
f 435/435/254 434/434/253 449/449/268 450/450/269 
f 443/443/262 442/442/261 457/457/276 458/458/277 
f 436/436/255 435/435/254 450/450/269 451/451/270 
f 444/444/263 443/443/262 458/458/277 459/459/278 
f 437/437/256 436/436/255 451/451/270 452/452/271 
f 445/445/264 444/444/263 459/459/278 460/460/279 
f 438/438/257 437/437/256 452/452/271 453/453/272 
f 450/450/269 449/449/268 464/464/283 465/465/284 
f 458/458/277 457/457/276 472/472/291 473/473/292 
f 451/451/270 450/450/269 465/465/284 466/466/285 
f 459/459/278 458/458/277 473/473/292 474/474/293 
f 452/452/271 451/451/270 466/466/285 467/467/286 
f 460/460/279 459/459/278 474/474/293 475/475/294 
f 453/453/272 452/452/271 467/467/286 468/468/287 
f 461/461/280 460/460/279 475/475/294 476/476/295 
f 454/454/273 453/453/272 468/468/287 469/469/288 
f 447/447/266 356/356/175 462/462/281 
f 522/522/341 461/461/280 476/476/295 
f 455/455/274 454/454/273 469/469/288 470/470/289 
f 448/448/267 447/447/266 462/462/281 463/463/282 
f 456/456/275 455/455/274 470/470/289 471/471/290 
f 449/449/268 448/448/267 463/463/282 464/464/283 
f 457/457/276 456/456/275 471/471/290 472/472/291 
f 469/469/288 468/468/287 483/483/302 484/484/303 
f 462/462/281 356/356/175 477/477/296 
f 522/522/341 476/476/295 491/491/310 
f 470/470/289 469/469/288 484/484/303 485/485/304 
f 463/463/282 462/462/281 477/477/296 478/478/297 
f 471/471/290 470/470/289 485/485/304 486/486/305 
f 464/464/283 463/463/282 478/478/297 479/479/298 
f 472/472/291 471/471/290 486/486/305 487/487/306 
f 465/465/284 464/464/283 479/479/298 480/480/299 
f 473/473/292 472/472/291 487/487/306 488/488/307 
f 466/466/285 465/465/284 480/480/299 481/481/300 
f 474/474/293 473/473/292 488/488/307 489/489/308 
f 467/467/286 466/466/285 481/481/300 482/482/301 
f 475/475/294 474/474/293 489/489/308 490/490/309 
f 468/468/287 467/467/286 482/482/301 483/483/302 
f 476/476/295 475/475/294 490/490/309 491/491/310 
f 488/488/307 487/487/306 502/502/321 503/503/322 
f 481/481/300 480/480/299 495/495/314 496/496/315 
f 489/489/308 488/488/307 503/503/322 504/504/323 
f 482/482/301 481/481/300 496/496/315 497/497/316 
f 490/490/309 489/489/308 504/504/323 505/505/324 
f 483/483/302 482/482/301 497/497/316 498/498/317 
f 491/491/310 490/490/309 505/505/324 506/506/325 
f 484/484/303 483/483/302 498/498/317 499/499/318 
f 477/477/296 356/356/175 492/492/311 
f 522/522/341 491/491/310 506/506/325 
f 485/485/304 484/484/303 499/499/318 500/500/319 
f 478/478/297 477/477/296 492/492/311 493/493/312 
f 486/486/305 485/485/304 500/500/319 501/501/320 
f 479/479/298 478/478/297 493/493/312 494/494/313 
f 487/487/306 486/486/305 501/501/320 502/502/321 
f 480/480/299 479/479/298 494/494/313 495/495/314 
f 500/500/319 499/499/318 514/514/333 515/515/334 
f 493/493/312 492/492/311 507/507/326 508/508/327 
f 501/501/320 500/500/319 515/515/334 516/516/335 
f 494/494/313 493/493/312 508/508/327 509/509/328 
f 502/502/321 501/501/320 516/516/335 517/517/336 
f 495/495/314 494/494/313 509/509/328 510/510/329 
f 503/503/322 502/502/321 517/517/336 518/518/337 
f 496/496/315 495/495/314 510/510/329 511/511/330 
f 504/504/323 503/503/322 518/518/337 519/519/338 
f 497/497/316 496/496/315 511/511/330 512/512/331 
f 505/505/324 504/504/323 519/519/338 520/520/339 
f 498/498/317 497/497/316 512/512/331 513/513/332 
f 506/506/325 505/505/324 520/520/339 521/521/340 
f 499/499/318 498/498/317 513/513/332 514/514/333 
#end 452 faces

#ZOMPROPERTIES_04{
#ZOMPROPERTIES_04 table {Mesh table {SymPlane table {Point vector3d 0 0 0 Normal vector3d 1 0 0 Threshold double 0.01 
#ZOMPROPERTIES_04 Enabled bool false EdgeID int -1 SymEdgeID int -1 UPos double 0.5 LocalMode bool false } RootGroup C
#ZOMPROPERTIES_04 SubMeshGroup {Children table {Tile_0_0 CSubMeshGroup {Children table {} BBoxUV box3d 0 0 0 0 0 0 BBo
#ZOMPROPERTIES_04 x3D box3d 0 0 0 0 0 0 Area3D double 0 AreaUV double 0.619991 IsRoot bool false Properties table {Sel
#ZOMPROPERTIES_04 ected bool false Box box3d 0 1 0 1 0 1 U int 0 V int 0 NU int 0 NV int 0 Tiling vector3d 1 1 1 TileR
#ZOMPROPERTIES_04 atioMode string "1:1" Overflow string "Off" Pack table {BoxFrameEdit bool false Behavior string "Fre
#ZOMPROPERTIES_04 e" } } IsTile bool true PolyIDs ints { 200 212 210 228 226 224 221 245 252 255 232 262 275 283 306 3
#ZOMPROPERTIES_04 14 317 309 295 288 286 264 257 259 236 234 238 214 261 247 240 242 218 216 202 204 220 223 231 244 2
#ZOMPROPERTIES_04 51 249 272 270 268 292 290 297 299 301 278 280 303 305 282 285 277 274 308 316 313 311 334 342 344 3
#ZOMPROPERTIES_04 66 374 377 400 397 421 428 431 450 448 426 424 417 415 422 444 442 440 438 451 449 427 425 423 437 4
#ZOMPROPERTIES_04 35 441 439 433 410 412 404 402 379 376 368 346 338 315 307 284 276 253 230 222 225 207 209 227 229 2
#ZOMPROPERTIES_04 37 260 267 291 298 300 324 331 329 353 351 349 327 320 296 294 289 287 322 318 341 373 359 361 355 3
#ZOMPROPERTIES_04 57 333 335 312 310 302 279 293 271 269 248 246 241 239 215 213 211 201 203 217 219 243 250 273 281 3
#ZOMPROPERTIES_04 04 337 340 348 350 326 319 328 321 330 323 325 332 356 362 364 388 386 393 395 391 384 382 358 360 3
#ZOMPROPERTIES_04 54 405 403 380 378 370 372 367 365 363 387 385 392 390 414 394 396 389 398 375 401 409 432 406 411 4
#ZOMPROPERTIES_04 34 413 420 418 416 383 343 345 352 265 263 258 256 235 233 371 381 399 407 430 443 445 447 429 436 4
#ZOMPROPERTIES_04 46 419 408 369 347 336 339 254 266 205 206 208 190 193 194 192 191 195 198 199 197 196 167 182 189 1
#ZOMPROPERTIES_04 83 168 179 170 180 172 184 176 188 173 187 175 185 174 186 171 169 177 181 178 116 118 117 152 161 1
#ZOMPROPERTIES_04 58 164 166 160 157 153 162 159 163 154 165 155 156 113 114 115 119 142 131 141 126 138 124 123 137 1
#ZOMPROPERTIES_04 25 120 139 136 130 140 151 127 145 135 146 129 144 134 149 122 128 148 121 143 133 150 132 147 5 87 
#ZOMPROPERTIES_04 80 64 81 97 16 55 14 86 79 41 23 82 63 98 46 49 7 89 24 93 67 88 68 53 18 92 1 66 27 22 96 31 6 58 1
#ZOMPROPERTIES_04 00 99 12 65 102 32 57 90 26 75 28 103 56 111 30 106 59 107 72 108 105 60 109 4 104 71 70 110 73 69 0
#ZOMPROPERTIES_04  44 2 51 29 50 39 35 3 52 9 34 8 84 61 95 91 25 94 21 62 78 40 43 11 83 54 112 74 13 36 101 77 17 42
#ZOMPROPERTIES_04  37 38 45 85 10 15 76 20 33 47 19 48 } } } BBoxUV box3d 0 0 0 0 0 0 BBox3D box3d 0 0 0 0 0 0 Area3D 
#ZOMPROPERTIES_04 double 0 AreaUV double 0.187347 IsRoot bool true Properties table {Selected bool false Box box3d 0 1
#ZOMPROPERTIES_04  0 1 0 1 U int 0 V int 0 NU int 1 NV int 1 Tiling vector3d 1 1 1 TileRatioMode string "1:1" Overflow
#ZOMPROPERTIES_04  string "Off" Pack table {Rotate table {Mode int 0 Min double 0 Max double 90 Step double 0 } Paddin
#ZOMPROPERTIES_04 gSize double 0.0078125 MarginSize double 0.00390625 Resolution int 256 MapResolution int 2048 Scalin
#ZOMPROPERTIES_04 g table {TexelDensity double 1024 Mode int 2 } LayoutScalingMode int 2 MaxMutations int 1 } } IsTile
#ZOMPROPERTIES_04  bool false PolyIDs ints { } } Maps table {Density table {PrimType string "Polygon" Size int 1 Defau
#ZOMPROPERTIES_04 ltValue double 1 ScaleType string "Log" MergeMode string "Average" MinValue double 0.1 MaxValue doub
#ZOMPROPERTIES_04 le 4 Data doubles { r 452 1 } } Pin table {PrimType string "Vertex" Size int 1 DefaultValue double 0
#ZOMPROPERTIES_04  ScaleType string "Normalized" MergeMode string "Max" MinValue double 0 MaxValue double 1 Data doubl
#ZOMPROPERTIES_04 es { r 549 0 } } Protect table {PrimType string "Vertex" Size int 1 DefaultValue double 0 ScaleType 
#ZOMPROPERTIES_04 string "Normalized" MergeMode string "Average" MinValue double -1 MaxValue double 1 Data doubles { r
#ZOMPROPERTIES_04  549 0 } } } } }
#ZOMPROPERTIES_04}


#ZOMSCENE_01{
#ZOMSCENE_01 CScene {Settings table {AxisSystem table {UpVector string "y" } Unit string "cm" TexelDensityDisplay
#ZOMSCENE_01 Unit string "tx/cm" } }
#ZOMSCENE_01}

#begin 0 fatal error vertex (that RizomUV cannot handle)
#end 0 fatal error vertex (that RizomUV cannot handle)

#begin 0 error vertex
#end 0 error vertex
