#File written by RizomUV 2022.1.57.gfabcfb8. Compilation :Sep 28 2022,23:52:22
mtllib Mesa.mtl
#begin vertices
v 35.02882 0.9833 2.961185
v 35.02282 0.9833 2.955184
v 35.02882 1.039639 2.961185
v 35.02882 1.045639 2.955184
v 35.02282 1.039639 2.955184
v 35.02282 0.9833 1.775107
v 35.02882 0.9833 1.769107
v 35.02882 1.045639 1.775107
v 35.02882 1.039639 1.769107
v 35.02282 1.039639 1.775107
v 35.95504 0.9833 2.955184
v 35.94904 0.9833 2.961185
v 35.94904 1.045639 2.955184
v 35.94904 1.039639 2.961185
v 35.95504 1.039639 2.955184
v 35.94904 0.9833 1.769107
v 35.95504 0.9833 1.775107
v 35.94904 1.045639 1.775107
v 35.95504 1.039639 1.775107
v 35.94904 1.039639 1.769107
v 35.07409 0.297561 2.106138
v 35.07409 0.291561 2.112138
v 35.07409 0.33275 2.112138
v 35.07409 0.32675 2.106138
v 35.07409 0.291561 2.15191
v 35.07409 0.297561 2.15791
v 35.07409 0.32675 2.15791
v 35.07409 0.33275 2.15191
v 35.90376 0.291561 2.112138
v 35.90376 0.297561 2.106138
v 35.90376 0.32675 2.106138
v 35.90376 0.33275 2.112138
v 35.90376 0.297561 2.15791
v 35.90376 0.291561 2.15191
v 35.90376 0.33275 2.15191
v 35.90376 0.32675 2.15791
v 35.8666 1.037084 2.806678
v 35.8606 1.035837 2.81395
v 35.92365 1.035837 2.81395
v 35.91765 1.037084 2.806678
v 35.8606 1.021834 2.895585
v 35.8666 1.020587 2.902853
v 35.91765 1.020587 2.902853
v 35.92365 1.021834 2.895585
v 35.8606 0.003614 1.770335
v 35.8666 0.003614 1.761803
v 35.91765 0.003614 1.761803
v 35.92365 0.003614 1.770335
v 35.8666 0.003614 1.875726
v 35.8606 0.003614 1.867198
v 35.92365 0.003614 1.867198
v 35.91765 0.003614 1.875726
v 35.11125 1.037084 2.806678
v 35.11725 1.035837 2.81395
v 35.05421 1.035837 2.81395
v 35.0602 1.037084 2.806678
v 35.11725 1.021834 2.895585
v 35.11125 1.020587 2.902853
v 35.0602 1.020587 2.902853
v 35.05421 1.021834 2.895585
v 35.11725 0.003614 1.770335
v 35.11125 0.003614 1.761803
v 35.06021 0.003614 1.761803
v 35.05421 0.003614 1.770335
v 35.11125 0.003614 1.875726
v 35.11725 0.003614 1.867198
v 35.05421 0.003614 1.867198
v 35.06021 0.003614 1.875726
v 35.8415 1.037084 1.915565
v 35.84749 1.035837 1.908294
v 35.78445 1.035837 1.908294
v 35.79045 1.037084 1.915565
v 35.84749 1.021834 1.826659
v 35.8415 1.020587 1.81939
v 35.79045 1.020587 1.81939
v 35.78445 1.021834 1.826659
v 35.84749 0.003614 2.951908
v 35.84149 0.003614 2.96044
v 35.79045 0.003614 2.96044
v 35.78445 0.003614 2.951908
v 35.84149 0.003614 2.846517
v 35.84749 0.003614 2.855045
v 35.78445 0.003614 2.855045
v 35.79045 0.003614 2.846517
v 35.13636 1.037084 1.915565
v 35.13036 1.035837 1.908294
v 35.1934 1.035837 1.908294
v 35.1874 1.037084 1.915565
v 35.13036 1.021834 1.826659
v 35.13636 1.020587 1.81939
v 35.1874 1.020587 1.81939
v 35.1934 1.021834 1.826659
v 35.13036 0.003614 2.951908
v 35.13636 0.003614 2.96044
v 35.1874 0.003614 2.96044
v 35.1934 0.003614 2.951908
v 35.13636 0.003614 2.846517
v 35.13036 0.003614 2.855045
v 35.1934 0.003614 2.855045
v 35.1874 0.003614 2.846517
v 35.15615 0.291561 2.565106
v 35.15615 0.291561 2.616877
v 35.8217 0.291561 2.565106
v 35.8217 0.291561 2.616877
v 35.15615 0.33275 2.571106
v 35.15615 0.32675 2.565106
v 35.15615 0.32675 2.616877
v 35.15615 0.33275 2.610877
v 35.8217 0.32675 2.565106
v 35.8217 0.33275 2.571106
v 35.8217 0.33275 2.610877
v 35.8217 0.32675 2.616877
#end vertices

#begin 134 textures vertices 
vt 0.7628808 0.7976567 0
vt 0.769816 0.7976567 0
vt 0.7628808 0.7516142 0
vt 0.7628808 0.7446789 0
vt 0.769816 0.7516142 0
vt 0.7695134 0.6850362 0
vt 0.01084161 0.7406678 0
vt 0.01084161 0.6876912 0
vt 0.01084161 0.6946247 0
vt 0.00390625 0.6946247 0
vt 0.00390625 0.00390625 0
vt 0.01084153 0.7976567 0
vt 0.01084153 0.7446789 0
vt 0.01084153 0.7516142 0
vt 0.00390625 0.7516142 0
vt 0.7628896 0.7406678 0
vt 0.7698232 0.7406678 0
vt 0.7628896 0.6876912 0
vt 0.7698232 0.6946247 0
vt 0.7628896 0.6946247 0
vt 0.5043356 0.8396942 0
vt 0.5043356 0.8345762 0
vt 0.5043356 0.8624178 0
vt 0.5043356 0.8572999 0
vt 0.5043356 0.8105871 0
vt 0.5043356 0.8054692 0
vt 0.5043356 0.8915249 0
vt 0.5043356 0.8864069 0
vt 0.00390625 0.8345762 0
vt 0.00390625 0.8396942 0
vt 0.00390625 0.8572999 0
vt 0.00390625 0.8624178 0
vt 0.00390625 0.9091305 0
vt 0.00390625 0.8105871 0
vt 0.00390625 0.8864069 0
vt 0.00390625 0.8915249 0
vt 0.8796586 0.5000944 0
vt 0.8830183 0.5000944 0
vt 0.859044 0.5000944 0
vt 0.862405 0.5000944 0
vt 0.8048011 0.5000944 0
vt 0.8081702 0.5000944 0
vt 0.8254252 0.5000944 0
vt 0.8287836 0.5000944 0
vt 0.7745407 0.007418177 0
vt 0.8796586 0.007418177 0
vt 0.862405 0.007418177 0
vt 0.859044 0.007418177 0
vt 0.8081702 0.007418177 0
vt 0.8048011 0.007418177 0
vt 0.8287836 0.007418177 0
vt 0.8254252 0.007418177 0
vt 0.8891895 0.5000795 0
vt 0.9943042 0.5000795 0
vt 0.9098035 0.5000795 0
vt 0.9064439 0.5000795 0
vt 0.9640447 0.5000795 0
vt 0.9606757 0.5000795 0
vt 0.9434226 0.5000795 0
vt 0.940063 0.5000795 0
vt 0.8858299 0.007418177 0
vt 0.8891895 0.007418177 0
vt 0.9064439 0.007418177 0
vt 0.9098035 0.007418177 0
vt 0.9606757 0.007418177 0
vt 0.9640447 0.007418177 0
vt 0.940063 0.007418177 0
vt 0.9434226 0.007418177 0
vt 0.9030828 0.9943537 0
vt 0.9064438 0.9943537 0
vt 0.9909441 0.9943537 0
vt 0.9943037 0.9943537 0
vt 0.9367031 0.9943537 0
vt 0.9400722 0.9943537 0
vt 0.9573252 0.9943537 0
vt 0.9606848 0.9943537 0
vt 0.9064438 0.5016947 0
vt 0.9030828 0.5016947 0
vt 0.8858299 0.5016947 0
vt 0.9909441 0.5016947 0
vt 0.9400722 0.5016947 0
vt 0.9367031 0.5016947 0
vt 0.9606848 0.5016947 0
vt 0.9573252 0.5016947 0
vt 0.8657608 0.9943718 0
vt 0.8624012 0.9943718 0
vt 0.7779003 0.9943718 0
vt 0.8830153 0.9943718 0
vt 0.8321416 0.9943718 0
vt 0.8287726 0.9943718 0
vt 0.8115195 0.9943718 0
vt 0.8081599 0.9943718 0
vt 0.8624012 0.5017096 0
vt 0.8657608 0.5017096 0
vt 0.7745407 0.5017096 0
vt 0.7779003 0.5017096 0
vt 0.8287726 0.5017096 0
vt 0.8321416 0.5017096 0
vt 0.8081599 0.5017096 0
vt 0.8115195 0.5017096 0
vt 0.00390625 0.9936172 0
vt 0.00390625 0.916943 0
vt 0.4053417 0.9936172 0
vt 0.4053417 0.916943 0
vt 0.00390625 0.967275 0
vt 0.00390625 0.9723923 0
vt 0.00390625 0.9381679 0
vt 0.00390625 0.9432865 0
vt 0.4053417 0.9723923 0
vt 0.4053417 0.967275 0
vt 0.4053417 0.9432865 0
vt 0.4053417 0.9381679 0
vt 0.00390625 0.6429791 0
vt 0.00390625 0.04596193 0
vt 0.00390625 0.6484849 0
vt 0.7695134 0.04596193 0
vt 0.7695134 0.6484849 0
vt 0.8858299 0.9943537 0
vt 0.7695134 0.6429791 0
vt 0.9943037 0.5016947 0
vt 0.00390625 0.04045752 0
vt 0.7695134 0.04045752 0
vt 0.00390625 0.6850362 0
vt 0.00390625 0.7406678 0
vt 0.7695134 0.00390625 0
vt 0.00390625 0.7976567 0
vt 0.00390625 0.8054692 0
vt 0.5043356 0.9091305 0
vt 0.8830183 0.007418177 0
vt 0.7745407 0.5000944 0
vt 0.8858299 0.5000795 0
vt 0.9943042 0.007418177 0
vt 0.7745407 0.9943718 0
vt 0.8830153 0.5017096 0
#end 134 textures vertices 

#begin 54 normals 
vn -0.5773 0.5776 0.5772
vn -0.5772 0.5777 -0.5772
vn 0.5773 0.5776 0.5772
vn 0.5772 0.5777 -0.5772
vn -0.7071 -0 0.7071
vn -0.7071 0.7071 -0
vn -0.7071 -0 -0.7071
vn -0 0.7071 -0.7071
vn 0.7071 -0 -0.7071
vn 0.7071 0.7071 -0
vn 0.7071 -0 0.7071
vn -0 0.7072 0.7071
vn -1 -0 -0
vn -0 -0 1
vn -0 1 -0
vn -0 -0 -1
vn 1 -0 -0
vn -0 -0.7071 0.7071
vn -0 0.7071 0.7071
vn -0 -0.7071 -0.7071
vn -0 0.7071 -0.7071
vn -0 -1 -0
vn -0 -0 -1
vn -0 1 -0
vn -0 -0 1
vn -0.707 -0.5028 0.4974
vn 0.707 -0.5026 0.4975
vn -0.707 0.5029 -0.4972
vn 0.707 0.5029 -0.4972
vn -1 -0 -0
vn -0 0.711 -0.7032
vn 1 -0 -0
vn -0 -0.7106 0.7036
vn 0.7073 -0.5023 0.4974
vn -0.707 -0.5026 0.4975
vn 0.7073 0.5025 -0.4971
vn -0.7071 0.5027 -0.4972
vn 0.7072 -0.5024 -0.4975
vn -0.7071 -0.5026 -0.4975
vn 0.7072 0.5027 0.4972
vn -0.707 0.5029 0.4972
vn 1 -0 -0
vn -0 0.711 0.7032
vn -1 -0 -0
vn -0 -0.7106 -0.7036
vn -0.7071 -0.5024 -0.4975
vn 0.7071 -0.5025 -0.4975
vn -0.7071 0.5026 0.4973
vn 0.707 0.5028 0.4973
vn -0 0.7071 0.7071
vn -0 0.7071 -0.7071
vn -0 -0 -1
vn -0 1 -0
vn -0 -0 1
#end 54 normals 

#begin 62 faces
o Cube:085:001
s 1
f 3/3/1 4/4/1 5/5/1 
f 8/8/2 9/9/2 10/10/2 
f 13/13/3 14/14/3 15/15/3 
f 18/18/4 19/19/4 20/20/4 
f 1/1/5 3/3/5 5/5/5 2/2/5 
f 4/113/6 8/119/6 10/117/6 5/115/6 
f 9/9/7 7/7/7 6/124/7 10/10/7 
f 8/8/8 18/18/8 20/20/8 9/9/8 
f 19/19/9 17/17/9 16/16/9 20/20/9 
f 18/116/10 13/114/10 15/121/10 19/122/10 
f 14/14/11 12/12/11 11/126/11 15/15/11 
f 13/13/12 4/4/12 3/3/12 14/14/12 
f 2/123/13 5/115/13 10/117/13 6/6/13 
f 12/12/14 14/14/14 3/3/14 1/1/14 
f 18/116/15 8/119/15 4/113/15 13/114/15 
f 7/7/16 9/9/16 20/20/16 16/16/16 
f 17/125/17 19/122/17 15/121/17 11/11/17 
o Cube:086:001
s 1
f 33/127/18 26/26/18 25/25/18 34/34/18 
f 27/27/19 36/36/19 35/35/19 28/28/19 
f 21/21/20 30/30/20 29/29/20 22/22/20 
f 31/31/21 24/24/21 23/23/21 32/32/21 
f 25/25/22 22/22/22 29/29/22 34/34/22 
f 30/30/23 21/21/23 24/24/23 31/31/23 
f 35/35/24 32/32/24 23/23/24 28/28/24 
f 26/128/25 33/33/25 36/36/25 27/27/25 
o Cube:087:001
s 1
f 49/49/26 42/42/26 41/41/26 50/50/26 
f 43/43/27 52/52/27 51/51/27 44/44/27 
f 37/37/28 46/46/28 45/129/28 38/38/28 
f 47/47/29 40/40/29 39/39/29 48/48/29 
f 41/41/30 38/130/30 45/45/30 50/50/30 
f 46/46/31 37/37/31 40/40/31 47/47/31 
f 51/51/32 48/48/32 39/39/32 44/44/32 
f 42/42/33 49/49/33 52/52/33 43/43/33 
f 65/65/34 66/66/34 57/57/34 58/58/34 
f 59/59/35 60/60/35 67/67/35 68/68/35 
f 53/53/36 54/131/36 61/61/36 62/62/36 
f 63/63/37 64/64/37 55/55/37 56/56/37 
f 57/57/32 66/66/32 61/132/32 54/54/32 
f 62/62/31 63/63/31 56/56/31 53/53/31 
f 67/67/30 60/60/30 55/55/30 64/64/30 
f 58/58/33 59/59/33 68/68/33 65/65/33 
o Cube:088:001
s 1
f 81/81/38 74/74/38 73/73/38 82/82/38 
f 75/75/39 84/84/39 83/83/39 76/76/39 
f 69/69/40 78/78/40 77/77/40 70/70/40 
f 79/120/41 72/72/41 71/71/41 80/80/41 
f 73/73/42 70/70/42 77/77/42 82/82/42 
f 78/78/43 69/69/43 72/118/43 79/79/43 
f 83/83/44 80/80/44 71/71/44 76/76/44 
f 74/74/45 81/81/45 84/84/45 75/75/45 
f 97/97/46 98/98/46 89/89/46 90/90/46 
f 91/91/47 92/92/47 99/99/47 100/100/47 
f 85/85/48 86/86/48 93/93/48 94/94/48 
f 95/95/49 96/96/49 87/87/49 88/133/49 
f 89/89/44 98/98/44 93/93/44 86/86/44 
f 94/94/43 95/134/43 88/88/43 85/85/43 
f 99/99/42 92/92/42 87/87/42 96/96/42 
f 90/90/45 91/91/45 100/100/45 97/97/45 
o Cube:089:001
s 1
f 107/107/50 112/112/50 111/111/50 108/108/50 
f 109/109/51 106/106/51 105/105/51 110/110/51 
f 103/103/52 101/101/52 106/106/52 109/109/52 
f 111/111/53 110/110/53 105/105/53 108/108/53 
f 102/102/54 104/104/54 112/112/54 107/107/54 
#end 62 faces

#ZOMPROPERTIES_04{
#ZOMPROPERTIES_04 table {Mesh table {SymPlane table {Point vector3d 0 0 0 Normal vector3d 1 0 0 Threshold double 0.01 
#ZOMPROPERTIES_04 Enabled bool false EdgeID int -1 SymEdgeID int -1 UPos double 0.5 LocalMode bool false } RootGroup C
#ZOMPROPERTIES_04 SubMeshGroup {Children table {Tile_0_0 CSubMeshGroup {Children table {} BBoxUV box3d 0 0 0 0 0 0 BBo
#ZOMPROPERTIES_04 x3D box3d 0 0 0 0 0 0 Area3D double 0 AreaUV double 0.898956 IsRoot bool false Properties table {Sel
#ZOMPROPERTIES_04 ected bool false Box box3d 0 1 0 1 0 1 U int 0 V int 0 NU int 0 NV int 0 Tiling vector3d 1 1 1 TileR
#ZOMPROPERTIES_04 atioMode string "1:1" Overflow string "Off" Pack table {BoxFrameEdit bool false Behavior string "Fre
#ZOMPROPERTIES_04 e" } } IsTile bool true PolyIDs ints { 57 60 58 59 61 1 6 15 8 3 7 0 11 13 10 2 4 17 21 19 22 20 23 
#ZOMPROPERTIES_04 18 24 41 45 43 46 48 42 47 44 33 40 34 39 36 38 35 37 49 53 51 54 56 50 55 52 25 32 26 31 28 30 27 2
#ZOMPROPERTIES_04 9 5 12 14 9 16 } } } BBoxUV box3d 0 0 0 0 0 0 BBox3D box3d 0 0 0 0 0 0 Area3D double 0 AreaUV double
#ZOMPROPERTIES_04  0 IsRoot bool true Properties table {Selected bool false Box box3d 0 1 0 1 0 1 U int 0 V int 0 NU i
#ZOMPROPERTIES_04 nt 1 NV int 1 Tiling vector3d 1 1 1 TileRatioMode string "1:1" Overflow string "Off" Pack table {Rot
#ZOMPROPERTIES_04 ate table {Mode int 0 Min double 0 Max double 90 Step double 0 } PaddingSize double 0.0078125 Margin
#ZOMPROPERTIES_04 Size double 0.00390625 Resolution int 256 MapResolution int 2048 Scaling table {TexelDensity double 
#ZOMPROPERTIES_04 1024 Mode int 2 } LayoutScalingMode int 2 MaxMutations int 1 } } IsTile bool false PolyIDs ints { } 
#ZOMPROPERTIES_04 } Maps table {Density table {PrimType string "Polygon" Size int 1 DefaultValue double 1 ScaleType st
#ZOMPROPERTIES_04 ring "Log" MergeMode string "Average" MinValue double 0.1 MaxValue double 4 Data doubles { r 62 1 } 
#ZOMPROPERTIES_04 } Pin table {PrimType string "Vertex" Size int 1 DefaultValue double 0 ScaleType string "Normalized"
#ZOMPROPERTIES_04  MergeMode string "Max" MinValue double 0 MaxValue double 1 Data doubles { r 134 0 } } Protect table
#ZOMPROPERTIES_04  {PrimType string "Vertex" Size int 1 DefaultValue double 0 ScaleType string "Normalized" MergeMode 
#ZOMPROPERTIES_04 string "Average" MinValue double -1 MaxValue double 1 Data doubles { r 134 0 } } } } }
#ZOMPROPERTIES_04}


#ZOMSCENE_01{
#ZOMSCENE_01 CScene {Settings table {AxisSystem table {UpVector string "y" } Unit string "cm" TexelDensityDisplay
#ZOMSCENE_01 Unit string "tx/cm" } }
#ZOMSCENE_01}

#begin 0 fatal error vertex (that RizomUV cannot handle)
#end 0 fatal error vertex (that RizomUV cannot handle)

#begin 0 error vertex
#end 0 error vertex
