# Blender 4.1.0
# www.blender.org
mtllib 14 low_wUV.mtl
o Cube:012
v -43.371552 -0.275924 -57.976551
v -43.371552 -0.275924 -47.558559
v -43.371552 17.360937 -47.558559
v -43.371552 17.360937 -57.976551
v -43.371552 19.234426 -54.609089
v -43.371552 19.234426 -56.135010
v -43.371552 19.234426 -52.004589
v -43.371552 19.234426 -53.530521
v -43.371552 19.234426 -49.400101
v -43.371552 19.234426 -50.926022
v -43.371552 19.234426 -55.372051
v -43.371552 19.234426 -52.767559
v -43.371552 19.234426 -50.163059
v -55.180119 -0.275924 -52.767559
v -55.180119 -0.275924 -50.163059
v -43.371552 2.553835 -57.976551
v -43.371552 2.553835 -47.558559
v -55.180119 2.553835 -52.767559
v -55.180119 2.553835 -50.163059
v -43.371552 19.234426 -54.762169
v -43.371552 19.234426 -55.981930
v -54.954571 -0.275924 -55.372051
v -43.371552 19.234426 -53.361969
v -55.180119 -0.275924 -53.361969
v -55.180119 2.553835 -53.361969
v -43.371552 19.234426 -52.173141
v -55.180119 -0.275924 -52.173141
v -55.180119 2.553835 -52.173141
v -43.371552 19.234426 -50.763512
v -55.180119 -0.275924 -50.763512
v -55.180119 2.553835 -50.763512
v -43.371552 19.234426 -49.562611
v -55.180119 -0.275924 -49.562611
v -55.180119 2.553835 -49.562611
v -55.540070 -0.275924 -57.969551
v -55.533070 -0.275924 -57.976551
v -55.540070 19.227427 -57.969551
v -55.533070 19.234426 -57.969551
v -55.533070 19.227427 -57.976551
v -43.371552 19.227427 -57.976551
v -43.371552 19.234426 -57.969551
v -55.533070 -0.275924 -47.558559
v -55.540070 -0.275924 -47.565559
v -55.533070 19.234426 -47.565559
v -55.540070 19.227427 -47.565559
v -55.533070 19.227427 -47.558559
v -43.371552 19.234426 -47.565559
v -43.371552 19.227427 -47.558559
v -55.533070 17.353926 -54.609089
v -55.540070 17.358786 -54.602089
v -55.533070 17.366877 -54.612789
v -55.533070 17.366877 -56.131321
v -55.540070 17.358786 -56.142010
v -55.533070 17.353926 -56.135010
v -55.533070 17.366707 -52.008541
v -55.533070 17.353926 -52.004589
v -55.540070 17.359726 -51.997589
v -55.533070 17.366707 -53.526562
v -55.540070 17.359726 -53.537510
v -55.533070 17.353926 -53.530510
v -55.533070 17.353926 -49.400101
v -55.540070 17.359386 -49.393101
v -55.533070 17.366776 -49.403950
v -55.533070 17.366776 -50.922161
v -55.540070 17.359386 -50.933022
v -55.533070 17.353926 -50.926022
v -55.540070 17.360937 -47.565559
v -55.533070 17.360937 -47.558559
v -55.533070 17.360937 -57.976551
v -55.540070 17.360937 -57.969551
v -55.540070 -0.275924 -54.602089
v -55.533070 -0.275924 -54.609089
v -55.533070 -0.275924 -56.135010
v -55.540070 -0.275924 -56.142010
v -55.540070 -0.275924 -51.997589
v -55.533070 -0.275924 -52.004589
v -55.533070 -0.275924 -53.530510
v -55.540070 -0.275924 -53.537510
v -55.540070 -0.275924 -49.393101
v -55.533070 -0.275924 -49.400101
v -55.533070 -0.275924 -50.926022
v -55.540070 -0.275924 -50.933022
v -55.540070 19.227427 -50.926022
v -55.533070 19.234426 -50.926022
v -55.540070 19.227427 -49.400101
v -55.533070 19.234426 -49.400101
v -55.540070 19.227427 -53.530510
v -55.533070 19.234426 -53.530510
v -55.540070 19.227427 -52.004589
v -55.533070 19.234426 -52.004589
v -55.540070 19.227427 -56.135010
v -55.533070 19.234426 -56.135010
v -55.540070 19.227427 -54.609089
v -55.533070 19.234426 -54.609089
v -55.533070 17.850687 -55.378540
v -55.533070 17.850687 -55.365559
v -55.540070 17.862196 -55.372051
v -55.540070 19.227427 -55.372051
v -55.533070 19.234426 -55.372051
v -55.533070 17.850626 -52.774021
v -55.533070 17.850626 -52.761089
v -55.540070 17.862137 -52.767559
v -55.540070 19.227427 -52.767559
v -55.533070 19.234426 -52.767559
v -55.533070 17.850647 -50.169529
v -55.533070 17.850647 -50.156582
v -55.540070 17.862165 -50.163059
v -55.540070 19.227427 -50.163059
v -55.533070 19.234426 -50.163059
v -55.187111 17.850626 -52.761089
v -55.187111 17.850626 -52.774021
v -55.180119 17.844465 -52.767559
v -55.187111 17.366707 -52.008541
v -55.180119 17.362137 -52.011589
v -55.187111 17.353926 -52.004589
v -55.187111 -0.275924 -49.400101
v -55.180119 -0.275924 -49.407101
v -55.187111 17.353926 -49.400101
v -55.187111 17.366776 -49.403950
v -55.180119 17.362476 -49.407101
v -55.187111 -0.275924 -54.609089
v -55.180119 -0.275924 -54.616089
v -55.187111 17.353926 -54.609089
v -55.187111 17.366877 -54.612789
v -55.180119 17.363075 -54.616089
v -55.187111 -0.275924 -52.004589
v -55.180119 -0.275924 -52.011589
v -55.187111 17.850687 -55.378540
v -55.180119 17.844416 -55.372051
v -55.187111 17.850687 -55.365559
v -55.187111 17.850647 -50.169529
v -55.180119 17.844446 -50.163059
v -55.187111 17.850647 -50.156582
v -55.180119 -0.275924 -56.128010
v -55.187111 -0.275924 -56.135010
v -55.180119 -0.275924 -53.523510
v -55.187111 -0.275924 -53.530510
v -55.180119 -0.275924 -50.919022
v -55.187111 -0.275924 -50.926022
v -55.187111 17.366776 -50.922161
v -55.187111 17.353926 -50.926022
v -55.180119 17.362476 -50.919022
v -55.187111 17.366707 -53.526562
v -55.187111 17.353926 -53.530510
v -55.180119 17.362137 -53.523510
v -55.187111 17.366877 -56.131321
v -55.187111 17.353926 -56.135010
v -55.180119 17.363075 -56.128010
v -55.533070 2.553835 -47.558559
v -55.540070 2.553835 -47.565559
v -55.533070 2.553835 -49.400101
v -55.540070 2.553835 -49.393101
v -55.533070 2.553835 -57.976551
v -55.540070 2.553835 -57.969551
v -55.533070 2.553835 -54.609089
v -55.540070 2.553835 -54.602089
v -55.533070 2.553835 -52.004589
v -55.540070 2.553835 -51.997589
v -55.533070 2.553835 -50.926022
v -55.540070 2.553835 -50.933022
v -55.533070 2.553835 -53.530510
v -55.540070 2.553835 -53.537510
v -55.533070 2.553835 -56.135010
v -55.540070 2.553835 -56.142010
v -55.180119 2.553835 -49.407101
v -55.187111 2.553835 -49.400101
v -55.180119 2.553835 -54.616089
v -55.187111 2.553835 -54.609089
v -55.180119 2.553835 -52.011589
v -55.187111 2.553835 -52.004589
v -55.180119 2.553835 -50.919022
v -55.187111 2.553835 -50.926022
v -55.180119 2.553835 -53.523510
v -55.187111 2.553835 -53.530510
v -55.180119 2.553835 -56.128010
v -55.187111 2.553835 -56.135010
v -55.173119 2.553835 -55.372051
v -55.180119 2.560835 -55.372051
v -55.540070 17.616066 -54.762169
v -55.533070 17.609735 -54.768661
v -55.533070 17.601175 -54.758469
v -55.533070 19.234426 -54.762169
v -55.540070 19.227427 -54.762169
v -55.187111 17.601175 -54.758469
v -55.187111 17.609735 -54.768661
v -55.180119 17.598177 -54.762169
v -55.180119 -0.275924 -54.755161
v -55.173119 -0.275924 -54.762169
v -55.173119 2.553835 -54.769169
v -55.173119 2.546835 -54.762169
v -55.180119 2.560835 -54.755161
v -55.540070 17.616066 -55.981930
v -55.533070 17.601175 -55.985619
v -55.533070 17.609735 -55.975441
v -55.533070 19.234426 -55.981930
v -55.540070 19.227427 -55.981930
v -55.173119 -0.275924 -55.981930
v -55.180119 -0.275924 -55.988930
v -55.187111 17.609735 -55.975441
v -55.187111 17.601175 -55.985630
v -55.180119 17.598177 -55.981930
v -55.173119 2.553835 -55.974930
v -55.180119 2.560835 -55.988930
v -55.173119 2.546835 -55.981930
v -54.961571 -0.275924 -54.762169
v -54.954571 -0.275924 -54.769169
v -54.954571 2.546835 -55.372051
v -54.961571 2.553835 -55.372051
v -54.961571 2.553835 -55.974930
v -54.961571 2.546835 -55.981930
v -54.954571 2.546835 -55.974930
v -54.961571 2.553835 -54.769169
v -54.954571 2.546835 -54.769169
v -54.961571 2.546835 -54.762169
v -54.954571 -0.275924 -55.974930
v -54.961571 -0.275924 -55.981930
v -55.540070 17.616007 -53.361969
v -55.533070 17.601347 -53.365921
v -55.533070 17.609797 -53.355499
v -55.533070 19.234426 -53.361969
v -55.540070 19.227427 -53.361969
v -55.187111 17.609797 -53.355499
v -55.187111 17.601347 -53.365921
v -55.180119 17.598236 -53.361969
v -55.540070 17.616007 -52.173141
v -55.533070 17.609797 -52.179600
v -55.533070 17.601347 -52.169182
v -55.533070 19.234426 -52.173141
v -55.540070 19.227427 -52.173141
v -55.187111 17.601347 -52.169182
v -55.187111 17.609797 -52.179600
v -55.180119 17.598236 -52.173141
v -55.540070 17.616026 -50.763512
v -55.533070 17.601276 -50.767361
v -55.533070 17.609776 -50.757030
v -55.533070 19.234426 -50.763512
v -55.540070 19.227427 -50.763512
v -55.187111 17.609776 -50.757030
v -55.187111 17.601276 -50.767361
v -55.180119 17.598206 -50.763512
v -55.540070 17.616026 -49.562611
v -55.533070 17.609776 -49.569080
v -55.533070 17.601276 -49.558750
v -55.533070 19.234426 -49.562611
v -55.540070 19.227427 -49.562611
v -55.187111 17.601276 -49.558750
v -55.187111 17.609776 -49.569080
v -55.180119 17.598206 -49.562611
vn -0.0000 1.0000 -0.0000
vn -1.0000 -0.0000 -0.0000
vn -0.0000 -0.0000 -1.0000
vn -0.0000 -0.0000 1.0000
vn -0.0000 -0.9273 0.3743
vn -0.0000 -0.5509 -0.8346
vn -0.0000 -0.5281 0.8492
vn -0.0000 -0.5280 -0.8492
vn -0.0000 -0.9273 -0.3743
vn -0.0000 -0.9239 -0.3826
vn -0.0000 -0.9253 -0.3793
vn -0.0000 -1.0000 -0.0000
vn -0.0000 -0.9239 0.3827
vn -0.0000 -0.5649 -0.8252
vn -0.0000 -0.5649 0.8252
vn -0.0000 -0.9253 0.3793
vn -0.0000 -0.5509 0.8346
vn -0.5773 0.5775 -0.5773
vn -0.5773 0.5774 0.5773
vn -0.7551 -0.1801 -0.6303
vn -0.7553 -0.1802 0.6301
vn -0.7683 -0.1891 -0.6115
vn -0.7683 -0.1890 0.6115
vn -0.7634 -0.1856 -0.6187
vn -0.7635 -0.1857 0.6185
vn -0.8544 -0.5196 -0.0000
vn -0.8545 -0.5195 -0.0000
vn -0.8546 -0.5192 -0.0000
vn -0.6605 -0.7508 -0.0000
vn -0.5201 -0.2526 -0.8159
vn -0.5186 -0.2459 -0.8189
vn -0.5162 -0.2351 -0.8236
vn -0.6674 -0.7447 -0.0000
vn -0.6633 -0.7483 -0.0000
vn -0.5186 -0.2459 0.8189
vn -0.5200 -0.2526 0.8160
vn -0.5163 -0.2351 0.8235
vn -0.7899 -0.4693 -0.3948
vn -0.5557 -0.6363 -0.5351
vn -0.9045 -0.3015 -0.3015
vn -0.7899 -0.4694 0.3945
vn -0.5555 -0.6365 0.5351
vn -0.9044 -0.3018 0.3016
vn -0.5774 -0.5774 0.5773
vn -0.5775 -0.5773 -0.5773
vn -0.7860 -0.4803 0.3893
vn -0.5740 -0.6359 0.5159
vn -0.7858 -0.4801 -0.3899
vn -0.5739 -0.6359 -0.5160
vn -0.7875 -0.4760 0.3914
vn -0.5670 -0.6362 0.5233
vn -0.7875 -0.4760 -0.3914
vn -0.5670 -0.6362 -0.5232
vn -0.7070 -0.0000 -0.7072
vn -0.0000 0.7071 -0.7071
vn -0.5857 -0.4580 -0.6688
vn -0.0000 0.7071 0.7071
vn -0.7071 -0.0000 0.7071
vn -0.7070 -0.0000 -0.7073
vn -0.7071 -0.0000 -0.7071
vn -0.7072 -0.0000 -0.7070
vn -0.7070 -0.0000 0.7072
vn -0.5630 -0.4365 -0.7018
vn -0.5770 -0.4500 -0.6816
vn -0.7071 0.7072 -0.0000
vn -0.7072 0.7071 -0.0000
vn -0.7070 0.7072 -0.0000
vn -0.7069 0.7073 -0.0000
vn -0.7071 0.7071 -0.0000
vn -0.7633 -0.5990 0.2418
vn -0.7601 -0.6003 0.2486
vn -0.7616 -0.5997 0.2458
vn -0.0000 -0.2955 0.9554
vn -0.5859 -0.4577 -0.6688
vn -0.7073 -0.0000 -0.7069
vn -0.5630 -0.4361 -0.7020
vn -0.5774 -0.4497 -0.6815
vn -0.7075 -0.0000 0.7068
vn -0.7634 -0.5990 0.2418
vn -0.7602 -0.6003 0.2486
vn -0.7614 -0.5997 0.2460
vn -0.0000 -0.2877 0.9577
vn -0.0000 -0.2876 -0.9578
vn -0.0000 -0.2745 0.9616
vn -0.0000 -0.2954 -0.9554
vn -0.0000 -0.2747 -0.9615
vn -0.7072 -0.0000 0.7070
vn -0.7075 -0.0000 -0.7068
vn -0.7073 -0.0000 0.7069
vn -0.7071 -0.7071 -0.0000
vn -0.7631 -0.5993 -0.2417
vn -0.7632 -0.5992 -0.2417
vn -0.7072 -0.7071 -0.0000
vn -0.0000 -0.7658 -0.6431
vn -0.5630 -0.4364 0.7018
vn -0.5629 -0.4363 0.7019
vn -0.0000 -0.7655 0.6435
vn -0.7069 -0.7073 -0.0000
vn -0.0000 -0.7071 0.7071
vn -0.0000 -0.7071 -0.7071
vn -0.5857 -0.4579 0.6687
vn -0.5858 -0.4577 0.6688
vn -0.0000 -0.7765 0.6301
vn -0.7599 -0.6006 -0.2487
vn -0.7074 0.7069 -0.0000
vn -0.7601 -0.6003 -0.2487
vn -0.0000 -0.7764 -0.6303
vn -0.5773 -0.4499 0.6814
vn -0.5775 -0.4498 0.6813
vn -0.0000 -0.7722 0.6353
vn -0.7613 -0.6000 -0.2460
vn -0.7614 -0.5998 -0.2460
vn -0.0000 -0.7722 -0.6353
vt 0.295852 0.950351
vt 0.295852 0.994307
vt 0.004455 0.994307
vt 0.004455 0.950351
vt 0.659610 0.593143
vt 0.658201 0.643679
vt 0.604350 0.643225
vt 0.610542 0.591755
vt 0.379583 0.192889
vt 0.383386 0.591386
vt 0.334470 0.592714
vt 0.330630 0.193448
vt 0.295852 0.855422
vt 0.004455 0.855422
vt 0.004455 0.851384
vt 0.295852 0.851384
vt 0.334205 0.592721
vt 0.334839 0.643100
vt 0.005218 0.642519
vt 0.005617 0.592330
vt 0.988451 0.596207
vt 0.988056 0.646500
vt 0.658492 0.643665
vt 0.659876 0.593150
vt 0.295852 0.792873
vt 0.004455 0.792873
vt 0.004455 0.788979
vt 0.295852 0.788979
vt 0.992337 0.120189
vt 0.992407 0.196472
vt 0.666157 0.195055
vt 0.666362 0.118884
vt 0.439416 0.192694
vt 0.440046 0.590671
vt 0.431325 0.589472
vt 0.430157 0.192646
vt 0.516399 0.643488
vt 0.518690 0.599426
vt 0.525316 0.590816
vt 0.521810 0.643518
vt 0.295852 0.887946
vt 0.004455 0.887946
vt 0.004455 0.883907
vt 0.295852 0.883907
vt 0.004455 0.946683
vt 0.295852 0.946683
vt 0.412112 0.608042
vt 0.390091 0.599772
vt 0.396451 0.596088
vt 0.411771 0.602034
vt 0.556020 0.644191
vt 0.553596 0.590875
vt 0.559783 0.599605
vt 0.561238 0.644225
vt 0.468561 0.590636
vt 0.472310 0.644068
vt 0.438094 0.643441
vt 0.440298 0.590825
vt 0.528057 0.193322
vt 0.525066 0.590633
vt 0.516368 0.589313
vt 0.518796 0.193227
vt 0.616710 0.194389
vt 0.610292 0.591575
vt 0.601560 0.590139
vt 0.607447 0.194245
vt 0.610054 0.591997
vt 0.603863 0.599650
vt 0.597447 0.596221
vt 0.601494 0.590436
vt 0.389722 0.599410
vt 0.383843 0.591653
vt 0.392466 0.590075
vt 0.396183 0.595911
vt 0.439836 0.591102
vt 0.434456 0.598941
vt 0.427585 0.595679
vt 0.431267 0.589777
vt 0.330364 0.193450
vt 0.004108 0.194609
vt 0.468994 0.116659
vt 0.468181 0.192847
vt 0.439681 0.192695
vt 0.440412 0.116310
vt 0.434069 0.599284
vt 0.412661 0.608069
vt 0.412063 0.601985
vt 0.427373 0.595895
vt 0.295852 0.825541
vt 0.004455 0.825541
vt 0.004455 0.821647
vt 0.295852 0.821647
vt 0.295852 0.932070
vt 0.004455 0.932070
vt 0.004455 0.917457
vt 0.295852 0.917457
vt 0.518387 0.599306
vt 0.497267 0.607760
vt 0.497019 0.601577
vt 0.511963 0.595680
vt 0.295852 0.869665
vt 0.004455 0.869665
vt 0.603447 0.599976
vt 0.581861 0.608178
vt 0.582007 0.602117
vt 0.597223 0.596432
vt 0.468812 0.590451
vt 0.468446 0.192848
vt 0.477727 0.192896
vt 0.477518 0.589112
vt 0.295852 0.807260
vt 0.004455 0.807260
vt 0.597279 0.596172
vt 0.603010 0.194179
vt 0.607181 0.194241
vt 0.601306 0.590348
vt 0.396371 0.595867
vt 0.393123 0.192918
vt 0.409646 0.193001
vt 0.411915 0.601851
vt 0.427410 0.595638
vt 0.426163 0.192817
vt 0.429892 0.192644
vt 0.431076 0.589704
vt 0.408475 0.943778
vt 0.355676 0.956484
vt 0.355909 0.941583
vt 0.396320 0.939207
vt 0.482324 0.192918
vt 0.483129 0.116817
vt 0.499056 0.116976
vt 0.498261 0.193035
vt 0.570804 0.193743
vt 0.571503 0.117756
vt 0.587548 0.117956
vt 0.586905 0.193945
vt 0.617210 0.118345
vt 0.607988 0.118220
vt 0.383638 0.591221
vt 0.379848 0.192887
vt 0.389128 0.192777
vt 0.392374 0.589775
vt 0.497142 0.643923
vt 0.496991 0.608076
vt 0.580523 0.643957
vt 0.581568 0.608484
vt 0.603743 0.600095
vt 0.599342 0.643262
vt 0.413840 0.643834
vt 0.412398 0.608383
vt 0.434384 0.599399
vt 0.433237 0.643399
vt 0.557565 0.117585
vt 0.556822 0.193601
vt 0.528322 0.193325
vt 0.529085 0.117276
vt 0.475157 0.599380
vt 0.477760 0.644108
vt 0.553850 0.590704
vt 0.557087 0.193603
vt 0.566367 0.193699
vt 0.562585 0.589463
vt 0.469259 0.116662
vt 0.478534 0.116765
vt 0.389747 0.643943
vt 0.389813 0.599866
vt 0.394533 0.643998
vt 0.379156 0.116575
vt 0.388442 0.116378
vt 0.665892 0.195050
vt 0.616975 0.194394
vt 0.581882 0.601982
vt 0.496883 0.601442
vt 0.514199 0.193184
vt 0.512009 0.595416
vt 0.514973 0.117132
vt 0.519297 0.117175
vt 0.518531 0.193224
vt 0.603575 0.118164
vt 0.607723 0.118219
vt 0.426835 0.116066
vt 0.430577 0.116137
vt 0.378891 0.116580
vt 0.330098 0.117277
vt 0.666099 0.118883
vt 0.617474 0.118347
vt 0.440146 0.116306
vt 0.430843 0.116142
vt 0.335129 0.643110
vt 0.295852 0.745022
vt 0.004455 0.745022
vt 0.528820 0.117274
vt 0.519562 0.117177
vt 0.557830 0.117588
vt 0.567081 0.117700
vt 0.566702 0.595643
vt 0.496720 0.607727
vt 0.475437 0.599285
vt 0.481908 0.595483
vt 0.496728 0.601621
vt 0.303052 0.944764
vt 0.315235 0.939200
vt 0.477992 0.192897
vt 0.478800 0.116768
vt 0.004455 0.913789
vt 0.295852 0.913789
vt 0.524840 0.591061
vt 0.518792 0.598972
vt 0.512185 0.595466
vt 0.516301 0.589609
vt 0.315611 0.938872
vt 0.313614 0.744585
vt 0.355664 0.744471
vt 0.355912 0.940826
vt 0.397982 0.745057
vt 0.395884 0.938813
vt 0.301925 0.943167
vt 0.298082 0.744920
vt 0.312919 0.744600
vt 0.314982 0.938975
vt 0.413348 0.745475
vt 0.409710 0.942428
vt 0.396507 0.938892
vt 0.398676 0.745072
vt 0.392627 0.590001
vt 0.389393 0.192774
vt 0.566633 0.193701
vt 0.567346 0.117703
vt 0.475071 0.598919
vt 0.469013 0.590890
vt 0.477612 0.589404
vt 0.481637 0.595304
vt 0.516116 0.589518
vt 0.581315 0.608138
vt 0.560071 0.599513
vt 0.566767 0.595869
vt 0.581713 0.602155
vt 0.477769 0.589318
vt 0.481836 0.595254
vt 0.562833 0.589681
vt 0.559717 0.599145
vt 0.554040 0.591143
vt 0.562673 0.589759
vt 0.566502 0.595687
vt 0.388708 0.116372
vt 0.392448 0.116286
vt 0.004218 0.994307
vt 0.004455 0.994545
vt 0.004218 0.745022
vt 0.004455 0.744785
vt 0.425772 0.192557
vt 0.425900 0.192427
vt 0.393514 0.192656
vt 0.393386 0.192528
vt 0.295852 0.994545
vt 0.295852 0.744785
vt 0.004218 0.792873
vt 0.004218 0.788979
vt 0.004218 0.855422
vt 0.004218 0.851384
vt 0.004218 0.917457
vt 0.004218 0.913789
vt 0.004218 0.950351
vt 0.004218 0.887946
vt 0.004218 0.825541
vt 0.004218 0.946683
vt 0.004218 0.932070
vt 0.004218 0.883907
vt 0.004218 0.869665
vt 0.004218 0.821647
vt 0.004218 0.807260
vt 0.329834 0.117278
vt 0.409646 0.192735
vt 0.426568 0.116061
vt 0.392714 0.116280
vt 0.003906 0.118464
s 0
f 6/1/1 41/2/1 38/3/1 92/4/1
f 67/5/2 45/6/2 85/7/2 62/8/2
f 164/9/2 53/10/2 70/11/2 154/12/2
f 26/13/1 228/14/1 90/15/1 7/16/1
f 69/17/3 39/18/3 40/19/3 4/20/3
f 3/21/4 48/22/4 46/23/4 68/24/4
f 32/25/1 244/26/1 86/27/1 9/28/1
f 2/29/4 17/30/4 149/31/4 42/32/4
f 155/33/3 49/34/3 123/35/3 168/36/3
f 229/37/2 225/38/2 57/39/2 89/40/2
f 8/41/1 88/42/1 220/43/1 23/44/1
f 6/1/1 92/4/1 195/45/1 21/46/1
f 95/47/5 194/48/5 199/49/5 128/50/5
f 83/51/2 65/52/2 233/53/2 237/54/2
f 59/55/2 87/56/2 93/57/2 50/58/2
f 157/59/3 56/60/3 115/61/3 170/62/3
f 151/63/3 61/64/3 118/65/3 166/66/3
f 65/52/2 83/51/2 89/40/2 57/39/2
f 63/67/6 243/68/6 246/69/6 119/70/6
f 193/71/7 52/72/7 146/73/7 200/74/7
f 51/75/8 181/76/8 184/77/8 124/78/8
f 153/79/3 69/17/3 4/20/3 16/80/3
f 78/81/2 162/82/2 156/83/2 71/84/2
f 180/85/9 96/86/9 130/87/9 185/88/9
f 10/89/1 84/90/1 236/91/1 29/92/1
f 11/93/1 99/94/1 182/95/1 20/96/1
f 226/97/10 101/98/10 110/99/10 231/100/10
f 12/101/1 104/102/1 228/14/1 26/13/1
f 242/103/11 106/104/11 133/105/11 247/106/11
f 60/107/4 161/108/4 174/109/4 144/110/4
f 13/111/1 109/112/1 244/26/1 32/25/1
f 248/113/2 34/114/2 165/115/2 120/116/2
f 201/117/2 203/118/2 178/119/2 129/120/2
f 186/121/2 191/122/2 167/123/2 125/124/2
f 189/125/12 177/126/12 208/127/12 212/128/12
f 25/129/2 24/130/2 14/131/2 18/132/2
f 31/133/2 30/134/2 15/135/2 19/136/2
f 80/137/3 151/63/3 166/66/3 116/138/3
f 54/139/4 163/140/4 176/141/4 147/142/4
f 103/143/2 102/144/2 225/38/2 229/37/2
f 162/82/2 59/55/2 50/58/2 156/83/2
f 108/145/2 107/146/2 241/147/2 245/148/2
f 98/149/2 97/150/2 179/151/2 183/152/2
f 82/153/2 160/154/2 158/155/2 75/156/2
f 87/56/2 59/55/2 217/157/2 221/158/2
f 66/159/4 159/160/4 172/161/4 141/162/4
f 161/108/4 77/163/4 137/164/4 174/109/4
f 91/165/2 53/10/2 192/166/2 196/167/2
f 163/140/4 73/168/4 135/169/4 176/141/4
f 150/170/2 67/5/2 62/8/2 152/171/2
f 132/172/2 19/136/2 34/114/2 248/113/2
f 112/173/2 18/132/2 28/174/2 232/175/2
f 129/120/2 178/119/2 191/122/2 186/121/2
f 28/174/2 27/176/2 127/177/2 169/178/2
f 34/114/2 33/179/2 117/180/2 165/115/2
f 191/122/2 187/181/2 122/182/2 167/123/2
f 17/30/4 3/21/4 68/24/4 149/31/4
f 74/183/2 164/9/2 154/12/2 35/184/2
f 43/185/2 150/170/2 152/171/2 79/186/2
f 72/187/3 155/33/3 168/36/3 121/188/3
f 53/10/2 91/165/2 37/189/2 70/11/2
f 47/190/1 9/28/1 86/27/1 44/191/1
f 76/192/3 157/59/3 170/62/3 126/193/3
f 159/160/4 81/194/4 139/195/4 172/161/4
f 240/196/2 31/133/2 19/136/2 132/172/2
f 183/152/2 179/151/2 50/58/2 93/57/2
f 21/46/1 195/45/1 99/94/1 11/93/1
f 100/197/13 219/198/13 222/199/13 111/200/13
f 177/126/12 202/201/12 209/202/12 208/127/12
f 196/167/2 192/166/2 97/150/2 98/149/2
f 173/203/2 136/204/2 24/130/2 25/129/2
f 20/96/1 182/95/1 94/205/1 5/206/1
f 55/207/14 227/208/14 230/209/14 113/210/14
f 211/211/2 215/212/2 22/213/2 207/214/2
f 207/214/2 22/213/2 206/215/2 213/216/2
f 204/217/4 197/218/4 216/219/4 210/220/4
f 188/221/3 190/222/3 214/223/3 205/224/3
f 148/225/2 175/226/2 203/118/2 201/117/2
f 171/227/2 138/228/2 30/134/2 31/133/2
f 221/158/2 217/157/2 102/144/2 103/143/2
f 8/41/1 5/206/1 94/205/1 88/42/1
f 218/229/15 58/230/15 143/231/15 223/232/15
f 232/175/2 28/174/2 169/178/2 114/233/2
f 160/154/2 65/52/2 57/39/2 158/155/2
f 18/132/2 14/131/2 27/176/2 28/174/2
f 23/44/1 220/43/1 104/102/1 12/101/1
f 105/234/16 235/235/16 238/236/16 131/237/16
f 145/238/2 173/203/2 25/129/2 224/239/2
f 237/54/2 233/53/2 107/146/2 108/145/2
f 142/240/2 171/227/2 31/133/2 240/196/2
f 10/89/1 7/16/1 90/15/1 84/90/1
f 234/241/17 64/242/17 140/243/17 239/244/17
f 175/226/2 134/245/2 198/246/2 203/118/2
f 245/148/2 241/147/2 62/8/2 85/7/2
f 19/136/2 15/135/2 33/179/2 34/114/2
f 29/92/1 236/91/1 109/112/1 13/111/1
f 224/239/2 25/129/2 18/132/2 112/173/2
f 37/247/18 38/3/18 39/248/18
f 44/191/19 45/249/19 46/250/19
f 49/34/20 50/58/20 51/75/20
f 52/72/21 53/10/21 54/139/21
f 55/207/22 56/60/22 57/39/22
f 58/230/23 59/55/23 60/107/23
f 61/64/24 62/8/24 63/67/24
f 64/242/25 65/52/25 66/159/25
f 95/47/26 96/86/26 97/150/26
f 100/197/27 101/98/27 102/144/27
f 105/234/28 106/104/28 107/146/28
f 110/99/29 111/200/29 112/173/29
f 113/210/30 114/233/30 115/61/30
f 118/65/31 119/70/31 120/116/31
f 123/35/32 124/78/32 125/124/32
f 128/50/33 129/120/33 130/87/33
f 131/237/34 132/172/34 133/105/34
f 140/243/35 141/162/35 142/240/35
f 143/231/36 144/110/36 145/238/36
f 146/73/37 147/142/37 148/225/37
f 179/151/38 180/85/38 181/76/38
f 184/77/39 185/88/39 186/121/39
f 189/251/40 190/252/40 191/122/40
f 192/166/41 193/71/41 194/48/41
f 199/49/42 200/74/42 201/117/42
f 202/253/43 203/118/43 204/254/43
f 209/202/44 210/220/44 211/211/44
f 212/128/45 213/216/45 214/223/45
f 217/157/46 218/229/46 219/198/46
f 222/199/47 223/232/47 224/239/47
f 225/38/48 226/97/48 227/208/48
f 230/209/49 231/100/49 232/175/49
f 233/53/50 234/241/50 235/235/50
f 238/236/51 239/244/51 240/196/51
f 241/147/52 242/103/52 243/68/52
f 246/69/53 247/106/53 248/113/53
f 70/11/54 37/189/54 39/18/54 69/17/54
f 38/3/55 41/2/55 40/255/55 39/248/55
f 227/208/56 55/207/56 57/39/56 225/38/56
f 47/190/57 44/191/57 46/250/57 48/256/57
f 150/170/58 43/185/58 42/32/58 149/31/58
f 152/171/59 62/8/59 61/64/59 151/63/59
f 154/12/60 70/11/60 69/17/60 153/79/60
f 156/83/61 50/58/61 49/34/61 155/33/61
f 158/155/61 57/39/61 56/60/61 157/59/61
f 45/6/62 67/5/62 68/24/62 46/23/62
f 181/76/63 51/75/63 50/58/63 179/151/63
f 243/68/64 63/67/64 62/8/64 241/147/64
f 245/257/65 85/258/65 86/27/65 244/26/65
f 229/259/66 89/260/66 90/15/66 228/14/66
f 183/261/67 93/262/67 94/205/67 182/95/67
f 160/154/58 82/153/58 81/194/58 159/160/58
f 162/82/58 78/81/58 77/163/58 161/108/58
f 164/9/58 74/183/58 73/168/58 163/140/58
f 37/247/68 91/263/68 92/4/68 38/3/68
f 93/262/69 87/264/69 88/42/69 94/205/69
f 89/260/69 83/265/69 84/90/69 90/15/69
f 85/258/68 45/249/68 44/191/68 86/27/68
f 194/48/70 95/47/70 97/150/70 192/166/70
f 196/266/69 98/267/69 99/94/69 195/45/69
f 219/198/71 100/197/71 102/144/71 217/157/71
f 221/268/67 103/269/67 104/102/67 220/43/67
f 110/99/12 101/98/12 100/197/12 111/200/12
f 235/235/72 105/234/72 107/146/72 233/53/72
f 237/270/65 108/271/65 109/112/65 236/91/65
f 60/107/73 144/110/73 143/231/73 58/230/73
f 232/175/74 114/233/74 113/210/74 230/209/74
f 166/66/75 118/65/75 120/116/75 165/115/75
f 168/36/61 123/35/61 125/124/61 167/123/61
f 170/62/75 115/61/75 114/233/75 169/178/75
f 186/121/76 125/124/76 124/78/76 184/77/76
f 248/113/77 120/116/77 119/70/77 246/69/77
f 172/161/58 139/195/58 138/228/58 171/227/58
f 174/109/78 137/164/78 136/204/78 173/203/78
f 176/141/78 135/169/78 134/245/78 175/226/78
f 201/117/79 129/120/79 128/50/79 199/49/79
f 224/239/80 112/173/80 111/200/80 222/199/80
f 240/196/81 132/172/81 131/237/81 238/236/81
f 140/243/82 64/242/82 66/159/82 141/162/82
f 63/67/83 119/70/83 118/65/83 61/64/83
f 54/139/84 147/142/84 146/73/84 52/72/84
f 130/87/12 96/86/12 95/47/12 128/50/12
f 115/61/85 56/60/85 55/207/85 113/210/85
f 51/75/86 124/78/86 123/35/86 49/34/86
f 105/234/12 131/237/12 133/105/12 106/104/12
f 67/5/58 150/170/58 149/31/58 68/24/58
f 79/186/60 152/171/60 151/63/60 80/137/60
f 35/184/60 154/12/60 153/79/60 36/272/60
f 71/84/60 156/83/60 155/33/60 72/187/60
f 75/156/60 158/155/60 157/59/60 76/192/60
f 65/52/87 160/154/87 159/160/87 66/159/87
f 59/55/87 162/82/87 161/108/87 60/107/87
f 53/10/87 164/9/87 163/140/87 54/139/87
f 116/138/88 166/66/88 165/115/88 117/180/88
f 121/188/60 168/36/60 167/123/60 122/182/60
f 126/193/88 170/62/88 169/178/88 127/177/88
f 141/162/89 172/161/89 171/227/89 142/240/89
f 144/110/87 174/109/87 173/203/87 145/238/87
f 147/142/89 176/141/89 175/226/89 148/225/89
f 202/253/90 177/273/90 178/119/90 203/118/90
f 96/86/91 180/85/91 179/151/91 97/150/91
f 98/267/69 183/261/69 182/95/69 99/94/69
f 129/120/92 186/121/92 185/88/92 130/87/92
f 177/273/93 189/251/93 191/122/93 178/119/93
f 180/85/94 185/88/94 184/77/94 181/76/94
f 187/181/75 191/122/75 190/252/75 188/274/75
f 52/72/95 193/71/95 192/166/95 53/10/95
f 91/263/67 196/266/67 195/45/67 92/4/67
f 148/225/96 201/117/96 200/74/96 146/73/96
f 193/71/97 200/74/97 199/49/97 194/48/97
f 197/275/62 204/254/62 203/118/62 198/246/62
f 211/211/98 207/214/98 208/127/98 209/202/98
f 207/214/98 213/216/98 212/128/98 208/127/98
f 205/224/60 214/223/60 213/216/60 206/215/60
f 215/212/58 211/211/58 210/220/58 216/219/58
f 204/217/99 210/220/99 209/202/99 202/201/99
f 189/125/100 212/128/100 214/223/100 190/222/100
f 58/230/101 218/229/101 217/157/101 59/55/101
f 87/264/69 221/268/69 220/43/69 88/42/69
f 145/238/102 224/239/102 223/232/102 143/231/102
f 218/229/103 223/232/103 222/199/103 219/198/103
f 101/98/104 226/97/104 225/38/104 102/144/104
f 103/269/105 229/259/105 228/14/105 104/102/105
f 112/173/106 232/175/106 231/100/106 110/99/106
f 226/97/107 231/100/107 230/209/107 227/208/107
f 64/242/108 234/241/108 233/53/108 65/52/108
f 83/265/65 237/270/65 236/91/65 84/90/65
f 142/240/109 240/196/109 239/244/109 140/243/109
f 234/241/110 239/244/110 238/236/110 235/235/110
f 106/104/111 242/103/111 241/147/111 107/146/111
f 108/271/67 245/257/67 244/26/67 109/112/67
f 132/172/112 248/113/112 247/106/112 133/105/112
f 242/103/113 247/106/113 246/69/113 243/68/113
f 36/272/3 153/79/3 16/80/3 1/276/3
o Cube:201
v -55.447781 14.933816 -49.025558
v -55.447781 14.933816 -56.509548
v -53.447781 13.665337 -49.025558
v -53.447781 13.665337 -56.509548
v -55.447781 13.692336 -49.025558
v -55.420780 13.665337 -49.025558
v -55.420780 13.665337 -56.509548
v -55.447781 13.692336 -56.509548
v -55.447781 10.494146 -49.025558
v -55.447781 10.494146 -56.509548
v -53.447781 9.225664 -49.025558
v -53.447781 9.225664 -56.509548
v -55.447781 9.252665 -49.025558
v -55.420780 9.225664 -49.025558
v -55.420780 9.225664 -56.509548
v -55.447781 9.252665 -56.509548
v -55.447781 6.054472 -49.025558
v -55.447781 6.054471 -56.509548
v -53.447781 4.785993 -49.025558
v -53.447781 4.785993 -56.509548
v -55.447781 4.812994 -49.025558
v -55.420780 4.785993 -49.025558
v -55.420780 4.785993 -56.509548
v -55.447781 4.812994 -56.509548
vn -1.0000 -0.0000 -0.0000
vn -0.7071 -0.7071 -0.0000
vn -0.0000 -1.0000 -0.0000
vt 0.703003 0.958903
vt 0.703003 0.996063
vt 0.478990 0.996063
vt 0.478990 0.958903
vt 0.478990 0.957760
vt 0.703003 0.957760
vt 0.478990 0.898703
vt 0.703003 0.898703
vt 0.703003 0.859480
vt 0.703003 0.896640
vt 0.478990 0.896640
vt 0.478990 0.859480
vt 0.478990 0.858337
vt 0.703003 0.858337
vt 0.478990 0.799280
vt 0.703003 0.799280
vt 0.703003 0.760057
vt 0.703003 0.797218
vt 0.478990 0.797218
vt 0.478990 0.760057
vt 0.478990 0.758914
vt 0.703003 0.758914
vt 0.478990 0.699858
vt 0.703003 0.699858
s 0
f 253/277/114 249/278/114 250/279/114 256/280/114
f 255/281/115 254/282/115 253/277/115 256/280/115
f 255/281/116 252/283/116 251/284/116 254/282/116
f 261/285/114 257/286/114 258/287/114 264/288/114
f 263/289/115 262/290/115 261/285/115 264/288/115
f 263/289/116 260/291/116 259/292/116 262/290/116
f 269/293/114 265/294/114 266/295/114 272/296/114
f 271/297/115 270/298/115 269/293/115 272/296/115
f 271/297/116 268/299/116 267/300/116 270/298/116
o Cube:203
v -54.103939 19.886477 -47.118771
v -54.013962 19.886477 -47.118771
v -54.078941 19.886477 -47.028790
v -54.103939 19.886477 -47.053791
v -54.078941 1.618402 -47.028790
v -54.078941 1.593403 -47.053791
v -54.103939 1.618402 -47.053791
v -54.103939 1.618402 -47.118771
v -54.078941 1.593403 -47.118771
v -54.013962 19.886477 -47.053791
v -54.038960 19.886477 -47.028790
v -54.038960 1.593403 -47.053791
v -54.038960 1.618402 -47.028790
v -54.013962 1.618402 -47.053791
v -54.038960 1.593403 -47.118771
v -54.013962 1.618402 -47.118771
vn -0.0000 -0.0000 1.0000
vn -0.0000 -1.0000 -0.0000
vn 1.0000 -0.0000 -0.0000
vn -0.5773 -0.5773 0.5774
vn 0.5773 -0.5775 0.5773
vn -0.7072 -0.0000 0.7071
vn -0.7071 -0.7071 -0.0000
vn 0.7071 -0.7071 -0.0000
vn 0.7072 -0.0000 0.7071
vn -0.0000 -0.7071 0.7071
vn -1.0000 -0.0000 -0.0000
vt 0.017064 0.652313
vt 0.017064 0.654299
vt 0.924541 0.654289
vt 0.924542 0.652314
vt 0.926640 0.651087
vt 0.925658 0.652059
vt 0.925537 0.654507
vt 0.926763 0.655593
vt 0.017065 0.647328
vt 0.017065 0.650556
vt 0.924552 0.650569
vt 0.924608 0.647356
vt 0.924550 0.656035
vt 0.017064 0.656055
vt 0.924608 0.659247
vt 0.017064 0.659284
s 0
f 283/301/117 275/302/117 277/303/117 285/304/117
f 287/305/118 284/306/118 278/307/118 281/308/118
f 274/309/119 282/310/119 286/311/119 288/312/119
f 277/303/120 279/313/120 278/307/120
f 284/306/121 286/311/121 285/304/121
f 275/302/122 276/314/122 279/313/122 277/303/122
f 278/307/123 279/313/123 280/315/123 281/308/123
f 287/305/124 288/312/124 286/311/124 284/306/124
f 285/304/125 286/311/125 282/310/125 283/301/125
f 284/306/126 285/304/126 277/303/126 278/307/126
f 276/314/127 273/316/127 280/315/127 279/313/127
o Cube:204
v -53.125999 19.886477 -47.118771
v -53.036018 19.886477 -47.118771
v -53.101002 19.886477 -47.028790
v -53.125999 19.886477 -47.053791
v -53.101002 1.618402 -47.028790
v -53.101002 1.593403 -47.053791
v -53.125999 1.618402 -47.053791
v -53.125999 1.618402 -47.118771
v -53.101002 1.593403 -47.118771
v -53.036018 19.886477 -47.053791
v -53.061020 19.886477 -47.028790
v -53.061020 1.593403 -47.053791
v -53.061020 1.618402 -47.028790
v -53.036018 1.618402 -47.053791
v -53.061020 1.593403 -47.118771
v -53.036018 1.618402 -47.118771
vn -0.0000 -0.0000 1.0000
vn -0.0000 -1.0000 -0.0000
vn 1.0000 -0.0000 -0.0000
vn -0.5776 -0.5774 0.5770
vn -0.5772 -0.5772 0.5777
vn -0.5770 -0.5779 0.5772
vn 0.5772 -0.5775 0.5774
vn -0.7072 -0.0000 0.7071
vn -0.7071 -0.7071 -0.0000
vn 0.7071 -0.7071 -0.0000
vn 0.7071 -0.0000 0.7071
vn -0.0000 -0.7071 0.7071
vn -1.0000 -0.0000 -0.0000
vt 0.065567 0.666640
vt 0.065567 0.668626
vt 0.973043 0.668616
vt 0.973045 0.666642
vt 0.975143 0.665415
vt 0.974161 0.666387
vt 0.974040 0.668835
vt 0.975266 0.669921
vt 0.065568 0.661656
vt 0.065567 0.664884
vt 0.973055 0.664896
vt 0.973111 0.661684
vt 0.973053 0.670362
vt 0.065567 0.670383
vt 0.973111 0.673575
vt 0.065567 0.673611
s 0
f 299/317/128 291/318/128 293/319/128 301/320/128
f 303/321/129 300/322/129 294/323/129 297/324/129
f 290/325/130 298/326/130 302/327/130 304/328/130
f 293/319/131 295/329/132 294/323/133
f 300/322/134 302/327/134 301/320/134
f 291/318/135 292/330/135 295/329/135 293/319/135
f 294/323/136 295/329/136 296/331/136 297/324/136
f 303/321/137 304/328/137 302/327/137 300/322/137
f 301/320/138 302/327/138 298/326/138 299/317/138
f 300/322/139 301/320/139 293/319/139 294/323/139
f 292/330/140 289/332/140 296/331/140 295/329/140
o Cube:205
v -54.044880 1.844864 -47.110241
v -54.044880 1.917793 -47.110241
v -53.095081 1.844864 -47.110241
v -53.095081 1.917793 -47.110241
v -54.044880 1.844864 -47.057308
v -54.044880 1.864864 -47.037312
v -54.044880 1.897793 -47.037312
v -54.044880 1.917793 -47.057308
v -53.095081 1.864864 -47.037312
v -53.095081 1.844864 -47.057308
v -53.095081 1.917793 -47.057308
v -53.095081 1.897793 -47.037312
v -54.044880 2.501226 -47.110241
v -54.044880 2.574155 -47.110241
v -53.095081 2.501226 -47.110241
v -53.095081 2.574155 -47.110241
v -54.044880 2.501226 -47.057308
v -54.044880 2.521226 -47.037312
v -54.044880 2.554155 -47.037312
v -54.044880 2.574155 -47.057308
v -53.095081 2.521226 -47.037312
v -53.095081 2.501226 -47.057308
v -53.095081 2.574155 -47.057308
v -53.095081 2.554155 -47.037312
v -54.044880 3.157588 -47.110241
v -54.044880 3.230517 -47.110241
v -53.095081 3.157588 -47.110241
v -53.095081 3.230517 -47.110241
v -54.044880 3.157588 -47.057308
v -54.044880 3.177588 -47.037312
v -54.044880 3.210517 -47.037312
v -54.044880 3.230517 -47.057308
v -53.095081 3.177588 -47.037312
v -53.095081 3.157588 -47.057308
v -53.095081 3.230517 -47.057308
v -53.095081 3.210517 -47.037312
v -54.044880 3.813951 -47.110241
v -54.044880 3.886879 -47.110241
v -53.095081 3.813951 -47.110241
v -53.095081 3.886879 -47.110241
v -54.044880 3.813951 -47.057308
v -54.044880 3.833951 -47.037312
v -54.044880 3.866879 -47.037312
v -54.044880 3.886879 -47.057308
v -53.095081 3.833951 -47.037312
v -53.095081 3.813951 -47.057308
v -53.095081 3.886879 -47.057308
v -53.095081 3.866879 -47.037312
v -54.044880 4.470313 -47.110241
v -54.044880 4.543242 -47.110241
v -53.095081 4.470313 -47.110241
v -53.095081 4.543242 -47.110241
v -54.044880 4.470313 -47.057308
v -54.044880 4.490313 -47.037312
v -54.044880 4.523242 -47.037312
v -54.044880 4.543242 -47.057308
v -53.095081 4.490313 -47.037312
v -53.095081 4.470313 -47.057308
v -53.095081 4.543242 -47.057308
v -53.095081 4.523242 -47.037312
v -54.044880 5.126675 -47.110241
v -54.044880 5.199604 -47.110241
v -53.095081 5.126675 -47.110241
v -53.095081 5.199604 -47.110241
v -54.044880 5.126675 -47.057308
v -54.044880 5.146675 -47.037312
v -54.044880 5.179604 -47.037312
v -54.044880 5.199604 -47.057308
v -53.095081 5.146675 -47.037312
v -53.095081 5.126675 -47.057308
v -53.095081 5.199604 -47.057308
v -53.095081 5.179604 -47.037312
v -54.044880 5.783038 -47.110241
v -54.044880 5.855966 -47.110241
v -53.095081 5.783038 -47.110241
v -53.095081 5.855966 -47.110241
v -54.044880 5.783038 -47.057308
v -54.044880 5.803038 -47.037312
v -54.044880 5.835966 -47.037312
v -54.044880 5.855966 -47.057308
v -53.095081 5.803038 -47.037312
v -53.095081 5.783038 -47.057308
v -53.095081 5.855966 -47.057308
v -53.095081 5.835966 -47.037312
v -54.044880 6.439399 -47.110241
v -54.044880 6.512328 -47.110241
v -53.095081 6.439399 -47.110241
v -53.095081 6.512328 -47.110241
v -54.044880 6.439399 -47.057308
v -54.044880 6.459399 -47.037312
v -54.044880 6.492329 -47.037312
v -54.044880 6.512328 -47.057308
v -53.095081 6.459399 -47.037312
v -53.095081 6.439399 -47.057308
v -53.095081 6.512328 -47.057308
v -53.095081 6.492329 -47.037312
v -54.044880 7.095761 -47.110241
v -54.044880 7.168691 -47.110241
v -53.095081 7.095761 -47.110241
v -53.095081 7.168691 -47.110241
v -54.044880 7.095761 -47.057308
v -54.044880 7.115761 -47.037312
v -54.044880 7.148691 -47.037312
v -54.044880 7.168691 -47.057308
v -53.095081 7.115761 -47.037312
v -53.095081 7.095761 -47.057308
v -53.095081 7.168691 -47.057308
v -53.095081 7.148691 -47.037312
v -54.044880 7.752123 -47.110241
v -54.044880 7.825053 -47.110241
v -53.095081 7.752123 -47.110241
v -53.095081 7.825053 -47.110241
v -54.044880 7.752123 -47.057308
v -54.044880 7.772123 -47.037312
v -54.044880 7.805053 -47.037312
v -54.044880 7.825053 -47.057308
v -53.095081 7.772123 -47.037312
v -53.095081 7.752123 -47.057308
v -53.095081 7.825053 -47.057308
v -53.095081 7.805053 -47.037312
v -54.044880 8.408484 -47.110241
v -54.044880 8.481414 -47.110241
v -53.095081 8.408484 -47.110241
v -53.095081 8.481414 -47.110241
v -54.044880 8.408484 -47.057308
v -54.044880 8.428484 -47.037312
v -54.044880 8.461413 -47.037312
v -54.044880 8.481414 -47.057308
v -53.095081 8.428484 -47.037312
v -53.095081 8.408484 -47.057308
v -53.095081 8.481414 -47.057308
v -53.095081 8.461413 -47.037312
v -54.044880 9.064846 -47.110241
v -54.044880 9.137775 -47.110241
v -53.095081 9.064846 -47.110241
v -53.095081 9.137775 -47.110241
v -54.044880 9.064846 -47.057308
v -54.044880 9.084846 -47.037312
v -54.044880 9.117776 -47.037312
v -54.044880 9.137775 -47.057308
v -53.095081 9.084846 -47.037312
v -53.095081 9.064846 -47.057308
v -53.095081 9.137775 -47.057308
v -53.095081 9.117776 -47.037312
v -54.044880 9.721209 -47.110241
v -54.044880 9.794138 -47.110241
v -53.095081 9.721209 -47.110241
v -53.095081 9.794138 -47.110241
v -54.044880 9.721209 -47.057308
v -54.044880 9.741208 -47.037312
v -54.044880 9.774137 -47.037312
v -54.044880 9.794138 -47.057308
v -53.095081 9.741208 -47.037312
v -53.095081 9.721209 -47.057308
v -53.095081 9.794138 -47.057308
v -53.095081 9.774137 -47.037312
v -54.044880 10.377566 -47.110241
v -54.044880 10.450496 -47.110241
v -53.095081 10.377566 -47.110241
v -53.095081 10.450496 -47.110241
v -54.044880 10.377566 -47.057308
v -54.044880 10.397566 -47.037312
v -54.044880 10.430496 -47.037312
v -54.044880 10.450496 -47.057308
v -53.095081 10.397566 -47.037312
v -53.095081 10.377566 -47.057308
v -53.095081 10.450496 -47.057308
v -53.095081 10.430496 -47.037312
v -54.044880 11.033937 -47.110241
v -54.044880 11.106866 -47.110241
v -53.095081 11.033937 -47.110241
v -53.095081 11.106866 -47.110241
v -54.044880 11.033937 -47.057308
v -54.044880 11.053936 -47.037312
v -54.044880 11.086856 -47.037312
v -54.044880 11.106866 -47.057308
v -53.095081 11.053936 -47.037312
v -53.095081 11.033937 -47.057308
v -53.095081 11.106866 -47.057308
v -53.095081 11.086856 -47.037312
v -54.044880 11.690296 -47.110241
v -54.044880 11.763227 -47.110241
v -53.095081 11.690296 -47.110241
v -53.095081 11.763227 -47.110241
v -54.044880 11.690296 -47.057308
v -54.044880 11.710297 -47.037312
v -54.044880 11.743226 -47.037312
v -54.044880 11.763227 -47.057308
v -53.095081 11.710297 -47.037312
v -53.095081 11.690296 -47.057308
v -53.095081 11.763227 -47.057308
v -53.095081 11.743226 -47.037312
v -54.044880 12.346656 -47.110241
v -54.044880 12.419586 -47.110241
v -53.095081 12.346656 -47.110241
v -53.095081 12.419586 -47.110241
v -54.044880 12.346656 -47.057308
v -54.044880 12.366656 -47.037312
v -54.044880 12.399586 -47.037312
v -54.044880 12.419586 -47.057308
v -53.095081 12.366656 -47.037312
v -53.095081 12.346656 -47.057308
v -53.095081 12.419586 -47.057308
v -53.095081 12.399586 -47.037312
v -54.044880 13.003016 -47.110241
v -54.044880 13.075946 -47.110241
v -53.095081 13.003016 -47.110241
v -53.095081 13.075946 -47.110241
v -54.044880 13.003016 -47.057308
v -54.044880 13.023016 -47.037312
v -54.044880 13.055946 -47.037312
v -54.044880 13.075946 -47.057308
v -53.095081 13.023016 -47.037312
v -53.095081 13.003016 -47.057308
v -53.095081 13.075946 -47.057308
v -53.095081 13.055946 -47.037312
v -54.044880 13.659376 -47.110241
v -54.044880 13.732306 -47.110241
v -53.095081 13.659376 -47.110241
v -53.095081 13.732306 -47.110241
v -54.044880 13.659376 -47.057308
v -54.044880 13.679377 -47.037312
v -54.044880 13.712306 -47.037312
v -54.044880 13.732306 -47.057308
v -53.095081 13.679377 -47.037312
v -53.095081 13.659376 -47.057308
v -53.095081 13.732306 -47.057308
v -53.095081 13.712306 -47.037312
v -54.044880 14.315736 -47.110241
v -54.044880 14.388666 -47.110241
v -53.095081 14.315736 -47.110241
v -53.095081 14.388666 -47.110241
v -54.044880 14.315736 -47.057308
v -54.044880 14.335736 -47.037312
v -54.044880 14.368667 -47.037312
v -54.044880 14.388666 -47.057308
v -53.095081 14.335736 -47.037312
v -53.095081 14.315736 -47.057308
v -53.095081 14.388666 -47.057308
v -53.095081 14.368667 -47.037312
v -54.044880 14.972106 -47.110241
v -54.044880 15.045026 -47.110241
v -53.095081 14.972106 -47.110241
v -53.095081 15.045026 -47.110241
v -54.044880 14.972106 -47.057308
v -54.044880 14.992106 -47.037312
v -54.044880 15.025026 -47.037312
v -54.044880 15.045026 -47.057308
v -53.095081 14.992106 -47.037312
v -53.095081 14.972106 -47.057308
v -53.095081 15.045026 -47.057308
v -53.095081 15.025026 -47.037312
v -54.044880 15.628467 -47.110241
v -54.044880 15.701396 -47.110241
v -53.095081 15.628467 -47.110241
v -53.095081 15.701396 -47.110241
v -54.044880 15.628467 -47.057308
v -54.044880 15.648466 -47.037312
v -54.044880 15.681396 -47.037312
v -54.044880 15.701396 -47.057308
v -53.095081 15.648466 -47.037312
v -53.095081 15.628467 -47.057308
v -53.095081 15.701396 -47.057308
v -53.095081 15.681396 -47.037312
v -54.044880 16.284826 -47.110241
v -54.044880 16.357756 -47.110241
v -53.095081 16.284826 -47.110241
v -53.095081 16.357756 -47.110241
v -54.044880 16.284826 -47.057308
v -54.044880 16.304827 -47.037312
v -54.044880 16.337757 -47.037312
v -54.044880 16.357756 -47.057308
v -53.095081 16.304827 -47.037312
v -53.095081 16.284826 -47.057308
v -53.095081 16.357756 -47.057308
v -53.095081 16.337757 -47.037312
v -54.044880 16.941187 -47.110241
v -54.044880 17.014116 -47.110241
v -53.095081 16.941187 -47.110241
v -53.095081 17.014116 -47.110241
v -54.044880 16.941187 -47.057308
v -54.044880 16.961185 -47.037312
v -54.044880 16.994116 -47.037312
v -54.044880 17.014116 -47.057308
v -53.095081 16.961185 -47.037312
v -53.095081 16.941187 -47.057308
v -53.095081 17.014116 -47.057308
v -53.095081 16.994116 -47.037312
v -54.044880 17.597546 -47.110241
v -54.044880 17.670477 -47.110241
v -53.095081 17.597546 -47.110241
v -53.095081 17.670477 -47.110241
v -54.044880 17.597546 -47.057308
v -54.044880 17.617546 -47.037312
v -54.044880 17.650476 -47.037312
v -54.044880 17.670477 -47.057308
v -53.095081 17.617546 -47.037312
v -53.095081 17.597546 -47.057308
v -53.095081 17.670477 -47.057308
v -53.095081 17.650476 -47.037312
v -54.044880 18.253906 -47.110241
v -54.044880 18.326836 -47.110241
v -53.095081 18.253906 -47.110241
v -53.095081 18.326836 -47.110241
v -54.044880 18.253906 -47.057308
v -54.044880 18.273907 -47.037312
v -54.044880 18.306837 -47.037312
v -54.044880 18.326836 -47.057308
v -53.095081 18.273907 -47.037312
v -53.095081 18.253906 -47.057308
v -53.095081 18.326836 -47.057308
v -53.095081 18.306837 -47.037312
v -54.044880 18.910276 -47.110241
v -54.044880 18.983206 -47.110241
v -53.095081 18.910276 -47.110241
v -53.095081 18.983206 -47.110241
v -54.044880 18.910276 -47.057308
v -54.044880 18.930277 -47.037312
v -54.044880 18.963196 -47.037312
v -54.044880 18.983206 -47.057308
v -53.095081 18.930277 -47.037312
v -53.095081 18.910276 -47.057308
v -53.095081 18.983206 -47.057308
v -53.095081 18.963196 -47.037312
v -54.044880 19.566637 -47.110241
v -54.044880 19.639566 -47.110241
v -53.095081 19.566637 -47.110241
v -53.095081 19.639566 -47.110241
v -54.044880 19.566637 -47.057308
v -54.044880 19.586636 -47.037312
v -54.044880 19.619566 -47.037312
v -54.044880 19.639566 -47.057308
v -53.095081 19.586636 -47.037312
v -53.095081 19.566637 -47.057308
v -53.095081 19.639566 -47.057308
v -53.095081 19.619566 -47.037312
vn -0.0000 1.0000 -0.0000
vn -0.0000 -0.0000 1.0000
vn -0.0000 -0.7070 0.7072
vn -0.0000 0.7070 0.7072
vn -0.0000 -1.0000 -0.0000
vn -0.0000 0.7071 0.7072
vn -0.0000 -0.7071 0.7072
vn -0.0000 0.7069 0.7073
vn -0.0000 -0.7071 0.7071
vt 0.992213 0.109054
vt 0.927271 0.109054
vt 0.927271 0.105435
vt 0.992213 0.105435
vt 0.992213 0.101249
vt 0.992213 0.103501
vt 0.927271 0.103501
vt 0.927271 0.101249
vt 0.927271 0.099315
vt 0.992213 0.099315
vt 0.927271 0.095696
vt 0.992213 0.095696
vt 0.922249 0.109054
vt 0.857308 0.109054
vt 0.857308 0.105435
vt 0.922249 0.105435
vt 0.922249 0.101249
vt 0.922249 0.103501
vt 0.857308 0.103501
vt 0.857308 0.101249
vt 0.857308 0.099315
vt 0.922249 0.099315
vt 0.857308 0.095696
vt 0.922249 0.095696
vt 0.852286 0.090871
vt 0.787345 0.090871
vt 0.787345 0.087252
vt 0.852286 0.087252
vt 0.852286 0.083067
vt 0.852286 0.085318
vt 0.787345 0.085318
vt 0.787345 0.083067
vt 0.787345 0.081133
vt 0.852286 0.081133
vt 0.787345 0.077514
vt 0.852286 0.077514
vt 0.922249 0.072689
vt 0.857308 0.072689
vt 0.857308 0.069070
vt 0.922249 0.069070
vt 0.922249 0.064884
vt 0.922249 0.067136
vt 0.857308 0.067136
vt 0.857308 0.064884
vt 0.857308 0.062950
vt 0.922249 0.062950
vt 0.857308 0.059331
vt 0.922249 0.059331
vt 0.332190 0.106013
vt 0.256613 0.106013
vt 0.256613 0.101801
vt 0.332190 0.101801
vt 0.332190 0.096931
vt 0.332190 0.099551
vt 0.256613 0.099551
vt 0.256613 0.096931
vt 0.256613 0.094680
vt 0.332190 0.094680
vt 0.256613 0.090468
vt 0.332190 0.090468
vt 0.992213 0.090871
vt 0.927271 0.090871
vt 0.927271 0.087252
vt 0.992213 0.087252
vt 0.992213 0.083067
vt 0.992213 0.085318
vt 0.927271 0.085318
vt 0.927271 0.083067
vt 0.927271 0.081133
vt 0.992213 0.081133
vt 0.927271 0.077514
vt 0.992213 0.077514
vt 0.746434 0.061756
vt 0.674351 0.061756
vt 0.674351 0.057739
vt 0.746434 0.057739
vt 0.746434 0.053094
vt 0.746434 0.055593
vt 0.674351 0.055593
vt 0.674351 0.053094
vt 0.674351 0.050947
vt 0.746434 0.050947
vt 0.674351 0.046930
vt 0.746434 0.046930
vt 0.332190 0.084853
vt 0.256613 0.084853
vt 0.256613 0.080641
vt 0.332190 0.080641
vt 0.332190 0.075770
vt 0.332190 0.078391
vt 0.256613 0.078391
vt 0.256613 0.075770
vt 0.256613 0.073520
vt 0.332190 0.073520
vt 0.256613 0.069308
vt 0.332190 0.069308
vt 0.169348 0.063693
vt 0.093770 0.063693
vt 0.093770 0.059481
vt 0.169348 0.059481
vt 0.169348 0.054610
vt 0.169348 0.057230
vt 0.093770 0.057230
vt 0.093770 0.054610
vt 0.093770 0.052359
vt 0.169348 0.052359
vt 0.093770 0.048148
vt 0.169348 0.048148
vt 0.087926 0.063693
vt 0.012349 0.063693
vt 0.012349 0.059481
vt 0.087926 0.059481
vt 0.087926 0.054610
vt 0.087926 0.057230
vt 0.012349 0.057230
vt 0.012349 0.054610
vt 0.012349 0.052359
vt 0.087926 0.052359
vt 0.012349 0.048148
vt 0.087926 0.048148
vt 0.250769 0.063693
vt 0.175192 0.063693
vt 0.175192 0.059481
vt 0.250769 0.059481
vt 0.250769 0.054610
vt 0.250769 0.057230
vt 0.175192 0.057230
vt 0.175192 0.054610
vt 0.175192 0.052359
vt 0.250769 0.052359
vt 0.175192 0.048148
vt 0.250769 0.048148
vt 0.169348 0.106013
vt 0.093770 0.106013
vt 0.093770 0.101802
vt 0.169348 0.101802
vt 0.169348 0.096931
vt 0.169348 0.099551
vt 0.093770 0.099551
vt 0.093770 0.096931
vt 0.093770 0.094680
vt 0.169348 0.094680
vt 0.093770 0.090468
vt 0.169348 0.090468
vt 0.087926 0.084853
vt 0.012349 0.084853
vt 0.012349 0.080641
vt 0.087926 0.080641
vt 0.087926 0.075770
vt 0.087926 0.078391
vt 0.012349 0.078391
vt 0.012349 0.075770
vt 0.012349 0.073520
vt 0.087926 0.073520
vt 0.012349 0.069308
vt 0.087926 0.069308
vt 0.992213 0.072689
vt 0.927271 0.072689
vt 0.927271 0.069070
vt 0.992213 0.069070
vt 0.992213 0.064884
vt 0.992213 0.067136
vt 0.927271 0.067136
vt 0.927271 0.064884
vt 0.927271 0.062950
vt 0.992213 0.062950
vt 0.927271 0.059331
vt 0.992213 0.059331
vt 0.668777 0.061756
vt 0.596694 0.061756
vt 0.596694 0.057739
vt 0.668777 0.057739
vt 0.668777 0.053094
vt 0.668777 0.055593
vt 0.596694 0.055593
vt 0.596694 0.053094
vt 0.596694 0.050947
vt 0.668777 0.050947
vt 0.596694 0.046930
vt 0.668777 0.046930
vt 0.332190 0.063693
vt 0.256613 0.063693
vt 0.256613 0.059481
vt 0.332190 0.059481
vt 0.332190 0.054610
vt 0.332190 0.057230
vt 0.256613 0.057230
vt 0.256613 0.054610
vt 0.256613 0.052359
vt 0.332190 0.052359
vt 0.256613 0.048148
vt 0.332190 0.048148
vt 0.903056 0.049445
vt 0.823404 0.049445
vt 0.823404 0.045006
vt 0.903056 0.045006
vt 0.903056 0.039872
vt 0.903056 0.042634
vt 0.823404 0.042634
vt 0.823404 0.039872
vt 0.823404 0.037500
vt 0.903056 0.037500
vt 0.823404 0.033061
vt 0.903056 0.033061
vt 0.413612 0.063693
vt 0.338034 0.063693
vt 0.338034 0.059481
vt 0.413612 0.059481
vt 0.413612 0.054610
vt 0.413612 0.057230
vt 0.338034 0.057230
vt 0.338034 0.054610
vt 0.338034 0.052359
vt 0.413612 0.052359
vt 0.338034 0.048148
vt 0.413612 0.048148
vt 0.988868 0.049445
vt 0.909215 0.049445
vt 0.909215 0.045006
vt 0.988868 0.045006
vt 0.988868 0.039872
vt 0.988868 0.042634
vt 0.909215 0.042634
vt 0.909215 0.039872
vt 0.909215 0.037500
vt 0.988868 0.037500
vt 0.909215 0.033061
vt 0.988868 0.033061
vt 0.087926 0.106013
vt 0.012349 0.106013
vt 0.012349 0.101802
vt 0.087926 0.101802
vt 0.087926 0.096931
vt 0.087926 0.099551
vt 0.012349 0.099551
vt 0.012349 0.096931
vt 0.012349 0.094680
vt 0.087926 0.094680
vt 0.012349 0.090468
vt 0.087926 0.090468
vt 0.413612 0.084853
vt 0.338034 0.084853
vt 0.338034 0.080641
vt 0.413612 0.080641
vt 0.413612 0.075770
vt 0.413612 0.078391
vt 0.338034 0.078391
vt 0.338034 0.075770
vt 0.338034 0.073520
vt 0.413612 0.073520
vt 0.338034 0.069308
vt 0.413612 0.069308
vt 0.852286 0.109054
vt 0.787345 0.109054
vt 0.787345 0.105435
vt 0.852286 0.105435
vt 0.852286 0.101249
vt 0.852286 0.103501
vt 0.787345 0.103501
vt 0.787345 0.101249
vt 0.787345 0.099315
vt 0.852286 0.099315
vt 0.787345 0.095696
vt 0.852286 0.095696
vt 0.169348 0.084853
vt 0.093770 0.084853
vt 0.093770 0.080641
vt 0.169348 0.080641
vt 0.169348 0.075770
vt 0.169348 0.078391
vt 0.093770 0.078391
vt 0.093770 0.075770
vt 0.093770 0.073520
vt 0.169348 0.073520
vt 0.093770 0.069308
vt 0.169348 0.069308
vt 0.413612 0.106013
vt 0.338034 0.106013
vt 0.338034 0.101801
vt 0.413612 0.101801
vt 0.413612 0.096931
vt 0.413612 0.099551
vt 0.338034 0.099551
vt 0.338034 0.096931
vt 0.338034 0.094680
vt 0.413612 0.094680
vt 0.338034 0.090468
vt 0.413612 0.090468
vt 0.250769 0.084853
vt 0.175192 0.084853
vt 0.175192 0.080641
vt 0.250769 0.080641
vt 0.250769 0.075770
vt 0.250769 0.078391
vt 0.175192 0.078391
vt 0.175192 0.075770
vt 0.175192 0.073520
vt 0.250769 0.073520
vt 0.175192 0.069308
vt 0.250769 0.069308
vt 0.250769 0.106013
vt 0.175192 0.106013
vt 0.175192 0.101801
vt 0.250769 0.101801
vt 0.250769 0.096931
vt 0.250769 0.099551
vt 0.175192 0.099551
vt 0.175192 0.096931
vt 0.175192 0.094680
vt 0.250769 0.094680
vt 0.175192 0.090468
vt 0.250769 0.090468
vt 0.852286 0.072689
vt 0.787345 0.072689
vt 0.787345 0.069070
vt 0.852286 0.069070
vt 0.852286 0.064884
vt 0.852286 0.067136
vt 0.787345 0.067136
vt 0.787345 0.064884
vt 0.787345 0.062950
vt 0.852286 0.062950
vt 0.787345 0.059331
vt 0.852286 0.059331
vt 0.922249 0.090871
vt 0.857308 0.090871
vt 0.857308 0.087252
vt 0.922249 0.087252
vt 0.922249 0.083067
vt 0.922249 0.085318
vt 0.857308 0.085318
vt 0.857308 0.083067
vt 0.857308 0.081133
vt 0.922249 0.081133
vt 0.857308 0.077514
vt 0.922249 0.077514
s 0
f 308/333/141 306/334/141 312/335/141 315/336/141
f 313/337/142 316/338/142 311/339/142 310/340/142
f 309/341/143 314/342/143 313/337/143 310/340/143
f 315/336/144 312/335/144 311/339/144 316/338/144
f 305/343/145 307/344/145 314/342/145 309/341/145
f 320/345/141 318/346/141 324/347/141 327/348/141
f 325/349/142 328/350/142 323/351/142 322/352/142
f 321/353/143 326/354/143 325/349/143 322/352/143
f 327/348/144 324/347/144 323/351/144 328/350/144
f 317/355/145 319/356/145 326/354/145 321/353/145
f 332/357/141 330/358/141 336/359/141 339/360/141
f 337/361/142 340/362/142 335/363/142 334/364/142
f 333/365/143 338/366/143 337/361/143 334/364/143
f 339/360/144 336/359/144 335/363/144 340/362/144
f 329/367/145 331/368/145 338/366/145 333/365/145
f 344/369/141 342/370/141 348/371/141 351/372/141
f 349/373/142 352/374/142 347/375/142 346/376/142
f 345/377/143 350/378/143 349/373/143 346/376/143
f 351/372/144 348/371/144 347/375/144 352/374/144
f 341/379/145 343/380/145 350/378/145 345/377/145
f 356/381/141 354/382/141 360/383/141 363/384/141
f 361/385/142 364/386/142 359/387/142 358/388/142
f 357/389/143 362/390/143 361/385/143 358/388/143
f 363/384/146 360/383/146 359/387/146 364/386/146
f 353/391/145 355/392/145 362/390/145 357/389/145
f 368/393/141 366/394/141 372/395/141 375/396/141
f 373/397/142 376/398/142 371/399/142 370/400/142
f 369/401/143 374/402/143 373/397/143 370/400/143
f 375/396/146 372/395/146 371/399/146 376/398/146
f 365/403/145 367/404/145 374/402/145 369/401/145
f 380/405/141 378/406/141 384/407/141 387/408/141
f 385/409/142 388/410/142 383/411/142 382/412/142
f 381/413/143 386/414/143 385/409/143 382/412/143
f 387/408/144 384/407/144 383/411/144 388/410/144
f 377/415/145 379/416/145 386/414/145 381/413/145
f 392/417/141 390/418/141 396/419/141 399/420/141
f 397/421/142 400/422/142 395/423/142 394/424/142
f 393/425/147 398/426/147 397/421/147 394/424/147
f 399/420/146 396/419/146 395/423/146 400/422/146
f 389/427/145 391/428/145 398/426/145 393/425/145
f 404/429/141 402/430/141 408/431/141 411/432/141
f 409/433/142 412/434/142 407/435/142 406/436/142
f 405/437/147 410/438/147 409/433/147 406/436/147
f 411/432/144 408/431/144 407/435/144 412/434/144
f 401/439/145 403/440/145 410/438/145 405/437/145
f 416/441/141 414/442/141 420/443/141 423/444/141
f 421/445/142 424/446/142 419/447/142 418/448/142
f 417/449/143 422/450/143 421/445/143 418/448/143
f 423/444/146 420/443/146 419/447/146 424/446/146
f 413/451/145 415/452/145 422/450/145 417/449/145
f 428/453/141 426/454/141 432/455/141 435/456/141
f 433/457/142 436/458/142 431/459/142 430/460/142
f 429/461/147 434/462/147 433/457/147 430/460/147
f 435/456/144 432/455/144 431/459/144 436/458/144
f 425/463/145 427/464/145 434/462/145 429/461/145
f 440/465/141 438/466/141 444/467/141 447/468/141
f 445/469/142 448/470/142 443/471/142 442/472/142
f 441/473/143 446/474/143 445/469/143 442/472/143
f 447/468/146 444/467/146 443/471/146 448/470/146
f 437/475/145 439/476/145 446/474/145 441/473/145
f 452/477/141 450/478/141 456/479/141 459/480/141
f 457/481/142 460/482/142 455/483/142 454/484/142
f 453/485/143 458/486/143 457/481/143 454/484/143
f 459/480/144 456/479/144 455/483/144 460/482/144
f 449/487/145 451/488/145 458/486/145 453/485/145
f 464/489/141 462/490/141 468/491/141 471/492/141
f 469/493/142 472/494/142 467/495/142 466/496/142
f 465/497/147 470/498/147 469/493/147 466/496/147
f 471/492/144 468/491/144 467/495/144 472/494/144
f 461/499/145 463/500/145 470/498/145 465/497/145
f 476/501/141 474/502/141 480/503/141 483/504/141
f 481/505/142 484/506/142 479/507/142 478/508/142
f 477/509/143 482/510/143 481/505/143 478/508/143
f 483/504/148 480/503/148 479/507/148 484/506/148
f 473/511/145 475/512/145 482/510/145 477/509/145
f 488/513/141 486/514/141 492/515/141 495/516/141
f 493/517/142 496/518/142 491/519/142 490/520/142
f 489/521/143 494/522/143 493/517/143 490/520/143
f 495/516/144 492/515/144 491/519/144 496/518/144
f 485/523/145 487/524/145 494/522/145 489/521/145
f 500/525/141 498/526/141 504/527/141 507/528/141
f 505/529/142 508/530/142 503/531/142 502/532/142
f 501/533/143 506/534/143 505/529/143 502/532/143
f 507/528/144 504/527/144 503/531/144 508/530/144
f 497/535/145 499/536/145 506/534/145 501/533/145
f 512/537/141 510/538/141 516/539/141 519/540/141
f 517/541/142 520/542/142 515/543/142 514/544/142
f 513/545/147 518/546/147 517/541/147 514/544/147
f 519/540/146 516/539/146 515/543/146 520/542/146
f 509/547/145 511/548/145 518/546/145 513/545/145
f 524/549/141 522/550/141 528/551/141 531/552/141
f 529/553/142 532/554/142 527/555/142 526/556/142
f 525/557/143 530/558/143 529/553/143 526/556/143
f 531/552/144 528/551/144 527/555/144 532/554/144
f 521/559/145 523/560/145 530/558/145 525/557/145
f 536/561/141 534/562/141 540/563/141 543/564/141
f 541/565/142 544/566/142 539/567/142 538/568/142
f 537/569/143 542/570/143 541/565/143 538/568/143
f 543/564/146 540/563/146 539/567/146 544/566/146
f 533/571/145 535/572/145 542/570/145 537/569/145
f 548/573/141 546/574/141 552/575/141 555/576/141
f 553/577/142 556/578/142 551/579/142 550/580/142
f 549/581/143 554/582/143 553/577/143 550/580/143
f 555/576/144 552/575/144 551/579/144 556/578/144
f 545/583/145 547/584/145 554/582/145 549/581/145
f 560/585/141 558/586/141 564/587/141 567/588/141
f 565/589/142 568/590/142 563/591/142 562/592/142
f 561/593/143 566/594/143 565/589/143 562/592/143
f 567/588/146 564/587/146 563/591/146 568/590/146
f 557/595/145 559/596/145 566/594/145 561/593/145
f 572/597/141 570/598/141 576/599/141 579/600/141
f 577/601/142 580/602/142 575/603/142 574/604/142
f 573/605/143 578/606/143 577/601/143 574/604/143
f 579/600/146 576/599/146 575/603/146 580/602/146
f 569/607/145 571/608/145 578/606/145 573/605/145
f 584/609/141 582/610/141 588/611/141 591/612/141
f 589/613/142 592/614/142 587/615/142 586/616/142
f 585/617/149 590/618/149 589/613/149 586/616/149
f 591/612/146 588/611/146 587/615/146 592/614/146
f 581/619/145 583/620/145 590/618/145 585/617/145
f 596/621/141 594/622/141 600/623/141 603/624/141
f 601/625/142 604/626/142 599/627/142 598/628/142
f 597/629/143 602/630/143 601/625/143 598/628/143
f 603/624/144 600/623/144 599/627/144 604/626/144
f 593/631/145 595/632/145 602/630/145 597/629/145
f 608/633/141 606/634/141 612/635/141 615/636/141
f 613/637/142 616/638/142 611/639/142 610/640/142
f 609/641/143 614/642/143 613/637/143 610/640/143
f 615/636/146 612/635/146 611/639/146 616/638/146
f 605/643/145 607/644/145 614/642/145 609/641/145
f 620/645/141 618/646/141 624/647/141 627/648/141
f 625/649/142 628/650/142 623/651/142 622/652/142
f 621/653/143 626/654/143 625/649/143 622/652/143
f 627/648/148 624/647/148 623/651/148 628/650/148
f 617/655/145 619/656/145 626/654/145 621/653/145
f 632/657/141 630/658/141 636/659/141 639/660/141
f 637/661/142 640/662/142 635/663/142 634/664/142
f 633/665/147 638/666/147 637/661/147 634/664/147
f 639/660/144 636/659/144 635/663/144 640/662/144
f 629/667/145 631/668/145 638/666/145 633/665/145
o Cube:206
v -54.038239 1.844864 -47.070210
v -54.018230 1.864864 -47.070210
v -54.018230 1.897793 -47.070210
v -54.038239 1.917793 -47.070210
v -54.091160 1.864864 -47.070210
v -54.071159 1.844864 -47.070210
v -54.071159 1.917793 -47.070210
v -54.091160 1.897793 -47.070210
v -54.018230 1.864864 -47.840641
v -54.038239 1.844864 -47.840641
v -54.038239 1.917793 -47.840641
v -54.018230 1.897793 -47.840641
v -54.071159 1.844864 -47.840641
v -54.091160 1.864864 -47.840641
v -54.091160 1.897793 -47.840641
v -54.071159 1.917793 -47.840641
v -54.038239 3.726435 -47.070210
v -54.018230 3.746435 -47.070210
v -54.018230 3.779366 -47.070210
v -54.038239 3.799366 -47.070210
v -54.091160 3.746435 -47.070210
v -54.071159 3.726435 -47.070210
v -54.071159 3.799366 -47.070210
v -54.091160 3.779366 -47.070210
v -54.018230 3.746435 -47.840641
v -54.038239 3.726435 -47.840641
v -54.038239 3.799366 -47.840641
v -54.018230 3.779366 -47.840641
v -54.071159 3.726435 -47.840641
v -54.091160 3.746435 -47.840641
v -54.091160 3.779366 -47.840641
v -54.071159 3.799366 -47.840641
v -54.038239 5.608007 -47.070210
v -54.018230 5.628008 -47.070210
v -54.018230 5.660937 -47.070210
v -54.038239 5.680937 -47.070210
v -54.091160 5.628008 -47.070210
v -54.071159 5.608007 -47.070210
v -54.071159 5.680937 -47.070210
v -54.091160 5.660937 -47.070210
v -54.018230 5.628007 -47.840641
v -54.038239 5.608007 -47.840641
v -54.038239 5.680936 -47.840641
v -54.018230 5.660936 -47.840641
v -54.071159 5.608007 -47.840641
v -54.091160 5.628007 -47.840641
v -54.091160 5.660936 -47.840641
v -54.071159 5.680936 -47.840641
v -54.038239 7.489579 -47.070210
v -54.018230 7.509579 -47.070210
v -54.018230 7.542508 -47.070210
v -54.038239 7.562508 -47.070210
v -54.091160 7.509579 -47.070210
v -54.071159 7.489579 -47.070210
v -54.071159 7.562508 -47.070210
v -54.091160 7.542508 -47.070210
v -54.018230 7.509578 -47.840641
v -54.038239 7.489578 -47.840641
v -54.038239 7.562507 -47.840641
v -54.018230 7.542507 -47.840641
v -54.071159 7.489578 -47.840641
v -54.091160 7.509578 -47.840641
v -54.091160 7.542507 -47.840641
v -54.071159 7.562507 -47.840641
v -54.038239 9.371149 -47.070210
v -54.018230 9.391150 -47.070210
v -54.018230 9.424079 -47.070210
v -54.038239 9.444078 -47.070210
v -54.091160 9.391150 -47.070210
v -54.071159 9.371149 -47.070210
v -54.071159 9.444078 -47.070210
v -54.091160 9.424079 -47.070210
v -54.018230 9.391150 -47.840641
v -54.038239 9.371149 -47.840641
v -54.038239 9.444078 -47.840641
v -54.018230 9.424079 -47.840641
v -54.071159 9.371149 -47.840641
v -54.091160 9.391150 -47.840641
v -54.091160 9.424079 -47.840641
v -54.071159 9.444078 -47.840641
v -54.038239 11.252716 -47.070210
v -54.018230 11.272717 -47.070210
v -54.018230 11.305646 -47.070210
v -54.038239 11.325646 -47.070210
v -54.091160 11.272717 -47.070210
v -54.071159 11.252716 -47.070210
v -54.071159 11.325646 -47.070210
v -54.091160 11.305646 -47.070210
v -54.018230 11.272717 -47.840641
v -54.038239 11.252716 -47.840641
v -54.038239 11.325646 -47.840641
v -54.018230 11.305646 -47.840641
v -54.071159 11.252716 -47.840641
v -54.091160 11.272717 -47.840641
v -54.091160 11.305646 -47.840641
v -54.071159 11.325646 -47.840641
v -54.038239 13.134286 -47.070210
v -54.018230 13.154286 -47.070210
v -54.018230 13.187216 -47.070210
v -54.038239 13.207216 -47.070210
v -54.091160 13.154286 -47.070210
v -54.071159 13.134286 -47.070210
v -54.071159 13.207216 -47.070210
v -54.091160 13.187216 -47.070210
v -54.018230 13.154286 -47.840641
v -54.038239 13.134286 -47.840641
v -54.038239 13.207216 -47.840641
v -54.018230 13.187216 -47.840641
v -54.071159 13.134286 -47.840641
v -54.091160 13.154286 -47.840641
v -54.091160 13.187216 -47.840641
v -54.071159 13.207216 -47.840641
v -54.038239 15.015856 -47.070210
v -54.018230 15.035866 -47.070210
v -54.018230 15.068787 -47.070210
v -54.038239 15.088786 -47.070210
v -54.091160 15.035866 -47.070210
v -54.071159 15.015856 -47.070210
v -54.071159 15.088786 -47.070210
v -54.091160 15.068787 -47.070210
v -54.018230 15.035866 -47.840641
v -54.038239 15.015856 -47.840641
v -54.038239 15.088786 -47.840641
v -54.018230 15.068787 -47.840641
v -54.071159 15.015856 -47.840641
v -54.091160 15.035866 -47.840641
v -54.091160 15.068787 -47.840641
v -54.071159 15.088786 -47.840641
v -54.038239 16.897436 -47.070210
v -54.018230 16.917437 -47.070210
v -54.018230 16.950367 -47.070210
v -54.038239 16.970366 -47.070210
v -54.091160 16.917437 -47.070210
v -54.071159 16.897436 -47.070210
v -54.071159 16.970366 -47.070210
v -54.091160 16.950367 -47.070210
v -54.018230 16.917437 -47.840641
v -54.038239 16.897436 -47.840641
v -54.038239 16.970366 -47.840641
v -54.018230 16.950367 -47.840641
v -54.071159 16.897436 -47.840641
v -54.091160 16.917437 -47.840641
v -54.091160 16.950367 -47.840641
v -54.071159 16.970366 -47.840641
v -54.038239 18.779007 -47.070210
v -54.018230 18.799006 -47.070210
v -54.018230 18.831936 -47.070210
v -54.038239 18.851936 -47.070210
v -54.091160 18.799006 -47.070210
v -54.071159 18.779007 -47.070210
v -54.071159 18.851936 -47.070210
v -54.091160 18.831936 -47.070210
v -54.018230 18.799006 -47.840641
v -54.038239 18.779007 -47.840641
v -54.038239 18.851936 -47.840641
v -54.018230 18.831936 -47.840641
v -54.071159 18.779007 -47.840641
v -54.091160 18.799006 -47.840641
v -54.091160 18.831936 -47.840641
v -54.071159 18.851936 -47.840641
vn -0.0000 1.0000 -0.0000
vn 1.0000 -0.0000 -0.0000
vn -1.0000 -0.0000 -0.0000
vn -0.7071 -0.7071 -0.0000
vn -0.7071 0.7071 -0.0000
vn 0.7070 -0.7073 -0.0000
vn 0.7070 0.7073 -0.0000
vn -0.0000 -1.0000 -0.0000
vn 0.7070 -0.7072 -0.0000
vn 0.7069 0.7073 -0.0000
vn 0.7070 0.7072 -0.0000
vn -0.7073 -0.7069 -0.0000
vn 0.7071 -0.7071 -0.0000
vn 0.7069 -0.7073 -0.0000
vt 0.596694 0.107134
vt 0.655165 0.107134
vt 0.655165 0.109633
vt 0.596694 0.109633
vt 0.596694 0.095696
vt 0.596694 0.093197
vt 0.655165 0.093197
vt 0.655165 0.095696
vt 0.596694 0.102488
vt 0.655165 0.102488
vt 0.655165 0.104987
vt 0.596694 0.104987
vt 0.596694 0.100342
vt 0.655165 0.100342
vt 0.655165 0.097843
vt 0.596694 0.097843
vt 0.596694 0.091050
vt 0.655165 0.091050
vt 0.565003 0.036308
vt 0.614493 0.036308
vt 0.614493 0.038424
vt 0.565003 0.038424
vt 0.565003 0.026627
vt 0.565003 0.024512
vt 0.614493 0.024512
vt 0.614493 0.026627
vt 0.565003 0.032376
vt 0.614493 0.032376
vt 0.614493 0.034491
vt 0.565003 0.034491
vt 0.565003 0.030559
vt 0.614493 0.030559
vt 0.614493 0.028444
vt 0.565003 0.028444
vt 0.565003 0.022695
vt 0.614493 0.022695
vt 0.422953 0.061931
vt 0.475557 0.061931
vt 0.475557 0.064179
vt 0.422953 0.064179
vt 0.422953 0.051641
vt 0.422953 0.049392
vt 0.475557 0.049392
vt 0.475557 0.051641
vt 0.422953 0.057752
vt 0.475557 0.057752
vt 0.475557 0.060000
vt 0.422953 0.060000
vt 0.422953 0.055820
vt 0.475557 0.055820
vt 0.475557 0.053572
vt 0.422953 0.053572
vt 0.422953 0.047461
vt 0.475557 0.047461
vt 0.480772 0.061931
vt 0.533376 0.061931
vt 0.533376 0.064179
vt 0.480772 0.064179
vt 0.480772 0.051641
vt 0.480772 0.049392
vt 0.533376 0.049392
vt 0.533376 0.051641
vt 0.480772 0.057752
vt 0.533376 0.057752
vt 0.533376 0.060000
vt 0.480772 0.060000
vt 0.480772 0.055820
vt 0.533376 0.055820
vt 0.533376 0.053572
vt 0.480772 0.053572
vt 0.480772 0.047461
vt 0.533376 0.047461
vt 0.660962 0.083196
vt 0.719432 0.083196
vt 0.719432 0.085695
vt 0.660962 0.085695
vt 0.660962 0.071758
vt 0.660962 0.069258
vt 0.719432 0.069258
vt 0.719432 0.071758
vt 0.660962 0.078550
vt 0.719432 0.078550
vt 0.719432 0.081049
vt 0.660962 0.081049
vt 0.660962 0.076403
vt 0.719432 0.076403
vt 0.719432 0.073904
vt 0.660962 0.073904
vt 0.660962 0.067112
vt 0.719432 0.067112
vt 0.725230 0.083195
vt 0.783700 0.083195
vt 0.783700 0.085694
vt 0.725230 0.085694
vt 0.725230 0.071757
vt 0.725230 0.069258
vt 0.783700 0.069258
vt 0.783700 0.071757
vt 0.725230 0.078550
vt 0.783700 0.078550
vt 0.783700 0.081049
vt 0.725230 0.081049
vt 0.725230 0.076403
vt 0.783700 0.076403
vt 0.783700 0.073904
vt 0.725230 0.073904
vt 0.725230 0.067112
vt 0.783700 0.067112
vt 0.480772 0.083468
vt 0.533376 0.083468
vt 0.533376 0.085716
vt 0.480772 0.085716
vt 0.480772 0.073177
vt 0.480772 0.070929
vt 0.533376 0.070929
vt 0.533376 0.073177
vt 0.480772 0.079288
vt 0.533376 0.079288
vt 0.533376 0.081536
vt 0.480772 0.081536
vt 0.480772 0.077357
vt 0.533376 0.077357
vt 0.533376 0.075109
vt 0.480772 0.075109
vt 0.480772 0.068998
vt 0.533376 0.068998
vt 0.458313 0.036508
vt 0.507803 0.036508
vt 0.507803 0.038623
vt 0.458313 0.038623
vt 0.458313 0.026827
vt 0.458313 0.024711
vt 0.507803 0.024711
vt 0.507803 0.026827
vt 0.458313 0.032576
vt 0.507803 0.032576
vt 0.507803 0.034691
vt 0.458313 0.034691
vt 0.458313 0.030759
vt 0.507803 0.030759
vt 0.507803 0.028644
vt 0.458313 0.028644
vt 0.458313 0.022894
vt 0.507803 0.022894
vt 0.596694 0.083196
vt 0.655165 0.083196
vt 0.655165 0.085695
vt 0.596694 0.085695
vt 0.596694 0.071757
vt 0.596694 0.069258
vt 0.655165 0.069258
vt 0.655165 0.071757
vt 0.596694 0.078550
vt 0.655165 0.078550
vt 0.655165 0.081049
vt 0.596694 0.081049
vt 0.596694 0.076403
vt 0.655165 0.076403
vt 0.655165 0.073904
vt 0.596694 0.073904
vt 0.596694 0.067112
vt 0.655165 0.067112
vt 0.725230 0.107134
vt 0.783700 0.107134
vt 0.783700 0.109633
vt 0.725230 0.109633
vt 0.725230 0.095696
vt 0.725230 0.093197
vt 0.783700 0.093197
vt 0.783700 0.095696
vt 0.725230 0.102488
vt 0.783700 0.102488
vt 0.783700 0.104987
vt 0.725230 0.104987
vt 0.725230 0.100341
vt 0.783700 0.100341
vt 0.783700 0.097842
vt 0.725230 0.097842
vt 0.725230 0.091050
vt 0.783700 0.091050
s 0
f 656/669/150 647/670/150 644/671/150 651/672/150
f 649/673/151 652/674/151 643/675/151 642/676/151
f 654/677/152 645/678/152 648/679/152 655/680/152
f 653/681/153 646/682/153 645/678/153 654/677/153
f 647/670/154 656/669/154 655/680/154 648/679/154
f 641/683/155 650/684/155 649/673/155 642/676/155
f 651/685/156 644/686/156 643/675/156 652/674/156
f 646/682/157 653/681/157 650/684/157 641/683/157
f 672/687/150 663/688/150 660/689/150 667/690/150
f 665/691/151 668/692/151 659/693/151 658/694/151
f 670/695/152 661/696/152 664/697/152 671/698/152
f 669/699/153 662/700/153 661/696/153 670/695/153
f 663/688/154 672/687/154 671/698/154 664/697/154
f 657/701/155 666/702/155 665/691/155 658/694/155
f 667/703/156 660/704/156 659/693/156 668/692/156
f 662/700/157 669/699/157 666/702/157 657/701/157
f 688/705/150 679/706/150 676/707/150 683/708/150
f 681/709/151 684/710/151 675/711/151 674/712/151
f 686/713/152 677/714/152 680/715/152 687/716/152
f 685/717/153 678/718/153 677/714/153 686/713/153
f 679/706/154 688/705/154 687/716/154 680/715/154
f 673/719/158 682/720/158 681/709/158 674/712/158
f 683/721/156 676/722/156 675/711/156 684/710/156
f 678/718/157 685/717/157 682/720/157 673/719/157
f 704/723/150 695/724/150 692/725/150 699/726/150
f 697/727/151 700/728/151 691/729/151 690/730/151
f 702/731/152 693/732/152 696/733/152 703/734/152
f 701/735/153 694/736/153 693/732/153 702/731/153
f 695/724/154 704/723/154 703/734/154 696/733/154
f 689/737/155 698/738/155 697/727/155 690/730/155
f 699/739/156 692/740/156 691/729/156 700/728/156
f 694/736/157 701/735/157 698/738/157 689/737/157
f 720/741/150 711/742/150 708/743/150 715/744/150
f 713/745/151 716/746/151 707/747/151 706/748/151
f 718/749/152 709/750/152 712/751/152 719/752/152
f 717/753/153 710/754/153 709/750/153 718/749/153
f 711/742/154 720/741/154 719/752/154 712/751/154
f 705/755/158 714/756/158 713/745/158 706/748/158
f 715/757/159 708/758/159 707/747/159 716/746/159
f 710/754/157 717/753/157 714/756/157 705/755/157
f 736/759/150 727/760/150 724/761/150 731/762/150
f 729/763/151 732/764/151 723/765/151 722/766/151
f 734/767/152 725/768/152 728/769/152 735/770/152
f 733/771/153 726/772/153 725/768/153 734/767/153
f 727/760/154 736/759/154 735/770/154 728/769/154
f 721/773/158 730/774/158 729/763/158 722/766/158
f 731/775/160 724/776/160 723/765/160 732/764/160
f 726/772/157 733/771/157 730/774/157 721/773/157
f 752/777/150 743/778/150 740/779/150 747/780/150
f 745/781/151 748/782/151 739/783/151 738/784/151
f 750/785/152 741/786/152 744/787/152 751/788/152
f 749/789/153 742/790/153 741/786/153 750/785/153
f 743/778/154 752/777/154 751/788/154 744/787/154
f 737/791/158 746/792/158 745/781/158 738/784/158
f 747/793/160 740/794/160 739/783/160 748/782/160
f 742/790/157 749/789/157 746/792/157 737/791/157
f 768/795/150 759/796/150 756/797/150 763/798/150
f 761/799/151 764/800/151 755/801/151 754/802/151
f 766/803/152 757/804/152 760/805/152 767/806/152
f 765/807/161 758/808/161 757/804/161 766/803/161
f 759/796/154 768/795/154 767/806/154 760/805/154
f 753/809/162 762/810/162 761/799/162 754/802/162
f 763/811/159 756/812/159 755/801/159 764/800/159
f 758/808/157 765/807/157 762/810/157 753/809/157
f 784/813/150 775/814/150 772/815/150 779/816/150
f 777/817/151 780/818/151 771/819/151 770/820/151
f 782/821/152 773/822/152 776/823/152 783/824/152
f 781/825/153 774/826/153 773/822/153 782/821/153
f 775/814/154 784/813/154 783/824/154 776/823/154
f 769/827/158 778/828/158 777/817/158 770/820/158
f 779/829/159 772/830/159 771/819/159 780/818/159
f 774/826/157 781/825/157 778/828/157 769/827/157
f 800/831/150 791/832/150 788/833/150 795/834/150
f 793/835/151 796/836/151 787/837/151 786/838/151
f 798/839/152 789/840/152 792/841/152 799/842/152
f 797/843/153 790/844/153 789/840/153 798/839/153
f 791/832/154 800/831/154 799/842/154 792/841/154
f 785/845/163 794/846/163 793/835/163 786/838/163
f 795/847/160 788/848/160 787/837/160 796/836/160
f 790/844/157 797/843/157 794/846/157 785/845/157
o Cube:207
v -53.064758 1.844864 -47.070210
v -53.044762 1.864864 -47.070210
v -53.044762 1.897793 -47.070210
v -53.064758 1.917793 -47.070210
v -53.117691 1.864864 -47.070210
v -53.097691 1.844864 -47.070210
v -53.097691 1.917793 -47.070210
v -53.117691 1.897793 -47.070210
v -53.044762 1.864864 -47.840641
v -53.064758 1.844864 -47.840641
v -53.064758 1.917793 -47.840641
v -53.044762 1.897793 -47.840641
v -53.097691 1.844864 -47.840641
v -53.117691 1.864864 -47.840641
v -53.117691 1.897793 -47.840641
v -53.097691 1.917793 -47.840641
v -53.064758 3.726435 -47.070210
v -53.044762 3.746435 -47.070210
v -53.044762 3.779366 -47.070210
v -53.064758 3.799366 -47.070210
v -53.117691 3.746435 -47.070210
v -53.097691 3.726435 -47.070210
v -53.097691 3.799366 -47.070210
v -53.117691 3.779366 -47.070210
v -53.044762 3.746435 -47.840641
v -53.064758 3.726435 -47.840641
v -53.064758 3.799366 -47.840641
v -53.044762 3.779366 -47.840641
v -53.097691 3.726435 -47.840641
v -53.117691 3.746435 -47.840641
v -53.117691 3.779366 -47.840641
v -53.097691 3.799366 -47.840641
v -53.064758 5.608007 -47.070210
v -53.044762 5.628008 -47.070210
v -53.044762 5.660937 -47.070210
v -53.064758 5.680937 -47.070210
v -53.117691 5.628008 -47.070210
v -53.097691 5.608007 -47.070210
v -53.097691 5.680937 -47.070210
v -53.117691 5.660937 -47.070210
v -53.044762 5.628007 -47.840641
v -53.064758 5.608007 -47.840641
v -53.064758 5.680936 -47.840641
v -53.044762 5.660936 -47.840641
v -53.097691 5.608007 -47.840641
v -53.117691 5.628007 -47.840641
v -53.117691 5.660936 -47.840641
v -53.097691 5.680936 -47.840641
v -53.064758 7.489579 -47.070210
v -53.044762 7.509579 -47.070210
v -53.044762 7.542508 -47.070210
v -53.064758 7.562508 -47.070210
v -53.117691 7.509579 -47.070210
v -53.097691 7.489579 -47.070210
v -53.097691 7.562508 -47.070210
v -53.117691 7.542508 -47.070210
v -53.044762 7.509578 -47.840641
v -53.064758 7.489578 -47.840641
v -53.064758 7.562507 -47.840641
v -53.044762 7.542507 -47.840641
v -53.097691 7.489578 -47.840641
v -53.117691 7.509578 -47.840641
v -53.117691 7.542507 -47.840641
v -53.097691 7.562507 -47.840641
v -53.064758 9.371149 -47.070210
v -53.044762 9.391150 -47.070210
v -53.044762 9.424079 -47.070210
v -53.064758 9.444078 -47.070210
v -53.117691 9.391150 -47.070210
v -53.097691 9.371149 -47.070210
v -53.097691 9.444078 -47.070210
v -53.117691 9.424079 -47.070210
v -53.044762 9.391150 -47.840641
v -53.064758 9.371149 -47.840641
v -53.064758 9.444078 -47.840641
v -53.044762 9.424079 -47.840641
v -53.097691 9.371149 -47.840641
v -53.117691 9.391150 -47.840641
v -53.117691 9.424079 -47.840641
v -53.097691 9.444078 -47.840641
v -53.064758 11.252716 -47.070210
v -53.044762 11.272717 -47.070210
v -53.044762 11.305646 -47.070210
v -53.064758 11.325646 -47.070210
v -53.117691 11.272717 -47.070210
v -53.097691 11.252716 -47.070210
v -53.097691 11.325646 -47.070210
v -53.117691 11.305646 -47.070210
v -53.044762 11.272717 -47.840641
v -53.064758 11.252716 -47.840641
v -53.064758 11.325646 -47.840641
v -53.044762 11.305646 -47.840641
v -53.097691 11.252716 -47.840641
v -53.117691 11.272717 -47.840641
v -53.117691 11.305646 -47.840641
v -53.097691 11.325646 -47.840641
v -53.064758 13.134286 -47.070210
v -53.044762 13.154286 -47.070210
v -53.044762 13.187216 -47.070210
v -53.064758 13.207216 -47.070210
v -53.117691 13.154286 -47.070210
v -53.097691 13.134286 -47.070210
v -53.097691 13.207216 -47.070210
v -53.117691 13.187216 -47.070210
v -53.044762 13.154286 -47.840641
v -53.064758 13.134286 -47.840641
v -53.064758 13.207216 -47.840641
v -53.044762 13.187216 -47.840641
v -53.097691 13.134286 -47.840641
v -53.117691 13.154286 -47.840641
v -53.117691 13.187216 -47.840641
v -53.097691 13.207216 -47.840641
v -53.064758 15.015856 -47.070210
v -53.044762 15.035866 -47.070210
v -53.044762 15.068787 -47.070210
v -53.064758 15.088786 -47.070210
v -53.117691 15.035866 -47.070210
v -53.097691 15.015856 -47.070210
v -53.097691 15.088786 -47.070210
v -53.117691 15.068787 -47.070210
v -53.044762 15.035866 -47.840641
v -53.064758 15.015856 -47.840641
v -53.064758 15.088786 -47.840641
v -53.044762 15.068787 -47.840641
v -53.097691 15.015856 -47.840641
v -53.117691 15.035866 -47.840641
v -53.117691 15.068787 -47.840641
v -53.097691 15.088786 -47.840641
v -53.064758 16.897436 -47.070210
v -53.044762 16.917437 -47.070210
v -53.044762 16.950367 -47.070210
v -53.064758 16.970366 -47.070210
v -53.117691 16.917437 -47.070210
v -53.097691 16.897436 -47.070210
v -53.097691 16.970366 -47.070210
v -53.117691 16.950367 -47.070210
v -53.044762 16.917437 -47.840641
v -53.064758 16.897436 -47.840641
v -53.064758 16.970366 -47.840641
v -53.044762 16.950367 -47.840641
v -53.097691 16.897436 -47.840641
v -53.117691 16.917437 -47.840641
v -53.117691 16.950367 -47.840641
v -53.097691 16.970366 -47.840641
v -53.064758 18.779007 -47.070210
v -53.044762 18.799006 -47.070210
v -53.044762 18.831936 -47.070210
v -53.064758 18.851936 -47.070210
v -53.117691 18.799006 -47.070210
v -53.097691 18.779007 -47.070210
v -53.097691 18.851936 -47.070210
v -53.117691 18.831936 -47.070210
v -53.044762 18.799006 -47.840641
v -53.064758 18.779007 -47.840641
v -53.064758 18.851936 -47.840641
v -53.044762 18.831936 -47.840641
v -53.097691 18.779007 -47.840641
v -53.117691 18.799006 -47.840641
v -53.117691 18.831936 -47.840641
v -53.097691 18.851936 -47.840641
vn -0.0000 1.0000 -0.0000
vn 1.0000 -0.0000 -0.0000
vn -1.0000 -0.0000 -0.0000
vn -0.7071 -0.7071 -0.0000
vn -0.7071 0.7071 -0.0000
vn 0.7071 -0.7071 -0.0000
vn 0.7071 0.7071 -0.0000
vn -0.0000 -1.0000 -0.0000
vn -0.7073 -0.7069 -0.0000
vn 0.7073 -0.7069 -0.0000
vt 0.422953 0.105004
vt 0.475557 0.105004
vt 0.475557 0.107252
vt 0.422953 0.107252
vt 0.422953 0.094714
vt 0.422953 0.092465
vt 0.475557 0.092465
vt 0.475557 0.094714
vt 0.422953 0.100825
vt 0.475557 0.100825
vt 0.475557 0.103073
vt 0.422953 0.103073
vt 0.422953 0.098893
vt 0.475557 0.098893
vt 0.475557 0.096645
vt 0.422953 0.096645
vt 0.422953 0.090534
vt 0.475557 0.090534
vt 0.512078 0.035568
vt 0.561568 0.035568
vt 0.561568 0.037683
vt 0.512078 0.037683
vt 0.512078 0.025887
vt 0.512078 0.023771
vt 0.561568 0.023771
vt 0.561568 0.025887
vt 0.512078 0.031636
vt 0.561568 0.031636
vt 0.561568 0.033751
vt 0.512078 0.033751
vt 0.512078 0.029819
vt 0.561568 0.029819
vt 0.561568 0.027704
vt 0.512078 0.027704
vt 0.512078 0.021955
vt 0.561568 0.021955
vt 0.480772 0.105004
vt 0.533376 0.105004
vt 0.533376 0.107252
vt 0.480772 0.107252
vt 0.480772 0.094714
vt 0.480772 0.092465
vt 0.533376 0.092465
vt 0.533376 0.094714
vt 0.480772 0.100824
vt 0.533376 0.100824
vt 0.533376 0.103073
vt 0.480772 0.103073
vt 0.480772 0.098893
vt 0.533376 0.098893
vt 0.533376 0.096645
vt 0.480772 0.096645
vt 0.480772 0.090534
vt 0.533376 0.090534
vt 0.538591 0.083467
vt 0.591195 0.083467
vt 0.591195 0.085716
vt 0.538591 0.085716
vt 0.538591 0.073177
vt 0.538591 0.070929
vt 0.591195 0.070929
vt 0.591195 0.073177
vt 0.538591 0.079288
vt 0.591195 0.079288
vt 0.591195 0.081536
vt 0.538591 0.081536
vt 0.538591 0.077357
vt 0.591195 0.077357
vt 0.591195 0.075108
vt 0.538591 0.075108
vt 0.538591 0.068998
vt 0.591195 0.068998
vt 0.422953 0.083468
vt 0.475557 0.083468
vt 0.475557 0.085716
vt 0.422953 0.085716
vt 0.422953 0.073177
vt 0.422953 0.070929
vt 0.475557 0.070929
vt 0.475557 0.073177
vt 0.422953 0.079288
vt 0.475557 0.079288
vt 0.475557 0.081536
vt 0.422953 0.081536
vt 0.422953 0.077357
vt 0.475557 0.077357
vt 0.475557 0.075109
vt 0.422953 0.075109
vt 0.422953 0.068998
vt 0.475557 0.068998
vt 0.758437 0.047712
vt 0.807845 0.047712
vt 0.807845 0.049824
vt 0.758437 0.049824
vt 0.758437 0.038047
vt 0.758437 0.035935
vt 0.807845 0.035935
vt 0.807845 0.038047
vt 0.758437 0.043787
vt 0.807845 0.043787
vt 0.807845 0.045898
vt 0.758437 0.045898
vt 0.758437 0.041973
vt 0.807845 0.041973
vt 0.807845 0.039861
vt 0.758437 0.039861
vt 0.758437 0.034121
vt 0.807845 0.034121
vt 0.692077 0.037766
vt 0.741485 0.037766
vt 0.741485 0.039878
vt 0.692077 0.039878
vt 0.692077 0.028101
vt 0.692077 0.025990
vt 0.741485 0.025990
vt 0.741485 0.028101
vt 0.692077 0.033841
vt 0.741485 0.033841
vt 0.741485 0.035952
vt 0.692077 0.035952
vt 0.692077 0.032027
vt 0.741485 0.032027
vt 0.741485 0.029915
vt 0.692077 0.029915
vt 0.692077 0.024176
vt 0.741485 0.024176
vt 0.538591 0.061931
vt 0.591195 0.061931
vt 0.591195 0.064179
vt 0.538591 0.064179
vt 0.538591 0.051641
vt 0.538591 0.049392
vt 0.591195 0.049392
vt 0.591195 0.051641
vt 0.538591 0.057751
vt 0.591195 0.057751
vt 0.591195 0.060000
vt 0.538591 0.060000
vt 0.538591 0.055820
vt 0.591195 0.055820
vt 0.591195 0.053572
vt 0.538591 0.053572
vt 0.538591 0.047461
vt 0.591195 0.047461
vt 0.660962 0.107134
vt 0.719432 0.107134
vt 0.719432 0.109633
vt 0.660962 0.109633
vt 0.660962 0.095696
vt 0.660962 0.093197
vt 0.719432 0.093197
vt 0.719432 0.095696
vt 0.660962 0.102488
vt 0.719432 0.102488
vt 0.719432 0.104987
vt 0.660962 0.104987
vt 0.660962 0.100342
vt 0.719432 0.100342
vt 0.719432 0.097843
vt 0.660962 0.097843
vt 0.660962 0.091050
vt 0.719432 0.091050
vt 0.538591 0.105004
vt 0.591195 0.105004
vt 0.591195 0.107252
vt 0.538591 0.107252
vt 0.538591 0.094714
vt 0.538591 0.092465
vt 0.591195 0.092465
vt 0.591195 0.094714
vt 0.538591 0.100824
vt 0.591195 0.100824
vt 0.591195 0.103073
vt 0.538591 0.103073
vt 0.538591 0.098893
vt 0.591195 0.098893
vt 0.591195 0.096645
vt 0.538591 0.096645
vt 0.538591 0.090534
vt 0.591195 0.090534
s 0
f 816/849/164 807/850/164 804/851/164 811/852/164
f 809/853/165 812/854/165 803/855/165 802/856/165
f 814/857/166 805/858/166 808/859/166 815/860/166
f 813/861/167 806/862/167 805/858/167 814/857/167
f 807/850/168 816/849/168 815/860/168 808/859/168
f 801/863/169 810/864/169 809/853/169 802/856/169
f 811/865/170 804/866/170 803/855/170 812/854/170
f 806/862/171 813/861/171 810/864/171 801/863/171
f 832/867/164 823/868/164 820/869/164 827/870/164
f 825/871/165 828/872/165 819/873/165 818/874/165
f 830/875/166 821/876/166 824/877/166 831/878/166
f 829/879/167 822/880/167 821/876/167 830/875/167
f 823/868/168 832/867/168 831/878/168 824/877/168
f 817/881/169 826/882/169 825/871/169 818/874/169
f 827/883/170 820/884/170 819/873/170 828/872/170
f 822/880/171 829/879/171 826/882/171 817/881/171
f 848/885/164 839/886/164 836/887/164 843/888/164
f 841/889/165 844/890/165 835/891/165 834/892/165
f 846/893/166 837/894/166 840/895/166 847/896/166
f 845/897/167 838/898/167 837/894/167 846/893/167
f 839/886/168 848/885/168 847/896/168 840/895/168
f 833/899/169 842/900/169 841/889/169 834/892/169
f 843/901/170 836/902/170 835/891/170 844/890/170
f 838/898/171 845/897/171 842/900/171 833/899/171
f 864/903/164 855/904/164 852/905/164 859/906/164
f 857/907/165 860/908/165 851/909/165 850/910/165
f 862/911/166 853/912/166 856/913/166 863/914/166
f 861/915/167 854/916/167 853/912/167 862/911/167
f 855/904/168 864/903/168 863/914/168 856/913/168
f 849/917/169 858/918/169 857/907/169 850/910/169
f 859/919/170 852/920/170 851/909/170 860/908/170
f 854/916/171 861/915/171 858/918/171 849/917/171
f 880/921/164 871/922/164 868/923/164 875/924/164
f 873/925/165 876/926/165 867/927/165 866/928/165
f 878/929/166 869/930/166 872/931/166 879/932/166
f 877/933/167 870/934/167 869/930/167 878/929/167
f 871/922/168 880/921/168 879/932/168 872/931/168
f 865/935/169 874/936/169 873/925/169 866/928/169
f 875/937/170 868/938/170 867/927/170 876/926/170
f 870/934/171 877/933/171 874/936/171 865/935/171
f 896/939/164 887/940/164 884/941/164 891/942/164
f 889/943/165 892/944/165 883/945/165 882/946/165
f 894/947/166 885/948/166 888/949/166 895/950/166
f 893/951/167 886/952/167 885/948/167 894/947/167
f 887/940/168 896/939/168 895/950/168 888/949/168
f 881/953/169 890/954/169 889/943/169 882/946/169
f 891/955/170 884/956/170 883/945/170 892/944/170
f 886/952/171 893/951/171 890/954/171 881/953/171
f 912/957/164 903/958/164 900/959/164 907/960/164
f 905/961/165 908/962/165 899/963/165 898/964/165
f 910/965/166 901/966/166 904/967/166 911/968/166
f 909/969/167 902/970/167 901/966/167 910/965/167
f 903/958/168 912/957/168 911/968/168 904/967/168
f 897/971/169 906/972/169 905/961/169 898/964/169
f 907/973/170 900/974/170 899/963/170 908/962/170
f 902/970/171 909/969/171 906/972/171 897/971/171
f 928/975/164 919/976/164 916/977/164 923/978/164
f 921/979/165 924/980/165 915/981/165 914/982/165
f 926/983/166 917/984/166 920/985/166 927/986/166
f 925/987/172 918/988/172 917/984/172 926/983/172
f 919/976/168 928/975/168 927/986/168 920/985/168
f 913/989/173 922/990/173 921/979/173 914/982/173
f 923/991/170 916/992/170 915/981/170 924/980/170
f 918/988/171 925/987/171 922/990/171 913/989/171
f 944/993/164 935/994/164 932/995/164 939/996/164
f 937/997/165 940/998/165 931/999/165 930/1000/165
f 942/1001/166 933/1002/166 936/1003/166 943/1004/166
f 941/1005/167 934/1006/167 933/1002/167 942/1001/167
f 935/994/168 944/993/168 943/1004/168 936/1003/168
f 929/1007/169 938/1008/169 937/997/169 930/1000/169
f 939/1009/170 932/1010/170 931/999/170 940/998/170
f 934/1006/171 941/1005/171 938/1008/171 929/1007/171
f 960/1011/164 951/1012/164 948/1013/164 955/1014/164
f 953/1015/165 956/1016/165 947/1017/165 946/1018/165
f 958/1019/166 949/1020/166 952/1021/166 959/1022/166
f 957/1023/167 950/1024/167 949/1020/167 958/1019/167
f 951/1012/168 960/1011/168 959/1022/168 952/1021/168
f 945/1025/169 954/1026/169 953/1015/169 946/1018/169
f 955/1027/170 948/1028/170 947/1017/170 956/1016/170
f 950/1024/171 957/1023/171 954/1026/171 945/1025/171
o Cube:208
v -52.116531 0.552794 -47.556080
v -52.116531 18.857716 -47.556080
v -51.571732 0.552794 -47.556080
v -51.571732 18.857716 -47.556080
v -52.116531 0.429295 -47.542160
v -51.571732 0.429295 -47.542160
v -52.116531 0.311987 -47.501122
v -51.571732 0.311987 -47.501122
v -52.116531 0.206755 -47.435001
v -51.571732 0.206755 -47.435001
v -52.116531 0.118875 -47.347118
v -51.571732 0.118875 -47.347118
v -52.116531 0.052752 -47.241890
v -51.571732 0.052752 -47.241890
v -52.116531 0.011704 -47.124580
v -51.571732 0.011704 -47.124580
v -52.116531 -0.002212 -47.001080
v -51.571732 -0.002212 -47.001080
v -51.607121 0.033172 -47.096088
v -52.081150 0.033172 -47.096088
v -52.116531 0.552794 -47.249470
v -52.091499 0.552794 -47.224331
v -52.116531 18.857716 -47.249470
v -52.091511 18.857716 -47.224331
v -51.596771 0.552794 -47.224331
v -51.571732 0.552794 -47.249470
v -51.596760 18.857716 -47.224331
v -51.571732 18.857716 -47.249470
v -52.116531 0.497514 -47.243271
v -52.091480 0.503115 -47.218739
v -51.596790 0.503115 -47.218739
v -51.571732 0.497514 -47.243271
v -52.116531 0.444990 -47.224941
v -52.091450 0.455927 -47.202221
v -51.596821 0.455927 -47.202221
v -51.571732 0.444990 -47.224941
v -52.116531 0.397847 -47.195381
v -52.091400 0.413595 -47.175629
v -51.596870 0.413595 -47.175629
v -51.571732 0.397847 -47.195381
v -52.116531 0.358441 -47.156071
v -52.091331 0.378244 -47.140282
v -51.596939 0.378244 -47.140282
v -51.571732 0.358441 -47.156071
v -52.116531 0.328740 -47.108978
v -52.091228 0.351645 -47.097950
v -51.597038 0.351645 -47.097950
v -51.571732 0.328740 -47.108978
v -52.116531 0.310225 -47.056450
v -52.091099 0.335132 -47.050758
v -51.597179 0.335132 -47.050758
v -51.571732 0.310225 -47.056450
v -52.116531 0.303818 -47.001080
v -52.090919 0.329533 -47.001080
v -51.597351 0.329533 -47.001080
v -51.571732 0.303818 -47.001080
v -51.607121 0.268087 -47.096088
v -51.633110 0.294150 -47.096088
v -52.055161 0.294150 -47.096088
v -52.081150 0.268087 -47.096088
v -51.605518 0.031570 -46.774349
v -51.607121 0.033172 -46.776211
v -52.081150 0.033172 -46.776211
v -52.082748 0.031570 -46.774349
v -51.571732 -0.002212 -46.776211
v -51.573292 -0.000655 -46.774349
v -51.573589 -0.002212 -46.774349
v -52.114979 -0.000655 -46.774349
v -52.116531 -0.002212 -46.776211
v -52.114681 -0.002212 -46.774349
v -51.631569 0.295726 -46.774349
v -51.633160 0.294150 -46.776211
v -51.607121 0.268040 -46.776211
v -51.605541 0.269629 -46.774349
v -52.082729 0.269629 -46.774349
v -52.081150 0.268040 -46.776211
v -52.055119 0.294150 -46.776211
v -52.056702 0.295726 -46.774349
v -51.597591 0.329534 -46.776211
v -51.599140 0.327992 -46.774349
v -51.573280 0.302040 -46.774349
v -51.571732 0.303594 -46.776211
v -52.116531 0.303594 -46.776211
v -52.114990 0.302040 -46.774349
v -52.089130 0.327992 -46.774349
v -52.090679 0.329534 -46.776211
vn -0.0000 0.2225 0.9749
vn -0.0000 0.4338 0.9010
vn -1.0000 -0.0000 -0.0000
vn 1.0000 -0.0000 -0.0000
vn -0.2436 0.2427 0.9390
vn 0.2410 -0.2404 0.9403
vn 0.2407 -0.2401 0.9404
vn -0.2442 0.2433 0.9387
vn -0.0000 0.0560 0.9984
vn -0.0000 -0.0000 1.0000
vn -0.0000 0.6234 0.7819
vn -0.0000 0.7817 0.6236
vn -0.0000 0.9009 0.4340
vn -0.0000 0.9749 0.2227
vn -0.0000 0.9749 0.2228
vn -0.0000 0.9984 0.0562
vn 0.2442 0.2435 0.9386
vn -0.2408 -0.2401 0.9404
vn -0.2413 -0.2405 0.9402
vn 0.2438 0.2431 0.9389
vn -0.7080 0.7051 0.0401
vn -0.6426 0.6405 0.4205
vn -0.6427 0.6404 0.4205
vn -0.7080 0.7050 0.0421
vn -0.9342 -0.0267 0.3557
vn -0.9647 -0.0000 0.2635
vn -0.0000 0.2430 0.9700
vn -0.0000 0.2429 0.9701
vn -0.4298 -0.0271 0.9025
vn -0.3408 -0.0661 0.9378
vn 0.3408 -0.0661 0.9378
vn 0.4296 -0.0272 0.9026
vn -0.2437 -0.0000 0.9699
vn 0.6066 -0.0000 0.7950
vn -0.0000 -0.2450 0.9695
vn -0.0000 -0.2449 0.9696
vn -0.0000 0.6088 0.7934
vn 0.9645 -0.0000 0.2641
vn 0.9342 -0.0268 0.3558
vn -0.9165 -0.0000 0.4000
vn -0.9166 -0.0000 0.3999
vn 0.9166 -0.0000 0.3998
vn 0.9165 -0.0000 0.4000
vn 0.2437 -0.0000 0.9698
vn 0.2438 -0.0000 0.9698
vn -0.6067 -0.0000 0.7950
vn 0.7086 -0.0000 0.7056
vn 0.7080 0.0405 0.7051
vn 0.7080 0.0385 0.7051
vn -0.7087 -0.0000 0.7055
vn -0.7082 0.0384 0.7050
vn -0.7081 0.0404 0.7050
vn 0.7086 0.1566 0.6880
vn -0.7088 0.1566 0.6879
vn -0.7089 0.3055 0.6357
vn 0.7088 0.3056 0.6358
vn -0.7089 0.4392 0.5519
vn -0.7087 0.4392 0.5521
vn 0.7088 0.4392 0.5520
vn -0.7089 0.5508 0.4406
vn 0.7088 0.5509 0.4406
vn 0.7086 0.6351 0.3074
vn -0.7088 0.6349 0.3074
vn -0.7087 0.6874 0.1589
vn 0.7085 0.6876 0.1589
vn 0.7078 0.7051 0.0421
vn 0.7079 0.7052 0.0401
vn -0.0000 0.9648 0.2630
vn -0.7082 -0.7061 -0.0001
vn -0.6411 -0.6394 0.4244
vn -0.6410 -0.6393 0.4247
vn 0.6410 -0.6394 0.4245
vn 0.7081 -0.7061 -0.0001
vn 0.6411 -0.6393 0.4245
vn 0.6426 0.6405 0.4205
vn 0.6427 0.6406 0.4202
vn -0.0000 -0.9179 0.3969
vn -0.0000 -0.9179 0.3967
vn -0.0000 -1.0000 -0.0000
vn -0.0000 0.9158 0.4017
vn -0.0000 0.9158 0.4016
vn -0.0000 1.0000 -0.0000
vt 0.445603 0.733333
vt 0.445629 0.721138
vt 0.446982 0.721046
vt 0.446957 0.733429
vt 0.444225 0.720420
vt 0.004932 0.720489
vt 0.004929 0.713131
vt 0.443969 0.713065
vt 0.445824 0.712579
vt 0.445689 0.720208
vt 0.443962 0.741406
vt 0.004936 0.741412
vt 0.004936 0.734057
vt 0.444219 0.734047
vt 0.458338 0.722745
vt 0.459175 0.723106
vt 0.458963 0.723795
vt 0.458226 0.723210
vt 0.445789 0.741893
vt 0.445668 0.734262
vt 0.447088 0.734406
vt 0.447836 0.742141
vt 0.444235 0.733194
vt 0.004936 0.733207
vt 0.004932 0.721340
vt 0.444241 0.721274
vt 0.447121 0.720070
vt 0.447900 0.712338
vt 0.450135 0.712340
vt 0.448534 0.720019
vt 0.448311 0.721009
vt 0.448274 0.733472
vt 0.450045 0.742154
vt 0.448488 0.734464
vt 0.449865 0.734434
vt 0.452376 0.741898
vt 0.449604 0.721040
vt 0.449558 0.733447
vt 0.450805 0.733350
vt 0.450847 0.721144
vt 0.452051 0.721324
vt 0.451991 0.733178
vt 0.452490 0.712617
vt 0.449924 0.720059
vt 0.451277 0.720199
vt 0.454917 0.713230
vt 0.457342 0.714254
vt 0.452575 0.720455
vt 0.451204 0.734307
vt 0.454785 0.741313
vt 0.457199 0.740321
vt 0.452484 0.734069
vt 0.453662 0.733691
vt 0.459500 0.738851
vt 0.453179 0.721570
vt 0.453147 0.732934
vt 0.457679 0.731533
vt 0.458483 0.731015
vt 0.458791 0.731572
vt 0.457948 0.731944
vt 0.453775 0.720858
vt 0.458284 0.722715
vt 0.458172 0.723182
vt 0.459645 0.715754
vt 0.463586 0.719788
vt 0.462729 0.733730
vt 0.462983 0.720856
vt 0.463585 0.719860
vt 0.463676 0.719882
vt 0.463405 0.734719
vt 0.463318 0.734735
vt 0.457895 0.731975
vt 0.463320 0.734806
vt 0.451270 0.778903
vt 0.452847 0.773468
vt 0.458249 0.765384
vt 0.461507 0.783731
vt 0.434768 0.772564
vt 0.441008 0.774339
vt 0.433264 0.788343
vt 0.427897 0.770009
vt 0.457621 0.731556
vt 0.451307 0.774773
vt 0.456315 0.763014
vt 0.429100 0.766877
vt 0.435270 0.771656
vt 0.462682 0.733671
vt 0.462934 0.720915
vt 0.458544 0.730993
vt 0.458842 0.731533
vt 0.459226 0.723144
vt 0.459020 0.723823
s 1
f 991/1029/174 990/1030/174 994/1031/175 995/1032/175
f 981/1033/176 983/1034/176 962/1035/176 961/1036/176
f 981/1033/176 961/1036/176 965/1037/176 989/1038/176
f 963/1039/177 964/1040/177 988/1041/177 986/1042/177
f 1044/1043/178 1035/1044/179 1038/1045/180 1045/1046/181
f 966/1047/177 992/1048/177 996/1049/177 968/1050/177
f 985/1051/182 987/1052/183 984/1053/183 982/1054/182
f 963/1039/177 986/1042/177 992/1048/177 966/1047/177
f 993/1055/176 967/1056/176 969/1057/176 997/1058/176
f 995/1032/175 994/1031/175 998/1059/184 999/1060/184
f 989/1038/176 965/1037/176 967/1056/176 993/1055/176
f 970/1061/177 1000/1062/177 1004/1063/177 972/1064/177
f 968/1050/177 996/1049/177 1000/1062/177 970/1061/177
f 999/1060/184 998/1059/184 1002/1065/185 1003/1066/185
f 1007/1067/186 1006/1068/186 1010/1069/187 1011/1070/188
f 1003/1066/185 1002/1065/185 1006/1068/186 1007/1067/186
f 997/1058/176 969/1057/176 971/1071/176 1001/1072/176
f 1005/1073/176 973/1074/176 975/1075/176 1009/1076/176
f 1001/1072/176 971/1071/176 973/1074/176 1005/1073/176
f 972/1064/177 1004/1063/177 1008/1077/177 974/1078/177
f 976/1079/177 1012/1080/177 1016/1081/177 978/1082/177
f 974/1078/177 1008/1077/177 1012/1080/177 976/1079/177
f 1011/1070/188 1010/1069/187 1014/1083/189 1015/1084/189
f 1040/1085/190 1031/1086/191 1034/1087/192 1041/1088/193
f 1013/1089/194 1043/1090/195 1046/1091/196 1014/1083/197
f 1009/1076/176 975/1075/176 977/1092/176 1013/1089/176
f 1013/1089/176 977/1092/176 1029/1093/198 1043/1090/199
f 1021/1094/200 1024/1095/201 1028/1096/202 1030/1097/203 1027/1098/204 1026/1099/205
f 1034/1087/206 1021/1094/206 1026/1099/205 1041/1088/207
f 1038/1045/208 1031/1086/209 1040/1085/210 1045/1046/210
f 978/1082/177 1016/1081/177 1042/1100/211 1025/1101/212
f 1022/1102/213 1033/1103/214 1017/1104/176 979/1105/176
f 1036/1106/215 1023/1107/216 980/1108/177 1020/1109/177
f 1024/1095/217 1035/1044/218 1044/1043/219 1028/1096/202
f 987/1052/220 985/1051/221 986/1042/222 988/1041/220
f 983/1034/223 981/1033/224 982/1054/225 984/1053/223
f 985/1051/221 991/1029/226 992/1048/226 986/1042/222
f 981/1033/224 989/1038/227 990/1030/227 982/1054/225
f 994/1031/228 990/1030/227 989/1038/227 993/1055/228
f 991/1029/226 995/1032/229 996/1049/229 992/1048/226
f 993/1055/228 997/1058/230 998/1059/231 994/1031/228
f 1000/1062/232 996/1049/229 995/1032/229 999/1060/232
f 1002/1065/233 998/1059/231 997/1058/230 1001/1072/233
f 999/1060/232 1003/1066/234 1004/1063/234 1000/1062/232
f 1003/1066/234 1007/1067/235 1008/1077/235 1004/1063/234
f 1001/1072/233 1005/1073/236 1006/1068/236 1002/1065/233
f 1005/1073/236 1009/1076/237 1010/1069/237 1006/1068/236
f 1012/1080/238 1008/1077/235 1007/1067/235 1011/1070/238
f 1014/1083/197 1010/1069/237 1009/1076/237 1013/1089/194
f 1011/1070/238 1015/1084/239 1016/1081/240 1012/1080/238
f 1015/1084/189 1014/1083/189 1046/1091/241 1039/1110/241
f 1017/1104/242 1033/1103/243 1032/1111/244 1018/1112/242
f 1036/1106/245 1020/1109/246 1019/1113/246 1037/1114/247
f 1042/1100/248 1016/1081/240 1015/1084/239 1039/1110/249
f 1032/1111/250 1037/1114/251 1019/1113/252 1018/1112/252
f 985/1051/182 982/1054/182 990/1030/174 991/1029/174
f 1025/1101/212 1026/1099/205 1027/1098/204
f 1028/1096/202 1029/1093/198 1030/1097/203
f 1022/1115/253 1023/1116/254 1024/1095/201 1021/1094/200
f 1044/1043/178 1045/1046/181 1046/1091/196 1043/1090/195
f 1040/1085/190 1041/1088/193 1042/1100/248 1039/1110/249
f 1032/1117/244 1033/1118/243 1034/1087/192 1031/1086/191
f 1036/1119/245 1037/1120/247 1038/1045/180 1035/1044/179
f 1045/1046/210 1040/1085/210 1039/1110/241 1046/1091/241
f 1028/1096/202 1044/1043/219 1043/1090/199 1029/1093/198
f 1041/1088/207 1026/1099/205 1025/1101/212 1042/1100/211
f 1021/1094/206 1034/1087/206 1033/1118/214 1022/1115/213
f 1031/1086/209 1038/1045/208 1037/1120/251 1032/1117/250
f 1035/1044/218 1024/1095/217 1023/1116/216 1036/1119/215
f 1023/1107/254 1022/1102/253 979/1105/255 980/1108/255
o Cube:212
v -44.894680 15.960386 -47.926739
v -44.894680 16.706837 -47.180290
v -45.641129 16.706837 -47.926739
v -44.894680 15.971796 -47.180290
v -44.894680 15.960386 -47.191700
v -45.629719 15.960386 -47.926739
v -45.641129 15.971796 -47.926739
v -45.629719 15.960386 -47.191700
v -45.629719 15.971796 -47.180290
v -45.641129 15.971796 -47.191700
v -45.641129 16.706837 -47.191700
v -45.629719 16.706837 -47.180290
vn -1.0000 -0.0000 -0.0000
vn -0.0000 -0.0000 1.0000
vn -0.5774 -0.5774 0.5774
vn -0.0000 -0.7071 0.7071
vn -0.7070 -0.0000 0.7072
vn -0.7072 -0.7070 -0.0000
vn -0.0000 -1.0000 -0.0000
vt 0.440192 0.890050
vt 0.418631 0.899666
vt 0.413422 0.873052
vt 0.439726 0.866446
vt 0.459190 0.902530
vt 0.437790 0.922652
vt 0.418962 0.900291
vt 0.440379 0.890452
vt 0.440635 0.890049
vt 0.459566 0.901939
vt 0.440433 0.866480
vt 0.468678 0.874013
s 0
f 1056/1121/256 1057/1122/256 1049/1123/256 1053/1124/256
f 1050/1125/257 1048/1126/257 1058/1127/257 1055/1128/257
f 1054/1129/258 1055/1128/258 1056/1121/258
f 1054/1129/259 1051/1130/259 1050/1125/259 1055/1128/259
f 1057/1122/260 1056/1121/260 1055/1128/260 1058/1127/260
f 1052/1131/261 1054/1129/261 1056/1121/261 1053/1124/261
f 1051/1130/262 1054/1129/262 1052/1131/262 1047/1132/262
o Cube:213
v -47.185970 13.186646 -47.926739
v -47.185970 13.933096 -47.180290
v -47.932419 13.933096 -47.926739
v -47.185970 13.198056 -47.180290
v -47.185970 13.186646 -47.191700
v -47.921009 13.186646 -47.926739
v -47.932419 13.198056 -47.926739
v -47.921009 13.186646 -47.191700
v -47.921009 13.198056 -47.180290
v -47.932419 13.198056 -47.191700
v -47.932419 13.933096 -47.191700
v -47.921009 13.933096 -47.180290
vn -1.0000 -0.0000 -0.0000
vn -0.0000 -0.0000 1.0000
vn -0.5774 -0.5774 0.5774
vn -0.0000 -0.7071 0.7071
vn -0.7072 -0.0000 0.7070
vn -0.7072 -0.7070 -0.0000
vn -0.0000 -1.0000 -0.0000
vt 0.438771 0.958275
vt 0.416426 0.965892
vt 0.413658 0.938912
vt 0.440452 0.934727
vt 0.456559 0.972428
vt 0.433419 0.990524
vt 0.416699 0.966545
vt 0.438921 0.958693
vt 0.439213 0.958314
vt 0.456986 0.971873
vt 0.441153 0.934825
vt 0.468596 0.944891
s 0
f 1068/1133/263 1069/1134/263 1061/1135/263 1065/1136/263
f 1062/1137/264 1060/1138/264 1070/1139/264 1067/1140/264
f 1066/1141/265 1067/1140/265 1068/1133/265
f 1066/1141/266 1063/1142/266 1062/1137/266 1067/1140/266
f 1069/1134/267 1068/1133/267 1067/1140/267 1070/1139/267
f 1064/1143/268 1066/1141/268 1068/1133/268 1065/1136/268
f 1063/1142/269 1066/1141/269 1064/1143/269 1059/1144/269
o Cube:744
v -55.283909 14.825866 -49.025558
v -55.283909 15.462796 -49.025558
v -55.283909 14.825866 -56.509548
v -55.283909 15.462796 -56.509548
v -55.283909 10.411926 -49.025558
v -55.283909 11.048856 -49.025558
v -55.283909 10.411926 -56.509548
v -55.283909 11.048856 -56.509548
v -55.283909 5.997981 -49.025558
v -55.283909 6.634913 -49.025558
v -55.283909 5.997981 -56.509548
v -55.283909 6.634912 -56.509548
vn -1.0000 -0.0000 -0.0000
vt 0.668104 0.702399
vt 0.668104 0.674752
vt 0.992957 0.674752
vt 0.992957 0.702399
vt 0.005531 0.702399
vt 0.005531 0.674752
vt 0.330384 0.674752
vt 0.330384 0.702399
vt 0.336817 0.702399
vt 0.336817 0.674752
vt 0.661670 0.674752
vt 0.661670 0.702399
s 0
f 1071/1145/270 1072/1146/270 1074/1147/270 1073/1148/270
f 1075/1149/270 1076/1150/270 1078/1151/270 1077/1152/270
f 1079/1153/270 1080/1154/270 1082/1155/270 1081/1156/270
