#File written by RizomUV 2022.1.57.gfabcfb8. Compilation :Sep 28 2022,23:52:22
mtllib 19 Low.mtl
#begin vertices
v -52.00144 10.40854 -78.95116
v -30.76566 10.40854 -58.59261
v -52.00144 9.99163 -78.95116
v -30.76566 9.99163 -58.59261
v -51.98952 10.40854 -78.9397
v -30.77762 10.40854 -58.60405
v -52.00211 5.182519 -78.85757
v -30.86326 5.182519 -58.58793
v -52.09419 5.182519 -58.50729
v -52.08597 5.182519 -58.49987
v -52.09419 5.188044 -58.49434
v -52.09972 5.188044 -58.49987
v -52.09419 5.182519 -78.94587
v -52.09972 5.188044 -78.95116
v -30.76566 5.188044 -58.49434
v -30.77142 5.182519 -58.49987
v -52.09419 9.99163 -58.50653
v -52.09972 9.986105 -58.49987
v -52.09419 9.986105 -58.49434
v -52.08747 9.99163 -58.49987
v -52.09972 9.986105 -78.95116
v -52.09419 9.99163 -78.95116
v -30.76566 9.99163 -58.49987
v -30.76566 9.986105 -58.49434
v -52.02354 9.99163 -58.56384
v -52.03022 9.99163 -58.57046
v -52.02353 10.40854 -58.56384
v -52.03022 10.40854 -58.57046
v -52.01826 10.40854 -58.58197
v -52.01152 10.40854 -58.57531
v -51.99413 5.182519 -58.58793
v -52.00211 5.182519 -58.59558
v -52.00144 15.63456 -78.95116
v -30.76566 15.63456 -58.59261
v -52.00144 15.21765 -78.95116
v -30.76566 15.21765 -58.59261
v -51.98952 15.63456 -78.9397
v -30.77762 15.63456 -58.60405
v -52.00211 10.40854 -78.85757
v -30.86326 10.40854 -58.58793
v -52.09419 10.40854 -58.50729
v -52.08597 10.40854 -58.49987
v -52.09419 10.41406 -58.49434
v -52.09972 10.41406 -58.49987
v -52.09419 10.40854 -78.94587
v -52.09972 10.41406 -78.95116
v -30.76566 10.41406 -58.49434
v -30.77142 10.40854 -58.49987
v -52.09419 15.21765 -58.50653
v -52.09972 15.21212 -58.49987
v -52.09419 15.21212 -58.49434
v -52.08747 15.21765 -58.49987
v -52.09972 15.21212 -78.95116
v -52.09419 15.21765 -78.95116
v -30.76566 15.21765 -58.49987
v -30.76566 15.21212 -58.49434
v -52.02354 15.21765 -58.56384
v -52.03022 15.21765 -58.57046
v -52.02353 15.63456 -58.56384
v -52.03022 15.63456 -58.57046
v -52.01826 15.63456 -58.58197
v -52.01152 15.63456 -58.57531
v -51.99413 10.40854 -58.58793
v -52.00211 10.40854 -58.59558
v -52.00144 20.86058 -78.95116
v -30.76566 20.86058 -58.59261
v -52.00144 20.44367 -78.95116
v -30.76566 20.44367 -58.59261
v -51.98952 20.86058 -78.9397
v -30.77762 20.86058 -58.60405
v -52.00211 15.63456 -78.85757
v -30.86326 15.63456 -58.58793
v -52.09419 15.63456 -58.50729
v -52.08597 15.63456 -58.49987
v -52.09419 15.64008 -58.49434
v -52.09972 15.64008 -58.49987
v -52.09419 15.63456 -78.94587
v -52.09972 15.64008 -78.95116
v -30.76566 15.64008 -58.49434
v -30.77142 15.63456 -58.49987
v -52.09419 20.44367 -58.50653
v -52.09972 20.43814 -58.49987
v -52.09419 20.43814 -58.49434
v -52.08747 20.44367 -58.49987
v -52.09972 20.43814 -78.95116
v -52.09419 20.44367 -78.95116
v -30.76566 20.44367 -58.49987
v -30.76566 20.43814 -58.49434
v -52.02354 20.44367 -58.56384
v -52.03022 20.44367 -58.57046
v -52.02353 20.86058 -58.56384
v -52.03022 20.86058 -58.57046
v -52.01826 20.86058 -58.58197
v -52.01152 20.86058 -58.57531
v -51.99413 15.63456 -58.58793
v -52.00211 15.63456 -58.59558
v -52.00144 26.08659 -78.95116
v -30.76566 26.08659 -58.59261
v -52.00144 25.66969 -78.95116
v -30.76566 25.66969 -58.59261
v -51.98952 26.08659 -78.9397
v -30.77762 26.08659 -58.60405
v -52.00211 20.86058 -78.85757
v -30.86326 20.86058 -58.58793
v -52.09419 20.86058 -58.50729
v -52.08597 20.86058 -58.49987
v -52.09419 20.8661 -58.49434
v -52.09972 20.8661 -58.49987
v -52.09419 20.86058 -78.94587
v -52.09972 20.8661 -78.95116
v -30.76566 20.8661 -58.49434
v -30.77142 20.86058 -58.49987
v -52.09419 25.66969 -58.50653
v -52.09972 25.66416 -58.49987
v -52.09419 25.66416 -58.49434
v -52.08747 25.66969 -58.49987
v -52.09972 25.66416 -78.95116
v -52.09419 25.66969 -78.95116
v -30.76566 25.66969 -58.49987
v -30.76566 25.66416 -58.49434
v -52.02354 25.66969 -58.56384
v -52.03022 25.66969 -58.57046
v -52.02353 26.08659 -58.56384
v -52.03022 26.08659 -58.57046
v -52.01826 26.08659 -58.58197
v -52.01152 26.08659 -58.57531
v -51.99413 20.86058 -58.58793
v -52.00211 20.86058 -58.59558
v -52.00144 31.31261 -78.95116
v -30.76566 31.31261 -58.59261
v -52.00144 30.89571 -78.95116
v -30.76566 30.89571 -58.59261
v -51.98952 31.31261 -78.9397
v -30.77762 31.31261 -58.60405
v -52.00211 26.08659 -78.85757
v -30.86326 26.08659 -58.58793
v -52.09419 26.08659 -58.50729
v -52.08597 26.08659 -58.49987
v -52.09419 26.09212 -58.49434
v -52.09972 26.09212 -58.49987
v -52.09419 26.08659 -78.94587
v -52.09972 26.09212 -78.95116
v -30.76566 26.09212 -58.49434
v -30.77142 26.08659 -58.49987
v -52.09419 30.89571 -58.50653
v -52.09972 30.89018 -58.49987
v -52.09419 30.89018 -58.49434
v -52.08747 30.89571 -58.49987
v -52.09972 30.89018 -78.95116
v -52.09419 30.89571 -78.95116
v -30.76566 30.89571 -58.49987
v -30.76566 30.89018 -58.49434
v -52.02354 30.89571 -58.56384
v -52.03022 30.89571 -58.57046
v -52.02353 31.31261 -58.56384
v -52.03022 31.31261 -58.57046
v -52.01826 31.31261 -58.58197
v -52.01152 31.31261 -58.57531
v -51.99413 26.08659 -58.58793
v -52.00211 26.08659 -58.59558
v -52.08357 -0.0435 -78.9638
v -30.74951 -0.0435 -58.50697
v -51.98529 5.182519 -78.9638
v -30.74951 5.182519 -58.60525
v -51.97337 5.182519 -78.95233
v -30.76147 5.182519 -58.61668
v -30.74951 3.848852 -58.50697
v -52.08357 3.848852 -78.9638
v -52.00382 5.182519 -65.83851
v -52.00829 5.182519 -62.67401
v -51.99187 5.182519 -65.84491
v -51.99634 5.182519 -62.67777
v -52.07827 -0.0435 -58.50697
v -52.08357 -0.0435 -58.51227
v -52.07827 4.765611 -58.51976
v -52.08357 4.760316 -58.51227
v -52.07827 4.760316 -58.50697
v -52.07078 4.765611 -58.51227
v -52.08357 4.760316 -78.9638
v -52.07827 4.765611 -78.9638
v -30.74951 4.765611 -58.51227
v -30.74951 4.760316 -58.50697
v -52.01936 4.765611 -58.57866
v -52.01188 4.765611 -58.57117
v -52.00804 4.770905 -58.57647
v -52.01407 4.770905 -58.58244
v -52.00802 5.182519 -58.57647
v -52.01407 5.182519 -58.58246
v -51.99059 4.765611 -78.9638
v -51.98529 4.770905 -78.9638
v -30.74951 4.770905 -58.60525
v -30.74951 4.765611 -58.59995
v -52.00211 5.182519 -58.59398
v -51.996 5.182519 -58.58794
v -51.03959 -0.0435 -62.62518
v -51.0343 -0.0435 -62.63047
v -52.07827 3.843557 -62.62401
v -52.08357 3.854146 -62.61871
v -52.07827 3.848852 -62.6293
v -52.07827 3.848852 -65.78296
v -52.08357 3.854146 -65.79355
v -52.07827 3.843557 -65.78825
v -52.08357 3.848852 -58.51227
v -52.07827 3.848852 -58.50697
v -52.08357 -0.0435 -62.61989
v -52.07827 -0.0435 -62.62518
v -52.07827 -0.0435 -65.78708
v -52.08357 -0.0435 -65.79237
v -52.08357 4.760316 -62.62373
v -52.07827 4.765611 -62.62716
v -52.07827 4.765611 -65.79195
v -52.08357 4.760316 -65.78853
v -52.00382 4.770905 -65.84
v -52.00912 4.765611 -65.83659
v -52.01359 4.765611 -62.66907
v -52.00829 4.770905 -62.67252
v -51.0343 3.843557 -62.6293
v -51.03959 3.843557 -62.62401
v -51.03959 3.848852 -62.6293
v -51.0343 3.843557 -65.78296
v -51.03959 3.848852 -65.78296
v -51.03959 3.843557 -65.78825
v -51.0343 -0.0435 -65.78178
v -51.03959 -0.0435 -65.78708
v -50.55027 -0.174655 -63.20271
v -50.55027 -0.174655 -65.28649
v -50.99412 -0.037592 -63.04012
v -50.99412 -0.037592 -65.44908
v -50.99412 3.242795 -63.03929
v -50.99412 3.242795 -65.44991
v -50.99412 3.577502 -65.20614
v -50.99412 3.577502 -63.28306
v -50.40334 -0.174655 -63.20271
v -50.40334 3.379858 -63.20271
v -50.40334 -0.174655 -65.28649
v -50.40334 3.379858 -65.28649
v -51.12935 -0.037592 -63.04012
v -51.14104 -0.047458 -63.05182
v -51.13762 -0.040482 -63.04355
v -51.12935 3.565801 -63.03923
v -51.12935 3.577502 -63.05092
v -51.14104 3.565801 -63.05093
v -51.12935 3.574075 -63.04265
v -51.1361 3.572556 -63.04417
v -51.13762 3.574075 -63.05092
v -51.13762 3.565801 -63.04265
v -51.12935 3.565801 -65.44997
v -51.14104 3.565801 -65.43827
v -51.12935 3.577502 -65.43827
v -51.13762 3.565801 -65.44655
v -51.1361 3.572556 -65.44503
v -51.13762 3.574075 -65.43827
v -51.12935 3.574075 -65.44655
v -51.14104 -0.047458 -65.43738
v -51.12935 -0.037592 -65.44908
v -51.13762 -0.040482 -65.44565
v -51.12935 3.242795 -63.03929
v -51.14104 3.252606 -63.05099
v -51.13762 3.245668 -63.04271
v -51.12935 3.242795 -65.44991
v -51.14104 3.252606 -65.43821
v -51.13762 3.245668 -65.44648
v -51.12935 3.577502 -65.20614
v -51.14104 3.565801 -65.21358
v -51.13762 3.574075 -65.20832
v -51.14104 3.565801 -63.27562
v -51.12935 3.577502 -63.28306
v -51.13762 3.574075 -63.28088
v -51.12935 -0.174655 -63.20271
v -51.14104 -0.166257 -63.19275
v -51.13519 -0.172196 -63.19979
v -51.14104 -0.166257 -65.29645
v -51.12935 -0.174655 -65.28649
v -51.13641 -0.171326 -65.29044
v -51.12935 3.368157 -63.20271
v -51.14104 3.391558 -63.19268
v -51.12935 3.379858 -63.21441
v -51.13763 3.38062 -63.19976
v -51.1361 3.380012 -63.20306
v -51.13762 3.383284 -63.20354
v -51.12935 3.376431 -63.20614
v -51.12935 3.368157 -65.28649
v -51.12935 3.379858 -65.27479
v -51.14104 3.391558 -65.29652
v -51.12935 3.376431 -65.28307
v -51.1361 3.380012 -65.28613
v -51.13762 3.383284 -65.28565
v -51.13763 3.38062 -65.28944
v -50.55027 3.368157 -63.20271
v -50.55027 3.379858 -63.21441
v -50.53857 3.379858 -63.20271
v -50.55027 3.376431 -63.20614
v -50.55027 3.379858 -65.27479
v -50.55027 3.368157 -65.28649
v -50.53857 3.379858 -65.28649
v -50.55027 3.376431 -65.28307
v -50.99412 3.577502 -63.05092
v -50.99412 3.565801 -63.03923
v -50.99412 3.574075 -63.04265
v -50.99412 3.565801 -65.44997
v -50.99412 3.577502 -65.43827
v -50.99412 3.574075 -65.44655
v -50.99412 -0.16629 -63.19278
v -50.99412 -0.174655 -63.20271
v -50.99412 -0.170473 -63.19775
v -50.99412 -0.174655 -65.28649
v -50.99412 -0.16629 -65.29641
v -50.99412 -0.170473 -65.29145
#end vertices

#begin 316 textures vertices 
vt 0.004313378 0.9944413 0
vt 0.990896 0.9944413 0
vt 0.004313378 0.9845781 0
vt 0.990896 0.9845781 0
vt 0.004313378 0.9947567 0
vt 0.990896 0.9947567 0
vt 0.004313378 0.866166 0
vt 0.990896 0.866166 0
vt 0.4871281 0.8685912 0
vt 0.4873486 0.8685912 0
vt 0.4873486 0.868803 0
vt 0.4871281 0.868803 0
vt 0.004313378 0.8685912 0
vt 0.004313378 0.868803 0
vt 0.990896 0.868803 0
vt 0.990896 0.8685912 0
vt 0.4871281 0.9825302 0
vt 0.4871281 0.9823152 0
vt 0.4873486 0.9823152 0
vt 0.4873486 0.9825302 0
vt 0.004313378 0.9823152 0
vt 0.004313378 0.9825302 0
vt 0.990896 0.9825302 0
vt 0.990896 0.9823152 0
vt 0.4873486 0.9845781 0
vt 0.4871281 0.9845781 0
vt 0.4873486 0.9944413 0
vt 0.4871281 0.9944413 0
vt 0.4871281 0.9947567 0
vt 0.4873486 0.9947567 0
vt 0.4873486 0.866166 0
vt 0.4871281 0.866166 0
vt 0.004313381 0.6038967 0
vt 0.990896 0.6038967 0
vt 0.004313381 0.5940335 0
vt 0.990896 0.5940335 0
vt 0.004313381 0.6042121 0
vt 0.990896 0.6042121 0
vt 0.004313381 0.4756213 0
vt 0.990896 0.4756213 0
vt 0.4871281 0.4780465 0
vt 0.4873486 0.4780465 0
vt 0.4873486 0.4782583 0
vt 0.4871281 0.4782583 0
vt 0.004313381 0.4780465 0
vt 0.004313381 0.4782583 0
vt 0.990896 0.4782583 0
vt 0.990896 0.4780465 0
vt 0.4871281 0.5919855 0
vt 0.4871281 0.5917705 0
vt 0.4873486 0.5917705 0
vt 0.4873486 0.5919855 0
vt 0.004313381 0.5917705 0
vt 0.004313381 0.5919855 0
vt 0.990896 0.5919855 0
vt 0.990896 0.5917705 0
vt 0.4873486 0.5940335 0
vt 0.4871281 0.5940335 0
vt 0.4873486 0.6038967 0
vt 0.4871281 0.6038967 0
vt 0.4871281 0.6042121 0
vt 0.4873486 0.6042121 0
vt 0.4873486 0.4756213 0
vt 0.4871281 0.4756213 0
vt 0.004313381 0.7329516 0
vt 0.990896 0.7329516 0
vt 0.004313381 0.7230884 0
vt 0.990896 0.7230884 0
vt 0.004313381 0.733267 0
vt 0.990896 0.733267 0
vt 0.004313381 0.6046762 0
vt 0.990896 0.6046762 0
vt 0.4871281 0.6071014 0
vt 0.4873486 0.6071014 0
vt 0.4873486 0.6073132 0
vt 0.4871281 0.6073132 0
vt 0.004313381 0.6071014 0
vt 0.004313381 0.6073132 0
vt 0.990896 0.6073132 0
vt 0.990896 0.6071014 0
vt 0.4871281 0.7210404 0
vt 0.4871281 0.7208254 0
vt 0.4873486 0.7208254 0
vt 0.4873486 0.7210404 0
vt 0.004313381 0.7208254 0
vt 0.004313381 0.7210404 0
vt 0.990896 0.7210404 0
vt 0.990896 0.7208254 0
vt 0.4873486 0.7230884 0
vt 0.4871281 0.7230884 0
vt 0.4873486 0.7329516 0
vt 0.4871281 0.7329516 0
vt 0.4871281 0.733267 0
vt 0.4873486 0.733267 0
vt 0.4873486 0.6046762 0
vt 0.4871281 0.6046762 0
vt 0.004313394 0.4744246 0
vt 0.990896 0.4744246 0
vt 0.004313394 0.4645614 0
vt 0.990896 0.4645614 0
vt 0.004313394 0.47474 0
vt 0.990896 0.47474 0
vt 0.004313394 0.3461492 0
vt 0.990896 0.3461492 0
vt 0.4871281 0.3485745 0
vt 0.4873486 0.3485745 0
vt 0.4873486 0.3487863 0
vt 0.4871281 0.3487863 0
vt 0.004313394 0.3485745 0
vt 0.004313394 0.3487863 0
vt 0.990896 0.3487863 0
vt 0.990896 0.3485745 0
vt 0.4871281 0.4625134 0
vt 0.4871281 0.4622985 0
vt 0.4873486 0.4622985 0
vt 0.4873486 0.4625134 0
vt 0.004313394 0.4622985 0
vt 0.004313394 0.4625134 0
vt 0.990896 0.4625134 0
vt 0.990896 0.4622985 0
vt 0.4873486 0.4645614 0
vt 0.4871281 0.4645614 0
vt 0.4873486 0.4744246 0
vt 0.4871281 0.4744246 0
vt 0.4871281 0.47474 0
vt 0.4873486 0.47474 0
vt 0.4873486 0.3461492 0
vt 0.4871281 0.3461492 0
vt 0.004313378 0.8636965 0
vt 0.990896 0.8636965 0
vt 0.004313378 0.8538333 0
vt 0.990896 0.8538333 0
vt 0.004313378 0.8640118 0
vt 0.990896 0.8640118 0
vt 0.004313378 0.7354211 0
vt 0.990896 0.7354211 0
vt 0.4871281 0.7378463 0
vt 0.4873486 0.7378463 0
vt 0.4873486 0.7380581 0
vt 0.4871281 0.7380581 0
vt 0.004313378 0.7378463 0
vt 0.004313378 0.7380581 0
vt 0.990896 0.7380581 0
vt 0.990896 0.7378463 0
vt 0.4871281 0.8517853 0
vt 0.4871281 0.8515703 0
vt 0.4873486 0.8515703 0
vt 0.4873486 0.8517853 0
vt 0.004313378 0.8515703 0
vt 0.004313378 0.8517853 0
vt 0.990896 0.8517853 0
vt 0.990896 0.8515703 0
vt 0.4873486 0.8538333 0
vt 0.4871281 0.8538333 0
vt 0.4873486 0.8636965 0
vt 0.4871281 0.8636965 0
vt 0.4871281 0.8640118 0
vt 0.4873486 0.8640118 0
vt 0.4873486 0.7354211 0
vt 0.4871281 0.7354211 0
vt 0.3785766 0.1955604 0
vt 0.995033 0.004750304 0
vt 0.386733 0.342168 0
vt 0.995033 0.157013 0
vt 0.3870683 0.3424779 0
vt 0.995033 0.1573412 0
vt 0.995033 0.1163373 0
vt 0.3847668 0.3027027 0
vt 0.7527415 0.3177413 0
vt 0.8498531 0.321559 0
vt 0.7525688 0.318081 0
vt 0.8497125 0.3218757 0
vt 0.3846449 0.004750304 0
vt 0.9940154 0.1994484 0
vt 0.9652907 0.3302208 0
vt 0.9655216 0.3300558 0
vt 0.9657225 0.3301075 0
vt 0.9654967 0.3304245 0
vt 0.3860308 0.3279136 0
vt 0.3860401 0.328121 0
vt 0.995033 0.1427266 0
vt 0.995033 0.1424674 0
vt 0.9634598 0.3315208 0
vt 0.9636657 0.3317238 0
vt 0.9635502 0.3317787 0
vt 0.9633257 0.3317057 0
vt 0.9613632 0.3429339 0
vt 0.9611402 0.3428608 0
vt 0.3861578 0.3305496 0
vt 0.3861671 0.330757 0
vt 0.995033 0.1452127 0
vt 0.995033 0.1449911 0
vt 0.9607845 0.3431298 0
vt 0.9609714 0.343293 0
vt 0.8576992 0.1669852 0
vt 0.8574862 0.1669307 0
vt 0.8569861 0.2828613 0
vt 0.8570715 0.2832423 0
vt 0.8566856 0.2830431 0
vt 0.7525206 0.278475 0
vt 0.7521328 0.2786196 0
vt 0.7522732 0.2782367 0
vt 0.9702262 0.3055408 0
vt 0.9704297 0.3055837 0
vt 0.8842699 0.1758779 0
vt 0.884078 0.1758287 0
vt 0.7391294 0.1675347 0
vt 0.7389406 0.1675842 0
vt 0.8528754 0.3081687 0
vt 0.8527452 0.3083628 0
vt 0.7535799 0.3041124 0
vt 0.7536667 0.3039 0
vt 0.7522963 0.3063031 0
vt 0.7523829 0.3060908 0
vt 0.8512906 0.3099963 0
vt 0.8511615 0.3101906 0
vt 0.8417151 0.2640878 0
vt 0.8418473 0.2641536 0
vt 0.8417891 0.2642641 0
vt 0.7689749 0.2597158 0
vt 0.7689308 0.2598614 0
vt 0.7688318 0.2598031 0
vt 0.7679701 0.1595819 0
vt 0.767753 0.1596171 0
vt 0.3732771 0.2756781 0
vt 0.03436124 0.1040946 0
vt 0.3707995 0.3157152 0
vt 0.00390625 0.1315883 0
vt 0.214279 0.3207152 0
vt 0.0937678 0.2609806 0
vt 0.10842 0.2766072 0
vt 0.1936368 0.318427 0
vt 0.3735027 0.2688687 0
vt 0.2104894 0.2725518 0
vt 0.03983003 0.09996925 0
vt 0.1349382 0.2346063 0
vt 0.3695521 0.3098214 0
vt 0.369902 0.309025 0
vt 0.3696252 0.3094261 0
vt 0.203098 0.3174122 0
vt 0.2026581 0.3173471 0
vt 0.202963 0.3166244 0
vt 0.2028763 0.3173965 0
vt 0.2029075 0.3171185 0
vt 0.2027993 0.3169801 0
vt 0.2030413 0.3170152 0
vt 0.103216 0.2684567 0
vt 0.1039177 0.2681163 0
vt 0.1035153 0.2688311 0
vt 0.1035634 0.2682771 0
vt 0.1035482 0.2684718 0
vt 0.1037269 0.2684789 0
vt 0.1033329 0.2686675 0
vt 0.01006105 0.1285262 0
vt 0.009605147 0.1292625 0
vt 0.009891649 0.1289782 0
vt 0.2135616 0.3143086 0
vt 0.2129956 0.3134771 0
vt 0.2133725 0.3138885 0
vt 0.09935531 0.2577905 0
vt 0.1003645 0.2577552 0
vt 0.09980751 0.2576949 0
vt 0.1110765 0.2706711 0
vt 0.1110717 0.2697138 0
vt 0.1111416 0.2702242 0
vt 0.1973077 0.3121055 0
vt 0.1965599 0.3126943 0
vt 0.1968671 0.3123657 0
vt 0.3723891 0.3025154 0
vt 0.3721565 0.3032086 0
vt 0.3723131 0.3028051 0
vt 0.01236671 0.1209151 0
vt 0.01280956 0.1203507 0
vt 0.01256647 0.1206255 0
vt 0.2064927 0.3061124 0
vt 0.2055126 0.3069414 0
vt 0.2050121 0.3057303 0
vt 0.2059623 0.3065496 0
vt 0.2056686 0.3063388 0
vt 0.2052726 0.30634 0
vt 0.2057521 0.305926 0
vt 0.1101398 0.2586147 0
vt 0.1113004 0.2596223 0
vt 0.110068 0.2599449 0
vt 0.110716 0.2591224 0
vt 0.1104434 0.2594434 0
vt 0.1106728 0.259777 0
vt 0.1101085 0.2593248 0
vt 0.2101024 0.2793168 0
vt 0.209234 0.2792889 0
vt 0.2097341 0.2787637 0
vt 0.2096683 0.2793056 0
vt 0.1303439 0.2396513 0
vt 0.1297033 0.2390874 0
vt 0.1304184 0.2389866 0
vt 0.1300239 0.2393691 0
vt 0.2017247 0.3235995 0
vt 0.2027179 0.3237032 0
vt 0.2022202 0.3236671 0
vt 0.09843999 0.2722794 0
vt 0.09919644 0.2729505 0
vt 0.09881674 0.2726185 0
vt 0.3745452 0.2973634 0
vt 0.3725976 0.2962491 0
vt 0.3739282 0.2968289 0
vt 0.01784183 0.1165538 0
vt 0.01578249 0.1158873 0
vt 0.01653831 0.1159659 0
vt 0.3846449 0.1424674 0
vt 0.3846449 0.1452127 0
vt 0.3846449 0.157013 0
vt 0.3846449 0.1449911 0
vt 0.3846449 0.1573412 0
vt 0.3846449 0.1427266 0
vt 0.3846449 0.1163373 0
vt 0.9942191 0.1994903 0
#end 316 textures vertices 

#begin 95 normals 
vn -0.3467 -0.8628 0.368
vn -0.38 0.8425 0.3817
vn -0.7071 -0.7071 -0
vn -0 1 -0
vn -0 -0.707 0.7072
vn -0.7071 -0 0.7071
vn -0 0.707 0.7072
vn -0.7072 0.707 -0
vn -0.7041 -0 0.7101
vn 0.0001 -1 -0
vn -0 -1 -0
vn -0 -0 1
vn -1 -0 -0
vn -1 -0 -0.0014
vn 0.0014 -0 1
vn -0.7071 0.7071 -0
vn -0.38 0.8426 0.3817
vn -0 0.7071 0.7072
vn 0.0001 1 -0
vn -0 1 -0
vn -0.3574 0.8629 0.3574
vn -0.4481 0.7723 0.4502
vn -0.9045 -0.3015 -0.3016
vn -0.9046 -0.3014 0.3015
vn -0.5774 -0.5772 -0.5775
vn -0.5773 -0.5772 0.5775
vn -0.7071 -0 0.7071
vn -0 0.7071 0.7071
vn -0.707 0.0002 0.7072
vn -0.7034 -0 0.7108
vn -0.707 0.0002 -0.7072
vn 0.001 0.7071 0.7071
vn 0.0001 1 -0
vn -0 -0.707 -0.7072
vn -0.7071 -0.7071 -0
vn -0 -0.707 0.7072
vn -0.7071 0.7071 -0.001
vn -0.707 0.7072 -0
vn -0.7071 0.0002 0.7071
vn -0.7071 0.7071 -0
vn -0.7071 0.7072 -0
vn -0 -0 1
vn -1 -0 -0
vn -1 -0 -0.0014
vn 0.0014 -0 1
vn -0 0.0003 -1
vn -0 -1 -0
vn -0 0.0003 1
vn -0.3251 0.3249 0.8881
vn -0.3251 0.8881 0.3251
vn -0.8881 0.325 0.3251
vn -0.3251 0.3249 -0.8881
vn -0.8881 0.325 -0.3251
vn -0.3251 0.8881 -0.3251
vn -0.6775 -0.4044 -0.6144
vn -0.9523 -0.2485 -0.1772
vn -0.6575 -0.6491 -0.3826
vn -0.6775 -0.4044 0.6144
vn -0.6575 -0.6491 0.3826
vn -0.9523 -0.2485 0.1772
vn 0.3574 -0.3574 -0.8629
vn 0.3574 -0.8629 -0.3574
vn 0.3574 -0.8629 0.3574
vn 0.3574 -0.3574 0.8629
vn -0.9239 -0.0001 -0.3827
vn -0.3827 -0.0002 -0.9239
vn -0.9239 -0.0001 0.3827
vn -0.3827 -0.0002 0.9239
vn -0.8362 -0.0003 -0.5484
vn -0.3835 -0.0001 -0.9235
vn -0.3827 0.9239 -0
vn -0.9239 0.3827 -0
vn -0.8518 -0.0002 0.5239
vn -0.4102 -0.0002 0.912
vn -0.9239 -0.3827 -0
vn -0.3827 -0.9239 -0
vn -0 -0.9239 0.3827
vn -0 -0.3827 0.9239
vn -0 -0.9239 -0.3827
vn -0 -0.3827 -0.9239
vn -0 -0.7646 0.6445
vn -0 0.9239 -0.3827
vn -0 0.3825 -0.924
vn -0 0.3825 0.924
vn -0 0.9239 0.3827
vn -0 -0.7646 -0.6445
vn -0 -0.0003 1
vn -1 -0 -0
vn -0 -0.0002 1
vn -0 1 -0
vn -0 -0.0002 -1
vn -0 -0.0003 -1
vn -0 -0 -1
vn -0 -0 1
vn -0 -1 -0
#end 95 normals 

#begin 225 faces
o Cube:014
s 0
f 9/9/1 10/10/1 11/11/1 12/12/1 
f 17/17/2 18/18/2 19/19/2 20/20/2 
f 13/13/3 9/9/3 12/12/3 14/14/3 
f 20/20/4 25/25/4 26/26/4 17/17/4 
f 10/10/5 16/16/5 15/15/5 11/11/5 
f 11/11/6 19/19/6 18/18/6 12/12/6 
f 23/23/7 20/20/7 19/19/7 24/24/7 
f 17/17/8 22/22/8 21/21/8 18/18/8 
f 25/25/9 27/27/9 28/28/9 26/26/9 
f 29/29/4 28/28/4 27/27/4 30/30/4 
f 9/9/10 32/32/10 31/31/10 10/10/10 
f 9/9/11 13/13/11 7/7/11 32/32/11 
f 15/15/12 24/24/12 19/19/12 11/11/12 
f 12/12/13 18/18/13 21/21/13 14/14/13 
f 16/16/11 10/10/11 31/31/11 8/8/11 
f 20/20/4 23/23/4 4/4/4 25/25/4 
f 22/22/4 17/17/4 26/26/4 3/3/4 
f 26/26/14 28/28/14 1/1/14 3/3/14 
f 4/4/15 2/2/15 27/27/15 25/25/15 
f 27/27/4 2/2/4 6/6/4 30/30/4 
f 1/1/4 28/28/4 29/29/4 5/5/4 
f 41/41/1 42/42/1 43/43/1 44/44/1 
f 49/49/2 50/50/2 51/51/2 52/52/2 
f 45/45/3 41/41/3 44/44/3 46/46/3 
f 52/52/4 57/57/4 58/58/4 49/49/4 
f 42/42/5 48/48/5 47/47/5 43/43/5 
f 43/43/6 51/51/6 50/50/6 44/44/6 
f 55/55/7 52/52/7 51/51/7 56/56/7 
f 49/49/16 54/54/16 53/53/16 50/50/16 
f 57/57/9 59/59/9 60/60/9 58/58/9 
f 61/61/4 60/60/4 59/59/4 62/62/4 
f 41/41/11 64/64/11 63/63/11 42/42/11 
f 41/41/11 45/45/11 39/39/11 64/64/11 
f 47/47/12 56/56/12 51/51/12 43/43/12 
f 44/44/13 50/50/13 53/53/13 46/46/13 
f 48/48/11 42/42/11 63/63/11 40/40/11 
f 52/52/4 55/55/4 36/36/4 57/57/4 
f 54/54/4 49/49/4 58/58/4 35/35/4 
f 58/58/14 60/60/14 33/33/14 35/35/14 
f 36/36/15 34/34/15 59/59/15 57/57/15 
f 59/59/4 34/34/4 38/38/4 62/62/4 
f 33/33/4 60/60/4 61/61/4 37/37/4 
f 73/73/1 74/74/1 75/75/1 76/76/1 
f 81/81/2 82/82/2 83/83/2 84/84/2 
f 77/77/3 73/73/3 76/76/3 78/78/3 
f 84/84/4 89/89/4 90/90/4 81/81/4 
f 74/74/5 80/80/5 79/79/5 75/75/5 
f 75/75/6 83/83/6 82/82/6 76/76/6 
f 87/87/7 84/84/7 83/83/7 88/88/7 
f 81/81/16 86/86/16 85/85/16 82/82/16 
f 89/89/9 91/91/9 92/92/9 90/90/9 
f 93/93/4 92/92/4 91/91/4 94/94/4 
f 73/73/11 96/96/11 95/95/11 74/74/11 
f 73/73/11 77/77/11 71/71/11 96/96/11 
f 79/79/12 88/88/12 83/83/12 75/75/12 
f 76/76/13 82/82/13 85/85/13 78/78/13 
f 80/80/11 74/74/11 95/95/11 72/72/11 
f 84/84/4 87/87/4 68/68/4 89/89/4 
f 86/86/4 81/81/4 90/90/4 67/67/4 
f 90/90/14 92/92/14 65/65/14 67/67/14 
f 68/68/15 66/66/15 91/91/15 89/89/15 
f 91/91/4 66/66/4 70/70/4 94/94/4 
f 65/65/4 92/92/4 93/93/4 69/69/4 
f 105/105/1 106/106/1 107/107/1 108/108/1 
f 113/113/17 114/114/17 115/115/17 116/116/17 
f 109/109/3 105/105/3 108/108/3 110/110/3 
f 116/116/4 121/121/4 122/122/4 113/113/4 
f 106/106/5 112/112/5 111/111/5 107/107/5 
f 107/107/6 115/115/6 114/114/6 108/108/6 
f 119/119/18 116/116/18 115/115/18 120/120/18 
f 113/113/16 118/118/16 117/117/16 114/114/16 
f 121/121/9 123/123/9 124/124/9 122/122/9 
f 125/125/4 124/124/4 123/123/4 126/126/4 
f 105/105/11 128/128/11 127/127/11 106/106/11 
f 105/105/11 109/109/11 103/103/11 128/128/11 
f 111/111/12 120/120/12 115/115/12 107/107/12 
f 108/108/13 114/114/13 117/117/13 110/110/13 
f 112/112/11 106/106/11 127/127/11 104/104/11 
f 116/116/4 119/119/4 100/100/4 121/121/4 
f 118/118/4 113/113/4 122/122/4 99/99/4 
f 122/122/14 124/124/14 97/97/14 99/99/14 
f 100/100/15 98/98/15 123/123/15 121/121/15 
f 123/123/4 98/98/4 102/102/4 126/126/4 
f 97/97/4 124/124/4 125/125/4 101/101/4 
f 137/137/1 138/138/1 139/139/1 140/140/1 
f 145/145/17 146/146/17 147/147/17 148/148/17 
f 141/141/3 137/137/3 140/140/3 142/142/3 
f 148/148/4 153/153/4 154/154/4 145/145/4 
f 138/138/5 144/144/5 143/143/5 139/139/5 
f 139/139/6 147/147/6 146/146/6 140/140/6 
f 151/151/18 148/148/18 147/147/18 152/152/18 
f 145/145/8 150/150/8 149/149/8 146/146/8 
f 153/153/9 155/155/9 156/156/9 154/154/9 
f 157/157/19 156/156/19 155/155/19 158/158/19 
f 137/137/11 160/160/11 159/159/11 138/138/11 
f 137/137/11 141/141/11 135/135/11 160/160/11 
f 143/143/12 152/152/12 147/147/12 139/139/12 
f 140/140/13 146/146/13 149/149/13 142/142/13 
f 144/144/11 138/138/11 159/159/11 136/136/11 
f 148/148/4 151/151/4 132/132/4 153/153/4 
f 150/150/4 145/145/4 154/154/4 131/131/4 
f 154/154/14 156/156/14 129/129/14 131/131/14 
f 132/132/15 130/130/15 155/155/15 153/153/15 
f 155/155/4 130/130/4 134/134/4 158/158/4 
f 129/129/4 156/156/4 157/157/4 133/133/4 
o Cube:634
s 0
f 163/163/20 169/169/20 171/171/20 165/165/20 
f 170/170/20 172/172/20 171/171/20 169/169/20 
f 175/175/21 176/176/21 177/177/21 178/178/21 
f 183/183/22 184/184/22 185/185/22 186/186/22 
f 197/197/23 198/198/23 199/199/23 
f 200/200/24 201/201/24 202/202/24 
f 217/217/25 218/218/25 219/219/25 
f 220/220/26 221/221/26 222/222/26 
f 178/178/20 184/184/20 183/183/20 175/175/20 
f 204/204/27 177/177/27 176/176/27 203/203/27 
f 181/181/28 178/314/28 177/309/28 182/182/28 
f 222/222/29 224/224/29 223/223/29 220/220/29 
f 185/185/30 187/187/30 188/188/30 186/186/30 
f 195/195/31 218/218/31 217/217/31 196/196/31 
f 191/191/32 185/310/32 184/312/32 192/192/32 
f 193/193/33 188/188/33 187/187/33 194/194/33 
f 205/205/31 198/198/31 197/197/31 206/206/31 
f 173/316/27 204/204/27 203/203/27 174/174/27 
f 218/218/34 197/197/34 199/199/34 219/219/34 
f 200/200/35 199/199/35 198/198/35 201/201/35 
f 202/202/36 222/222/36 221/221/36 200/200/36 
f 220/220/35 217/217/35 219/219/35 221/221/35 
f 214/214/37 215/215/37 216/216/37 213/213/37 
f 210/210/38 211/211/38 212/212/38 209/209/38 
f 201/201/39 208/208/39 207/207/39 202/202/39 
f 175/175/40 210/210/40 209/209/40 176/176/40 
f 211/211/41 180/180/41 179/179/41 212/212/41 
f 213/213/37 190/190/37 189/189/37 214/214/37 
f 186/186/37 216/216/37 215/215/37 183/183/37 
f 162/162/42 167/167/42 204/315/42 173/173/42 
f 174/174/43 203/203/43 198/198/43 205/205/43 
f 210/210/20 175/175/20 183/183/20 215/215/20 
f 167/167/42 182/182/42 177/309/42 204/315/42 
f 178/314/20 181/181/20 192/192/20 184/312/20 
f 203/203/43 176/176/43 209/209/43 198/198/43 
f 180/180/20 211/211/20 214/214/20 189/189/20 
f 201/201/43 212/212/43 179/179/43 168/168/43 
f 186/186/44 188/188/44 170/170/44 216/216/44 
f 191/191/45 164/164/45 187/311/45 185/310/45 
f 187/311/20 164/164/20 166/166/20 194/313/20 
f 170/170/20 188/188/20 193/193/20 172/172/20 
f 213/213/44 169/169/44 163/163/44 190/190/44 
f 206/206/46 197/197/46 218/218/46 195/195/46 
f 220/220/43 223/223/43 196/196/43 217/217/43 
f 199/199/47 200/200/47 221/221/47 219/219/47 
f 212/212/43 201/201/43 198/198/43 209/209/43 
f 202/202/48 207/207/48 224/224/48 222/222/48 
f 208/208/43 201/201/43 168/168/43 161/161/43 
f 210/210/20 215/215/20 214/214/20 211/211/20 
f 169/169/44 213/213/44 216/216/44 170/170/44 
o Cube:771
s 0
f 240/240/49 243/243/49 244/244/49 246/246/49 
f 241/241/50 245/245/50 244/244/50 243/243/50 
f 242/242/51 246/246/51 244/244/51 245/245/51 
f 247/247/52 250/250/52 251/251/52 253/253/52 
f 248/248/53 252/252/53 251/251/53 250/250/53 
f 249/249/54 253/253/54 251/251/54 252/252/54 
f 275/275/55 278/278/55 279/279/55 281/281/55 
f 276/276/56 280/280/56 279/279/56 278/278/56 
f 277/277/57 281/281/57 279/279/57 280/280/57 
f 282/282/58 285/285/58 286/286/58 288/288/58 
f 283/283/59 287/287/59 286/286/59 285/285/59 
f 284/284/60 288/288/60 286/286/60 287/287/60 
f 289/289/61 292/292/61 291/291/61 
f 292/292/62 290/290/62 291/291/62 
f 293/293/63 296/296/63 295/295/63 
f 296/296/64 294/294/64 295/295/64 
f 261/261/65 248/248/65 250/250/65 262/262/65 
f 262/262/66 250/250/66 247/247/66 260/260/66 
f 258/258/67 238/238/67 239/239/67 259/259/67 
f 259/259/68 239/239/68 237/237/68 257/257/68 
f 242/242/67 258/258/67 259/259/67 246/246/67 
f 246/246/68 259/259/68 257/257/68 240/240/68 
f 254/254/65 261/261/65 262/262/65 256/256/65 
f 256/256/66 262/262/66 260/260/66 255/255/66 
f 270/270/69 276/276/69 278/278/69 271/271/69 
f 271/271/70 278/278/70 275/275/70 269/269/70 
f 267/267/71 263/263/71 265/265/71 268/268/71 
f 268/268/72 265/265/72 264/264/72 266/266/72 
f 284/284/73 272/272/73 274/274/73 288/288/73 
f 288/288/74 274/274/74 273/273/74 282/282/74 
f 241/241/71 267/267/71 268/268/71 245/245/71 
f 245/245/72 268/268/72 266/266/72 242/242/72 
f 263/263/71 249/249/71 252/252/71 265/265/71 
f 265/265/72 252/252/72 248/248/72 264/264/72 
f 276/276/75 284/284/75 287/287/75 280/280/75 
f 280/280/76 287/287/76 283/283/76 277/277/76 
f 293/293/77 283/283/77 285/285/77 296/296/77 
f 296/296/78 285/285/78 282/282/78 294/294/78 
f 277/277/79 290/290/79 292/292/79 281/281/79 
f 281/281/80 292/292/80 289/289/80 275/275/80 
f 303/303/81 270/270/81 271/271/81 305/305/81 
f 305/305/81 271/271/81 269/269/81 304/304/81 
f 249/249/82 301/301/82 302/302/82 253/253/82 
f 253/253/83 302/302/83 300/300/83 247/247/83 
f 240/240/84 298/298/84 299/299/84 243/243/84 
f 243/243/85 299/299/85 297/297/85 241/241/85 
f 272/272/86 307/307/86 308/308/86 274/274/86 
f 274/274/86 308/308/86 306/306/86 273/273/86 
f 257/257/87 237/237/87 227/227/87 229/229/87 
f 276/276/88 270/270/88 238/238/88 258/258/88 
f 237/237/81 239/239/81 238/238/81 270/270/81 303/303/81 227/227/81 
f 240/240/89 257/257/89 229/229/89 298/298/89 
f 266/266/88 276/276/88 258/258/88 242/242/88 
f 267/267/90 241/241/90 297/297/90 232/232/90 
f 260/260/91 247/247/91 300/300/91 230/230/91 
f 248/248/88 261/261/88 284/284/88 264/264/88 
f 249/249/90 263/263/90 231/231/90 301/301/90 
f 255/255/92 260/260/92 230/230/92 228/228/92 
f 261/261/88 254/254/88 272/272/88 284/284/88 
f 272/272/86 254/254/86 256/256/86 255/255/86 228/228/86 307/307/86 
f 276/276/88 266/266/88 264/264/88 284/284/88 
f 263/263/90 267/267/90 232/232/90 231/231/90 
f 269/269/93 275/275/93 289/289/93 225/225/93 
f 269/269/90 225/225/90 233/233/90 304/304/90 
f 282/282/94 273/273/94 226/226/94 294/294/94 
f 226/226/90 273/273/90 306/306/90 235/235/90 
f 277/277/95 283/283/95 293/293/95 290/290/95 
f 225/225/93 289/289/93 291/291/93 234/234/93 233/233/93 
f 291/291/95 290/290/95 293/293/95 295/295/95 236/236/95 234/234/95 
f 295/295/94 294/294/94 226/226/94 235/235/94 236/236/94 
#end 225 faces

#ZOMPROPERTIES_04{
#ZOMPROPERTIES_04 table {Mesh table {SymPlane table {Point vector3d 0 0 0 Normal vector3d 1 0 0 Threshold double 0.01 
#ZOMPROPERTIES_04 Enabled bool false EdgeID int -1 SymEdgeID int -1 UPos double 0.5 LocalMode bool false } RootGroup C
#ZOMPROPERTIES_04 SubMeshGroup {Children table {Tile_0_0 CSubMeshGroup {Children table {} BBoxUV box3d 0 0 0 0 0 0 BBo
#ZOMPROPERTIES_04 x3D box3d 0 0 0 0 0 0 Area3D double 0 AreaUV double 0.838596 IsRoot bool false Properties table {Sel
#ZOMPROPERTIES_04 ected bool false Box box3d 0 1 0 1 0 1 U int 0 V int 0 NU int 0 NV int 0 Tiling vector3d 1 1 1 TileR
#ZOMPROPERTIES_04 atioMode string "1:1" Overflow string "Off" Pack table {BoxFrameEdit bool false Behavior string "Fre
#ZOMPROPERTIES_04 e" } } IsTile bool true PolyIDs ints { 155 176 206 203 205 173 204 179 162 161 180 196 195 218 222 2
#ZOMPROPERTIES_04 23 224 170 192 219 220 202 201 214 212 209 198 197 211 216 208 200 185 186 182 215 207 210 213 177 1
#ZOMPROPERTIES_04 78 171 172 158 159 160 187 188 181 157 156 183 166 165 190 221 193 163 194 191 164 184 189 169 168 1
#ZOMPROPERTIES_04 67 217 175 174 199 105 106 145 120 117 108 113 136 130 128 150 139 114 107 122 135 121 109 123 149 1
#ZOMPROPERTIES_04 26 111 118 147 148 116 151 129 152 110 125 112 124 141 131 140 132 146 127 133 154 153 142 115 137 1
#ZOMPROPERTIES_04 34 138 119 143 144 63 65 74 76 70 79 80 83 72 71 81 78 69 75 67 64 66 82 68 77 73 0 4 12 6 15 18 8 9
#ZOMPROPERTIES_04  20 17 16 7 13 5 1 3 19 14 10 11 2 21 23 32 34 28 37 38 41 30 29 39 36 27 33 25 22 24 40 26 35 31 84
#ZOMPROPERTIES_04  88 96 90 99 102 92 93 104 101 100 91 97 89 85 87 103 98 94 95 86 42 44 53 55 49 58 59 62 51 50 60 5
#ZOMPROPERTIES_04 7 48 54 46 43 45 61 47 56 52 } } } BBoxUV box3d 0 0 0 0 0 0 BBox3D box3d 0 0 0 0 0 0 Area3D double 0
#ZOMPROPERTIES_04  AreaUV double 0 IsRoot bool true Properties table {Selected bool false Box box3d 0 1 0 1 0 1 U int 
#ZOMPROPERTIES_04 0 V int 0 NU int 1 NV int 1 Tiling vector3d 1 1 1 TileRatioMode string "1:1" Overflow string "Off" P
#ZOMPROPERTIES_04 ack table {Rotate table {Mode int 0 Min double 0 Max double 90 Step double 0 } PaddingSize double 0.
#ZOMPROPERTIES_04 0078125 MarginSize double 0.00390625 Resolution int 256 MapResolution int 2048 Scaling table {TexelD
#ZOMPROPERTIES_04 ensity double 1024 Mode int 2 } LayoutScalingMode int 2 MaxMutations int 1 } } IsTile bool false Pol
#ZOMPROPERTIES_04 yIDs ints { } } Maps table {Density table {PrimType string "Polygon" Size int 1 DefaultValue double 
#ZOMPROPERTIES_04 1 ScaleType string "Log" MergeMode string "Average" MinValue double 0.1 MaxValue double 4 Data doubl
#ZOMPROPERTIES_04 es { r 225 1 } } Pin table {PrimType string "Vertex" Size int 1 DefaultValue double 0 ScaleType stri
#ZOMPROPERTIES_04 ng "Normalized" MergeMode string "Max" MinValue double 0 MaxValue double 1 Data doubles { r 316 0 } 
#ZOMPROPERTIES_04 } Protect table {PrimType string "Vertex" Size int 1 DefaultValue double 0 ScaleType string "Normali
#ZOMPROPERTIES_04 zed" MergeMode string "Average" MinValue double -1 MaxValue double 1 Data doubles { r 316 0 } } } } 
#ZOMPROPERTIES_04 }
#ZOMPROPERTIES_04}


#ZOMSCENE_01{
#ZOMSCENE_01 CScene {Settings table {AxisSystem table {UpVector string "y" } Unit string "cm" TexelDensityDisplay
#ZOMSCENE_01 Unit string "tx/cm" } }
#ZOMSCENE_01}

#begin 0 fatal error vertex (that RizomUV cannot handle)
#end 0 fatal error vertex (that RizomUV cannot handle)

#begin 0 error vertex
#end 0 error vertex
