#File written by RizomUV 2022.1.57.gfabcfb8. Compilation :Sep 28 2022,23:52:22
mtllib Silla.mtl
#begin vertices
v 36.35327 1.238841 -0.906031
v 36.34936 1.237996 -0.902031
v 36.35021 1.234086 -0.906031
v 36.30899 1.229264 -0.902031
v 36.30508 1.228418 -0.906031
v 36.30983 1.225354 -0.906031
v 36.35327 1.238841 -1.479616
v 36.35021 1.234086 -1.479616
v 36.34936 1.237996 -1.483616
v 36.30508 1.228418 -1.479616
v 36.30899 1.229264 -1.483616
v 36.30983 1.225354 -1.479616
v 36.32975 1.347639 -0.906031
v 36.32499 1.350703 -0.906031
v 36.32584 1.346793 -0.902031
v 36.28155 1.337216 -0.906031
v 36.28546 1.338062 -0.902031
v 36.28462 1.341971 -0.906031
v 36.32975 1.347639 -1.479616
v 36.32584 1.346793 -1.483616
v 36.32499 1.350703 -1.479616
v 36.28155 1.337216 -1.479616
v 36.28462 1.341971 -1.479616
v 36.28546 1.338062 -1.483616
v 36.38329 1.100032 -0.906031
v 36.37938 1.099187 -0.902031
v 36.38023 1.095277 -0.906031
v 36.33901 1.090455 -0.902031
v 36.33509 1.08961 -0.906031
v 36.33985 1.086545 -0.906031
v 36.38329 1.100032 -1.479616
v 36.38023 1.095277 -1.479616
v 36.37938 1.099187 -1.483616
v 36.33509 1.08961 -1.479616
v 36.33901 1.090455 -1.483616
v 36.33985 1.086545 -1.479616
v 36.35977 1.20883 -0.906031
v 36.35501 1.211895 -0.906031
v 36.35586 1.207985 -0.902031
v 36.31157 1.198408 -0.906031
v 36.31548 1.199253 -0.902031
v 36.31463 1.203163 -0.906031
v 36.35977 1.20883 -1.479616
v 36.35586 1.207985 -1.483616
v 36.35501 1.211895 -1.479616
v 36.31157 1.198408 -1.479616
v 36.31463 1.203163 -1.479616
v 36.31548 1.199253 -1.483616
v 36.41331 0.961224 -0.906031
v 36.4094 0.960378 -0.902031
v 36.41024 0.956469 -0.906031
v 36.36902 0.951647 -0.902031
v 36.36511 0.950801 -0.906031
v 36.36986 0.947737 -0.906031
v 36.41331 0.961224 -1.479616
v 36.41024 0.956469 -1.479616
v 36.4094 0.960378 -1.483616
v 36.36511 0.950801 -1.479616
v 36.36902 0.951647 -1.483616
v 36.36986 0.947737 -1.479616
v 36.38978 1.070022 -0.906031
v 36.38503 1.073086 -0.906031
v 36.38587 1.069176 -0.902031
v 36.34158 1.059599 -0.906031
v 36.34549 1.060444 -0.902031
v 36.34465 1.064354 -0.906031
v 36.38978 1.070022 -1.479616
v 36.38587 1.069176 -1.483616
v 36.38503 1.073086 -1.479616
v 36.34158 1.059599 -1.479616
v 36.34465 1.064354 -1.479616
v 36.34549 1.060444 -1.483616
v 36.87298 0.5932 -0.906031
v 36.87298 0.5972 -0.902031
v 36.86898 0.5972 -0.906031
v 36.87298 0.639173 -0.902031
v 36.87298 0.643173 -0.906031
v 36.86898 0.639173 -0.906031
v 36.87298 0.5932 -1.479616
v 36.86898 0.5972 -1.479616
v 36.87298 0.5972 -1.483616
v 36.87298 0.643173 -1.479616
v 36.87298 0.639173 -1.483616
v 36.86898 0.639173 -1.479616
v 36.9843 0.5932 -0.906031
v 36.9883 0.5972 -0.906031
v 36.9843 0.5972 -0.902031
v 36.9843 0.643173 -0.906031
v 36.9843 0.639173 -0.902031
v 36.9883 0.639173 -0.906031
v 36.9843 0.5932 -1.479616
v 36.9843 0.5972 -1.483616
v 36.9883 0.5972 -1.479616
v 36.9843 0.643173 -1.479616
v 36.9883 0.639173 -1.479616
v 36.9843 0.639173 -1.483616
v 36.73096 0.5932 -0.906031
v 36.73096 0.5972 -0.902031
v 36.72697 0.5972 -0.906031
v 36.73096 0.639173 -0.902031
v 36.73096 0.643173 -0.906031
v 36.72697 0.639173 -0.906031
v 36.73096 0.5932 -1.479616
v 36.72697 0.5972 -1.479616
v 36.73096 0.5972 -1.483616
v 36.73096 0.643173 -1.479616
v 36.73096 0.639173 -1.483616
v 36.72697 0.639173 -1.479616
v 36.84228 0.5932 -0.906031
v 36.84628 0.5972 -0.906031
v 36.84228 0.5972 -0.902031
v 36.84228 0.643173 -0.906031
v 36.84228 0.639173 -0.902031
v 36.84628 0.639173 -0.906031
v 36.84228 0.5932 -1.479616
v 36.84228 0.5972 -1.483616
v 36.84628 0.5972 -1.479616
v 36.84228 0.643173 -1.479616
v 36.84628 0.639173 -1.479616
v 36.84228 0.639173 -1.483616
v 36.58895 0.5932 -0.906031
v 36.58895 0.5972 -0.902031
v 36.58495 0.5972 -0.906031
v 36.58895 0.639173 -0.902031
v 36.58895 0.643173 -0.906031
v 36.58495 0.639173 -0.906031
v 36.58895 0.5932 -1.479616
v 36.58495 0.5972 -1.479616
v 36.58895 0.5972 -1.483616
v 36.58895 0.643173 -1.479616
v 36.58895 0.639173 -1.483616
v 36.58495 0.639173 -1.479616
v 36.70026 0.5932 -0.906031
v 36.70426 0.5972 -0.906031
v 36.70026 0.5972 -0.902031
v 36.70026 0.643173 -0.906031
v 36.70026 0.639173 -0.902031
v 36.70426 0.639173 -0.906031
v 36.70026 0.5932 -1.479616
v 36.70026 0.5972 -1.483616
v 36.70426 0.5972 -1.479616
v 36.70026 0.643173 -1.479616
v 36.70426 0.639173 -1.479616
v 36.70026 0.639173 -1.483616
v 36.44693 0.5932 -0.906031
v 36.44693 0.5972 -0.902031
v 36.44293 0.5972 -0.906031
v 36.44693 0.639173 -0.902031
v 36.44693 0.643173 -0.906031
v 36.44293 0.639173 -0.906031
v 36.44693 0.5932 -1.479616
v 36.44293 0.5972 -1.479616
v 36.44693 0.5972 -1.483616
v 36.44693 0.643173 -1.479616
v 36.44693 0.639173 -1.483616
v 36.44293 0.639173 -1.479616
v 36.55825 0.5932 -0.906031
v 36.56224 0.5972 -0.906031
v 36.55825 0.5972 -0.902031
v 36.55825 0.643173 -0.906031
v 36.55825 0.639173 -0.902031
v 36.56224 0.639173 -0.906031
v 36.55825 0.5932 -1.479616
v 36.55825 0.5972 -1.483616
v 36.56224 0.5972 -1.479616
v 36.55825 0.643173 -1.479616
v 36.56224 0.639173 -1.479616
v 36.55825 0.639173 -1.483616
v 36.30568 1.305776 -1.371709
v 36.30093 1.30884 -1.371709
v 36.30173 1.304922 -1.367709
v 36.26356 1.30076 -1.371709
v 36.26049 1.296005 -1.371709
v 36.26444 1.296859 -1.367709
v 36.46323 0.558037 -1.367709
v 36.46719 0.558892 -1.371709
v 36.422 0.54912 -1.371709
v 36.42595 0.549975 -1.367709
v 36.30568 1.305776 -1.436419
v 36.30173 1.304922 -1.440419
v 36.30093 1.30884 -1.436419
v 36.26049 1.296005 -1.436419
v 36.26356 1.30076 -1.436419
v 36.26444 1.296859 -1.440419
v 36.46719 0.558892 -1.436419
v 36.46323 0.558037 -1.440419
v 36.42595 0.549975 -1.440419
v 36.422 0.54912 -1.436419
v 36.42596 0.016247 -1.367709
v 36.422 0.01624 -1.371709
v 36.46719 0.01624 -1.371709
v 36.46323 0.016247 -1.367709
v 36.46323 0.016121 -1.440419
v 36.46719 0.016128 -1.436419
v 36.422 0.016128 -1.436419
v 36.42596 0.016121 -1.440419
v 36.30568 1.305776 -1.013938
v 36.30093 1.30884 -1.013938
v 36.30173 1.304922 -1.017938
v 36.26356 1.30076 -1.013938
v 36.26049 1.296005 -1.013938
v 36.26444 1.296859 -1.017938
v 36.46323 0.558037 -1.017938
v 36.46719 0.558892 -1.013938
v 36.422 0.54912 -1.013938
v 36.42596 0.549975 -1.017938
v 36.30568 1.305776 -0.949228
v 36.30173 1.304922 -0.945228
v 36.30093 1.30884 -0.949228
v 36.26049 1.296005 -0.949228
v 36.26356 1.30076 -0.949228
v 36.26444 1.296859 -0.945228
v 36.46719 0.558892 -0.949228
v 36.46323 0.558037 -0.945228
v 36.42596 0.549975 -0.945228
v 36.422 0.54912 -0.949228
v 36.42596 0.016247 -1.017938
v 36.422 0.01624 -1.013938
v 36.46719 0.01624 -1.013938
v 36.46323 0.016247 -1.017938
v 36.46323 0.016121 -0.945228
v 36.46719 0.016128 -0.949228
v 36.422 0.016128 -0.949228
v 36.42596 0.016121 -0.945228
v 36.4602 0.549312 -1.430582
v 36.4602 0.545234 -1.426582
v 36.4602 0.590422 -1.426582
v 36.4602 0.586343 -1.430582
v 36.4602 0.545234 -1.381546
v 36.4602 0.549312 -1.377546
v 36.4602 0.586343 -1.377546
v 36.4602 0.590422 -1.381546
v 36.91078 0.590422 -1.426582
v 36.91078 0.58634 -1.430582
v 36.91078 0.549315 -1.430582
v 36.91078 0.545234 -1.426582
v 36.91078 0.545234 -1.381546
v 36.91078 0.549315 -1.377546
v 36.91078 0.58634 -1.377546
v 36.91078 0.590422 -1.381546
v 36.94719 0.578594 -1.426582
v 36.94232 0.577884 -1.430582
v 36.9405 0.582458 -1.426582
v 36.92381 0.545827 -1.430582
v 36.92177 0.542288 -1.426582
v 36.92177 0.542288 -1.381546
v 36.92381 0.545827 -1.377546
v 36.94719 0.578594 -1.381546
v 36.9405 0.582458 -1.381546
v 36.94232 0.577884 -1.377546
v 36.96894 0.556838 -1.426582
v 36.96541 0.554795 -1.430582
v 36.93335 0.536286 -1.430582
v 36.92981 0.534244 -1.426582
v 36.92981 0.534244 -1.381546
v 36.93335 0.536286 -1.377546
v 36.96541 0.554795 -1.377546
v 36.96894 0.556838 -1.381546
v 36.97794 0.523255 -1.426582
v 36.97386 0.523255 -1.430582
v 36.93684 0.523255 -1.430582
v 36.93276 0.523255 -1.426582
v 36.93276 0.523255 -1.381546
v 36.93684 0.523255 -1.377546
v 36.97386 0.523255 -1.377546
v 36.97794 0.523255 -1.381546
v 36.97387 0.016121 -1.430582
v 36.97794 0.016121 -1.426582
v 36.93276 0.016121 -1.426582
v 36.93683 0.016121 -1.430582
v 36.93683 0.016121 -1.377546
v 36.93276 0.016121 -1.381546
v 36.97794 0.016121 -1.381546
v 36.97387 0.016121 -1.377546
v 36.4602 0.549312 -0.955065
v 36.4602 0.545234 -0.959065
v 36.4602 0.590422 -0.959065
v 36.4602 0.586343 -0.955065
v 36.4602 0.545234 -1.004101
v 36.4602 0.549312 -1.008101
v 36.4602 0.586343 -1.008101
v 36.4602 0.590422 -1.004101
v 36.91078 0.590422 -0.959065
v 36.91078 0.58634 -0.955065
v 36.91078 0.549315 -0.955065
v 36.91078 0.545234 -0.959065
v 36.91078 0.545234 -1.004101
v 36.91078 0.549315 -1.008101
v 36.91078 0.58634 -1.008101
v 36.91078 0.590422 -1.004101
v 36.94719 0.578594 -0.959065
v 36.94232 0.577884 -0.955065
v 36.9405 0.582458 -0.959065
v 36.92381 0.545827 -0.955065
v 36.92177 0.542288 -0.959065
v 36.92177 0.542288 -1.004101
v 36.92381 0.545827 -1.008101
v 36.94719 0.578594 -1.004101
v 36.9405 0.582458 -1.004101
v 36.94232 0.577884 -1.008101
v 36.96894 0.556838 -0.959065
v 36.96541 0.554795 -0.955065
v 36.93335 0.536286 -0.955065
v 36.92981 0.534244 -0.959065
v 36.92981 0.534244 -1.004101
v 36.93335 0.536286 -1.008101
v 36.96541 0.554795 -1.008101
v 36.96894 0.556838 -1.004101
v 36.97794 0.523255 -0.959065
v 36.97386 0.523255 -0.955065
v 36.93684 0.523255 -0.955065
v 36.93276 0.523255 -0.959065
v 36.93276 0.523255 -1.004101
v 36.93684 0.523255 -1.008101
v 36.97386 0.523255 -1.008101
v 36.97794 0.523255 -1.004101
v 36.97387 0.016121 -0.955065
v 36.97794 0.016121 -0.959065
v 36.93276 0.016121 -0.959065
v 36.93683 0.016121 -0.955065
v 36.93683 0.016121 -1.008101
v 36.93276 0.016121 -1.004101
v 36.97794 0.016121 -1.004101
v 36.97387 0.016121 -1.008101
#end vertices

#begin 414 textures vertices 
vt 0.02188057 0.6839119 0
vt 0.01881683 0.6813765 0
vt 0.02135531 0.6798209 0
vt 0.8706723 0.7283355 0
vt 0.8671868 0.7284997 0
vt 0.8672914 0.7249945 0
vt 0.4786519 0.6837985 0
vt 0.4791852 0.6797073 0
vt 0.4817289 0.6813344 0
vt 0.5113021 0.7285027 0
vt 0.5078167 0.7283375 0
vt 0.5111945 0.7249994 0
vt 0.02288311 0.769163 0
vt 0.02221024 0.7733372 0
vt 0.02036766 0.7711552 0
vt 0.8671978 0.7975698 0
vt 0.870672 0.797734 0
vt 0.867303 0.801074 0
vt 0.4774591 0.7688547 0
vt 0.4799779 0.7709107 0
vt 0.4781218 0.7730315 0
vt 0.5112869 0.7975675 0
vt 0.5111822 0.8010698 0
vt 0.5078125 0.7977287 0
vt 0.02188197 0.8445824 0
vt 0.01873851 0.8419933 0
vt 0.02134613 0.8404898 0
vt 0.5078251 0.6299546 0
vt 0.5112997 0.6297908 0
vt 0.5111962 0.6332945 0
vt 0.4786107 0.8444651 0
vt 0.4791541 0.8403726 0
vt 0.4817681 0.8419503 0
vt 0.867193 0.6297888 0
vt 0.8706674 0.6299549 0
vt 0.8672992 0.6332943 0
vt 0.02284038 0.9298229 0
vt 0.02217846 0.933999 0
vt 0.02042076 0.9318028 0
vt 0.5112979 0.5607226 0
vt 0.5078125 0.5605585 0
vt 0.5111907 0.5572188 0
vt 0.4774614 0.9295189 0
vt 0.4798854 0.9315586 0
vt 0.4781136 0.9336971 0
vt 0.8672003 0.5607223 0
vt 0.8673053 0.5572204 0
vt 0.8706858 0.5605614 0
vt 0.5225388 0.8439106 0
vt 0.5201148 0.8418714 0
vt 0.521886 0.8397328 0
vt 0.8667666 0.6444455 0
vt 0.8632923 0.6446083 0
vt 0.8633957 0.641107 0
vt 0.9771608 0.8436064 0
vt 0.9778227 0.8394307 0
vt 0.9795803 0.8416264 0
vt 0.5073978 0.6446101 0
vt 0.5039236 0.644445 0
vt 0.5072917 0.641107 0
vt 0.5213897 0.9289649 0
vt 0.5208463 0.9330565 0
vt 0.5182323 0.93148 0
vt 0.8632929 0.7136769 0
vt 0.8667782 0.7138412 0
vt 0.8634002 0.717182 0
vt 0.9781198 0.9288476 0
vt 0.9812628 0.9314377 0
vt 0.9786545 0.9329394 0
vt 0.5073917 0.7136773 0
vt 0.5072866 0.7171806 0
vt 0.5039062 0.7138385 0
vt 0.9294416 0.5273302 0
vt 0.9295568 0.5249033 0
vt 0.9318811 0.5272554 0
vt 0.02056717 0.1254499 0
vt 0.02297978 0.1234727 0
vt 0.02231459 0.1276416 0
vt 0.9294429 0.7751616 0
vt 0.9318812 0.7752337 0
vt 0.9295559 0.7775808 0
vt 0.4790275 0.1234314 0
vt 0.4821768 0.1260341 0
vt 0.4795625 0.1275268 0
vt 0.8813458 0.5273269 0
vt 0.8789063 0.5272548 0
vt 0.881233 0.5249077 0
vt 0.02190324 0.03834416 0
vt 0.01875332 0.03574162 0
vt 0.02136807 0.03424672 0
vt 0.881347 0.7751592 0
vt 0.881232 0.7775861 0
vt 0.8789062 0.775234 0
vt 0.4779527 0.03830306 0
vt 0.478618 0.03413207 0
vt 0.4803658 0.03632575 0
vt 0.9919413 0.5273238 0
vt 0.9920565 0.5248969 0
vt 0.9943808 0.527249 0
vt 0.0203287 0.6102723 0
vt 0.02285128 0.6079967 0
vt 0.02223562 0.6121316 0
vt 0.9919426 0.7751553 0
vt 0.9943809 0.7752274 0
vt 0.9920556 0.7775745 0
vt 0.4789127 0.6079922 0
vt 0.4820238 0.6103047 0
vt 0.4794734 0.61212 0
vt 0.9438455 0.5273206 0
vt 0.9414063 0.5272485 0
vt 0.9437326 0.5249014 0
vt 0.0217996 0.5228609 0
vt 0.01868817 0.5205486 0
vt 0.02123883 0.5187316 0
vt 0.9438467 0.7751527 0
vt 0.9437316 0.7775797 0
vt 0.9414062 0.7752275 0
vt 0.4778617 0.5228565 0
vt 0.4784774 0.5187201 0
vt 0.4803847 0.5205809 0
vt 0.9450666 0.2668369 0
vt 0.9451818 0.2644099 0
vt 0.9475061 0.2667621 0
vt 0.0203027 0.4487569 0
vt 0.02282339 0.4464855 0
vt 0.02220934 0.4506208 0
vt 0.9450679 0.5146682 0
vt 0.9475062 0.5147404 0
vt 0.9451809 0.5170875 0
vt 0.478882 0.446466 0
vt 0.4819947 0.4487794 0
vt 0.479443 0.4505935 0
vt 0.8969708 0.2668336 0
vt 0.8945313 0.2667614 0
vt 0.896858 0.2644143 0
vt 0.0217636 0.3613567 0
vt 0.01861522 0.3587553 0
vt 0.02122878 0.3572591 0
vt 0.896972 0.5146658 0
vt 0.896857 0.5170928 0
vt 0.8945312 0.5147406 0
vt 0.4778146 0.3613305 0
vt 0.4784813 0.3571599 0
vt 0.4802293 0.3593495 0
vt 0.9489752 0.006333301 0
vt 0.9490888 0.00390625 0
vt 0.951416 0.00625908 0
vt 0.0205712 0.2869534 0
vt 0.02298426 0.2849762 0
vt 0.02231882 0.2891472 0
vt 0.9489734 0.2541781 0
vt 0.9514129 0.2542511 0
vt 0.9490845 0.2565975 0
vt 0.479035 0.2849376 0
vt 0.4821849 0.2875399 0
vt 0.47957 0.289035 0
vt 0.9008768 0.00634394 0
vt 0.8984375 0.006272168 0
vt 0.9007618 0.003924828 0
vt 0.02190845 0.1998473 0
vt 0.01875859 0.1972469 0
vt 0.02137259 0.1957581 0
vt 0.9008802 0.2541627 0
vt 0.900764 0.2565896 0
vt 0.8984422 0.2542376 0
vt 0.4779552 0.1998098 0
vt 0.4786211 0.1956357 0
vt 0.4803675 0.19783 0
vt 0.7792586 0.4495748 0
vt 0.7736477 0.4500199 0
vt 0.7740938 0.4444297 0
vt 0.7354795 0.4500311 0
vt 0.7299147 0.4496175 0
vt 0.7350201 0.4445265 0
vt 0.601056 0.2297246 0
vt 0.6034304 0.2298876 0
vt 0.5828188 0.2279943 0
vt 0.5852009 0.2281595 0
vt 0.7792093 0.5150819 0
vt 0.774071 0.5202387 0
vt 0.7736512 0.5146458 0
vt 0.7298962 0.5150332 0
vt 0.7355107 0.5146009 0
vt 0.7350311 0.5201034 0
vt 0.5349505 0.2299419 0
vt 0.5373253 0.2297783 0
vt 0.5531828 0.2282092 0
vt 0.555565 0.2280434 0
vt 0.5850394 0.004170608 0
vt 0.5826918 0.004174 0
vt 0.5082885 0.00390625 0
vt 0.6006046 0.004120524 0
vt 0.5377844 0.003990871 0
vt 0.5354264 0.003980584 0
vt 0.5556947 0.004063286 0
vt 0.5533473 0.004052253 0
vt 0.8359494 0.5140106 0
vt 0.8303919 0.513569 0
vt 0.8308295 0.5191598 0
vt 0.7922246 0.5135716 0
vt 0.786609 0.513991 0
vt 0.7917637 0.5190758 0
vt 0.7055208 0.2297344 0
vt 0.7031476 0.2298988 0
vt 0.6281789 0.2279244 0
vt 0.6257966 0.2280892 0
vt 0.8359612 0.4485053 0
vt 0.8307789 0.4433527 0
vt 0.8303498 0.4489448 0
vt 0.7866446 0.4485736 0
vt 0.7922084 0.4490001 0
vt 0.7917309 0.4434972 0
vt 0.6760206 0.2298764 0
vt 0.673647 0.229712 0
vt 0.6578004 0.2281361 0
vt 0.6554184 0.2279699 0
vt 0.6261002 0.004087784 0
vt 0.6284493 0.004089615 0
vt 0.7029033 0.00390625 0
vt 0.610527 0.004050303 0
vt 0.6733898 0.003941459 0
vt 0.6757494 0.00393485 0
vt 0.6554664 0.003996044 0
vt 0.6578155 0.003987304 0
vt 0.7750782 0.4319395 0
vt 0.7774842 0.4318349 0
vt 0.7570418 0.432728 0
vt 0.7594724 0.4326223 0
vt 0.7964403 0.4310877 0
vt 0.7988465 0.4309982 0
vt 0.7354573 0.4335691 0
vt 0.7378878 0.4334898 0
vt 0.7490202 0.2447884 0
vt 0.7514054 0.2444411 0
vt 0.7666875 0.2408085 0
vt 0.7690773 0.2403946 0
vt 0.7880634 0.2390311 0
vt 0.7904744 0.2390034 0
vt 0.7277045 0.2457238 0
vt 0.7301046 0.2458043 0
vt 0.7482661 0.2345382 0
vt 0.7505422 0.2354273 0
vt 0.7483514 0.2365998 0
vt 0.7661333 0.2340311 0
vt 0.7686747 0.233922 0
vt 0.7879259 0.2333411 0
vt 0.7902923 0.2333201 0
vt 0.7300266 0.234803 0
vt 0.7300224 0.2369491 0
vt 0.7277659 0.2358556 0
vt 0.7481024 0.2261198 0
vt 0.7503618 0.2262519 0
vt 0.7663841 0.2272655 0
vt 0.7687344 0.2273904 0
vt 0.787883 0.2276642 0
vt 0.7902534 0.2276243 0
vt 0.7279384 0.2260226 0
vt 0.7301763 0.226025 0
vt 0.7489246 0.2169367 0
vt 0.7513162 0.2172545 0
vt 0.7665995 0.2204802 0
vt 0.7689922 0.2208517 0
vt 0.7879409 0.2219966 0
vt 0.790347 0.2220047 0
vt 0.7275636 0.2161337 0
vt 0.7299667 0.2160349 0
vt 0.7585685 0.004995881 0
vt 0.756142 0.004913247 0
vt 0.7767027 0.005616427 0
vt 0.7742961 0.005532024 0
vt 0.7188584 0.00390625 0
vt 0.7956869 0.006244572 0
vt 0.7370003 0.004365316 0
vt 0.734574 0.004302358 0
vt 0.8643511 0.005912793 0
vt 0.8667574 0.006012217 0
vt 0.846312 0.005162346 0
vt 0.8487431 0.005263087 0
vt 0.8857152 0.006718397 0
vt 0.8089886 0.00390625 0
vt 0.8247239 0.004367263 0
vt 0.8271547 0.004441491 0
vt 0.8386681 0.1931067 0
vt 0.8410547 0.193451 0
vt 0.8563444 0.1970745 0
vt 0.8587349 0.1974867 0
vt 0.8777235 0.1988313 0
vt 0.8801347 0.198854 0
vt 0.8173423 0.1922163 0
vt 0.8197425 0.1921324 0
vt 0.837967 0.2033053 0
vt 0.8402384 0.2024227 0
vt 0.8380365 0.2012635 0
vt 0.8558065 0.2038568 0
vt 0.8583429 0.203969 0
vt 0.877592 0.204542 0
vt 0.8799585 0.2045607 0
vt 0.8196439 0.2031567 0
vt 0.8196496 0.200999 0
vt 0.8173968 0.202102 0
vt 0.8378021 0.2115818 0
vt 0.8400591 0.2115221 0
vt 0.8560564 0.2106336 0
vt 0.8584044 0.2105114 0
vt 0.8775519 0.2102404 0
vt 0.8799225 0.2102796 0
vt 0.8176075 0.2119837 0
vt 0.8198481 0.212046 0
vt 0.838593 0.2209871 0
vt 0.8409841 0.2206679 0
vt 0.8562675 0.2174324 0
vt 0.8586605 0.2170613 0
vt 0.8776098 0.2159299 0
vt 0.880016 0.2159256 0
vt 0.8172468 0.2217092 0
vt 0.8196512 0.2218064 0
vt 0.8478717 0.4329169 0
vt 0.8454447 0.4329956 0
vt 0.8660096 0.4323299 0
vt 0.8636027 0.4324099 0
vt 0.8874029 0.4316696 0
vt 0.8849961 0.4317373 0
vt 0.8263028 0.4335024 0
vt 0.8238766 0.433561 0
vt 0.801827 0.2200361 0
vt 0.8015503 0.2113464 0
vt 0.8881216 0.006802673 0
vt 0.8020145 0.1940185 0
vt 0.8081615 0.4339262 0
vt 0.8021403 0.2027019 0
vt 0.711883 0.2265542 0
vt 0.7124872 0.235234 0
vt 0.7121478 0.2178141 0
vt 0.7980934 0.006316779 0
vt 0.7197235 0.4340638 0
vt 0.7123747 0.2439469 0
vt 0.5349883 0.5493476 0
vt 0.6011436 0.5493785 0
vt 0.6035281 0.5493845 0
vt 0.5557378 0.5492957 0
vt 0.5851531 0.5493358 0
vt 0.5373724 0.549342 0
vt 0.5533611 0.5493005 0
vt 0.5827763 0.5493308 0
vt 0.7031726 0.5493055 0
vt 0.7055578 0.5493062 0
vt 0.6258438 0.5492804 0
vt 0.6282215 0.5492765 0
vt 0.6552706 0.5492501 0
vt 0.6576481 0.5492541 0
vt 0.6736432 0.5492851 0
vt 0.6760281 0.5492892 0
vt 0.5078125 0.2299315 0
vt 0.5078514 0.5494065 0
vt 0.6029629 0.004106293 0
vt 0.7052627 0.003909439 0
vt 0.6098477 0.5493119 0
vt 0.6099486 0.2296541 0
vt 0.4969206 0.3357794 0
vt 0.4860607 0.6503865 0
vt 0.005748249 0.65969 0
vt 0.4952984 0.1481442 0
vt 0.00390625 0.7942582 0
vt 0.01413782 0.3269165 0
vt 0.01443588 0.6499808 0
vt 0.00390625 0.3105443 0
vt 0.0141854 0.8027658 0
vt 0.005628576 0.01363474 0
vt 0.486196 0.8030739 0
vt 0.4866626 0.3193754 0
vt 0.4963914 0.7945186 0
vt 0.01412525 0.1575329 0
vt 0.4948102 0.6600099 0
vt 0.01428188 0.1654166 0
vt 0.0144174 0.8106431 0
vt 0.4970311 0.01273577 0
vt 0.005710021 0.8203385 0
vt 0.4952833 0.6329111 0
vt 0.00390625 0.9549121 0
vt 0.0139862 0.6421043 0
vt 0.4948086 0.8206563 0
vt 0.4970297 0.1742349 0
vt 0.4860392 0.8110463 0
vt 0.4963515 0.9551744 0
vt 0.0141673 0.9634276 0
vt 0.005426401 0.4979441 0
vt 0.4861742 0.9637385 0
vt 0.4968096 0.4974747 0
vt 0.5036495 0.8182554 0
vt 0.4952573 0.47138 0
vt 0.5051913 0.952774 0
vt 0.01397239 0.4805993 0
vt 0.9960938 0.8185172 0
vt 0.9858336 0.810002 0
vt 0.5139607 0.9623827 0
vt 0.005493784 0.3366422 0
vt 0.9855837 0.9627859 0
vt 0.9942914 0.9530922 0
vt 0.5138259 0.8096913 0
vt 0.00390625 0.1490435 0
vt 0.4866552 0.1578673 0
vt 0.4868081 0.004241314 0
vt 0.01427519 0.00390625 0
vt 0.00390625 0.6333806 0
vt 0.486538 0.6423763 0
vt 0.4867266 0.4887474 0
vt 0.01417447 0.4884753 0
vt 0.00390625 0.4718859 0
vt 0.4865094 0.4808477 0
vt 0.4866838 0.3272749 0
vt 0.01412948 0.3190383 0
vt 0.4953094 0.3096467 0
vt 0.4868128 0.1657454 0
vt 0.005638941 0.1751375 0
#end 414 textures vertices 

#begin 117 normals 
vn 0.6863 -0.4423 0.5774
vn -0.4423 -0.6863 0.5774
vn 0.6863 -0.4423 -0.5774
vn -0.4423 -0.6863 -0.5774
vn 0.4423 0.6863 0.5774
vn -0.6863 0.4423 0.5774
vn 0.4423 0.6863 -0.5774
vn -0.6863 0.4423 -0.5774
vn 0.8406 -0.5417 -0
vn 0.1495 -0.6911 0.7071
vn -0.5417 -0.8406 -0
vn 0.1495 -0.6911 -0.7071
vn 0.6911 0.1495 -0.7071
vn -0.6911 -0.1495 -0.7071
vn -0.1495 0.6911 -0.7071
vn 0.5417 0.8406 -0
vn -0.8406 0.5417 -0
vn -0.1495 0.6911 0.7071
vn 0.6911 0.1495 0.7071
vn -0.6911 -0.1495 0.7071
vn 0.9774 0.2114 -0
vn 0.2114 -0.9774 -0
vn -0 -0 1
vn -0.9774 -0.2114 -0
vn -0 -0 -1
vn -0.2114 0.9774 -0
vn -0.4423 -0.6863 0.5773
vn -0.4423 -0.6863 -0.5773
vn -0.5774 -0.5773 0.5774
vn -0.5774 0.5773 0.5774
vn -0.5774 -0.5773 -0.5774
vn -0.5774 0.5773 -0.5774
vn 0.5774 -0.5773 0.5774
vn 0.5774 0.5773 0.5773
vn 0.5774 -0.5773 -0.5774
vn 0.5774 0.5773 -0.5773
vn -0.7071 -0.7071 -0
vn -0.7071 -0 0.7071
vn -0.7071 0.7071 -0
vn -0.7071 -0 -0.7071
vn -0 -0.7071 -0.7071
vn -0 0.7071 -0.7071
vn 0.7071 -0 -0.7071
vn 0.7071 -0.7071 -0
vn 0.7071 0.7071 -0
vn 0.7071 -0 0.7071
vn -0 -0.7071 0.7071
vn -0 0.7071 0.7071
vn -0 -1 -0
vn -1 -0 -0
vn -0 -0 1
vn -0 1 -0
vn -0 -0 -1
vn 1 -0 -0
vn 0.5774 0.5773 0.5774
vn 0.5774 0.5773 -0.5774
vn 0.4407 0.6839 0.5815
vn -0.6839 0.4407 0.5815
vn 0.4407 0.6838 -0.5815
vn -0.6839 0.4407 -0.5815
vn 0.6873 0.1486 0.711
vn -0.1495 0.6911 0.7071
vn -0.6873 -0.1486 0.711
vn 0.6873 0.1486 -0.711
vn -0.6873 -0.1486 -0.711
vn -0.1495 0.6911 -0.7071
vn 0.5417 0.8406 -0
vn -0.8406 0.5417 -0
vn -0.7111 -0 -0.7031
vn -0.7111 -0 0.7031
vn 0.7111 -0 0.7031
vn 0.7111 -0 -0.7031
vn 0.9774 0.2114 -0
vn -0 -0 1
vn -0.2114 0.9774 -0
vn -0.9774 -0.2114 -0
vn 1 -0 -0
vn -1 -0 -0
vn -0 -0 -1
vn 0.4407 0.6839 -0.5815
vn 0.4407 0.6838 0.5815
vn 0.3976 0.6886 -0.6064
vn 0.3976 0.6886 0.6064
vn -0 0.7001 0.7141
vn -0 0.7001 -0.7141
vn -0 -0.7001 -0.7141
vn -0 -0.7001 0.7141
vn 0.5 0.866 -0
vn 0.1844 0.6878 0.7021
vn 0.1844 0.6878 -0.7021
vn -0.1842 -0.6878 -0.7021
vn -0.1842 -0.6878 0.7021
vn -0.5034 -0.5033 0.7023
vn 0.5034 0.5033 0.7023
vn -0.5034 -0.5033 -0.7023
vn 0.5034 0.5033 -0.7023
vn -0.6878 -0.1841 -0.7021
vn -0.6878 -0.1841 0.7021
vn 0.6878 0.1843 0.7021
vn 0.6878 0.1843 -0.7021
vn 0.7001 -0 -0.714
vn 0.7001 -0 0.714
vn -0.7001 -0 -0.714
vn -0.7001 -0 0.714
vn -0 -0 -1
vn -0 -1 -0
vn -0 1 -0
vn -0 -0 1
vn 0.2588 0.9659 -0
vn -0.2589 -0.9659 -0
vn 0.7071 0.7071 -0
vn -0.7072 -0.7071 -0
vn 0.9659 0.2588 -0
vn -0.9659 -0.2588 -0
vn 1 -0 -0
vn -1 -0 -0
vn -0 0.7001 -0.714
#end 117 normals 

#begin 318 faces
o Cube:699
s 0
f 1/1/1 2/2/1 3/3/1 
f 4/4/2 5/5/2 6/6/2 
f 7/7/3 8/8/3 9/9/3 
f 10/10/4 11/11/4 12/12/4 
f 13/13/5 14/14/5 15/15/5 
f 16/16/6 17/17/6 18/18/6 
f 19/19/7 20/20/7 21/21/7 
f 22/22/8 23/23/8 24/24/8 
f 7/7/9 1/1/9 3/3/9 8/8/9 
f 2/2/10 4/361/10 6/365/10 3/3/10 
f 5/5/11 10/10/11 12/12/11 6/6/11 
f 11/373/12 9/9/12 8/8/12 12/360/12 
f 19/19/13 7/7/13 9/9/13 20/20/13 
f 10/10/14 22/22/14 24/24/14 11/11/14 
f 23/369/15 21/21/15 20/20/15 24/371/15 
f 13/13/16 19/19/16 21/21/16 14/14/16 
f 22/22/17 16/16/17 18/18/17 23/23/17 
f 17/363/18 15/15/18 14/14/18 18/367/18 
f 1/1/19 13/13/19 15/15/19 2/2/19 
f 16/16/20 5/5/20 4/4/20 17/17/20 
f 7/7/21 19/19/21 13/13/21 1/1/21 
f 3/3/22 6/365/22 12/360/22 8/8/22 
f 15/15/23 17/363/23 4/361/23 2/2/23 
f 22/22/24 10/10/24 5/5/24 16/16/24 
f 9/9/25 11/373/25 24/371/25 20/20/25 
f 21/21/26 23/369/26 18/367/26 14/14/26 
f 25/25/1 26/26/1 27/27/1 
f 28/28/2 29/29/2 30/30/2 
f 31/31/3 32/32/3 33/33/3 
f 34/34/4 35/35/4 36/36/4 
f 37/37/5 38/38/5 39/39/5 
f 40/40/6 41/41/6 42/42/6 
f 43/43/7 44/44/7 45/45/7 
f 46/46/8 47/47/8 48/48/8 
f 31/31/9 25/25/9 27/27/9 32/32/9 
f 26/26/10 28/377/10 30/375/10 27/27/10 
f 29/29/11 34/34/11 36/36/11 30/30/11 
f 35/381/12 33/33/12 32/32/12 36/383/12 
f 43/43/13 31/31/13 33/33/13 44/44/13 
f 34/34/14 46/46/14 48/48/14 35/35/14 
f 47/387/15 45/45/15 44/44/15 48/384/15 
f 37/37/16 43/43/16 45/45/16 38/38/16 
f 46/46/17 40/40/17 42/42/17 47/47/17 
f 41/379/18 39/39/18 38/38/18 42/385/18 
f 25/25/19 37/37/19 39/39/19 26/26/19 
f 40/40/20 29/29/20 28/28/20 41/41/20 
f 31/31/21 43/43/21 37/37/21 25/25/21 
f 27/27/22 30/375/22 36/383/22 32/32/22 
f 39/39/23 41/379/23 28/377/23 26/26/23 
f 46/46/24 34/34/24 29/29/24 40/40/24 
f 33/33/25 35/381/25 48/384/25 44/44/25 
f 45/45/26 47/387/26 42/385/26 38/38/26 
f 49/49/1 50/50/1 51/51/1 
f 52/52/27 53/53/27 54/54/27 
f 55/55/3 56/56/3 57/57/3 
f 58/58/28 59/59/28 60/60/28 
f 61/61/5 62/62/5 63/63/5 
f 64/64/6 65/65/6 66/66/6 
f 67/67/7 68/68/7 69/69/7 
f 70/70/8 71/71/8 72/72/8 
f 55/55/9 49/49/9 51/51/9 56/56/9 
f 50/50/10 52/389/10 54/399/10 51/51/10 
f 53/53/11 58/58/11 60/60/11 54/54/11 
f 59/393/12 57/57/12 56/56/12 60/394/12 
f 67/67/13 55/55/13 57/57/13 68/68/13 
f 58/58/14 70/70/14 72/72/14 59/59/14 
f 71/397/15 69/69/15 68/68/15 72/398/15 
f 61/61/16 67/67/16 69/69/16 62/62/16 
f 70/70/17 64/64/17 66/66/17 71/71/17 
f 65/391/18 63/63/18 62/62/18 66/395/18 
f 49/49/19 61/61/19 63/63/19 50/50/19 
f 64/64/20 53/53/20 52/52/20 65/65/20 
f 55/55/21 67/67/21 61/61/21 49/49/21 
f 51/51/22 54/399/22 60/394/22 56/56/22 
f 63/63/23 65/391/23 52/389/23 50/50/23 
f 70/70/24 58/58/24 53/53/24 64/64/24 
f 57/57/25 59/393/25 72/398/25 68/68/25 
f 69/69/26 71/397/26 66/395/26 62/62/26 
o Cube:700
s 0
f 73/73/29 74/74/29 75/75/29 
f 76/76/30 77/77/30 78/78/30 
f 79/79/31 80/80/31 81/81/31 
f 82/82/32 83/83/32 84/84/32 
f 85/85/33 86/86/33 87/87/33 
f 88/88/34 89/89/34 90/90/34 
f 91/91/35 92/92/35 93/93/35 
f 94/94/36 95/95/36 96/96/36 
f 79/79/37 73/73/37 75/75/37 80/80/37 
f 74/400/38 76/76/38 78/78/38 75/372/38 
f 77/77/39 82/82/39 84/84/39 78/78/39 
f 83/83/40 81/362/40 80/401/40 84/84/40 
f 91/91/41 79/79/41 81/81/41 92/92/41 
f 82/82/42 94/94/42 96/96/42 83/83/42 
f 95/95/43 93/402/43 92/376/43 96/96/43 
f 85/85/44 91/91/44 93/93/44 86/86/44 
f 94/94/45 88/88/45 90/90/45 95/95/45 
f 89/89/46 87/368/46 86/403/46 90/90/46 
f 73/73/47 85/85/47 87/87/47 74/74/47 
f 88/88/48 77/77/48 76/76/48 89/89/48 
f 79/79/49 91/91/49 85/85/49 73/73/49 
f 75/372/50 78/78/50 84/84/50 80/401/50 
f 87/368/51 89/89/51 76/76/51 74/400/51 
f 94/94/52 82/82/52 77/77/52 88/88/52 
f 81/362/53 83/83/53 96/96/53 92/376/53 
f 93/402/54 95/95/54 90/90/54 86/403/54 
f 97/97/29 98/98/29 99/99/29 
f 100/100/30 101/101/30 102/102/30 
f 103/103/31 104/104/31 105/105/31 
f 106/106/32 107/107/32 108/108/32 
f 109/109/33 110/110/33 111/111/33 
f 112/112/55 113/113/55 114/114/55 
f 115/115/35 116/116/35 117/117/35 
f 118/118/56 119/119/56 120/120/56 
f 103/103/37 97/97/37 99/99/37 104/104/37 
f 98/404/38 100/100/38 102/102/38 99/380/38 
f 101/101/39 106/106/39 108/108/39 102/102/39 
f 107/107/40 105/378/40 104/405/40 108/108/40 
f 115/115/41 103/103/41 105/105/41 116/116/41 
f 106/106/42 118/118/42 120/120/42 107/107/42 
f 119/119/43 117/406/43 116/388/43 120/120/43 
f 109/109/44 115/115/44 117/117/44 110/110/44 
f 118/118/45 112/112/45 114/114/45 119/119/45 
f 113/113/46 111/386/46 110/407/46 114/114/46 
f 97/97/47 109/109/47 111/111/47 98/98/47 
f 112/112/48 101/101/48 100/100/48 113/113/48 
f 103/103/49 115/115/49 109/109/49 97/97/49 
f 99/380/50 102/102/50 108/108/50 104/405/50 
f 111/386/51 113/113/51 100/100/51 98/404/51 
f 118/118/52 106/106/52 101/101/52 112/112/52 
f 105/378/53 107/107/53 120/120/53 116/388/53 
f 117/406/54 119/119/54 114/114/54 110/407/54 
f 121/121/29 122/122/29 123/123/29 
f 124/124/30 125/125/30 126/126/30 
f 127/127/31 128/128/31 129/129/31 
f 130/130/32 131/131/32 132/132/32 
f 133/133/33 134/134/33 135/135/33 
f 136/136/55 137/137/55 138/138/55 
f 139/139/35 140/140/35 141/141/35 
f 142/142/56 143/143/56 144/144/56 
f 127/127/37 121/121/37 123/123/37 128/128/37 
f 122/408/38 124/124/38 126/126/38 123/392/38 
f 125/125/39 130/130/39 132/132/39 126/126/39 
f 131/131/40 129/390/40 128/409/40 132/132/40 
f 139/139/41 127/127/41 129/129/41 140/140/41 
f 130/130/42 142/142/42 144/144/42 131/131/42 
f 143/143/43 141/410/43 140/359/43 144/144/43 
f 133/133/44 139/139/44 141/141/44 134/134/44 
f 142/142/45 136/136/45 138/138/45 143/143/45 
f 137/137/46 135/396/46 134/364/46 138/138/46 
f 121/121/47 133/133/47 135/135/47 122/122/47 
f 136/136/48 125/125/48 124/124/48 137/137/48 
f 127/127/49 139/139/49 133/133/49 121/121/49 
f 123/392/50 126/126/50 132/132/50 128/409/50 
f 135/396/51 137/137/51 124/124/51 122/408/51 
f 142/142/52 130/130/52 125/125/52 136/136/52 
f 129/390/53 131/131/53 144/144/53 140/359/53 
f 141/410/54 143/143/54 138/138/54 134/364/54 
f 145/145/29 146/146/29 147/147/29 
f 148/148/30 149/149/30 150/150/30 
f 151/151/31 152/152/31 153/153/31 
f 154/154/32 155/155/32 156/156/32 
f 157/157/33 158/158/33 159/159/33 
f 160/160/55 161/161/55 162/162/55 
f 163/163/35 164/164/35 165/165/35 
f 166/166/56 167/167/56 168/168/56 
f 151/151/37 145/145/37 147/147/37 152/152/37 
f 146/366/38 148/148/38 150/150/38 147/411/38 
f 149/149/39 154/154/39 156/156/39 150/150/39 
f 155/155/40 153/412/40 152/370/40 156/156/40 
f 163/163/41 151/151/41 153/153/41 164/164/41 
f 154/154/42 166/166/42 168/168/42 155/155/42 
f 167/167/43 165/413/43 164/382/43 168/168/43 
f 157/157/44 163/163/44 165/165/44 158/158/44 
f 166/166/45 160/160/45 162/162/45 167/167/45 
f 161/161/46 159/414/46 158/374/46 162/162/46 
f 145/145/47 157/157/47 159/159/47 146/146/47 
f 160/160/48 149/149/48 148/148/48 161/161/48 
f 151/151/49 163/163/49 157/157/49 145/145/49 
f 147/411/50 150/150/50 156/156/50 152/370/50 
f 159/414/51 161/161/51 148/148/51 146/366/51 
f 166/166/52 154/154/52 149/149/52 160/160/52 
f 153/412/53 155/155/53 168/168/53 164/382/53 
f 165/413/54 167/167/54 162/162/54 158/374/54 
o Cube:712
s 0
f 169/169/57 170/170/57 171/171/57 
f 172/172/58 173/173/58 174/174/58 
f 179/179/59 180/180/59 181/181/59 
f 182/182/60 183/183/60 184/184/60 
f 176/176/61 169/339/61 171/338/61 175/175/61 
f 170/170/62 172/172/62 174/174/62 171/171/62 
f 173/344/63 177/177/63 178/178/63 174/341/63 
f 179/337/64 185/185/64 186/186/64 180/342/64 
f 188/188/65 182/340/65 184/343/65 187/187/65 
f 183/183/66 181/181/66 180/180/66 184/184/66 
f 169/169/67 179/179/67 181/181/67 170/170/67 
f 182/182/68 173/173/68 172/172/68 183/183/68 
f 187/187/69 196/196/69 195/195/69 188/188/69 
f 189/189/70 178/178/70 177/177/70 190/190/70 
f 191/355/71 176/176/71 175/175/71 192/192/71 
f 185/185/72 194/194/72 193/193/72 186/186/72 
f 176/353/73 185/185/73 179/337/73 169/354/73 
f 171/338/74 174/341/74 178/178/74 175/175/74 
f 181/181/75 183/183/75 172/172/75 170/170/75 
f 188/188/76 177/177/76 173/344/76 182/340/76 
f 185/185/77 176/353/77 191/191/77 194/194/77 
f 175/175/74 178/178/74 189/189/74 192/192/74 
f 177/177/78 188/188/78 195/195/78 190/190/78 
f 186/186/79 187/187/79 184/343/79 180/342/79 
f 187/187/79 186/186/79 193/193/79 196/196/79 
f 197/197/80 199/199/80 198/198/80 
f 200/200/60 202/202/60 201/201/60 
f 207/207/81 209/209/81 208/208/81 
f 210/210/58 212/212/58 211/211/58 
f 204/204/64 203/203/64 199/346/64 197/345/64 
f 198/198/66 199/199/66 202/202/66 200/200/66 
f 201/348/65 202/347/65 206/206/65 205/205/65 
f 207/352/61 208/351/61 214/214/61 213/213/61 
f 216/216/63 215/215/63 212/350/63 210/349/63 
f 211/211/62 212/212/62 208/208/62 209/209/62 
f 197/197/67 198/198/67 209/209/67 207/207/67 
f 210/210/68 211/211/68 200/200/68 201/201/68 
f 215/215/70 216/216/70 223/223/70 224/224/70 
f 217/217/69 218/218/69 205/205/69 206/206/69 
f 219/219/72 220/356/72 203/203/72 204/204/72 
f 213/213/71 214/214/71 221/221/71 222/222/71 
f 204/204/73 197/345/73 207/352/73 213/213/73 
f 199/357/79 203/358/79 206/206/79 202/347/79 
f 209/209/75 198/198/75 200/200/75 211/211/75 
f 216/216/76 210/349/76 201/348/76 205/205/76 
f 213/213/77 222/222/77 219/219/77 204/204/77 
f 203/358/79 220/220/79 217/217/79 206/206/79 
f 205/205/78 218/218/78 223/223/78 216/216/78 
f 214/214/74 208/351/74 212/350/74 215/215/74 
f 215/215/74 224/224/74 221/221/74 214/214/74 
o Cube:713
s 0
f 241/241/82 242/242/82 243/243/82 
f 248/248/83 249/249/83 250/250/83 
f 231/231/84 239/239/84 240/240/84 232/232/84 
f 234/234/85 228/228/85 227/227/85 233/233/85 
f 236/236/86 226/226/86 225/225/86 235/235/86 
f 229/229/87 237/237/87 238/238/87 230/230/87 
f 243/243/88 249/249/88 248/248/88 241/241/88 
f 239/239/89 250/250/89 249/249/89 240/240/89 
f 242/242/90 234/234/90 233/233/90 243/243/90 
f 245/245/91 236/236/91 235/235/91 244/244/91 
f 237/237/92 246/246/92 247/247/92 238/238/92 
f 246/246/93 255/255/93 256/256/93 247/247/93 
f 258/258/94 248/248/94 250/250/94 257/257/94 
f 244/244/95 253/253/95 254/254/95 245/245/95 
f 252/252/96 242/242/96 241/241/96 251/251/96 
f 253/253/97 261/261/97 262/262/97 254/254/97 
f 264/264/98 256/256/98 255/255/98 263/263/98 
f 257/257/99 265/265/99 266/266/99 258/258/99 
f 260/260/100 252/252/100 251/251/100 259/259/100 
f 267/267/101 260/260/101 259/259/101 268/268/101 
f 265/265/102 274/274/102 273/273/102 266/266/102 
f 269/269/103 262/262/103 261/261/103 270/270/103 
f 263/263/104 272/272/104 271/334/104 264/264/104 
f 225/225/105 228/228/105 234/234/105 235/235/105 
f 229/229/106 226/226/106 236/236/106 237/237/106 
f 227/227/107 232/232/107 240/240/107 233/233/107 
f 231/231/108 230/335/108 238/336/108 239/239/108 
f 235/235/105 234/234/105 242/242/105 244/244/105 
f 233/233/109 240/240/109 249/249/109 243/243/109 
f 237/237/110 236/236/110 245/245/110 246/246/110 
f 239/239/108 238/336/108 247/332/108 250/250/108 
f 244/244/105 242/242/105 252/252/105 253/253/105 
f 241/241/111 248/248/111 258/258/111 251/251/111 
f 246/246/112 245/245/112 254/254/112 255/255/112 
f 250/250/108 247/332/108 256/331/108 257/257/108 
f 253/253/105 252/252/105 260/260/105 261/261/105 
f 251/251/113 258/258/113 266/266/113 259/259/113 
f 255/255/114 254/254/114 262/262/114 263/263/114 
f 257/257/108 256/331/108 264/333/108 265/265/108 
f 261/261/105 260/260/105 267/267/105 270/270/105 
f 259/259/115 266/266/115 273/273/115 268/268/115 
f 263/263/116 262/262/116 269/269/116 272/272/116 
f 265/265/108 264/333/108 271/271/108 274/274/108 
f 291/291/83 293/293/83 292/292/83 
f 298/298/82 300/300/82 299/299/82 
f 281/281/117 282/282/117 290/290/117 289/289/117 
f 284/284/84 283/283/84 277/277/84 278/278/84 
f 286/286/87 285/285/87 275/275/87 276/276/87 
f 279/279/86 280/327/86 288/288/86 287/287/86 
f 293/293/88 291/291/88 298/298/88 299/299/88 
f 289/289/90 290/290/90 299/299/90 300/300/90 
f 292/292/89 293/293/89 283/283/89 284/284/89 
f 295/295/92 294/294/92 285/285/92 286/286/92 
f 287/287/91 288/288/91 297/297/91 296/296/91 
f 296/296/95 297/297/95 306/306/95 305/305/95 
f 308/308/96 307/307/96 300/300/96 298/298/96 
f 294/294/93 295/295/93 304/304/93 303/303/93 
f 302/302/94 301/301/94 291/291/94 292/292/94 
f 303/303/98 304/304/98 312/312/98 311/311/98 
f 314/314/97 313/313/97 305/305/97 306/306/97 
f 307/307/100 308/308/100 316/316/100 315/315/100 
f 310/310/99 309/309/99 301/301/99 302/302/99 
f 317/317/102 318/318/102 309/309/102 310/310/102 
f 315/315/101 316/316/101 323/323/101 324/324/101 
f 319/319/104 320/320/104 311/311/104 312/312/104 
f 313/313/103 314/314/103 321/321/103 322/322/103 
f 275/275/108 285/285/108 284/284/108 278/278/108 
f 279/279/106 287/287/106 286/286/106 276/276/106 
f 277/277/107 283/283/107 290/290/107 282/282/107 
f 281/281/105 289/289/105 288/328/105 280/280/105 
f 285/285/108 294/294/108 292/292/108 284/284/108 
f 283/283/109 293/293/109 299/299/109 290/290/109 
f 287/287/110 296/296/110 295/295/110 286/286/110 
f 289/289/105 300/300/105 297/330/105 288/328/105 
f 294/294/108 303/303/108 302/302/108 292/292/108 
f 291/291/111 301/301/111 308/308/111 298/298/111 
f 296/296/112 305/305/112 304/304/112 295/295/112 
f 300/300/105 307/307/105 306/326/105 297/330/105 
f 303/303/108 311/311/108 310/310/108 302/302/108 
f 301/301/113 309/309/113 316/316/113 308/308/113 
f 305/305/114 313/313/114 312/312/114 304/304/114 
f 307/307/105 315/315/105 314/325/105 306/326/105 
f 311/311/108 320/320/108 317/317/108 310/310/108 
f 309/309/115 318/318/115 323/323/115 316/316/115 
f 313/313/116 322/322/116 319/319/116 312/312/116 
f 315/315/105 324/324/105 321/329/105 314/325/105 
#end 318 faces

#ZOMPROPERTIES_04{
#ZOMPROPERTIES_04 table {Mesh table {SymPlane table {Point vector3d 0 0 0 Normal vector3d 1 0 0 Threshold double 0.01 
#ZOMPROPERTIES_04 Enabled bool false EdgeID int -1 SymEdgeID int -1 UPos double 0.5 LocalMode bool false } RootGroup C
#ZOMPROPERTIES_04 SubMeshGroup {Children table {Tile_0_0 CSubMeshGroup {Children table {} BBoxUV box3d 0 0 0 0 0 0 BBo
#ZOMPROPERTIES_04 x3D box3d 0 0 0 0 0 0 Area3D double 0 AreaUV double 0.840678 IsRoot bool false Properties table {Sel
#ZOMPROPERTIES_04 ected bool false Box box3d 0 1 0 1 0 1 U int 0 V int 0 NU int 0 NV int 0 Tiling vector3d 1 1 1 TileR
#ZOMPROPERTIES_04 atioMode string "1:1" Overflow string "Off" Pack table {BoxFrameEdit bool false Behavior string "Fre
#ZOMPROPERTIES_04 e" } } IsTile bool true PolyIDs ints { 207 217 209 216 210 218 208 212 225 182 187 183 193 185 191 2
#ZOMPROPERTIES_04 00 184 192 104 122 108 119 110 116 106 112 124 156 174 160 171 162 168 158 164 176 130 148 134 145 1
#ZOMPROPERTIES_04 36 142 132 138 150 78 96 82 93 84 90 80 86 98 53 62 55 65 59 68 57 71 75 27 45 49 36 29 39 33 42 31 
#ZOMPROPERTIES_04 1 10 3 13 7 16 5 19 23 275 281 276 282 277 300 303 283 278 298 302 306 310 293 289 311 292 287 313 3
#ZOMPROPERTIES_04 17 309 295 315 294 307 314 296 290 312 316 297 291 286 285 280 299 279 304 284 308 288 301 305 232 2
#ZOMPROPERTIES_04 38 233 239 262 266 270 249 244 268 264 246 250 267 263 259 255 235 257 260 234 258 240 236 256 261 2
#ZOMPROPERTIES_04 65 269 273 253 271 254 247 248 245 243 241 242 237 251 272 252 274 211 221 227 222 231 219 229 220 2
#ZOMPROPERTIES_04 28 224 213 226 215 230 214 223 186 196 203 199 188 201 204 194 206 197 202 198 189 205 190 195 0 18 
#ZOMPROPERTIES_04 22 9 17 4 15 6 14 24 11 21 8 2 12 20 25 52 61 74 69 77 66 58 64 72 70 76 63 73 60 54 67 56 26 35 48 
#ZOMPROPERTIES_04 43 51 40 50 37 47 28 34 38 46 41 32 30 44 105 114 107 115 128 118 129 121 126 113 109 123 120 127 11
#ZOMPROPERTIES_04 1 117 125 157 166 159 167 180 170 181 173 178 161 175 172 179 163 169 177 165 131 140 133 141 154 14
#ZOMPROPERTIES_04 4 155 147 152 139 135 149 146 153 137 143 151 79 88 81 89 102 92 103 95 100 83 97 94 101 85 91 99 87
#ZOMPROPERTIES_04  } } } BBoxUV box3d 0 0 0 0 0 0 BBox3D box3d 0 0 0 0 0 0 Area3D double 0 AreaUV double 0 IsRoot bool
#ZOMPROPERTIES_04  true Properties table {Selected bool false Box box3d 0 1 0 1 0 1 U int 0 V int 0 NU int 1 NV int 1 
#ZOMPROPERTIES_04 Tiling vector3d 1 1 1 TileRatioMode string "1:1" Overflow string "Off" Pack table {Rotate table {Mod
#ZOMPROPERTIES_04 e int 0 Min double 0 Max double 90 Step double 0 } PaddingSize double 0.0078125 MarginSize double 0.
#ZOMPROPERTIES_04 00390625 Resolution int 256 MapResolution int 2048 Scaling table {TexelDensity double 1024 Mode int 
#ZOMPROPERTIES_04 2 } LayoutScalingMode int 2 MaxMutations int 1 } } IsTile bool false PolyIDs ints { } } Maps table {
#ZOMPROPERTIES_04 Density table {PrimType string "Polygon" Size int 1 DefaultValue double 1 ScaleType string "Log" Mer
#ZOMPROPERTIES_04 geMode string "Average" MinValue double 0.1 MaxValue double 4 Data doubles { r 318 1 } } Pin table {
#ZOMPROPERTIES_04 PrimType string "Vertex" Size int 1 DefaultValue double 0 ScaleType string "Normalized" MergeMode st
#ZOMPROPERTIES_04 ring "Max" MinValue double 0 MaxValue double 1 Data doubles { r 414 0 } } Protect table {PrimType st
#ZOMPROPERTIES_04 ring "Vertex" Size int 1 DefaultValue double 0 ScaleType string "Normalized" MergeMode string "Avera
#ZOMPROPERTIES_04 ge" MinValue double -1 MaxValue double 1 Data doubles { r 414 0 } } } } }
#ZOMPROPERTIES_04}


#ZOMSCENE_01{
#ZOMSCENE_01 CScene {Settings table {AxisSystem table {UpVector string "y" } Unit string "cm" TexelDensityDisplay
#ZOMSCENE_01 Unit string "tx/cm" } }
#ZOMSCENE_01}

#begin 0 fatal error vertex (that RizomUV cannot handle)
#end 0 fatal error vertex (that RizomUV cannot handle)

#begin 0 error vertex
#end 0 error vertex
