#File written by RizomUV 2022.1.57.gfabcfb8. Compilation :Sep 28 2022,23:52:22
mtllib 20 Low.mtl
#begin vertices
v -71.62769 4.899099 34.93554
v -73.78027 4.8991 55.14291
v -71.07577 4.8991 36.55864
v -69.95632 24.1554 40.77251
v -69.95632 24.1554 47.06515
v -71.62564 24.1554 34.93554
v -73.78027 24.1554 55.14291
v -71.07577 24.1554 36.55864
v -83.80736 4.8991 35.81602
v -83.80736 24.1554 35.81602
v -83.80736 4.8991 34.97954
v -83.76336 4.8991 34.93554
v -69.95632 4.9431 40.77251
v -69.95632 4.8991 40.8165
v -70.00032 4.8991 40.77251
v -69.95632 4.8991 47.02115
v -69.95632 4.9431 47.06515
v -70.00032 4.8991 47.06515
v -70.99126 4.8991 52.42972
v -71.02235 4.8991 52.50413
v -71.07577 4.8991 40.7285
v -71.03178 4.8991 40.77251
v -71.11977 4.8991 34.93554
v -71.07577 4.8991 34.97954
v -71.03178 4.8991 47.06515
v -71.07508 4.8991 47.10914
v -69.25801 4.9431 40.8165
v -69.30201 4.8991 40.8165
v -69.30201 4.9431 40.77251
v -69.30201 4.9431 47.06515
v -69.30201 4.8991 47.02115
v -69.25801 4.9431 47.02115
v -83.76336 24.1554 34.93554
v -83.80736 24.1554 34.97954
v -71.02235 24.1554 52.50413
v -70.99126 24.1554 52.42972
v -71.03178 24.1554 40.77251
v -71.07577 24.1554 40.7285
v -71.07577 24.1554 34.97954
v -71.11977 24.1554 34.93554
v -71.07508 24.1554 47.10914
v -71.03178 24.1554 47.06515
v -69.25801 24.1554 40.8165
v -69.30201 24.1554 40.77251
v -69.30201 24.1554 47.06515
v -69.25801 24.1554 47.02115
v -69.35403 6.282228 40.90828
v -69.35403 5.173671 40.90828
v -69.35403 6.282228 35.04319
v -69.35403 5.173671 35.04319
v -71.13628 6.282228 35.04319
v -71.13628 5.173671 35.04319
v -69.35403 9.062228 40.90828
v -69.35403 7.953671 40.90828
v -69.35403 9.062228 35.04319
v -69.35403 7.953671 35.04319
v -71.13628 9.062228 35.04319
v -71.13628 7.953671 35.04319
v -69.35403 11.84223 40.90828
v -69.35403 10.73367 40.90828
v -69.35403 11.84223 35.04319
v -69.35403 10.73367 35.04319
v -71.13628 11.84223 35.04319
v -71.13628 10.73367 35.04319
v -69.35403 14.62223 40.90828
v -69.35403 13.51367 40.90828
v -69.35403 14.62223 35.04319
v -69.35403 13.51367 35.04319
v -71.13628 14.62223 35.04319
v -71.13628 13.51367 35.04319
v -69.35403 17.40223 40.90828
v -69.35403 16.29367 40.90828
v -69.35403 17.40223 35.04319
v -69.35403 16.29367 35.04319
v -71.13628 17.40223 35.04319
v -71.13628 16.29367 35.04319
v -69.35403 20.18223 40.90828
v -69.35403 19.07367 40.90828
v -69.35403 20.18223 35.04319
v -69.35403 19.07367 35.04319
v -71.13628 20.18223 35.04319
v -71.13628 19.07367 35.04319
v -69.35403 22.96223 40.90828
v -69.35403 21.85367 40.90828
v -69.35403 22.96223 35.04319
v -69.35403 21.85367 35.04319
v -71.13628 22.96223 35.04319
v -71.13628 21.85367 35.04319
v -69.35403 6.282228 53.2069
v -69.35403 5.173671 53.2069
v -69.35403 6.282228 47.04355
v -69.35403 5.173671 47.04355
v -73.5126 6.282228 57.27352
v -73.5126 5.173671 57.27352
v -69.35403 9.062228 53.2069
v -69.35403 7.953671 53.2069
v -69.35403 9.062228 47.04355
v -69.35403 7.953671 47.04355
v -73.5126 9.062228 57.27352
v -73.5126 7.953671 57.27352
v -69.35403 11.84223 53.2069
v -69.35403 10.73367 53.2069
v -69.35403 11.84223 47.04355
v -69.35403 10.73367 47.04355
v -73.5126 11.84223 57.27352
v -73.5126 10.73367 57.27352
v -69.35403 14.62223 53.2069
v -69.35403 13.51367 53.2069
v -69.35403 14.62223 47.04355
v -69.35403 13.51367 47.04355
v -73.5126 14.62223 57.27352
v -73.5126 13.51367 57.27352
v -69.35403 17.40223 53.2069
v -69.35403 16.29367 53.2069
v -69.35403 17.40223 47.04355
v -69.35403 16.29367 47.04355
v -73.5126 17.40223 57.27352
v -73.5126 16.29367 57.27352
v -69.35403 20.18223 53.2069
v -69.35403 19.07367 53.2069
v -69.35403 20.18223 47.04355
v -69.35403 19.07367 47.04355
v -73.5126 20.18223 57.27352
v -73.5126 19.07367 57.27352
v -69.35403 22.96223 53.2069
v -69.35403 21.85367 53.2069
v -69.35403 22.96223 47.04355
v -69.35403 21.85367 47.04355
v -73.5126 22.96223 57.27352
v -73.5126 21.85367 57.27352
v -74.44398 5.207618 55.11513
v -73.37219 5.207618 57.20779
v -74.44398 7.987618 55.11513
v -73.37219 7.987618 57.20779
v -74.44398 10.76762 55.11513
v -73.37219 10.76762 57.20779
v -74.44398 13.54762 55.11513
v -73.37219 13.54762 57.20779
v -74.44398 16.32762 55.11513
v -73.37219 16.32762 57.20779
v -74.44398 19.10762 55.11513
v -73.37219 19.10762 57.20779
v -74.44398 21.88762 55.11513
v -73.37219 21.88762 57.20779
v -71.53354 4.903625 52.23615
v -71.51751 4.887625 52.25909
v -71.54484 4.903625 52.26337
v -71.53354 5.207618 52.23615
v -71.54484 5.207618 52.26337
v -71.64098 4.903625 34.99719
v -71.62507 4.903625 34.98119
v -71.62498 4.887625 34.99719
v -71.62507 5.207618 34.98119
v -71.64098 5.207618 34.99719
v -69.27901 4.903625 53.21838
v -69.29048 4.903625 53.24553
v -69.29493 4.887625 53.22744
v -69.29048 5.207618 53.24553
v -69.27901 5.207618 53.21838
v -69.30263 4.887625 34.99719
v -69.30264 4.903625 34.98119
v -69.28664 4.903625 34.99719
v -69.28664 5.207618 34.99719
v -69.30264 5.207618 34.98119
v -74.44398 4.903625 55.11513
v -74.43629 4.887625 55.13016
v -73.37985 4.887625 57.19282
v -73.37219 4.903625 57.20779
v -71.55034 4.887625 47.08249
v -71.56622 4.903625 47.08249
v -71.55032 4.903625 47.06649
v -71.59143 4.887625 40.75552
v -71.59134 4.903625 40.77152
v -71.60743 4.903625 40.75552
v -71.60743 5.207618 40.75552
v -71.59134 5.207618 40.77152
v -71.55032 5.207618 47.06649
v -71.56622 5.207618 47.08249
v -69.29958 4.887625 40.75543
v -69.28357 4.903625 40.75543
v -69.29956 4.903625 40.77143
v -69.29872 4.887625 47.08249
v -69.29881 4.903625 47.06649
v -69.28279 4.903625 47.08249
v -69.28279 5.207618 47.08249
v -69.29881 5.207618 47.06649
v -69.29956 5.207618 40.77143
v -69.28357 5.207618 40.75543
v -71.53354 7.683625 52.23615
v -71.51751 7.667625 52.25909
v -71.54484 7.683625 52.26337
v -71.53354 7.987618 52.23615
v -71.54484 7.987618 52.26337
v -71.64098 7.683625 34.99719
v -71.62507 7.683625 34.98119
v -71.62498 7.667625 34.99719
v -71.62507 7.987618 34.98119
v -71.64098 7.987618 34.99719
v -69.27901 7.683625 53.21838
v -69.29048 7.683625 53.24553
v -69.29493 7.667624 53.22744
v -69.29048 7.987618 53.24553
v -69.27901 7.987618 53.21838
v -69.30263 7.667625 34.99719
v -69.30264 7.683625 34.98119
v -69.28664 7.683625 34.99719
v -69.28664 7.987618 34.99719
v -69.30264 7.987618 34.98119
v -74.44398 7.683625 55.11513
v -74.43629 7.667625 55.13016
v -73.37985 7.667624 57.19282
v -73.37219 7.683625 57.20779
v -71.55034 7.667625 47.08249
v -71.56622 7.683625 47.08249
v -71.55032 7.683625 47.06649
v -71.59143 7.667625 40.75552
v -71.59134 7.683625 40.77152
v -71.60743 7.683625 40.75552
v -71.60743 7.987618 40.75552
v -71.59134 7.987618 40.77152
v -71.55032 7.987618 47.06649
v -71.56622 7.987618 47.08249
v -69.29958 7.667625 40.75543
v -69.28357 7.683625 40.75543
v -69.29956 7.683625 40.77143
v -69.29872 7.667625 47.08249
v -69.29881 7.683625 47.06649
v -69.28279 7.683625 47.08249
v -69.28279 7.987618 47.08249
v -69.29881 7.987618 47.06649
v -69.29956 7.987618 40.77143
v -69.28357 7.987618 40.75543
v -71.53354 10.46363 52.23615
v -71.51751 10.44762 52.25909
v -71.54484 10.46363 52.26337
v -71.53354 10.76762 52.23615
v -71.54484 10.76762 52.26337
v -71.64098 10.46363 34.99719
v -71.62507 10.46363 34.98119
v -71.62498 10.44763 34.99719
v -71.62507 10.76762 34.98119
v -71.64098 10.76762 34.99719
v -69.27901 10.46363 53.21838
v -69.29048 10.46363 53.24553
v -69.29493 10.44762 53.22744
v -69.29048 10.76762 53.24553
v -69.27901 10.76762 53.21838
v -69.30263 10.44763 34.99719
v -69.30264 10.46363 34.98119
v -69.28664 10.46363 34.99719
v -69.28664 10.76762 34.99719
v -69.30264 10.76762 34.98119
v -74.44398 10.46363 55.11513
v -74.43629 10.44763 55.13016
v -73.37985 10.44762 57.19282
v -73.37219 10.46363 57.20779
v -71.55034 10.44762 47.08249
v -71.56622 10.46363 47.08249
v -71.55032 10.46363 47.06649
v -71.59143 10.44763 40.75552
v -71.59134 10.46363 40.77152
v -71.60743 10.46363 40.75552
v -71.60743 10.76762 40.75552
v -71.59134 10.76762 40.77152
v -71.55032 10.76762 47.06649
v -71.56622 10.76762 47.08249
v -69.29958 10.44763 40.75543
v -69.28357 10.46363 40.75543
v -69.29956 10.46363 40.77143
v -69.29872 10.44762 47.08249
v -69.29881 10.46363 47.06649
v -69.28279 10.46363 47.08249
v -69.28279 10.76762 47.08249
v -69.29881 10.76762 47.06649
v -69.29956 10.76762 40.77143
v -69.28357 10.76762 40.75543
v -71.53354 13.24362 52.23615
v -71.51751 13.22762 52.25909
v -71.54484 13.24362 52.26337
v -71.53354 13.54762 52.23615
v -71.54484 13.54762 52.26337
v -71.64098 13.24362 34.99719
v -71.62507 13.24362 34.98119
v -71.62498 13.22762 34.99719
v -71.62507 13.54762 34.98119
v -71.64098 13.54762 34.99719
v -69.27901 13.24362 53.21838
v -69.29048 13.24362 53.24553
v -69.29493 13.22762 53.22744
v -69.29048 13.54762 53.24553
v -69.27901 13.54762 53.21838
v -69.30263 13.22762 34.99719
v -69.30264 13.24362 34.98119
v -69.28664 13.24362 34.99719
v -69.28664 13.54762 34.99719
v -69.30264 13.54762 34.98119
v -74.44398 13.24362 55.11513
v -74.43629 13.22762 55.13016
v -73.37985 13.22762 57.19282
v -73.37219 13.24362 57.20779
v -71.55034 13.22762 47.08249
v -71.56622 13.24362 47.08249
v -71.55032 13.24362 47.06649
v -71.59143 13.22762 40.75552
v -71.59134 13.24362 40.77152
v -71.60743 13.24362 40.75552
v -71.60743 13.54762 40.75552
v -71.59134 13.54762 40.77152
v -71.55032 13.54762 47.06649
v -71.56622 13.54762 47.08249
v -69.29958 13.22762 40.75543
v -69.28357 13.24362 40.75543
v -69.29956 13.24362 40.77143
v -69.29872 13.22762 47.08249
v -69.29881 13.24362 47.06649
v -69.28279 13.24362 47.08249
v -69.28279 13.54762 47.08249
v -69.29881 13.54762 47.06649
v -69.29956 13.54762 40.77143
v -69.28357 13.54762 40.75543
v -71.53354 16.02362 52.23615
v -71.51751 16.00763 52.25909
v -71.54484 16.02362 52.26337
v -71.53354 16.32762 52.23615
v -71.54484 16.32762 52.26337
v -71.64098 16.02362 34.99719
v -71.62507 16.02362 34.98119
v -71.62498 16.00763 34.99719
v -71.62507 16.32762 34.98119
v -71.64098 16.32762 34.99719
v -69.27901 16.02362 53.21838
v -69.29048 16.02362 53.24553
v -69.29493 16.00763 53.22744
v -69.29048 16.32762 53.24553
v -69.27901 16.32762 53.21838
v -69.30263 16.00763 34.99719
v -69.30264 16.02362 34.98119
v -69.28664 16.02362 34.99719
v -69.28664 16.32762 34.99719
v -69.30264 16.32762 34.98119
v -74.44398 16.02362 55.11513
v -74.43629 16.00763 55.13016
v -73.37985 16.00763 57.19282
v -73.37219 16.02362 57.20779
v -71.55034 16.00763 47.08249
v -71.56622 16.02362 47.08249
v -71.55032 16.02362 47.06649
v -71.59143 16.00763 40.75552
v -71.59134 16.02362 40.77152
v -71.60743 16.02362 40.75552
v -71.60743 16.32762 40.75552
v -71.59134 16.32762 40.77152
v -71.55032 16.32762 47.06649
v -71.56622 16.32762 47.08249
v -69.29958 16.00763 40.75543
v -69.28357 16.02362 40.75543
v -69.29956 16.02362 40.77143
v -69.29872 16.00763 47.08249
v -69.29881 16.02362 47.06649
v -69.28279 16.02362 47.08249
v -69.28279 16.32762 47.08249
v -69.29881 16.32762 47.06649
v -69.29956 16.32762 40.77143
v -69.28357 16.32762 40.75543
v -71.53354 18.80362 52.23615
v -71.51751 18.78762 52.25909
v -71.54484 18.80362 52.26337
v -71.53354 19.10762 52.23615
v -71.54484 19.10762 52.26337
v -71.64098 18.80362 34.99719
v -71.62507 18.80362 34.98119
v -71.62498 18.78762 34.99719
v -71.62507 19.10762 34.98119
v -71.64098 19.10762 34.99719
v -69.27901 18.80362 53.21838
v -69.29048 18.80362 53.24553
v -69.29493 18.78762 53.22744
v -69.29048 19.10762 53.24553
v -69.27901 19.10762 53.21838
v -69.30263 18.78762 34.99719
v -69.30264 18.80362 34.98119
v -69.28664 18.80362 34.99719
v -69.28664 19.10762 34.99719
v -69.30264 19.10762 34.98119
v -74.44398 18.80362 55.11513
v -74.43629 18.78762 55.13016
v -73.37985 18.78762 57.19282
v -73.37219 18.80362 57.20779
v -71.55034 18.78762 47.08249
v -71.56622 18.80362 47.08249
v -71.55032 18.80362 47.06649
v -71.59143 18.78762 40.75552
v -71.59134 18.80362 40.77152
v -71.60743 18.80362 40.75552
v -71.60743 19.10762 40.75552
v -71.59134 19.10762 40.77152
v -71.55032 19.10762 47.06649
v -71.56622 19.10762 47.08249
v -69.29958 18.78762 40.75543
v -69.28357 18.80362 40.75543
v -69.29956 18.80362 40.77143
v -69.29872 18.78762 47.08249
v -69.29881 18.80362 47.06649
v -69.28279 18.80362 47.08249
v -69.28279 19.10762 47.08249
v -69.29881 19.10762 47.06649
v -69.29956 19.10762 40.77143
v -69.28357 19.10762 40.75543
v -71.53354 21.58363 52.23615
v -71.51751 21.56763 52.25909
v -71.54484 21.58363 52.26337
v -71.53354 21.88762 52.23615
v -71.54484 21.88762 52.26337
v -71.64098 21.58363 34.99719
v -71.62507 21.58363 34.98119
v -71.62498 21.56763 34.99719
v -71.62507 21.88762 34.98119
v -71.64098 21.88762 34.99719
v -69.27901 21.58363 53.21838
v -69.29048 21.58363 53.24553
v -69.29493 21.56763 53.22744
v -69.29048 21.88762 53.24553
v -69.27901 21.88762 53.21838
v -69.30263 21.56763 34.99719
v -69.30264 21.58363 34.98119
v -69.28664 21.58363 34.99719
v -69.28664 21.88762 34.99719
v -69.30264 21.88762 34.98119
v -74.44398 21.58363 55.11513
v -74.43629 21.56763 55.13016
v -73.37985 21.56763 57.19282
v -73.37219 21.58363 57.20779
v -71.55034 21.56763 47.08249
v -71.56622 21.58363 47.08249
v -71.55032 21.58363 47.06649
v -71.59143 21.56763 40.75552
v -71.59134 21.58363 40.77152
v -71.60743 21.58363 40.75552
v -71.60743 21.88762 40.75552
v -71.59134 21.88762 40.77152
v -71.55032 21.88762 47.06649
v -71.56622 21.88762 47.08249
v -69.29958 21.56763 40.75543
v -69.28357 21.58363 40.75543
v -69.29956 21.58363 40.77143
v -69.29872 21.56763 47.08249
v -69.29881 21.58363 47.06649
v -69.28279 21.58363 47.08249
v -69.28279 21.88762 47.08249
v -69.29881 21.88762 47.06649
v -69.29956 21.88762 40.77143
v -69.28357 21.88762 40.75543
v -71.09785 6.31672 34.98119
v -69.28356 6.31672 40.77143
v -71.04948 6.211082 35.1
v -69.42451 6.211082 35.1
v -69.42156 6.211082 40.65263
v -71.09785 9.09672 34.98119
v -69.28356 9.09672 40.77143
v -71.04948 8.991082 35.1
v -69.42451 8.991082 35.1
v -69.42156 8.991082 40.65263
v -71.09785 11.87672 34.98119
v -69.28356 11.87672 40.77143
v -71.04948 11.77108 35.1
v -69.42451 11.77108 35.1
v -69.42156 11.77108 40.65263
v -71.09785 14.65672 34.98119
v -69.28356 14.65672 40.77143
v -71.04948 14.55108 35.1
v -69.42451 14.55108 35.1
v -69.42156 14.55108 40.65263
v -71.09785 17.43672 34.98119
v -69.28356 17.43672 40.77143
v -71.04948 17.33108 35.1
v -69.42451 17.33108 35.1
v -69.42156 17.33108 40.65263
v -71.09785 20.21672 34.98119
v -69.28356 20.21672 40.77143
v -71.04948 20.11108 35.1
v -69.42451 20.11108 35.1
v -69.42156 20.11108 40.65263
v -71.09785 22.99672 34.98119
v -69.28356 22.99672 40.77143
v -71.04948 22.89108 35.1
v -69.42451 22.89108 35.1
v -69.42156 22.89108 40.65263
v -69.28664 6.31672 34.99719
v -69.30264 6.31672 34.98119
v -71.09785 6.227082 34.98119
v -71.09184 6.211082 34.99596
v -69.30264 6.227082 34.98119
v -69.28664 6.227082 34.99719
v -69.30373 6.211082 34.99592
v -69.30063 6.211082 40.75674
v -69.28356 6.227082 40.77143
v -69.28664 9.09672 34.99719
v -69.30264 9.09672 34.98119
v -71.09785 9.007082 34.98119
v -71.09184 8.991082 34.99596
v -69.30264 9.007082 34.98119
v -69.28664 9.007082 34.99719
v -69.30373 8.991082 34.99592
v -69.30063 8.991082 40.75674
v -69.28356 9.007082 40.77143
v -69.28664 11.87672 34.99719
v -69.30264 11.87672 34.98119
v -71.09785 11.78708 34.98119
v -71.09184 11.77108 34.99596
v -69.30264 11.78708 34.98119
v -69.28664 11.78708 34.99719
v -69.30373 11.77108 34.99592
v -69.30063 11.77108 40.75674
v -69.28356 11.78708 40.77143
v -69.28664 14.65672 34.99719
v -69.30264 14.65672 34.98119
v -71.09785 14.56708 34.98119
v -71.09184 14.55108 34.99596
v -69.30264 14.56708 34.98119
v -69.28664 14.56708 34.99719
v -69.30373 14.55108 34.99592
v -69.30063 14.55108 40.75674
v -69.28356 14.56708 40.77143
v -69.28664 17.43672 34.99719
v -69.30264 17.43672 34.98119
v -71.09785 17.34708 34.98119
v -71.09184 17.33108 34.99596
v -69.30264 17.34708 34.98119
v -69.28664 17.34708 34.99719
v -69.30373 17.33108 34.99592
v -69.30063 17.33108 40.75674
v -69.28356 17.34708 40.77143
v -69.28664 20.21672 34.99719
v -69.30264 20.21672 34.98119
v -71.09785 20.12708 34.98119
v -71.09184 20.11108 34.99596
v -69.30264 20.12708 34.98119
v -69.28664 20.12708 34.99719
v -69.30373 20.11108 34.99592
v -69.30063 20.11108 40.75674
v -69.28356 20.12708 40.77143
v -69.28664 22.99672 34.99719
v -69.30264 22.99672 34.98119
v -71.09785 22.90708 34.98119
v -71.09184 22.89108 34.99596
v -69.30264 22.90708 34.98119
v -69.28664 22.90708 34.99719
v -69.30373 22.89108 34.99592
v -69.30063 22.89108 40.75674
v -69.28356 22.90708 40.77143
v -73.42774 6.211082 57.08751
v -69.28664 6.31672 47.02148
v -73.36678 6.31672 57.21131
v -69.42451 6.211082 47.14028
v -69.42156 6.211082 53.238
v -73.42774 8.991082 57.08751
v -69.28664 9.09672 47.02148
v -73.36678 9.09672 57.21131
v -69.42451 8.991082 47.14028
v -69.42156 8.991082 53.238
v -73.42774 11.77108 57.08751
v -69.28664 11.87672 47.02148
v -73.36678 11.87672 57.21131
v -69.42451 11.77108 47.14028
v -69.42156 11.77108 53.238
v -73.42774 14.55108 57.08751
v -69.28664 14.65672 47.02148
v -73.36678 14.65672 57.21131
v -69.42451 14.55108 47.14028
v -69.42156 14.55108 53.238
v -73.42774 17.33108 57.08751
v -69.28664 17.43672 47.02148
v -73.36678 17.43672 57.21131
v -69.42451 17.33108 47.14028
v -69.42156 17.33108 53.238
v -73.42774 20.11108 57.08751
v -69.28664 20.21672 47.02148
v -73.36678 20.21672 57.21131
v -69.42451 20.11108 47.14028
v -69.42156 20.11108 53.238
v -73.42774 22.89108 57.08751
v -69.28664 22.99672 47.02148
v -73.36678 22.99672 57.21131
v -69.42451 22.89108 47.14028
v -69.42156 22.89108 53.238
v -69.29503 6.31672 53.24916
v -69.28357 6.31672 53.222
v -73.37276 6.211082 57.19918
v -73.36678 6.227082 57.21131
v -69.28664 6.227082 47.02148
v -69.30482 6.211082 47.03714
v -69.30183 6.211082 53.238
v -69.28357 6.227082 53.222
v -69.29503 6.227082 53.24916
v -69.29503 9.09672 53.24916
v -69.28357 9.09672 53.222
v -73.37276 8.991082 57.19918
v -73.36678 9.007082 57.21131
v -69.28664 9.007082 47.02148
v -69.30482 8.991082 47.03714
v -69.30183 8.991082 53.238
v -69.28357 9.007082 53.222
v -69.29503 9.007082 53.24916
v -69.29503 11.87672 53.24916
v -69.28357 11.87672 53.222
v -73.37276 11.77108 57.19918
v -73.36678 11.78708 57.21131
v -69.28664 11.78708 47.02148
v -69.30482 11.77108 47.03714
v -69.30183 11.77108 53.238
v -69.28357 11.78708 53.222
v -69.29503 11.78708 53.24916
v -69.29503 14.65672 53.24916
v -69.28357 14.65672 53.222
v -73.37276 14.55108 57.19918
v -73.36678 14.56708 57.21131
v -69.28664 14.56708 47.02148
v -69.30482 14.55108 47.03714
v -69.30183 14.55108 53.238
v -69.28357 14.56708 53.222
v -69.29503 14.56708 53.24916
v -69.29503 17.43672 53.24916
v -69.28357 17.43672 53.222
v -73.37276 17.33108 57.19918
v -73.36678 17.34708 57.21131
v -69.28664 17.34708 47.02148
v -69.30482 17.33108 47.03714
v -69.30183 17.33108 53.238
v -69.28357 17.34708 53.222
v -69.29503 17.34708 53.24916
v -69.29503 20.21672 53.24916
v -69.28357 20.21672 53.222
v -73.37276 20.11108 57.19918
v -73.36678 20.12708 57.21131
v -69.28664 20.12708 47.02148
v -69.30482 20.11108 47.03714
v -69.30183 20.11108 53.238
v -69.28357 20.12708 53.222
v -69.29503 20.12708 53.24916
v -69.29503 22.99672 53.24916
v -69.28357 22.99672 53.222
v -73.37276 22.89108 57.19918
v -73.36678 22.90708 57.21131
v -69.28664 22.90708 47.02148
v -69.30482 22.89108 47.03714
v -69.30183 22.89108 53.238
v -69.28357 22.90708 53.222
v -69.29503 22.90708 53.24916
v -71.62909 -0.275919 47.06515
v -71.62909 -0.275919 36.55864
v -72.98869 4.8991 55.93449
v -69.95632 4.8991 40.77251
v -69.95632 4.8991 47.06515
v -69.95632 4.8991 36.55864
v -71.62769 4.899099 34.93554
v -71.07577 4.8991 34.93554
v -71.07667 3.515015 36.55864
v -71.07667 3.515015 40.77251
v -73.27231 -0.275919 55.65087
v -83.80736 -0.275919 35.81579
v -83.80736 3.515015 35.81579
v -83.80736 4.8991 35.81579
v -83.80736 -0.275919 34.94954
v -83.79336 -0.275919 34.93554
v -83.80736 3.515015 34.94954
v -83.79336 3.515015 34.93554
v -69.97032 3.529015 34.93554
v -69.95632 3.529015 34.94954
v -69.97032 3.515015 34.94954
v -72.9986 3.515015 55.92458
v -72.98869 3.529015 55.93449
v -69.95632 3.529015 52.88811
v -69.96622 3.529015 52.91201
v -69.97032 3.515015 52.89631
v -69.97032 3.515015 47.06515
v -69.95632 3.529015 47.06515
v -69.97032 3.515015 40.77251
v -69.95632 3.529015 40.77251
v -69.97032 3.515015 36.55864
v -69.95632 3.529015 36.55864
v -71.6431 3.529015 34.93554
v -71.6151 3.515015 34.94954
v -71.62909 3.501015 34.94954
v -71.6431 -0.275919 34.93554
v -71.62909 -0.275919 34.94954
v -71.62909 3.501015 47.06515
v -71.62909 3.515015 47.05115
v -71.62909 -0.275919 40.75851
v -71.6431 -0.275919 40.77251
v -71.6431 3.501015 40.77251
v -71.62909 3.501015 40.75851
v -71.6151 3.515015 40.78651
v -71.62909 3.501015 36.55864
v -71.6151 3.515015 36.55864
v -69.96622 4.8991 52.91201
v -69.95632 4.8991 52.88811
v -83.79336 4.8991 34.93554
v -83.80736 4.8991 34.94954
v -69.95632 4.8991 34.94954
v -69.97032 4.8991 34.93554
v -71.09067 -0.275919 47.06515
v -71.07667 -0.275919 47.07915
v -71.07667 3.501015 47.07915
v -71.09067 3.501015 47.06515
v -71.06267 3.515015 47.05115
v -71.07667 3.515015 34.94954
v -71.07666 3.529015 34.93554
v -73.27231 3.501015 55.65087
v -73.26257 3.515015 55.66061
v -70.32666 -0.275919 52.73462
v -70.33685 -0.275919 52.75845
v -70.33685 3.501015 52.75845
v -70.32666 3.501015 52.73462
v -70.31307 3.515015 52.75434
v -70.25394 3.501015 47.35324
v -70.22583 3.515015 47.3389
v -70.24017 3.501015 47.36724
v -70.25394 -0.275919 47.35324
v -70.24017 -0.275919 47.36724
v -71.07667 -0.275919 47.33924
v -71.06267 -0.275919 47.35324
v -71.07667 3.501015 47.33924
v -71.06267 3.515015 47.33892
v -71.06267 3.501015 47.35324
v -72.22845 3.501015 47.06515
v -72.24245 3.501015 47.05115
v -72.22845 3.515015 47.05115
v -72.24245 -0.275919 47.05115
v -72.22845 -0.275919 47.06515
v -72.22845 -0.275919 40.77251
v -72.24245 -0.275919 40.78651
v -72.22845 3.501015 40.77251
v -72.22845 3.515015 40.78651
v -72.24245 3.501015 40.78651
v -72.26551 -0.275919 46.3539
v -72.26551 -0.275919 41.48375
v -72.25674 -0.275919 46.59438
v -72.25674 -0.275919 41.24327
v -72.25674 2.747815 46.59438
v -72.25674 2.747815 41.24327
v -72.25674 2.947799 46.3539
v -72.25674 2.947799 41.48375
v -72.16093 2.933799 46.59438
v -72.14693 2.933799 46.58038
v -72.16093 2.947799 46.58038
v -72.14693 -0.275919 46.58038
v -72.16093 -0.275919 46.59438
v -72.16093 -0.275919 41.24327
v -72.14693 -0.275919 41.25727
v -72.16093 2.933799 41.24327
v -72.16093 2.947799 41.25727
v -72.14693 2.933799 41.25727
v -72.14693 2.747815 46.58038
v -72.16093 2.747815 46.59438
v -72.14693 2.747815 41.25727
v -72.16093 2.747815 41.24327
v -72.26551 2.733815 41.48375
v -72.26551 2.747815 41.49775
v -72.26551 2.747815 46.33991
v -72.26551 2.733815 46.3539
v -72.14693 -0.275919 41.46975
v -72.16093 -0.275919 41.48375
v -72.16093 -0.275919 46.3539
v -72.14693 -0.275919 46.36791
v -72.16093 2.947799 46.3539
v -72.14693 2.933799 46.3539
v -72.14693 2.933799 41.48375
v -72.16093 2.947799 41.48375
v -72.16093 2.733815 46.3539
v -72.16093 2.747815 46.33991
v -72.14693 2.761815 46.36791
v -72.16093 2.733815 41.48375
v -72.14693 2.761815 41.46975
v -72.16093 2.747815 41.49775
v -72.25674 2.933799 46.59438
v -72.25674 2.947799 46.58038
v -72.25674 2.947799 41.25727
v -72.25674 2.933799 41.24327
v -72.31361 2.839733 43.98228
v -72.31361 -0.366425 43.98228
v -72.30484 -0.366425 43.85538
v -72.30484 2.839733 43.85538
v -72.20903 -0.366425 43.85538
v -72.19503 -0.366425 43.86938
v -72.19503 2.839733 43.86938
v -72.20903 2.839733 43.85538
v -72.19503 -0.366425 43.96828
v -72.20903 -0.366425 43.98228
v -72.20903 2.839733 43.98228
v -72.19503 2.839733 43.96828
#end vertices

#begin 836 textures vertices 
vt 0.6575487 0.4981441 0
vt 0.0051731 0.5041211 0
vt 0.6019778 0.4981441 0
vt 0.4628997 0.9959391 0
vt 0.2681927 0.9955484 0
vt 0.6575487 0.996275 0
vt 0.004187954 0.9950186 0
vt 0.6019778 0.996275 0
vt 0.9947544 0.4981441 0
vt 0.9947544 0.996275 0
vt 0.9731161 0.4981441 0
vt 0.9715064 0.4981441 0
vt 0.1583413 0.4735004 0
vt 0.1568435 0.4733812 0
vt 0.4650065 0.5050439 0
vt 0.007397501 0.4734112 0
vt 0.005895728 0.4735285 0
vt 0.006484688 0.4721848 0
vt 0.1045344 0.5043205 0
vt 0.1024784 0.5043163 0
vt 0.4941098 0.4981441 0
vt 0.4913012 0.5050966 0
vt 0.6444363 0.4981441 0
vt 0.6428266 0.4981441 0
vt 0.2417615 0.5045959 0
vt 0.2401878 0.5045927 0
vt 0.1565604 0.4906269 0
vt 0.1565271 0.4891339 0
vt 0.1579883 0.4893171 0
vt 0.006257549 0.4892923 0
vt 0.007714326 0.4891026 0
vt 0.007680393 0.4905962 0
vt 0.9715064 0.996275 0
vt 0.9731161 0.996275 0
vt 0.1014932 0.9952138 0
vt 0.1035493 0.995218 0
vt 0.490316 0.9959941 0
vt 0.4919024 0.9959973 0
vt 0.6428266 0.996275 0
vt 0.6444363 0.996275 0
vt 0.2392026 0.9954902 0
vt 0.2407764 0.9954933 0
vt 0.4446332 0.9959025 0
vt 0.4462194 0.9959056 0
vt 0.284873 0.9955818 0
vt 0.2864593 0.995585 0
vt 0.6061767 0.1934042 0
vt 0.6061767 0.1762591 0
vt 0.696887 0.1934042 0
vt 0.696887 0.1762591 0
vt 0.7244515 0.1934042 0
vt 0.7244515 0.1762591 0
vt 0.6061767 0.2283493 0
vt 0.6061767 0.2112042 0
vt 0.696887 0.2283493 0
vt 0.696887 0.2112042 0
vt 0.7244515 0.2283493 0
vt 0.7244515 0.2112042 0
vt 0.6061767 0.2630388 0
vt 0.6061767 0.2458936 0
vt 0.696887 0.2630388 0
vt 0.696887 0.2458936 0
vt 0.7244515 0.2630388 0
vt 0.7244515 0.2458936 0
vt 0.6061767 0.297648 0
vt 0.6061767 0.2805028 0
vt 0.696887 0.297648 0
vt 0.696887 0.2805028 0
vt 0.7244515 0.297648 0
vt 0.7244515 0.2805028 0
vt 0.6061767 0.3326662 0
vt 0.6061767 0.3155211 0
vt 0.696887 0.3326662 0
vt 0.696887 0.3155211 0
vt 0.7244515 0.3326662 0
vt 0.7244515 0.3155211 0
vt 0.6061767 0.3679039 0
vt 0.6061767 0.3507588 0
vt 0.696887 0.3679039 0
vt 0.696887 0.3507588 0
vt 0.7244516 0.3679039 0
vt 0.7244516 0.3507588 0
vt 0.6061767 0.4029144 0
vt 0.6061767 0.3857692 0
vt 0.696887 0.4029144 0
vt 0.696887 0.3857692 0
vt 0.7244515 0.4029144 0
vt 0.7244515 0.3857692 0
vt 0.6961347 0.2108478 0
vt 0.6961347 0.1937027 0
vt 0.791458 0.2108478 0
vt 0.791458 0.1937027 0
vt 0.6061767 0.2108478 0
vt 0.6061767 0.1937027 0
vt 0.6961347 0.245783 0
vt 0.6961347 0.2286379 0
vt 0.791458 0.245783 0
vt 0.791458 0.2286379 0
vt 0.6061767 0.245783 0
vt 0.6061767 0.2286379 0
vt 0.6961347 0.2803852 0
vt 0.6961347 0.2632401 0
vt 0.791458 0.2803852 0
vt 0.791458 0.2632401 0
vt 0.6061767 0.2803852 0
vt 0.6061767 0.2632401 0
vt 0.6961347 0.3151461 0
vt 0.6961347 0.298001 0
vt 0.791458 0.3151461 0
vt 0.791458 0.298001 0
vt 0.6061767 0.3151461 0
vt 0.6061767 0.298001 0
vt 0.6961347 0.3503743 0
vt 0.6961347 0.3332292 0
vt 0.791458 0.3503743 0
vt 0.791458 0.3332292 0
vt 0.6061767 0.3503743 0
vt 0.6061767 0.3332292 0
vt 0.6961347 0.3854162 0
vt 0.6961347 0.3682711 0
vt 0.791458 0.3854162 0
vt 0.791458 0.3682711 0
vt 0.6061767 0.3854162 0
vt 0.6061767 0.3682711 0
vt 0.6961347 0.4202009 0
vt 0.6961347 0.4030558 0
vt 0.791458 0.4202009 0
vt 0.791458 0.4030558 0
vt 0.6061767 0.4202009 0
vt 0.6061767 0.4030558 0
vt 0.7920131 0.1983966 0
vt 0.7920131 0.2542377 0
vt 0.7920131 0.2533785 0
vt 0.7920131 0.3092196 0
vt 0.7920131 0.3083605 0
vt 0.7920131 0.3642016 0
vt 0.7920131 0.3633424 0
vt 0.7920131 0.4191835 0
vt 0.7313403 0.1050985 0
vt 0.7647154 0.05486207 0
vt 0.9678609 0.1327669 0
vt 0.9972622 0.0818456 0
vt 0.970113 0.1933959 0
vt 0.9988344 0.1436497 0
vt 0.8861195 0.2042189 0
vt 0.8855551 0.204726 0
vt 0.8855551 0.2042189 0
vt 0.8861195 0.1983966 0
vt 0.8855551 0.1983966 0
vt 0.008431906 0.06288037 0
vt 0.00825613 0.06270036 0
vt 0.008551167 0.06246199 0
vt 0.004487214 0.0668426 0
vt 0.00623142 0.06824436 0
vt 0.8861195 0.2484154 0
vt 0.8855551 0.2484154 0
vt 0.8855551 0.2479671 0
vt 0.8855551 0.2542377 0
vt 0.8861195 0.2542377 0
vt 0.00859903 0.01475262 0
vt 0.008284777 0.01450317 0
vt 0.008490287 0.0143376 0
vt 0.006438177 0.008875584 0
vt 0.004829673 0.01036306 0
vt 0.7920131 0.2042189 0
vt 0.7920131 0.204726 0
vt 0.7920131 0.2479671 0
vt 0.7920131 0.2484154 0
vt 0.9943557 0.204726 0
vt 0.9943557 0.2042189 0
vt 0.9947887 0.2042189 0
vt 0.1278088 0.0621879 0
vt 0.1281234 0.06243591 0
vt 0.1279168 0.0626032 0
vt 0.1299799 0.06806796 0
vt 0.1315752 0.06658378 0
vt 0.9947887 0.1983966 0
vt 0.9943557 0.1983966 0
vt 0.1278518 0.01510408 0
vt 0.1279703 0.01468547 0
vt 0.1281465 0.01486716 0
vt 0.9943557 0.2479671 0
vt 0.9947887 0.2479671 0
vt 0.9943557 0.2484154 0
vt 0.9943557 0.2542377 0
vt 0.9947887 0.2542377 0
vt 0.131914 0.01071577 0
vt 0.1301816 0.009318999 0
vt 0.8861195 0.2592008 0
vt 0.885555 0.2597079 0
vt 0.885555 0.2592008 0
vt 0.8861195 0.2533785 0
vt 0.885555 0.2533785 0
vt 0.137472 0.1215972 0
vt 0.1372962 0.1214172 0
vt 0.1375913 0.1211789 0
vt 0.1335273 0.1255595 0
vt 0.1352715 0.1269612 0
vt 0.8861195 0.3033973 0
vt 0.885555 0.3033973 0
vt 0.885555 0.302949 0
vt 0.885555 0.3092196 0
vt 0.8861195 0.3092196 0
vt 0.1376391 0.0734695 0
vt 0.1373249 0.07322005 0
vt 0.1375304 0.07305448 0
vt 0.1354783 0.06759246 0
vt 0.1338698 0.06907994 0
vt 0.7920131 0.2592008 0
vt 0.7920131 0.2597079 0
vt 0.7920131 0.302949 0
vt 0.7920131 0.3033973 0
vt 0.9943557 0.2597079 0
vt 0.9943557 0.2592008 0
vt 0.9947887 0.2592008 0
vt 0.2568489 0.1209048 0
vt 0.2571635 0.1211528 0
vt 0.2569569 0.1213201 0
vt 0.25902 0.1267848 0
vt 0.2606153 0.1253007 0
vt 0.9947887 0.2533785 0
vt 0.9943557 0.2533785 0
vt 0.2568919 0.07382096 0
vt 0.2570104 0.07340235 0
vt 0.2571866 0.07358404 0
vt 0.9943557 0.302949 0
vt 0.9947887 0.302949 0
vt 0.9943557 0.3033973 0
vt 0.9943557 0.3092196 0
vt 0.9947887 0.3092196 0
vt 0.2609541 0.06943265 0
vt 0.2592217 0.06803588 0
vt 0.8861195 0.3141827 0
vt 0.8855551 0.3146898 0
vt 0.8855551 0.3141827 0
vt 0.8861195 0.3083605 0
vt 0.8855551 0.3083605 0
vt 0.137472 0.1821082 0
vt 0.1372962 0.1819281 0
vt 0.1375913 0.1816898 0
vt 0.1335273 0.1860704 0
vt 0.1352715 0.1874721 0
vt 0.8861195 0.3583793 0
vt 0.8855551 0.3583793 0
vt 0.8855551 0.357931 0
vt 0.8855551 0.3642016 0
vt 0.8861195 0.3642016 0
vt 0.1376391 0.1339804 0
vt 0.1373249 0.133731 0
vt 0.1375304 0.1335654 0
vt 0.1354783 0.1281034 0
vt 0.1338698 0.1295909 0
vt 0.7920131 0.3141827 0
vt 0.7920131 0.3146898 0
vt 0.7920131 0.357931 0
vt 0.7920131 0.3583793 0
vt 0.9943557 0.3146898 0
vt 0.9943557 0.3141827 0
vt 0.9947887 0.3141827 0
vt 0.2568489 0.1814157 0
vt 0.2571635 0.1816637 0
vt 0.2569569 0.181831 0
vt 0.25902 0.1872957 0
vt 0.2606153 0.1858116 0
vt 0.9947887 0.3083605 0
vt 0.9943557 0.3083605 0
vt 0.2568919 0.1343319 0
vt 0.2570104 0.1339133 0
vt 0.2571866 0.134095 0
vt 0.9943557 0.357931 0
vt 0.9947887 0.357931 0
vt 0.9943557 0.3583793 0
vt 0.9943557 0.3642016 0
vt 0.9947887 0.3642016 0
vt 0.2609541 0.1299436 0
vt 0.2592217 0.1285468 0
vt 0.8861195 0.3691647 0
vt 0.8855551 0.3696717 0
vt 0.8855551 0.3691647 0
vt 0.8861195 0.3633424 0
vt 0.8855551 0.3633424 0
vt 0.1374755 0.2424644 0
vt 0.1372907 0.2422988 0
vt 0.1375907 0.2420493 0
vt 0.1335362 0.2464217 0
vt 0.13527 0.247836 0
vt 0.8861195 0.4133612 0
vt 0.8855551 0.4133612 0
vt 0.8855551 0.4129129 0
vt 0.8855551 0.4191835 0
vt 0.8861195 0.4191835 0
vt 0.1376386 0.1943399 0
vt 0.1373203 0.194079 0
vt 0.1375331 0.193928 0
vt 0.1354765 0.188458 0
vt 0.1338772 0.1899593 0
vt 0.7920131 0.3691647 0
vt 0.7920131 0.3696717 0
vt 0.7920131 0.4129129 0
vt 0.7920131 0.4133612 0
vt 0.9943557 0.3696717 0
vt 0.9943557 0.3691647 0
vt 0.9947887 0.3691647 0
vt 0.2568464 0.2417752 0
vt 0.2571609 0.2420238 0
vt 0.2569544 0.2421905 0
vt 0.2590175 0.2476553 0
vt 0.2606127 0.2461714 0
vt 0.9947887 0.3633424 0
vt 0.9943557 0.3633424 0
vt 0.2568903 0.1946917 0
vt 0.2570048 0.1942759 0
vt 0.2571902 0.1944433 0
vt 0.9943557 0.4129129 0
vt 0.9947887 0.4129129 0
vt 0.9943557 0.4133612 0
vt 0.9943557 0.4191835 0
vt 0.9947887 0.4191835 0
vt 0.2609436 0.1903121 0
vt 0.2592215 0.1889018 0
vt 0.6540347 0.07055938 0
vt 0.6544863 0.06999787 0
vt 0.6548424 0.07060213 0
vt 0.6538731 0.07681267 0
vt 0.6538964 0.07675355 0
vt 0.009060613 0.1230231 0
vt 0.008875783 0.1228575 0
vt 0.00917573 0.1226079 0
vt 0.00512155 0.1269803 0
vt 0.006854947 0.128395 0
vt 0.657448 0.02097362 0
vt 0.6579141 0.02101038 0
vt 0.657658 0.02138679 0
vt 0.6588141 0.01499197 0
vt 0.6571735 0.01491822 0
vt 0.009223777 0.07489855 0
vt 0.008905434 0.07463776 0
vt 0.009118112 0.07448681 0
vt 0.007061392 0.0690166 0
vt 0.005462436 0.07051813 0
vt 0.7332897 0.09929569 0
vt 0.7335329 0.09889906 0
vt 0.7624335 0.06109856 0
vt 0.7626793 0.06069561 0
vt 0.5497616 0.09143025 0
vt 0.5497127 0.09183388 0
vt 0.5494884 0.09169972 0
vt 0.1284313 0.1223342 0
vt 0.1287461 0.1225823 0
vt 0.1285392 0.1227493 0
vt 0.1306027 0.1282139 0
vt 0.1321977 0.1267301 0
vt 0.5467014 0.09608219 0
vt 0.5484026 0.09721108 0
vt 0.1284755 0.07525047 0
vt 0.12859 0.07483487 0
vt 0.1287752 0.07500197 0
vt 0.5420842 0.04853736 0
vt 0.5417527 0.04835787 0
vt 0.5418915 0.048158 0
vt 0.5386873 0.04330916 0
vt 0.5373641 0.04487409 0
vt 0.132529 0.07087075 0
vt 0.1308068 0.06946068 0
vt 0.8905302 0.103889 0
vt 0.8909352 0.1033149 0
vt 0.8913188 0.1038811 0
vt 0.8907556 0.1099833 0
vt 0.8907745 0.1099243 0
vt 0.008988194 0.1828908 0
vt 0.008812808 0.1827112 0
vt 0.009107843 0.1824726 0
vt 0.005044188 0.1868536 0
vt 0.006788102 0.1882553 0
vt 0.8908177 0.05543295 0
vt 0.8912735 0.0554402 0
vt 0.8910474 0.05582213 0
vt 0.891781 0.04952927 0
vt 0.8901803 0.04955786 0
vt 0.009154679 0.1347635 0
vt 0.008836483 0.1345029 0
vt 0.00904922 0.1343517 0
vt 0.006992899 0.1288817 0
vt 0.005393462 0.130383 0
vt 0.9694027 0.1270016 0
vt 0.9696152 0.1266007 0
vt 0.9954233 0.08805326 0
vt 0.9956379 0.08764614 0
vt 0.7903511 0.1305778 0
vt 0.7903282 0.1309735 0
vt 0.7901019 0.1308568 0
vt 0.128364 0.1821981 0
vt 0.1286826 0.1824578 0
vt 0.1284689 0.1826103 0
vt 0.1305366 0.1880828 0
vt 0.1321224 0.1865852 0
vt 0.7876582 0.1352913 0
vt 0.7893826 0.1362857 0
vt 0.1284064 0.1351146 0
vt 0.1285248 0.134696 0
vt 0.1287011 0.1348774 0
vt 0.780255 0.08931277 0
vt 0.7799148 0.08915008 0
vt 0.7800478 0.08895695 0
vt 0.7766271 0.08443032 0
vt 0.7754478 0.08604372 0
vt 0.1324683 0.1307262 0
vt 0.1307361 0.1293292 0
vt 0.8945671 0.1651862 0
vt 0.8949628 0.1646254 0
vt 0.8953374 0.1651785 0
vt 0.8947873 0.1711399 0
vt 0.8948058 0.1710822 0
vt 0.009107093 0.2426447 0
vt 0.008931317 0.2424647 0
vt 0.009226307 0.2422263 0
vt 0.005162391 0.246607 0
vt 0.006906593 0.2480087 0
vt 0.8948476 0.117849 0
vt 0.8952929 0.1178561 0
vt 0.8950719 0.1182292 0
vt 0.8957886 0.1120816 0
vt 0.8942248 0.1121096 0
vt 0.009274104 0.1945169 0
vt 0.008959713 0.1942679 0
vt 0.009165223 0.1941024 0
vt 0.007113219 0.1886399 0
vt 0.005504619 0.1901278 0
vt 0.9716191 0.1877637 0
vt 0.9718266 0.1873721 0
vt 0.9970381 0.1497141 0
vt 0.9972477 0.1493164 0
vt 0.7967002 0.1912575 0
vt 0.7966805 0.1916407 0
vt 0.7964547 0.1915403 0
vt 0.128484 0.2419526 0
vt 0.1287983 0.2422005 0
vt 0.1285921 0.2423674 0
vt 0.1306551 0.2478321 0
vt 0.13225 0.2463484 0
vt 0.7940755 0.1958533 0
vt 0.7957536 0.1968386 0
vt 0.1285266 0.1948686 0
vt 0.1286454 0.1944501 0
vt 0.1288217 0.1946313 0
vt 0.7868383 0.1509452 0
vt 0.786506 0.1507863 0
vt 0.7866359 0.1505976 0
vt 0.7832943 0.1461753 0
vt 0.7821424 0.1477512 0
vt 0.1325891 0.1904804 0
vt 0.1308567 0.1890831 0
vt 0.5664062 0.1506692 0
vt 0.6578676 0.1385065 0
vt 0.569454 0.15141 0
vt 0.5785766 0.1310284 0
vt 0.655805 0.1415803 0
vt 0.9664555 0.02434918 0
vt 0.875 0.0365147 0
vt 0.9634079 0.02360859 0
vt 0.9542905 0.04399331 0
vt 0.8770628 0.03344089 0
vt 0.578125 0.165531 0
vt 0.6695813 0.1533652 0
vt 0.5811725 0.1662716 0
vt 0.5902901 0.1458864 0
vt 0.6675183 0.1564391 0
vt 0.453125 0.214427 0
vt 0.5445855 0.2022643 0
vt 0.4561727 0.2151678 0
vt 0.4652951 0.1947864 0
vt 0.5425226 0.2053383 0
vt 0.4414062 0.199569 0
vt 0.5328672 0.1874064 0
vt 0.4444539 0.2003099 0
vt 0.4535766 0.1799284 0
vt 0.5308045 0.1904802 0
vt 0.8398438 0.02702058 0
vt 0.9313063 0.01485774 0
vt 0.8428916 0.02776145 0
vt 0.8520145 0.007379482 0
vt 0.9292435 0.01793145 0
vt 0.8515625 0.04188303 0
vt 0.943019 0.02971716 0
vt 0.8546098 0.04262339 0
vt 0.8637273 0.02223837 0
vt 0.9409563 0.03279087 0
vt 0.5776425 0.1275552 0
vt 0.5764782 0.1281132 0
vt 0.5675503 0.1512349 0
vt 0.5678652 0.1512959 0
vt 0.5773572 0.1289204 0
vt 0.5776005 0.1287964 0
vt 0.5775669 0.1291191 0
vt 0.6574644 0.1400739 0
vt 0.6577097 0.1397717 0
vt 0.9552247 0.04746805 0
vt 0.9563861 0.04690402 0
vt 0.9653113 0.0237834 0
vt 0.9649964 0.02372238 0
vt 0.9555109 0.04610703 0
vt 0.9552656 0.04622384 0
vt 0.9553004 0.04590254 0
vt 0.8754033 0.0349472 0
vt 0.8751579 0.03524964 0
vt 0.5893559 0.1424118 0
vt 0.5881943 0.1429758 0
vt 0.5792691 0.1660967 0
vt 0.579584 0.1661576 0
vt 0.5890696 0.143773 0
vt 0.5893149 0.143656 0
vt 0.5892801 0.1439772 0
vt 0.6691778 0.1549327 0
vt 0.6694234 0.1546304 0
vt 0.4643611 0.1913132 0
vt 0.4631968 0.1918712 0
vt 0.454269 0.2149927 0
vt 0.454584 0.2150537 0
vt 0.4640757 0.1926784 0
vt 0.464319 0.1925544 0
vt 0.4642855 0.192877 0
vt 0.5441822 0.2038317 0
vt 0.5444276 0.2035295 0
vt 0.4526426 0.1764551 0
vt 0.4514781 0.1770134 0
vt 0.4425502 0.2001348 0
vt 0.4428652 0.2001958 0
vt 0.452357 0.1778206 0
vt 0.4526003 0.1776966 0
vt 0.452567 0.178019 0
vt 0.5324639 0.1889739 0
vt 0.5327093 0.1886717 0
vt 0.8510804 0.00390625 0
vt 0.8499161 0.004464243 0
vt 0.840988 0.02758609 0
vt 0.841303 0.02764708 0
vt 0.8507951 0.005271452 0
vt 0.8510384 0.005147443 0
vt 0.8510049 0.005470094 0
vt 0.930903 0.01642516 0
vt 0.9311482 0.01612275 0
vt 0.8627933 0.01876348 0
vt 0.8616318 0.01932759 0
vt 0.8527065 0.0424485 0
vt 0.8530215 0.04250964 0
vt 0.862507 0.02012464 0
vt 0.8627521 0.02000788 0
vt 0.8627175 0.02032878 0
vt 0.9426157 0.03128443 0
vt 0.942861 0.03098227 0
vt 0.2944734 0.03994779 0
vt 0.4537576 0.04394259 0
vt 0.2929688 0.04285635 0
vt 0.4513175 0.04119185 0
vt 0.3682813 0.06414728 0
vt 0.2710359 0.1753756 0
vt 0.4303201 0.1793704 0
vt 0.2695312 0.1782841 0
vt 0.42788 0.1766196 0
vt 0.3448438 0.1995751 0
vt 0.2710358 0.2051353 0
vt 0.430317 0.2091302 0
vt 0.2695312 0.2080438 0
vt 0.4278768 0.2063791 0
vt 0.3448424 0.229334 0
vt 0.2710358 0.1902554 0
vt 0.430319 0.1942502 0
vt 0.2695313 0.1931639 0
vt 0.4278787 0.1914993 0
vt 0.3448432 0.2144548 0
vt 0.2827549 0.02129899 0
vt 0.4420404 0.02529365 0
vt 0.28125 0.02420735 0
vt 0.4396004 0.02254289 0
vt 0.3565635 0.0454986 0
vt 0.6733799 0.00390625 0
vt 0.8326642 0.007901065 0
vt 0.671875 0.00681456 0
vt 0.8302239 0.005150095 0
vt 0.7471878 0.0281056 0
vt 0.2749421 0.00390625 0
vt 0.4342282 0.007901169 0
vt 0.2734375 0.006814808 0
vt 0.4317879 0.005150186 0
vt 0.3487507 0.02810632 0
vt 0.3685238 0.0671573 0
vt 0.3694974 0.06717804 0
vt 0.2934752 0.04138469 0
vt 0.2933356 0.04164465 0
vt 0.4534404 0.04271693 0
vt 0.4531422 0.04244432 0
vt 0.3689432 0.06567251 0
vt 0.3692349 0.06594515 0
vt 0.3688316 0.06593777 0
vt 0.3450863 0.2025851 0
vt 0.3460599 0.2026058 0
vt 0.2700377 0.1768125 0
vt 0.2698981 0.1770724 0
vt 0.4300029 0.1781447 0
vt 0.4297047 0.1778721 0
vt 0.3455057 0.2011003 0
vt 0.3457974 0.2013729 0
vt 0.3453941 0.2013656 0
vt 0.3450848 0.232344 0
vt 0.3460585 0.2323648 0
vt 0.2700378 0.2065723 0
vt 0.269898 0.2068323 0
vt 0.43 0.2079046 0
vt 0.4297015 0.2076319 0
vt 0.3455042 0.2308592 0
vt 0.3457959 0.231132 0
vt 0.3453928 0.2311248 0
vt 0.3450856 0.2174648 0
vt 0.3460593 0.2174855 0
vt 0.2700377 0.1916923 0
vt 0.269898 0.1919523 0
vt 0.4300018 0.1930246 0
vt 0.4297035 0.192752 0
vt 0.3455051 0.21598 0
vt 0.3457968 0.2162527 0
vt 0.3453934 0.2162453 0
vt 0.356806 0.04850864 0
vt 0.3577796 0.04852939 0
vt 0.2817567 0.02273589 0
vt 0.2816168 0.02299567 0
vt 0.4417236 0.02406819 0
vt 0.441425 0.02379539 0
vt 0.3572251 0.04702366 0
vt 0.3575171 0.04729651 0
vt 0.3571138 0.04728913 0
vt 0.7474299 0.03111542 0
vt 0.7484038 0.03113641 0
vt 0.6723816 0.005343197 0
vt 0.6722418 0.005602917 0
vt 0.832347 0.006675404 0
vt 0.8320485 0.006402584 0
vt 0.7478494 0.02963061 0
vt 0.7481414 0.02990344 0
vt 0.747738 0.02989611 0
vt 0.3489933 0.03111613 0
vt 0.349967 0.0311369 0
vt 0.2739439 0.005343213 0
vt 0.2738043 0.005603151 0
vt 0.4339111 0.006675491 0
vt 0.4336128 0.00640291 0
vt 0.3494126 0.02963157 0
vt 0.3497043 0.02990419 0
vt 0.3493014 0.02989681 0
vt 0.2025899 0.4673183 0
vt 0.4285429 0.3579052 0
vt 0.5250208 0.4959215 0
vt 0.8724992 0.4959215 0
vt 0.7393017 0.4959215 0
vt 0.961695 0.4959215 0
vt 0.5805684 0.4647699 0
vt 0.5628808 0.4647699 0
vt 0.3032694 0.1398251 0
vt 0.4022204 0.1414982 0
vt 0.5243911 0.4673183 0
vt 0.006448548 0.3579052 0
vt 0.993173 0.421247 0
vt 0.993173 0.4647699 0
vt 0.03137328 0.3579052 0
vt 0.03194296 0.3579052 0
vt 0.03137328 0.2490038 0
vt 0.03194296 0.2490038 0
vt 0.2663325 0.1120066 0
vt 0.2667846 0.1116043 0
vt 0.2667908 0.1120675 0
vt 0.7668938 0.156584 0
vt 0.7671444 0.1561934 0
vt 0.6838888 0.1009787 0
vt 0.6845164 0.1011344 0
vt 0.6841129 0.101423 0
vt 0.549577 0.1145879 0
vt 0.5495543 0.1141245 0
vt 0.4023005 0.115579 0
vt 0.4023018 0.1151149 0
vt 0.3040562 0.1138881 0
vt 0.3040663 0.1134241 0
vt 0.2641637 0.1512689 0
vt 0.2646728 0.1506935 0
vt 0.264696 0.1511571 0
vt 0.3815461 0.3579052 0
vt 0.382244 0.3579052 0
vt 0.5499947 0.1534186 0
vt 0.549531 0.1533912 0
vt 0.549387 0.3579052 0
vt 0.5499569 0.3579052 0
vt 0.4020857 0.1548475 0
vt 0.401831 0.1545708 0
vt 0.4025071 0.1541188 0
vt 0.3029623 0.1528903 0
vt 0.3029707 0.1524265 0
vt 0.6154984 0.4959215 0
vt 0.6160459 0.4959215 0
vt 0.9651459 0.4647699 0
vt 0.9657721 0.4647699 0
vt 0.9957549 0.4959215 0
vt 0.5278994 0.4647699 0
vt 0.2180856 0.4673183 0
vt 0.2186554 0.4673183 0
vt 0.5503594 0.14053 0
vt 0.5500792 0.1408036 0
vt 0.5496221 0.1401219 0
vt 0.265543 0.1380342 0
vt 0.2650819 0.1379849 0
vt 0.5243911 0.3586191 0
vt 0.7621846 0.1639419 0
vt 0.4050427 0.4673183 0
vt 0.4057885 0.4673183 0
vt 0.6821456 0.1104197 0
vt 0.6815893 0.110271 0
vt 0.6820096 0.1097728 0
vt 0.5567481 0.1206995 0
vt 0.5562757 0.1200114 0
vt 0.5569903 0.1204162 0
vt 0.2499857 0.4673183 0
vt 0.2505508 0.4673183 0
vt 0.2261408 0.4673183 0
vt 0.2267106 0.4673183 0
vt 0.5565376 0.1400967 0
vt 0.5564489 0.1396468 0
vt 0.5569162 0.1396664 0
vt 0.5496922 0.1675306 0
vt 0.5492576 0.1679356 0
vt 0.5492349 0.1674723 0
vt 0.1847708 0.4673183 0
vt 0.1853406 0.4673183 0
vt 0.5667993 0.3579052 0
vt 0.00447606 0.4673183 0
vt 0.402802 0.1685222 0
vt 0.4032552 0.1684385 0
vt 0.4032427 0.1689023 0
vt 0.2548827 0.00390625 0
vt 0.5180268 0.008958105 0
vt 0.2421875 0.01155457 0
vt 0.5303458 0.01715031 0
vt 0.2937144 0.0962057 0
vt 0.4744954 0.09916818 0
vt 0.3041066 0.1008986 0
vt 0.4640107 0.1034254 0
vt 0.2980068 0.09905312 0
vt 0.2984259 0.0986893 0
vt 0.2983654 0.09923027 0
vt 0.2454334 0.009602719 0
vt 0.2448777 0.009936961 0
vt 0.5277318 0.01541298 0
vt 0.5271919 0.01505411 0
vt 0.4700468 0.1018349 0
vt 0.4696885 0.1020118 0
vt 0.4696524 0.1014608 0
vt 0.2970082 0.09427169 0
vt 0.2964377 0.09459528 0
vt 0.4713137 0.09709276 0
vt 0.4718691 0.09744096 0
vt 0.4627276 0.08996144 0
vt 0.4626691 0.09001877 0
vt 0.3056385 0.08737538 0
vt 0.3056174 0.08737238 0
vt 0.5214044 0.01120441 0
vt 0.5208664 0.01084687 0
vt 0.2519316 0.005683326 0
vt 0.2513764 0.006017113 0
vt 0.3041313 0.09775533 0
vt 0.3041271 0.09710245 0
vt 0.4641315 0.09961866 0
vt 0.4641051 0.1002716 0
vt 0.3034526 0.09025153 0
vt 0.304603 0.09077101 0
vt 0.3035278 0.09140815 0
vt 0.4649851 0.09270532 0
vt 0.4649345 0.09395035 0
vt 0.4639851 0.09332825 0
vt 0.2966812 0.1014758 0
vt 0.2975134 0.1019217 0
vt 0.470755 0.104608 0
vt 0.4716144 0.1042045 0
vt 0.2903991 0.4869906 0
vt 0.159652 0.4869906 0
vt 0.159652 0.4731709 0
vt 0.2903991 0.4731709 0
vt 0.159652 0.4770781 0
vt 0.159652 0.4778855 0
vt 0.2903991 0.4778855 0
vt 0.2903991 0.4770781 0
vt 0.159652 0.4819186 0
vt 0.159652 0.482726 0
vt 0.2903991 0.482726 0
vt 0.2903991 0.4819186 0
vt 0.1577547 0.4721558 0
vt 0.4472023 0.5061298 0
vt 0.4638826 0.5061633 0
vt 0.5278994 0.421247 0
vt 0.2691756 0.5057726 0
vt 0.2680563 0.5046486 0
vt 0.4456161 0.5061266 0
vt 0.2874421 0.5058092 0
vt 0.2858559 0.505806 0
vt 0.5250208 0.4669206 0
vt 0.4928875 0.5050998 0
vt 0.2267106 0.3586191 0
vt 0.4941098 0.996275 0
vt 0.00390625 0.3586191 0
vt 0.5667993 0.2490038 0
vt 0.5272731 0.421247 0
vt 0.9957549 0.4669206 0
vt 0.6160459 0.4669206 0
vt 0.6154984 0.4669206 0
vt 0.382244 0.2490038 0
vt 0.3815461 0.2490038 0
vt 0.5805684 0.421247 0
vt 0.5499569 0.2490038 0
vt 0.549387 0.2490038 0
vt 0.2186554 0.3586191 0
vt 0.2180856 0.3586191 0
vt 0.4057885 0.3586191 0
vt 0.4050427 0.3586191 0
vt 0.2505508 0.3586191 0
vt 0.2499857 0.3586191 0
vt 0.2261408 0.3586191 0
vt 0.006448548 0.2490038 0
vt 0.1853406 0.3586191 0
vt 0.1847708 0.3586191 0
vt 0.00447606 0.3586191 0
vt 0.9657721 0.421247 0
vt 0.00390625 0.4673183 0
vt 0.9651459 0.421247 0
vt 0.5272731 0.4647699 0
vt 0.7393017 0.4669206 0
vt 0.8724992 0.4669206 0
vt 0.961695 0.4669206 0
vt 0.4285429 0.2490038 0
vt 0.2025899 0.3586191 0
vt 0.5628808 0.421247 0
vt 0.7619354 0.164329 0
#end 836 textures vertices 

#begin 149 normals 
vn 0.5774 -0.5774 -0.5773
vn 0.5774 -0.5774 0.5773
vn 0.5774 -0.5773 0.5773
vn -0.7071 -0 -0.7071
vn 0.7071 -0 -0.7071
vn 0.7127 -0 0.7015
vn 0.7071 -0 0.7071
vn 0.7071 -0.7071 -0
vn -0 -0.7071 0.7071
vn -0 -0.7071 -0.7071
vn 0.9227 -0 0.3856
vn -1 -0 -0
vn -0 -0 -1
vn -0 -1 -0
vn -0 -0 1
vn 0.6913 -0 0.7225
vn 0.9999 -0 -0.0158
vn 1 -0 -0
vn 1 -0 -0
vn -0 -0 -1
vn 1 -0 -0
vn 0.6992 -0 0.715
vn -0.5182 -0.8277 -0.2152
vn -0.5785 -0.5785 -0.5751
vn 0.756 -0.5713 0.3195
vn 0.5772 -0.5773 -0.5776
vn -0.5799 -0.5758 -0.5763
vn -0.5762 -0.5762 0.5796
vn 0.5775 -0.5774 0.5771
vn 0.5781 -0.5755 -0.5785
vn 0.5772 -0.5772 -0.5776
vn 0.5781 -0.5755 -0.5784
vn 0.5773 -0.5773 -0.5775
vn -0.5799 -0.5759 -0.5763
vn -0.5182 -0.8278 -0.2152
vn -0.5784 -0.5785 -0.5751
vn -0.5761 -0.5763 0.5796
vn 0.5774 -0.5775 0.5772
vn -0.5762 -0.5763 0.5796
vn -0.5183 -0.8277 -0.2152
vn -0.5785 -0.5784 -0.5751
vn 0.7561 -0.5712 0.3194
vn 0.5773 -0.5772 -0.5775
vn -0.58 -0.5758 -0.5762
vn -0.5763 -0.5762 0.5796
vn 0.5782 -0.5754 -0.5784
vn -0.9235 -0 -0.3836
vn -0.7092 -0 -0.705
vn -0 -0.7071 -0.7071
vn 0.7069 -0 -0.7073
vn 0.9211 -0 0.3892
vn -0.4941 -0.7096 -0.5023
vn 0.4914 -0.7087 0.5062
vn -0 -0.7071 0.7071
vn 0.7073 -0 0.7069
vn -0.705 -0 0.7092
vn -0.7093 -0 -0.7049
vn -0.7096 -0.7045 0.0045
vn -0.7071 -0.7071 0.0041
vn 0.7071 -0.7071 -0.0004
vn 0.7087 -0.7055 -0.0004
vn 0.9211 -0 0.3893
vn -0.7096 -0.7046 0.0045
vn 0.7088 -0.7055 -0.0004
vn -0.4942 -0.7096 -0.5023
vn 0.7072 -0.707 -0.0004
vn -1 -0 0.0063
vn -0 -1 -0
vn -0.7013 -0 -0.7129
vn -1 -0 0.0058
vn -0 -0 -1
vn 1 -0 -0.0006
vn 0.6965 -0 0.7175
vn 1 -0 -0.0005
vn -0 -0 1
vn 0.5793 -0.573 -0.5797
vn 0.5794 -0.573 -0.5797
vn 0.5794 -0.573 -0.5796
vn -0 -0.6778 -0.7352
vn 0.6837 -0.7297 -0.0004
vn 0.7069 -0 -0.7073
vn 0.6838 -0.7297 -0.0004
vn -0 -0.6779 -0.7352
vn -0 -0 -1
vn 1 -0 -0.0005
vn -0 -1 -0
vn 0.7679 -0.5526 0.324
vn 0.7679 -0.5525 0.324
vn 0.5445 -0.6248 0.5596
vn 0.6597 -0.7515 -0.0003
vn 0.9213 -0 0.3888
vn 0.5445 -0.6249 0.5596
vn 0.5445 -0.6248 0.5595
vn 0.9213 -0 0.3887
vn 0.6974 -0 0.7167
vn 1 -0 -0.0005
vn -0 -1 -0
vn 0.5774 -0.5773 -0.5774
vn 0.757 -0.5733 0.3135
vn 0.3015 -0.3015 -0.9045
vn 0.3015 -0.9045 0.3015
vn 0.3015 -0.9045 -0.3015
vn 0.5228 -0.8225 0.2238
vn 0.3007 -0.9067 -0.2959
vn 0.573 -0.5861 -0.5729
vn 0.5774 -0.5773 -0.5773
vn 0.5774 -0.5773 0.5773
vn -0.7071 -0 -0.7071
vn 0.7071 -0.7071 -0
vn 0.7071 -0 -0.7071
vn 0.5 -0.7071 0.5
vn 0.7071 -0 0.7071
vn -0 -0.7071 -0.7071
vn 0.9239 -0 0.3827
vn 0.9193 -0 0.3936
vn 0.7128 -0 -0.7014
vn 0.7098 -0.7043 0.0114
vn 0.5004 -0.7013 0.5078
vn -0 -0.7152 -0.6989
vn -0 -0.7071 0.7071
vn -0 -0 -1
vn -1 -0 -0
vn 1 -0 -0
vn -0 -1 -0
vn -0 -0 1
vn 0.7019 -0 0.7123
vn 0.9999 -0 0.0161
vn 0.5773 0.5774 0.5774
vn 0.5773 0.5773 -0.5774
vn 0.9045 -0.3015 -0.3015
vn 0.9045 -0.3015 0.3015
vn 0.7071 -0 0.7071
vn -0 -0.7071 0.7071
vn 0.7071 -0 -0.7071
vn -0 -0.7071 -0.7071
vn 0.7071 -0.7071 -0
vn 0.7071 0.7071 -0
vn -0 0.7071 0.7071
vn -0 0.7071 -0.7071
vn 1 -0 -0
vn -0 1 -0
vn -0 -0 1
vn -0 -0 -1
vn -0 -1 -0
vn 0.7071 -0 -0.7071
vn 0.7071 -0 0.7071
vn -0 -0 -1
vn 1 -0 -0
vn -0 -0 1
#end 149 normals 

#begin 534 faces
o Cube:009
s 0
f 13/13/1 14/14/1 15/791/1 
f 16/16/2 17/17/2 18/18/2 
f 27/27/1 28/28/1 29/29/1 
f 30/30/3 31/31/3 32/32/3 
f 33/33/4 12/12/4 11/11/4 34/34/4 
f 39/39/5 24/24/5 23/23/5 40/40/5 
f 41/41/6 26/26/6 25/25/6 42/42/6 
f 45/45/7 30/799/7 32/798/7 46/46/7 
f 31/31/8 28/28/8 27/27/8 32/32/8 
f 16/16/9 31/31/9 30/30/9 17/17/9 
f 28/28/10 14/14/10 13/13/10 29/29/10 
f 19/19/11 36/36/11 35/35/11 20/20/11 
f 21/801/5 38/38/5 37/37/5 22/22/5 
f 29/792/5 44/44/5 43/43/5 27/797/5 
f 9/9/12 10/10/12 34/34/12 11/11/12 
f 12/12/13 33/33/13 6/6/13 1/1/13 
f 16/16/14 14/14/14 28/28/14 31/31/14 
f 13/793/13 4/4/13 44/44/13 29/792/13 
f 4/4/13 13/793/13 15/15/13 22/22/13 37/37/13 
f 18/796/15 17/795/15 5/5/15 42/42/15 25/25/15 
f 5/5/15 17/795/15 30/799/15 45/45/15 
f 7/7/16 2/2/16 20/20/16 35/35/16 
f 26/26/17 41/41/17 36/36/17 19/19/17 
f 3/3/18 8/8/18 38/803/18 21/21/18 
f 23/23/13 1/1/13 6/6/13 40/40/13 
f 24/24/18 39/39/18 8/8/18 3/3/18 
f 46/46/18 32/798/18 27/797/18 43/43/18 
o Plane:077
s 0
f 47/47/19 48/48/19 50/50/19 49/49/19 
f 49/49/20 50/50/20 52/52/20 51/51/20 
f 53/53/19 54/54/19 56/56/19 55/55/19 
f 55/55/20 56/56/20 58/58/20 57/57/20 
f 59/59/19 60/60/19 62/62/19 61/61/19 
f 61/61/20 62/62/20 64/64/20 63/63/20 
f 65/65/19 66/66/19 68/68/19 67/67/19 
f 67/67/20 68/68/20 70/70/20 69/69/20 
f 71/71/19 72/72/19 74/74/19 73/73/19 
f 73/73/20 74/74/20 76/76/20 75/75/20 
f 77/77/19 78/78/19 80/80/19 79/79/19 
f 79/79/20 80/80/20 82/82/20 81/81/20 
f 83/83/19 84/84/19 86/86/19 85/85/19 
f 85/85/20 86/86/20 88/88/20 87/87/20 
o Plane:078
s 0
f 89/89/21 90/90/21 92/92/21 91/91/21 
f 90/90/22 89/89/22 93/93/22 94/94/22 
f 95/95/21 96/96/21 98/98/21 97/97/21 
f 96/96/22 95/95/22 99/99/22 100/100/22 
f 101/101/21 102/102/21 104/104/21 103/103/21 
f 102/102/22 101/101/22 105/105/22 106/106/22 
f 107/107/21 108/108/21 110/110/21 109/109/21 
f 108/108/22 107/107/22 111/111/22 112/112/22 
f 113/113/21 114/114/21 116/116/21 115/115/21 
f 114/114/22 113/113/22 117/117/22 118/118/22 
f 119/119/21 120/120/21 122/122/21 121/121/21 
f 120/120/22 119/119/22 123/123/22 124/124/22 
f 125/125/21 126/126/21 128/128/21 127/127/21 
f 126/126/22 125/125/22 129/129/22 130/130/22 
o Cube:479
s 0
f 145/145/23 146/146/23 147/147/23 
f 150/150/24 151/151/24 152/152/24 
f 155/155/25 156/156/25 157/157/25 
f 160/160/26 161/161/26 162/162/26 
f 169/169/27 170/170/27 171/171/27 
f 172/172/28 173/173/28 174/174/28 
f 179/179/29 180/180/29 181/181/29 
f 182/182/30 183/183/30 184/184/30 
f 189/189/23 190/190/23 191/191/23 
f 194/194/24 195/195/24 196/196/24 
f 199/199/25 200/200/25 201/201/25 
f 204/204/31 205/205/31 206/206/31 
f 213/213/27 214/214/27 215/215/27 
f 216/216/28 217/217/28 218/218/28 
f 223/223/29 224/224/29 225/225/29 
f 226/226/32 227/227/32 228/228/32 
f 233/233/23 234/234/23 235/235/23 
f 238/238/24 239/239/24 240/240/24 
f 243/243/25 244/244/25 245/245/25 
f 248/248/33 249/249/33 250/250/33 
f 257/257/34 258/258/34 259/259/34 
f 260/260/28 261/261/28 262/262/28 
f 267/267/29 268/268/29 269/269/29 
f 270/270/32 271/271/32 272/272/32 
f 277/277/35 278/278/35 279/279/35 
f 282/282/36 283/283/36 284/284/36 
f 287/287/25 288/288/25 289/289/25 
f 292/292/26 293/293/26 294/294/26 
f 301/301/34 302/302/34 303/303/34 
f 304/304/37 305/305/37 306/306/37 
f 311/311/38 312/312/38 313/313/38 
f 314/314/30 315/315/30 316/316/30 
f 321/321/23 322/322/23 323/323/23 
f 326/326/24 327/327/24 328/328/24 
f 331/331/25 332/332/25 333/333/25 
f 336/336/33 337/337/33 338/338/33 
f 345/345/27 346/346/27 347/347/27 
f 348/348/28 349/349/28 350/350/28 
f 355/355/29 356/356/29 357/357/29 
f 358/358/32 359/359/32 360/360/32 
f 365/365/35 366/366/35 367/367/35 
f 370/370/36 371/371/36 372/372/36 
f 375/375/25 376/376/25 377/377/25 
f 380/380/26 381/381/26 382/382/26 
f 389/389/34 390/390/34 391/391/34 
f 392/392/39 393/393/39 394/394/39 
f 399/399/38 400/400/38 401/401/38 
f 402/402/30 403/403/30 404/404/30 
f 409/409/40 410/410/40 411/411/40 
f 414/414/41 415/415/41 416/416/41 
f 419/419/42 420/420/42 421/421/42 
f 424/424/43 425/425/43 426/426/43 
f 433/433/44 434/434/44 435/435/44 
f 436/436/45 437/437/45 438/438/45 
f 443/443/29 444/444/29 445/445/29 
f 446/446/46 447/447/46 448/448/46 
f 147/147/47 149/149/47 148/148/47 145/145/47 
f 153/153/48 151/151/48 150/150/48 154/154/48 
f 160/160/49 152/152/49 151/151/49 161/161/49 
f 163/163/50 162/162/50 161/161/50 164/164/50 
f 158/158/51 156/156/51 155/155/51 159/159/51 
f 146/146/52 166/166/52 165/165/52 147/147/52 
f 156/156/53 168/168/53 167/167/53 157/157/53 
f 182/182/49 169/169/49 171/171/49 183/183/49 
f 172/172/54 179/179/54 181/181/54 173/173/54 
f 185/185/50 184/184/50 183/183/50 186/186/50 
f 180/180/55 188/188/55 187/187/55 181/181/55 
f 175/175/56 174/174/56 173/173/56 176/176/56 
f 170/170/57 178/178/57 177/177/57 171/171/57 
f 169/169/58 146/146/58 145/145/58 170/170/58 
f 174/174/59 150/150/59 152/152/59 172/172/59 
f 162/162/60 180/180/60 179/179/60 160/160/60 
f 184/184/61 155/155/61 157/157/61 182/182/61 
f 191/191/47 193/193/47 192/192/47 189/189/47 
f 197/197/48 195/195/48 194/194/48 198/198/48 
f 204/204/49 196/196/49 195/195/49 205/205/49 
f 207/207/50 206/206/50 205/205/50 208/208/50 
f 202/202/62 200/200/62 199/199/62 203/203/62 
f 190/190/52 210/210/52 209/209/52 191/191/52 
f 200/200/53 212/212/53 211/211/53 201/201/53 
f 226/226/49 213/213/49 215/215/49 227/227/49 
f 216/216/54 223/223/54 225/225/54 217/217/54 
f 229/229/50 228/228/50 227/227/50 230/230/50 
f 224/224/55 232/232/55 231/231/55 225/225/55 
f 219/219/56 218/218/56 217/217/56 220/220/56 
f 214/214/57 222/222/57 221/221/57 215/215/57 
f 213/213/63 190/190/63 189/189/63 214/214/63 
f 218/218/59 194/194/59 196/196/59 216/216/59 
f 206/206/60 224/224/60 223/223/60 204/204/60 
f 228/228/61 199/199/61 201/201/61 226/226/61 
f 235/235/47 237/237/47 236/236/47 233/233/47 
f 241/241/48 239/239/48 238/238/48 242/242/48 
f 248/248/49 240/240/49 239/239/49 249/249/49 
f 251/251/50 250/250/50 249/249/50 252/252/50 
f 246/246/51 244/244/51 243/243/51 247/247/51 
f 234/234/52 254/254/52 253/253/52 235/235/52 
f 244/244/53 256/256/53 255/255/53 245/245/53 
f 270/270/49 257/257/49 259/259/49 271/271/49 
f 260/260/54 267/267/54 269/269/54 261/261/54 
f 273/273/50 272/272/50 271/271/50 274/274/50 
f 268/268/55 276/276/55 275/275/55 269/269/55 
f 263/263/56 262/262/56 261/261/56 264/264/56 
f 258/258/57 266/266/57 265/265/57 259/259/57 
f 257/257/63 234/234/63 233/233/63 258/258/63 
f 262/262/59 238/238/59 240/240/59 260/260/59 
f 250/250/60 268/268/60 267/267/60 248/248/60 
f 272/272/61 243/243/61 245/245/61 270/270/61 
f 279/279/47 281/281/47 280/280/47 277/277/47 
f 285/285/48 283/283/48 282/282/48 286/286/48 
f 292/292/49 284/284/49 283/283/49 293/293/49 
f 295/295/50 294/294/50 293/293/50 296/296/50 
f 290/290/62 288/288/62 287/287/62 291/291/62 
f 278/278/52 298/298/52 297/297/52 279/279/52 
f 288/288/53 300/300/53 299/299/53 289/289/53 
f 314/314/49 301/301/49 303/303/49 315/315/49 
f 304/304/54 311/311/54 313/313/54 305/305/54 
f 317/317/50 316/316/50 315/315/50 318/318/50 
f 312/312/55 320/320/55 319/319/55 313/313/55 
f 307/307/56 306/306/56 305/305/56 308/308/56 
f 302/302/57 310/310/57 309/309/57 303/303/57 
f 301/301/63 278/278/63 277/277/63 302/302/63 
f 306/306/59 282/282/59 284/284/59 304/304/59 
f 294/294/60 312/312/60 311/311/60 292/292/60 
f 316/316/61 287/287/61 289/289/61 314/314/61 
f 323/323/47 325/325/47 324/324/47 321/321/47 
f 329/329/48 327/327/48 326/326/48 330/330/48 
f 336/336/49 328/328/49 327/327/49 337/337/49 
f 339/339/50 338/338/50 337/337/50 340/340/50 
f 334/334/62 332/332/62 331/331/62 335/335/62 
f 322/322/52 342/342/52 341/341/52 323/323/52 
f 332/332/53 344/344/53 343/343/53 333/333/53 
f 358/358/49 345/345/49 347/347/49 359/359/49 
f 348/348/54 355/355/54 357/357/54 349/349/54 
f 361/361/50 360/360/50 359/359/50 362/362/50 
f 356/356/55 364/364/55 363/363/55 357/357/55 
f 351/351/56 350/350/56 349/349/56 352/352/56 
f 346/346/57 354/354/57 353/353/57 347/347/57 
f 345/345/63 322/322/63 321/321/63 346/346/63 
f 350/350/59 326/326/59 328/328/59 348/348/59 
f 338/338/60 356/356/60 355/355/60 336/336/60 
f 360/360/64 331/331/64 333/333/64 358/358/64 
f 367/367/47 369/369/47 368/368/47 365/365/47 
f 373/373/48 371/371/48 370/370/48 374/374/48 
f 380/380/49 372/372/49 371/371/49 381/381/49 
f 383/383/50 382/382/50 381/381/50 384/384/50 
f 378/378/62 376/376/62 375/375/62 379/379/62 
f 366/366/52 386/386/52 385/385/52 367/367/52 
f 376/376/53 388/388/53 387/387/53 377/377/53 
f 402/402/49 389/389/49 391/391/49 403/403/49 
f 392/392/54 399/399/54 401/401/54 393/393/54 
f 405/405/50 404/404/50 403/403/50 406/406/50 
f 400/400/55 408/408/55 407/407/55 401/401/55 
f 395/395/56 394/394/56 393/393/56 396/396/56 
f 390/390/57 398/398/57 397/397/57 391/391/57 
f 389/389/63 366/366/63 365/365/63 390/390/63 
f 394/394/59 370/370/59 372/372/59 392/392/59 
f 382/382/60 400/400/60 399/399/60 380/380/60 
f 404/404/61 375/375/61 377/377/61 402/402/61 
f 411/411/47 413/413/47 412/412/47 409/409/47 
f 417/417/48 415/415/48 414/414/48 418/418/48 
f 424/424/49 416/416/49 415/415/49 425/425/49 
f 427/427/50 426/426/50 425/425/50 428/428/50 
f 422/422/51 420/420/51 419/419/51 423/423/51 
f 410/410/65 430/430/65 429/429/65 411/411/65 
f 420/420/53 432/432/53 431/431/53 421/421/53 
f 446/446/49 433/433/49 435/435/49 447/447/49 
f 436/436/54 443/443/54 445/445/54 437/437/54 
f 449/449/50 448/448/50 447/447/50 450/450/50 
f 444/444/55 452/452/55 451/451/55 445/445/55 
f 439/439/56 438/438/56 437/437/56 440/440/56 
f 434/434/57 442/442/57 441/441/57 435/435/57 
f 433/433/58 410/410/58 409/409/58 434/434/58 
f 438/438/59 414/414/59 416/416/59 436/436/59 
f 426/426/66 444/444/66 443/443/66 424/424/66 
f 448/448/64 419/419/64 421/421/64 446/446/64 
f 145/145/67 148/148/67 178/178/67 170/170/67 
f 146/146/68 157/157/68 167/167/68 166/166/68 
f 149/149/69 147/147/69 165/165/69 131/131/69 
f 169/169/68 182/182/68 157/157/68 146/146/68 
f 174/174/70 175/175/70 154/154/70 150/150/70 
f 151/151/71 153/153/71 164/164/71 161/161/71 
f 152/152/68 160/160/68 179/179/68 172/172/68 
f 184/184/72 185/185/72 159/159/72 155/155/72 
f 156/156/73 158/158/73 132/132/73 168/168/73 
f 162/162/74 163/163/74 188/188/74 180/180/74 
f 177/177/71 186/186/71 183/183/71 171/171/71 
f 181/181/75 187/187/75 176/176/75 173/173/75 
f 189/189/67 192/192/67 222/222/67 214/214/67 
f 190/190/68 201/201/68 211/211/68 210/210/68 
f 193/193/69 191/191/69 209/209/69 133/133/69 
f 213/213/68 226/226/68 201/201/68 190/190/68 
f 218/218/70 219/219/70 198/198/70 194/194/70 
f 195/195/71 197/197/71 208/208/71 205/205/71 
f 196/196/68 204/204/68 223/223/68 216/216/68 
f 228/228/72 229/229/72 203/203/72 199/199/72 
f 200/200/73 202/202/73 134/134/73 212/212/73 
f 206/206/74 207/207/74 232/232/74 224/224/74 
f 221/221/71 230/230/71 227/227/71 215/215/71 
f 225/225/75 231/231/75 220/220/75 217/217/75 
f 233/233/67 236/236/67 266/266/67 258/258/67 
f 234/234/68 245/245/68 255/255/68 254/254/68 
f 237/237/69 235/235/69 253/253/69 135/135/69 
f 257/257/68 270/270/68 245/245/68 234/234/68 
f 262/262/70 263/263/70 242/242/70 238/238/70 
f 239/239/71 241/241/71 252/252/71 249/249/71 
f 240/240/68 248/248/68 267/267/68 260/260/68 
f 272/272/72 273/273/72 247/247/72 243/243/72 
f 244/244/73 246/246/73 136/136/73 256/256/73 
f 250/250/74 251/251/74 276/276/74 268/268/74 
f 265/265/71 274/274/71 271/271/71 259/259/71 
f 269/269/75 275/275/75 264/264/75 261/261/75 
f 277/277/67 280/280/67 310/310/67 302/302/67 
f 278/278/68 289/289/68 299/299/68 298/298/68 
f 281/281/69 279/279/69 297/297/69 137/137/69 
f 301/301/68 314/314/68 289/289/68 278/278/68 
f 306/306/70 307/307/70 286/286/70 282/282/70 
f 283/283/71 285/285/71 296/296/71 293/293/71 
f 284/284/68 292/292/68 311/311/68 304/304/68 
f 316/316/72 317/317/72 291/291/72 287/287/72 
f 288/288/73 290/290/73 138/138/73 300/300/73 
f 294/294/74 295/295/74 320/320/74 312/312/74 
f 309/309/71 318/318/71 315/315/71 303/303/71 
f 313/313/75 319/319/75 308/308/75 305/305/75 
f 321/321/67 324/324/67 354/354/67 346/346/67 
f 322/322/68 333/333/68 343/343/68 342/342/68 
f 325/325/69 323/323/69 341/341/69 139/139/69 
f 345/345/68 358/358/68 333/333/68 322/322/68 
f 350/350/70 351/351/70 330/330/70 326/326/70 
f 327/327/71 329/329/71 340/340/71 337/337/71 
f 328/328/68 336/336/68 355/355/68 348/348/68 
f 360/360/72 361/361/72 335/335/72 331/331/72 
f 332/332/73 334/334/73 140/140/73 344/344/73 
f 338/338/74 339/339/74 364/364/74 356/356/74 
f 353/353/71 362/362/71 359/359/71 347/347/71 
f 357/357/75 363/363/75 352/352/75 349/349/75 
f 365/365/67 368/368/67 398/398/67 390/390/67 
f 366/366/68 377/377/68 387/387/68 386/386/68 
f 369/369/69 367/367/69 385/385/69 141/141/69 
f 389/389/68 402/402/68 377/377/68 366/366/68 
f 394/394/70 395/395/70 374/374/70 370/370/70 
f 371/371/71 373/373/71 384/384/71 381/381/71 
f 372/372/68 380/380/68 399/399/68 392/392/68 
f 404/404/72 405/405/72 379/379/72 375/375/72 
f 376/376/73 378/378/73 142/142/73 388/388/73 
f 382/382/74 383/383/74 408/408/74 400/400/74 
f 397/397/71 406/406/71 403/403/71 391/391/71 
f 401/401/75 407/407/75 396/396/75 393/393/75 
f 409/409/67 412/412/67 442/442/67 434/434/67 
f 410/410/68 421/421/68 431/431/68 430/430/68 
f 413/413/69 411/411/69 429/429/69 143/143/69 
f 433/433/68 446/446/68 421/421/68 410/410/68 
f 438/438/70 439/439/70 418/418/70 414/414/70 
f 415/415/71 417/417/71 428/428/71 425/425/71 
f 416/416/68 424/424/68 443/443/68 436/436/68 
f 448/448/72 449/449/72 423/423/72 419/419/72 
f 420/420/73 422/422/73 144/144/73 432/432/73 
f 426/426/74 427/427/74 452/452/74 444/444/74 
f 441/441/71 450/450/71 447/447/71 435/435/71 
f 445/445/75 451/451/75 440/440/75 437/437/75 
o Cube:480
s 0
f 492/492/76 493/493/76 494/494/76 
f 501/501/77 502/502/77 503/503/77 
f 510/510/78 511/511/78 512/512/78 
f 519/519/76 520/520/76 521/521/76 
f 528/528/78 529/529/78 530/530/78 
f 537/537/76 538/538/76 539/539/76 
f 546/546/78 547/547/78 548/548/78 
f 494/494/79 491/491/79 490/490/79 492/492/79 
f 495/495/80 494/494/80 493/493/80 496/496/80 
f 492/492/81 489/489/81 488/488/81 493/493/81 
f 503/503/79 500/500/79 499/499/79 501/501/79 
f 504/504/82 503/503/82 502/502/82 505/505/82 
f 501/501/81 498/498/81 497/497/81 502/502/81 
f 512/512/83 509/509/83 508/508/83 510/510/83 
f 513/513/80 512/512/80 511/511/80 514/514/80 
f 510/510/81 507/507/81 506/506/81 511/511/81 
f 521/521/83 518/518/83 517/517/83 519/519/83 
f 522/522/80 521/521/80 520/520/80 523/523/80 
f 519/519/81 516/516/81 515/515/81 520/520/81 
f 530/530/83 527/527/83 526/526/83 528/528/83 
f 531/531/80 530/530/80 529/529/80 532/532/80 
f 528/528/81 525/525/81 524/524/81 529/529/81 
f 539/539/83 536/536/83 535/535/83 537/537/83 
f 540/540/80 539/539/80 538/538/80 541/541/80 
f 537/537/81 534/534/81 533/533/81 538/538/81 
f 548/548/79 545/545/79 544/544/79 546/546/79 
f 549/549/82 548/548/82 547/547/82 550/550/82 
f 546/546/81 543/543/81 542/542/81 547/547/81 
f 453/453/84 489/489/84 492/492/84 490/490/84 
f 488/488/85 454/454/85 496/496/85 493/493/85 
f 491/491/86 494/494/86 456/456/86 455/455/86 
f 494/494/86 495/495/86 457/457/86 456/456/86 
f 458/458/84 498/498/84 501/501/84 499/499/84 
f 497/497/85 459/459/85 505/505/85 502/502/85 
f 500/500/86 503/503/86 461/461/86 460/460/86 
f 503/503/86 504/504/86 462/462/86 461/461/86 
f 463/463/84 507/507/84 510/510/84 508/508/84 
f 506/506/85 464/464/85 514/514/85 511/511/85 
f 509/509/86 512/512/86 466/466/86 465/465/86 
f 512/512/86 513/513/86 467/467/86 466/466/86 
f 468/468/84 516/516/84 519/519/84 517/517/84 
f 515/515/85 469/469/85 523/523/85 520/520/85 
f 518/518/86 521/521/86 471/471/86 470/470/86 
f 521/521/86 522/522/86 472/472/86 471/471/86 
f 473/473/84 525/525/84 528/528/84 526/526/84 
f 524/524/85 474/474/85 532/532/85 529/529/85 
f 527/527/86 530/530/86 476/476/86 475/475/86 
f 530/530/86 531/531/86 477/477/86 476/476/86 
f 478/478/84 534/534/84 537/537/84 535/535/84 
f 533/533/85 479/479/85 541/541/85 538/538/85 
f 536/536/86 539/539/86 481/481/86 480/480/86 
f 539/539/86 540/540/86 482/482/86 481/481/86 
f 483/483/84 543/543/84 546/546/84 544/544/84 
f 542/542/85 484/484/85 550/550/85 547/547/85 
f 545/545/86 548/548/86 486/486/86 485/485/86 
f 548/548/86 549/549/86 487/487/86 486/486/86 
o Cube:481
s 0
f 592/592/87 593/593/87 594/594/87 
f 601/601/87 602/602/87 603/603/87 
f 610/610/87 611/611/87 612/612/87 
f 619/619/87 620/620/87 621/621/87 
f 628/628/87 629/629/87 630/630/87 
f 637/637/87 638/638/87 639/639/87 
f 646/646/88 647/647/88 648/648/88 
f 594/594/89 589/589/89 588/588/89 592/592/89 
f 592/592/90 591/591/90 590/590/90 593/593/90 
f 586/586/91 594/594/91 593/593/91 587/587/91 
f 603/603/92 598/598/92 597/597/92 601/601/92 
f 601/601/90 600/600/90 599/599/90 602/602/90 
f 595/595/91 603/603/91 602/602/91 596/596/91 
f 612/612/92 607/607/92 606/606/92 610/610/92 
f 610/610/90 609/609/90 608/608/90 611/611/90 
f 604/604/91 612/612/91 611/611/91 605/605/91 
f 621/621/93 616/616/93 615/615/93 619/619/93 
f 619/619/90 618/618/90 617/617/90 620/620/90 
f 613/613/94 621/621/94 620/620/94 614/614/94 
f 630/630/92 625/625/92 624/624/92 628/628/92 
f 628/628/90 627/627/90 626/626/90 629/629/90 
f 622/622/94 630/630/94 629/629/94 623/623/94 
f 639/639/92 634/634/92 633/633/92 637/637/92 
f 637/637/90 636/636/90 635/635/90 638/638/90 
f 631/631/94 639/639/94 638/638/94 632/632/94 
f 648/648/89 643/643/89 642/642/89 646/646/89 
f 646/646/90 645/645/90 644/644/90 647/647/90 
f 640/640/94 648/648/94 647/647/94 641/641/94 
f 594/594/95 586/586/95 553/553/95 589/589/95 
f 552/552/96 587/587/96 593/593/96 590/590/96 
f 555/555/97 592/592/97 588/588/97 551/551/97 
f 591/591/97 592/592/97 555/555/97 554/554/97 
f 603/603/95 595/595/95 558/558/95 598/598/95 
f 557/557/96 596/596/96 602/602/96 599/599/96 
f 560/560/97 601/601/97 597/597/97 556/556/97 
f 600/600/97 601/601/97 560/560/97 559/559/97 
f 612/612/95 604/604/95 563/563/95 607/607/95 
f 562/562/96 605/605/96 611/611/96 608/608/96 
f 565/565/97 610/610/97 606/606/97 561/561/97 
f 609/609/97 610/610/97 565/565/97 564/564/97 
f 621/621/95 613/613/95 568/568/95 616/616/95 
f 567/567/96 614/614/96 620/620/96 617/617/96 
f 570/570/97 619/619/97 615/615/97 566/566/97 
f 618/618/97 619/619/97 570/570/97 569/569/97 
f 630/630/95 622/622/95 573/573/95 625/625/95 
f 572/572/96 623/623/96 629/629/96 626/626/96 
f 575/575/97 628/628/97 624/624/97 571/571/97 
f 627/627/97 628/628/97 575/575/97 574/574/97 
f 639/639/95 631/631/95 578/578/95 634/634/95 
f 577/577/96 632/632/96 638/638/96 635/635/96 
f 580/580/97 637/637/97 633/633/97 576/576/97 
f 636/636/97 637/637/97 580/580/97 579/579/97 
f 648/648/95 640/640/95 583/583/95 643/643/95 
f 582/582/96 641/641/96 647/647/96 644/644/96 
f 585/585/97 646/646/97 642/642/97 581/581/97 
f 645/645/97 646/646/97 585/585/97 584/584/97 
o Cube:502
s 0
f 667/667/98 668/668/98 669/669/98 
f 672/672/99 673/673/99 674/674/99 
f 681/681/100 682/682/100 683/683/100 
f 690/690/101 691/691/101 692/692/101 
f 703/703/102 704/704/102 705/705/102 
f 712/712/103 713/713/103 714/714/103 
f 715/715/104 716/716/104 717/717/104 
f 722/722/105 723/723/105 724/724/105 
f 725/725/106 726/726/106 727/727/106 
f 732/732/107 733/733/107 734/734/107 
f 666/666/108 664/664/108 663/663/108 665/665/108 
f 722/722/109 703/703/109 705/705/109 723/723/109 
f 697/697/108 666/828/108 665/826/108 698/698/108 
f 699/829/110 668/806/110 667/794/110 700/700/110 
f 676/676/109 672/672/109 674/674/109 675/675/109 
f 675/675/109 677/677/109 678/678/109 676/676/109 
f 670/670/111 674/674/111 673/673/111 671/671/111 
f 680/680/109 678/678/109 677/677/109 679/679/109 
f 668/668/109 680/680/109 679/679/109 669/669/109 
f 683/810/110 685/685/110 684/684/110 681/811/110 
f 688/688/112 691/814/112 690/813/112 689/689/112 
f 694/694/109 692/692/109 691/691/109 693/693/109 
f 682/682/109 694/694/109 693/693/109 683/683/109 
f 704/704/113 686/686/113 687/687/113 705/705/113 
f 707/707/113 667/667/113 669/669/113 706/706/113 
f 672/808/114 696/696/114 695/695/114 673/809/114 
f 681/681/113 707/707/113 706/706/113 682/682/113 
f 701/701/110 704/816/110 703/815/110 702/702/110 
f 710/710/115 713/818/115 712/817/115 711/711/115 
f 717/819/116 719/719/116 718/718/116 715/820/116 
f 716/716/117 714/714/117 713/713/117 717/717/117 
f 708/836/118 712/712/118 714/714/118 709/709/118 
f 715/715/119 724/724/119 723/723/119 716/716/119 
f 720/720/110 722/821/110 724/802/110 721/721/110 
f 725/823/110 729/729/110 728/728/110 726/824/110 
f 730/827/112 732/804/112 734/825/112 731/731/112 
f 726/726/109 734/734/109 733/733/109 727/727/109 
f 692/692/120 733/733/120 732/732/120 690/690/120 
f 686/686/113 725/725/113 727/727/113 687/687/113 
f 664/664/121 666/666/121 681/811/121 684/684/121 
f 660/660/122 661/822/122 665/665/122 663/663/122 
f 666/828/121 697/697/121 655/655/121 681/812/121 
f 661/661/122 662/662/122 698/698/122 665/826/122 
f 707/835/121 656/656/121 700/700/121 667/794/121 
f 668/807/123 699/699/123 654/654/123 680/832/123 
f 669/669/124 679/679/124 657/657/124 706/706/124 
f 651/651/112 671/800/112 673/809/112 695/695/112 
f 674/674/124 670/670/124 709/709/124 714/714/124 
f 675/675/124 674/674/124 714/714/124 716/716/124 
f 676/830/123 653/653/123 696/696/123 672/808/123 
f 653/653/123 676/830/123 678/831/123 652/652/123 
f 677/677/124 675/675/124 705/705/124 658/658/124 
f 705/705/124 675/675/124 716/716/124 723/723/124 
f 680/832/123 654/654/123 652/652/123 678/831/123 
f 679/679/124 677/677/124 658/658/124 657/657/124 
f 685/685/123 683/810/123 693/833/123 650/650/123 
f 681/812/121 655/655/121 656/656/121 707/835/121 
f 706/706/124 657/657/124 694/694/124 682/682/124 
f 686/834/121 649/649/121 729/729/121 725/823/121 
f 658/658/124 705/705/124 687/687/124 692/692/124 
f 704/816/121 701/701/121 649/649/121 686/834/121 
f 692/692/124 687/687/124 727/727/124 733/733/124 
f 650/650/123 693/833/123 691/814/123 688/688/123 
f 689/689/125 690/813/125 732/805/125 730/730/125 
f 657/657/124 658/658/124 692/692/124 694/694/124 
f 702/702/123 703/815/123 722/821/123 720/720/123 
f 708/708/126 659/659/126 711/711/126 712/817/126 
f 719/719/127 717/819/127 713/818/127 710/710/127 
f 715/820/121 718/718/121 721/721/121 724/802/121 
f 726/824/123 728/728/123 731/731/123 734/825/123 
o Cube:762
s 0
f 743/743/128 744/744/128 745/745/128 
f 750/750/129 751/751/129 752/752/129 
f 769/769/130 770/770/130 771/771/130 
f 772/772/131 773/773/131 774/774/131 
f 754/754/132 747/747/132 746/746/132 753/753/132 
f 757/757/133 772/772/133 774/774/133 758/758/133 
f 756/756/134 750/750/134 752/752/134 755/755/134 
f 743/743/132 754/754/132 753/753/132 744/744/132 
f 748/748/134 756/756/134 755/755/134 749/749/134 
f 759/759/135 770/770/135 769/769/135 760/760/135 
f 770/770/136 774/774/136 773/773/136 771/771/136 
f 768/768/137 765/765/137 766/766/137 767/767/137 
f 761/761/132 773/773/132 772/772/132 762/762/132 
f 771/771/134 764/764/134 763/763/134 769/769/134 
f 751/751/137 768/768/137 767/767/137 752/752/137 
f 765/765/137 745/745/137 744/744/137 766/766/137 
f 745/745/138 776/776/138 775/775/138 743/743/138 
f 777/777/139 751/751/139 750/750/139 778/778/139 
f 744/744/140 753/753/140 771/771/140 766/766/140 
f 745/745/141 765/765/141 741/741/141 776/776/141 
f 754/754/142 743/743/142 775/775/142 739/739/142 
f 747/747/142 754/754/142 739/739/142 737/737/142 
f 753/753/140 746/746/140 764/764/140 771/771/140 
f 756/756/143 748/748/143 738/738/143 740/740/143 
f 773/773/140 761/761/140 749/749/140 755/755/140 
f 750/750/143 756/756/143 740/740/143 778/778/143 
f 767/767/140 773/773/140 755/755/140 752/752/140 
f 768/768/141 751/751/141 777/777/141 742/742/141 
f 762/762/142 772/772/142 757/757/142 736/736/142 
f 774/774/144 770/770/144 759/759/144 758/758/144 
f 769/769/143 763/763/143 735/735/143 760/760/143 
f 765/765/141 768/768/141 742/742/141 741/741/141 
f 773/773/140 767/767/140 766/766/140 771/771/140 
o Cube:763
s 0
f 783/783/145 786/786/145 785/785/145 784/784/145 
f 787/787/146 790/790/146 789/789/146 788/788/146 
f 786/786/147 783/783/147 781/781/147 782/782/147 
f 790/790/148 787/787/148 784/784/148 785/785/148 
f 788/788/149 789/789/149 779/779/149 780/780/149 
#end 534 faces

#ZOMPROPERTIES_04{
#ZOMPROPERTIES_04 table {Mesh table {SymPlane table {Point vector3d 0 0 0 Normal vector3d 1 0 0 Threshold double 0.01 
#ZOMPROPERTIES_04 Enabled bool false EdgeID int -1 SymEdgeID int -1 UPos double 0.5 LocalMode bool false } RootGroup C
#ZOMPROPERTIES_04 SubMeshGroup {Children table {Tile_0_0 CSubMeshGroup {Children table {} BBoxUV box3d 0 0 0 0 0 0 BBo
#ZOMPROPERTIES_04 x3D box3d 0 0 0 0 0 0 Area3D double 0 AreaUV double 0.84119 IsRoot bool false Properties table {Sele
#ZOMPROPERTIES_04 cted bool false Box box3d 0 1 0 1 0 1 U int 0 V int 0 NU int 0 NV int 0 Tiling vector3d 1 1 1 TileRa
#ZOMPROPERTIES_04 tioMode string "1:1" Overflow string "Off" Pack table {BoxFrameEdit bool false Behavior string "Free
#ZOMPROPERTIES_04 " } } IsTile bool true PolyIDs ints { 315 326 347 346 324 348 349 325 314 323 343 342 321 344 345 32
#ZOMPROPERTIES_04 2 317 332 354 330 355 356 357 331 319 338 362 336 363 364 365 337 320 341 366 339 367 368 369 340 31
#ZOMPROPERTIES_04 8 335 358 333 359 360 361 334 316 329 351 350 327 352 353 328 371 381 403 382 405 404 380 402 370 37
#ZOMPROPERTIES_04 8 399 379 401 400 377 398 375 394 418 419 393 421 420 392 373 387 411 388 413 412 386 410 376 397 42
#ZOMPROPERTIES_04 2 423 396 425 424 395 374 391 415 390 414 417 416 389 372 384 407 385 409 408 383 406 529 532 530 53
#ZOMPROPERTIES_04 3 531 29 30 27 28 33 34 31 32 35 36 39 40 37 38 0 10 16 9 3 1 8 2 43 44 41 42 51 52 45 46 49 50 47 4
#ZOMPROPERTIES_04 8 53 54 496 511 514 528 522 502 497 510 523 527 507 515 512 513 521 519 504 520 508 499 501 525 505 
#ZOMPROPERTIES_04 498 509 526 518 500 517 516 503 524 506 80 164 271 165 82 177 272 170 277 173 270 176 172 275 84 85 
#ZOMPROPERTIES_04 163 72 147 259 148 74 160 260 153 265 156 258 146 159 155 263 76 77 88 193 282 190 289 189 287 182 2
#ZOMPROPERTIES_04 83 180 90 181 194 284 187 93 92 56 113 235 114 58 126 236 119 241 122 234 112 125 121 239 60 61 64 1
#ZOMPROPERTIES_04 30 247 131 66 143 248 136 253 139 246 129 142 138 251 68 69 104 215 307 216 106 228 308 221 313 224 
#ZOMPROPERTIES_04 306 214 227 223 311 108 109 96 198 295 199 98 211 296 204 301 207 294 210 206 299 100 101 197 103 21
#ZOMPROPERTIES_04 8 303 219 310 217 309 222 312 225 302 213 107 226 305 220 110 229 105 304 63 133 243 134 250 132 249
#ZOMPROPERTIES_04  137 70 135 252 140 242 128 67 141 245 144 65 244 79 167 267 168 274 166 273 171 86 169 276 174 266 
#ZOMPROPERTIES_04 83 175 269 178 81 268 162 55 116 231 117 238 115 237 120 62 118 240 123 230 111 59 124 233 127 57 23
#ZOMPROPERTIES_04 2 71 158 257 255 151 262 149 261 154 78 264 157 254 152 161 73 75 145 256 150 95 201 291 202 298 200
#ZOMPROPERTIES_04  297 205 102 203 300 208 290 99 209 293 212 97 292 196 87 192 281 279 185 286 183 285 188 94 288 191
#ZOMPROPERTIES_04  278 186 195 89 91 179 280 184 451 472 475 476 479 470 426 450 452 483 448 447 429 463 487 462 434 4
#ZOMPROPERTIES_04 35 464 449 430 437 478 458 433 432 456 431 457 473 442 427 440 441 443 480 444 477 474 485 490 428 4
#ZOMPROPERTIES_04 71 438 467 482 469 439 468 453 486 484 460 495 461 491 459 494 455 493 454 492 436 465 445 481 488 4
#ZOMPROPERTIES_04 46 489 466 6 19 20 7 26 13 17 18 12 22 11 21 4 14 15 24 5 25 23 } } } BBoxUV box3d 0 0 0 0 0 0 BBox3
#ZOMPROPERTIES_04 D box3d 0 0 0 0 0 0 Area3D double 0 AreaUV double 0 IsRoot bool true Properties table {Selected bool
#ZOMPROPERTIES_04  false Box box3d 0 1 0 1 0 1 U int 0 V int 0 NU int 1 NV int 1 Tiling vector3d 1 1 1 TileRatioMode s
#ZOMPROPERTIES_04 tring "1:1" Overflow string "Off" Pack table {Rotate table {Mode int 0 Min double 0 Max double 90 St
#ZOMPROPERTIES_04 ep double 0 } PaddingSize double 0.0078125 MarginSize double 0.00390625 Resolution int 256 MapResolu
#ZOMPROPERTIES_04 tion int 2048 Scaling table {TexelDensity double 1024 Mode int 2 } LayoutScalingMode int 2 MaxMutati
#ZOMPROPERTIES_04 ons int 1 BoxFrameEdit bool false Behavior string "Free" } } IsTile bool false PolyIDs ints { } } Ma
#ZOMPROPERTIES_04 ps table {Density table {PrimType string "Polygon" Size int 1 DefaultValue double 1 ScaleType string
#ZOMPROPERTIES_04  "Log" MergeMode string "Average" MinValue double 0.1 MaxValue double 4 Data doubles { r 534 1 } } P
#ZOMPROPERTIES_04 in table {PrimType string "Vertex" Size int 1 DefaultValue double 0 ScaleType string "Normalized" Me
#ZOMPROPERTIES_04 rgeMode string "Max" MinValue double 0 MaxValue double 1 Data doubles { r 836 0 } } Protect table {P
#ZOMPROPERTIES_04 rimType string "Vertex" Size int 1 DefaultValue double 0 ScaleType string "Normalized" MergeMode str
#ZOMPROPERTIES_04 ing "Average" MinValue double -1 MaxValue double 1 Data doubles { r 836 0 } } } } }
#ZOMPROPERTIES_04}


#ZOMSCENE_01{
#ZOMSCENE_01 CScene {Settings table {AxisSystem table {UpVector string "y" } Unit string "cm" TexelDensityDisplay
#ZOMSCENE_01 Unit string "tx/cm" } }
#ZOMSCENE_01}

#begin 0 fatal error vertex (that RizomUV cannot handle)
#end 0 fatal error vertex (that RizomUV cannot handle)

#begin 0 error vertex
#end 0 error vertex
