#File written by RizomUV 2022.1.57.gfabcfb8. Compilation :Sep 28 2022,23:52:22
mtllib Edificio 16.mtl
#begin vertices
v -90.00921 -0.070122 -47.88878
v -90.00921 19.45913 -48.00503
v -90.00921 -0.070122 -69.42923
v -90.00921 19.45913 -69.31299
v -90.00921 5.638768 -48.00503
v -90.00921 5.638768 -69.31299
v -79.93546 19.45913 -51.3049
v -79.93546 19.45913 -66.01311
v -82.70651 -0.029614 -64.51703
v -82.70651 -0.029614 -52.80098
v -82.70651 -0.029614 -63.05253
v -82.70651 -0.029614 -61.58802
v -82.70651 -0.029614 -60.12351
v -82.70651 -0.029614 -58.659
v -82.70651 -0.029614 -57.1945
v -82.70651 -0.029614 -55.73
v -82.70651 -0.029614 -54.26549
v -79.93546 6.143275 -64.59277
v -79.93546 6.143275 -52.72524
v -79.93546 6.513965 -63.32113
v -79.93546 6.789412 -61.87033
v -79.93546 6.959031 -60.29613
v -79.93546 7.016304 -58.659
v -79.93546 6.959031 -57.02188
v -79.93546 6.789412 -55.44768
v -79.93546 6.513965 -53.99688
v -79.93546 19.45913 -64.60742
v -79.93546 19.45913 -52.71059
v -79.93546 19.45913 -63.12032
v -79.93546 19.45913 -61.63322
v -79.93546 19.45913 -60.14611
v -79.93546 19.45913 -58.659
v -79.93546 19.45913 -57.1719
v -79.93546 19.45913 -55.6848
v -79.93546 19.45913 -54.19769
v -90.00921 6.670756 -48.00503
v -90.00921 6.670757 -69.31299
v -79.93546 6.670757 -51.3049
v -79.93546 6.670757 -66.01311
v -79.93546 7.137591 -64.59386
v -79.93546 7.480601 -63.30614
v -79.93546 7.735479 -61.85263
v -79.93546 7.892433 -60.28493
v -79.93546 7.94543 -58.659
v -79.93546 7.892433 -57.03309
v -79.93546 7.735479 -55.46538
v -79.93546 7.480601 -54.01188
v -79.93546 7.137591 -52.72415
v -82.70651 2.961865 -64.51552
v -82.70651 3.115787 -64.58937
v -82.70651 3.145044 -63.1537
v -82.70651 3.300677 -63.21481
v -82.70651 3.280972 -61.70544
v -82.70651 3.438252 -61.74876
v -82.70651 3.364613 -60.19747
v -82.70651 3.523033 -60.21988
v -82.70651 3.392846 -58.659
v -82.70651 3.55167 -58.659
v -82.70651 3.364613 -57.12054
v -82.70651 3.523033 -57.09814
v -82.70651 3.280972 -55.61257
v -82.70651 3.438252 -55.56925
v -82.70651 3.145044 -54.16431
v -82.70651 3.300677 -54.10321
v -82.70651 3.115787 -52.72864
v -82.70651 2.961865 -52.80249
v -79.81918 -0.069983 -47.90078
v -79.83106 -0.070122 -47.88878
v -79.94746 19.45913 -48.00503
v -79.93546 19.45913 -48.01703
v -79.83106 -0.070122 -69.42923
v -79.81918 -0.069983 -69.41724
v -79.93546 19.45913 -69.30099
v -79.94746 19.45913 -69.31299
v -79.93546 5.638768 -69.30099
v -79.94746 5.638768 -69.31299
v -79.94746 5.638768 -48.00503
v -79.93546 5.638768 -48.01703
v -82.69451 -0.029614 -65.92144
v -82.70651 -0.029614 -65.90914
v -82.70651 -0.029614 -51.40887
v -82.69451 -0.029614 -51.39658
v -82.69451 5.626768 -51.3049
v -82.70651 5.63072 -51.31714
v -82.69451 5.642785 -51.31621
v -82.69451 5.626768 -66.01311
v -82.69451 5.642785 -66.0018
v -82.70651 5.63072 -66.00087
v -79.86415 -0.029614 -51.39658
v -79.85204 -0.029753 -51.38457
v -79.85204 -0.029753 -65.93344
v -79.86415 -0.029614 -65.92144
v -79.94746 5.626768 -66.01311
v -79.93546 5.642785 -66.01346
v -79.94746 5.626768 -51.3049
v -79.93546 5.639109 -51.30586
v -82.69451 6.145019 -52.73015
v -82.70651 6.132642 -52.73017
v -82.70651 6.132642 -64.58785
v -82.69451 6.145019 -64.58786
v -82.70651 6.50317 -54.00114
v -82.69451 6.515401 -54.00074
v -82.70651 6.778428 -55.45078
v -82.69451 6.79062 -55.45033
v -82.70651 6.94791 -57.02351
v -82.69451 6.960099 -57.02324
v -82.70651 7.005135 -58.65901
v -82.69451 7.017326 -58.65901
v -82.70651 6.94791 -60.2945
v -82.69451 6.960099 -60.29477
v -82.70651 6.778428 -61.86723
v -82.69451 6.79062 -61.86768
v -82.70651 6.50317 -63.31687
v -82.69451 6.515401 -63.31728
v -79.94746 6.670757 -69.31299
v -79.93546 6.670757 -69.30099
v -79.93546 6.670757 -48.01703
v -79.94746 6.670757 -48.00503
v -90.00921 2.874568 -69.31299
v -90.00921 2.853379 -69.3207
v -90.00921 2.733364 -69.42152
v -90.00921 2.712175 -69.42923
v -79.94746 2.874568 -69.31299
v -79.93546 2.874568 -69.30099
v -79.92773 2.853384 -69.30643
v -79.942 2.853379 -69.3207
v -79.82696 2.733395 -69.40717
v -79.81918 2.712175 -69.41724
v -79.83106 2.712175 -69.42923
v -79.84106 2.733364 -69.42152
v -79.93546 2.874568 -48.01703
v -79.94746 2.874568 -48.00503
v -79.942 2.853379 -47.99731
v -79.92773 2.853384 -48.01158
v -79.84106 2.733364 -47.8965
v -79.83106 2.712175 -47.88878
v -79.81918 2.712175 -47.90078
v -79.82695 2.733396 -47.91085
v -90.00921 2.712175 -47.88878
v -90.00921 2.733364 -47.8965
v -90.00921 2.853379 -47.99731
v -90.00921 2.874568 -48.00503
v -82.69451 2.734179 -65.92807
v -82.70651 2.726256 -65.90913
v -82.69451 2.712175 -65.92144
v -82.69451 2.852564 -66.00648
v -82.69451 2.874568 -66.01311
v -82.70651 2.864746 -66.00086
v -79.92927 2.852287 -51.29792
v -79.94286 2.852564 -51.31153
v -79.94746 2.874568 -51.3049
v -79.93546 2.874568 -51.2929
v -79.85819 2.734428 -51.37602
v -79.85204 2.712175 -51.38457
v -79.86415 2.712175 -51.39658
v -79.8716 2.734179 -51.38995
v -79.85819 2.734428 -65.94199
v -79.8716 2.734179 -65.92807
v -79.86415 2.712175 -65.92144
v -79.85204 2.712175 -65.93344
v -79.92927 2.852287 -66.0201
v -79.93546 2.874568 -66.02511
v -79.94746 2.874568 -66.01311
v -79.94286 2.852564 -66.00648
v -82.69451 2.852564 -51.31153
v -82.70651 2.864746 -51.31715
v -82.69451 2.874568 -51.3049
v -82.69451 2.734179 -51.38995
v -82.69451 2.712175 -51.39658
v -82.70651 2.726256 -51.40888
v -86.44591 -0.037034 -68.69413
v -86.44591 -0.037034 -48.62389
v -75.77889 -0.037034 -48.63089
v -75.78588 -0.037034 -48.62389
v -76.45583 0.208197 -49.30783
v -76.46282 0.208197 -49.30083
v -76.44882 0.201197 -49.29383
v -75.78588 -0.037034 -68.69413
v -75.77889 -0.037034 -68.68713
v -76.46282 0.208197 -68.01719
v -76.45583 0.208197 -68.01019
v -76.44882 0.201197 -68.02419
v -75.78588 0.201197 -68.68713
v -75.77889 0.194197 -68.68713
v -75.78588 0.194197 -68.69413
v -75.78588 0.201197 -48.63089
v -75.78588 0.194197 -48.62389
v -75.77889 0.194197 -48.63089
v -76.93597 0.46528 -67.54404
v -76.92898 0.46528 -67.53703
v -76.92197 0.45828 -67.55103
v -76.92898 0.46528 -49.78098
v -76.93597 0.46528 -49.77398
v -76.92197 0.45828 -49.76698
v -76.46282 0.45828 -68.01019
v -76.45583 0.45128 -68.01019
v -76.46282 0.45128 -68.01719
v -76.46282 0.45828 -49.30783
v -76.46282 0.45128 -49.30083
v -76.45583 0.45128 -49.30783
v -76.93597 0.663404 -67.54404
v -76.93597 0.670404 -67.53703
v -76.92898 0.663404 -67.53703
v -76.93597 0.670404 -49.78098
v -76.93597 0.663404 -49.77398
v -76.92898 0.663404 -49.78098
v -86.44591 0.201197 -68.68713
v -86.44591 0.194197 -68.69413
v -86.44591 0.194197 -48.62389
v -86.44591 0.201197 -48.63089
v -86.44591 0.208197 -68.01719
v -86.44591 0.201197 -68.02419
v -86.44591 0.201197 -49.29383
v -86.44591 0.208197 -49.30083
v -86.44591 0.45828 -68.01019
v -86.44591 0.45128 -68.01719
v -86.44591 0.45128 -49.30083
v -86.44591 0.45828 -49.30783
v -86.44591 0.46528 -67.54404
v -86.44591 0.45828 -67.55103
v -86.44591 0.45828 -49.76698
v -86.44591 0.46528 -49.77398
v -86.44591 0.670404 -67.53703
v -86.44591 0.663404 -67.54404
v -86.44591 0.663404 -49.77398
v -86.44591 0.670404 -49.78098
v -79.93546 6.143275 -64.59277
v -79.93546 6.143275 -52.72524
v -79.93546 6.513965 -63.32113
v -79.93546 6.789412 -61.87033
v -79.93546 6.959031 -60.29613
v -79.93546 7.016304 -58.659
v -79.93546 6.959031 -57.02188
v -79.93546 6.789412 -55.44768
v -79.93546 6.513965 -53.99688
v -79.93546 7.137591 -64.59386
v -79.93546 7.480601 -63.30614
v -79.93546 7.735479 -61.85263
v -79.93546 7.892433 -60.28492
v -79.93546 7.94543 -58.659
v -79.93546 7.892433 -57.03308
v -79.93546 7.735479 -55.46538
v -79.93546 7.480601 -54.01187
v -79.93546 7.137591 -52.72415
v -79.93546 5.654768 -66.01311
v -79.93546 5.644124 -65.99803
v -79.93546 5.644124 -51.31998
v -79.93546 5.654768 -51.3049
v -79.93546 6.654757 -51.3049
v -79.93546 6.675756 -51.3201
v -79.93546 6.675756 -65.99791
v -79.93546 6.654757 -66.01311
v -76.80795 6.654757 -51.3049
v -76.79195 6.659628 -51.3209
v -76.80795 6.675756 -51.3201
v -76.80795 5.644124 -51.31998
v -76.79195 5.660909 -51.3209
v -76.80795 5.654768 -51.3049
v -76.80795 6.513965 -53.99688
v -76.79195 6.530424 -53.99713
v -76.79195 6.159706 -52.72522
v -76.80795 6.143275 -52.72524
v -76.80795 6.789412 -55.44768
v -76.79195 6.805828 -55.44798
v -76.80795 6.959031 -57.02188
v -76.79195 6.975397 -57.02208
v -76.80795 7.016304 -58.659
v -76.79195 7.03265 -58.659
v -76.80795 6.959031 -60.29613
v -76.79195 6.975397 -60.29593
v -76.80795 6.789412 -61.87033
v -76.79195 6.805828 -61.87003
v -76.80795 6.513965 -63.32113
v -76.79195 6.530424 -63.32088
v -76.80795 6.143275 -64.59277
v -76.79195 6.159706 -64.59279
v -76.79195 7.464204 -63.30639
v -76.80795 7.480601 -63.30614
v -76.79195 7.71912 -61.85293
v -76.80795 7.735479 -61.85263
v -76.79195 7.876117 -60.28512
v -76.80795 7.892433 -60.28492
v -76.79195 7.929132 -58.659
v -76.80795 7.94543 -58.659
v -76.79195 7.876117 -57.03289
v -76.80795 7.892433 -57.03308
v -76.79195 7.71912 -55.46508
v -76.80795 7.735479 -55.46538
v -76.79195 7.464204 -54.01162
v -76.80795 7.480601 -54.01187
v -76.80795 7.137591 -52.72415
v -76.79195 7.121224 -52.72417
v -76.80795 5.654768 -66.01311
v -76.79195 5.660909 -65.99711
v -76.80795 5.644124 -65.99803
v -76.80795 6.675756 -65.99791
v -76.79195 6.659628 -65.99711
v -76.80795 6.654757 -66.01311
v -76.79195 7.121224 -64.59384
v -76.80795 7.137591 -64.59386
v -78.66711 0.385321 -54.25922
v -78.66711 7.029042 -54.18266
v -78.41653 0.385321 -54.22319
v -78.4381 7.029042 -54.14973
v -78.18626 0.385321 -54.11803
v -78.22765 7.029042 -54.05362
v -77.99493 0.385321 -53.95225
v -78.0528 7.029042 -53.90211
v -77.85807 0.385321 -53.73929
v -77.92771 7.029042 -53.70748
v -77.78674 0.385321 -53.49638
v -77.86253 7.029042 -53.48549
v -77.78674 0.385321 -53.24323
v -77.86253 7.029042 -53.25413
v -77.85807 0.385321 -53.00033
v -77.92771 7.029042 -53.03214
v -77.99493 0.385321 -52.78737
v -78.0528 7.029042 -52.83751
v -78.18626 0.385321 -52.62159
v -78.22765 7.029042 -52.68599
v -78.41653 0.385321 -52.51642
v -78.4381 7.029042 -52.58989
v -78.66711 0.385321 -52.4804
v -78.66711 7.029042 -52.55696
v -78.91769 0.385321 -52.51642
v -78.89611 7.029042 -52.58989
v -79.14796 0.385321 -52.62159
v -79.10657 7.029042 -52.68599
v -79.33928 0.385321 -52.78737
v -79.28142 7.029042 -52.83751
v -79.47614 0.385321 -53.00033
v -79.4065 7.029042 -53.03214
v -79.54747 0.385321 -53.24323
v -79.47168 7.029042 -53.25413
v -79.54747 0.385321 -53.49638
v -79.47168 7.029042 -53.48549
v -79.47614 0.385321 -53.73929
v -79.4065 7.029042 -53.70748
v -79.33928 0.385321 -53.95225
v -79.28142 7.029042 -53.90211
v -79.14796 0.385321 -54.11803
v -79.10657 7.029042 -54.05362
v -78.91769 0.385321 -54.22319
v -78.89611 7.029042 -54.14973
v -78.66711 1.356145 -54.18266
v -78.4381 1.356145 -54.14973
v -78.22765 1.356145 -54.05362
v -78.0528 1.356145 -53.90211
v -77.92771 1.356145 -53.70748
v -77.86253 1.356145 -53.48549
v -77.86253 1.356145 -53.25413
v -77.92771 1.356145 -53.03214
v -78.0528 1.356145 -52.83751
v -78.22765 1.356145 -52.68599
v -78.4381 1.356145 -52.58989
v -78.66711 1.356145 -52.55696
v -78.89611 1.356145 -52.58989
v -79.10657 1.356145 -52.68599
v -79.28142 1.356145 -52.83751
v -79.4065 1.356145 -53.03214
v -79.47168 1.356145 -53.25413
v -79.47168 1.356145 -53.48549
v -79.4065 1.356145 -53.70748
v -79.28142 1.356145 -53.90211
v -79.10657 1.356145 -54.05362
v -78.89611 1.356145 -54.14973
v -78.41653 1.24801 -54.22319
v -78.18626 1.24801 -54.11803
v -77.99493 1.24801 -53.95225
v -77.85807 1.24801 -53.73929
v -77.78674 1.24801 -53.49638
v -77.78674 1.24801 -53.24323
v -77.85807 1.24801 -53.00033
v -77.99493 1.24801 -52.78737
v -78.18626 1.24801 -52.62159
v -78.41653 1.24801 -52.51642
v -78.66711 1.24801 -52.4804
v -78.91769 1.24801 -52.51642
v -79.14796 1.24801 -52.62159
v -79.33928 1.24801 -52.78737
v -79.47614 1.24801 -53.00033
v -79.54747 1.24801 -53.24323
v -79.54747 1.24801 -53.49638
v -79.47614 1.24801 -53.73929
v -79.33928 1.24801 -53.95225
v -79.14796 1.24801 -54.11803
v -78.91769 1.24801 -54.22319
v -78.66711 1.24801 -54.25922
v -78.66711 0.385321 -63.05879
v -78.66711 7.029041 -63.13535
v -78.41653 0.385321 -63.09481
v -78.4381 7.029041 -63.16828
v -78.18626 0.385321 -63.19998
v -78.22765 7.029041 -63.26439
v -77.99493 0.385321 -63.36576
v -78.0528 7.029041 -63.4159
v -77.85807 0.385321 -63.57872
v -77.92771 7.029041 -63.61053
v -77.78674 0.385321 -63.82162
v -77.86253 7.029041 -63.83252
v -77.78674 0.385321 -64.07478
v -77.86253 7.029041 -64.06388
v -77.85807 0.385321 -64.31767
v -77.92771 7.029041 -64.28587
v -77.99493 0.385321 -64.53064
v -78.0528 7.029041 -64.48051
v -78.18626 0.385321 -64.69643
v -78.22765 7.029041 -64.63201
v -78.41653 0.385321 -64.80159
v -78.4381 7.029041 -64.72813
v -78.66711 0.385321 -64.83762
v -78.66711 7.029041 -64.76105
v -78.91769 0.385321 -64.80159
v -78.89611 7.029041 -64.72813
v -79.14796 0.385321 -64.69643
v -79.10657 7.029041 -64.63201
v -79.33928 0.385321 -64.53064
v -79.28142 7.029041 -64.48051
v -79.47614 0.385321 -64.31767
v -79.4065 7.029041 -64.28587
v -79.54747 0.385321 -64.07478
v -79.47168 7.029041 -64.06388
v -79.54747 0.385321 -63.82162
v -79.47168 7.029041 -63.83252
v -79.47614 0.385321 -63.57872
v -79.4065 7.029041 -63.61053
v -79.33928 0.385321 -63.36576
v -79.28142 7.029041 -63.4159
v -79.14796 0.385321 -63.19998
v -79.10657 7.029041 -63.26439
v -78.91769 0.385321 -63.09481
v -78.89611 7.029041 -63.16828
v -78.66711 1.356145 -63.13535
v -78.4381 1.356145 -63.16828
v -78.22765 1.356145 -63.26439
v -78.0528 1.356145 -63.4159
v -77.92771 1.356145 -63.61053
v -77.86253 1.356145 -63.83252
v -77.86253 1.356145 -64.06388
v -77.92771 1.356145 -64.28587
v -78.0528 1.356145 -64.48051
v -78.22765 1.356145 -64.63201
v -78.4381 1.356145 -64.72813
v -78.66711 1.356145 -64.76105
v -78.89611 1.356145 -64.72813
v -79.10657 1.356145 -64.63201
v -79.28142 1.356145 -64.48051
v -79.4065 1.356145 -64.28587
v -79.47168 1.356145 -64.06388
v -79.47168 1.356145 -63.83252
v -79.4065 1.356145 -63.61053
v -79.28142 1.356145 -63.4159
v -79.10657 1.356145 -63.26439
v -78.89611 1.356145 -63.16828
v -78.41653 1.24801 -63.09481
v -78.18626 1.24801 -63.19998
v -77.99493 1.24801 -63.36576
v -77.85807 1.24801 -63.57872
v -77.78674 1.24801 -63.82162
v -77.78674 1.24801 -64.07478
v -77.85807 1.24801 -64.31767
v -77.99493 1.24801 -64.53064
v -78.18626 1.24801 -64.69643
v -78.41653 1.24801 -64.80159
v -78.66711 1.24801 -64.83762
v -78.91769 1.24801 -64.80159
v -79.14796 1.24801 -64.69643
v -79.33928 1.24801 -64.53064
v -79.47614 1.24801 -64.31767
v -79.54747 1.24801 -64.07478
v -79.54747 1.24801 -63.82162
v -79.47614 1.24801 -63.57872
v -79.33928 1.24801 -63.36576
v -79.14796 1.24801 -63.19998
v -78.91769 1.24801 -63.09481
v -78.66711 1.24801 -63.05879
v -82.72852 0.385321 -54.25922
v -82.72852 7.029042 -54.18266
v -82.47794 0.385321 -54.22319
v -82.49952 7.029042 -54.14973
v -82.24767 0.385321 -54.11803
v -82.28906 7.029042 -54.05362
v -82.05635 0.385321 -53.95225
v -82.11421 7.029042 -53.90211
v -81.91949 0.385321 -53.73929
v -81.98913 7.029042 -53.70748
v -81.84816 0.385321 -53.49638
v -81.92395 7.029042 -53.48549
v -81.84816 0.385321 -53.24323
v -81.92395 7.029042 -53.25413
v -81.91949 0.385321 -53.00033
v -81.98913 7.029042 -53.03214
v -82.05635 0.385321 -52.78737
v -82.11421 7.029042 -52.83751
v -82.24767 0.385321 -52.62159
v -82.28906 7.029042 -52.68599
v -82.47794 0.385321 -52.51642
v -82.49952 7.029042 -52.58989
v -82.72852 0.385321 -52.4804
v -82.72852 7.029042 -52.55696
v -82.9791 0.385321 -52.51642
v -82.95753 7.029042 -52.58989
v -83.20937 0.385321 -52.62159
v -83.16798 7.029042 -52.68599
v -83.4007 0.385321 -52.78737
v -83.34283 7.029042 -52.83751
v -83.53756 0.385321 -53.00033
v -83.46792 7.029042 -53.03214
v -83.60889 0.385321 -53.24323
v -83.5331 7.029042 -53.25413
v -83.60889 0.385321 -53.49638
v -83.5331 7.029042 -53.48549
v -83.53756 0.385321 -53.73929
v -83.46792 7.029042 -53.70748
v -83.4007 0.385321 -53.95225
v -83.34283 7.029042 -53.90211
v -83.20937 0.385321 -54.11803
v -83.16798 7.029042 -54.05362
v -82.9791 0.385321 -54.22319
v -82.95753 7.029042 -54.14973
v -82.72852 1.356145 -54.18266
v -82.49952 1.356145 -54.14973
v -82.28906 1.356145 -54.05362
v -82.11421 1.356145 -53.90211
v -81.98913 1.356145 -53.70748
v -81.92395 1.356145 -53.48549
v -81.92395 1.356145 -53.25413
v -81.98913 1.356145 -53.03214
v -82.11421 1.356145 -52.83751
v -82.28906 1.356145 -52.68599
v -82.49952 1.356145 -52.58989
v -82.72852 1.356145 -52.55696
v -82.95753 1.356145 -52.58989
v -83.16798 1.356145 -52.68599
v -83.34283 1.356145 -52.83751
v -83.46792 1.356145 -53.03214
v -83.5331 1.356145 -53.25413
v -83.5331 1.356145 -53.48549
v -83.46792 1.356145 -53.70748
v -83.34283 1.356145 -53.90211
v -83.16798 1.356145 -54.05362
v -82.95753 1.356145 -54.14973
v -82.47794 1.24801 -54.22319
v -82.24767 1.24801 -54.11803
v -82.05635 1.24801 -53.95225
v -81.91949 1.24801 -53.73929
v -81.84816 1.24801 -53.49638
v -81.84816 1.24801 -53.24323
v -81.91949 1.24801 -53.00033
v -82.05635 1.24801 -52.78737
v -82.24767 1.24801 -52.62159
v -82.47794 1.24801 -52.51642
v -82.72852 1.24801 -52.4804
v -82.9791 1.24801 -52.51642
v -83.20937 1.24801 -52.62159
v -83.4007 1.24801 -52.78737
v -83.53756 1.24801 -53.00033
v -83.60889 1.24801 -53.24323
v -83.60889 1.24801 -53.49638
v -83.53756 1.24801 -53.73929
v -83.4007 1.24801 -53.95225
v -83.20937 1.24801 -54.11803
v -82.9791 1.24801 -54.22319
v -82.72852 1.24801 -54.25922
v -82.72852 0.385321 -63.05879
v -82.72852 7.029041 -63.13535
v -82.47794 0.385321 -63.09481
v -82.49952 7.029041 -63.16828
v -82.24767 0.385321 -63.19998
v -82.28906 7.029041 -63.26439
v -82.05635 0.385321 -63.36576
v -82.11421 7.029041 -63.4159
v -81.91949 0.385321 -63.57872
v -81.98913 7.029041 -63.61053
v -81.84816 0.385321 -63.82162
v -81.92395 7.029041 -63.83252
v -81.84816 0.385321 -64.07478
v -81.92395 7.029041 -64.06388
v -81.91949 0.385321 -64.31767
v -81.98913 7.029041 -64.28587
v -82.05635 0.385321 -64.53064
v -82.11421 7.029041 -64.48051
v -82.24767 0.385321 -64.69643
v -82.28906 7.029041 -64.63201
v -82.47794 0.385321 -64.80159
v -82.49952 7.029041 -64.72813
v -82.72852 0.385321 -64.83762
v -82.72852 7.029041 -64.76105
v -82.9791 0.385321 -64.80159
v -82.95753 7.029041 -64.72813
v -83.20937 0.385321 -64.69643
v -83.16798 7.029041 -64.63201
v -83.4007 0.385321 -64.53064
v -83.34283 7.029041 -64.48051
v -83.53756 0.385321 -64.31767
v -83.46792 7.029041 -64.28587
v -83.60889 0.385321 -64.07478
v -83.5331 7.029041 -64.06388
v -83.60889 0.385321 -63.82162
v -83.5331 7.029041 -63.83252
v -83.53756 0.385321 -63.57872
v -83.46792 7.029041 -63.61053
v -83.4007 0.385321 -63.36576
v -83.34283 7.029041 -63.4159
v -83.20937 0.385321 -63.19998
v -83.16798 7.029041 -63.26439
v -82.9791 0.385321 -63.09481
v -82.95753 7.029041 -63.16828
v -82.72852 1.356145 -63.13535
v -82.49952 1.356145 -63.16828
v -82.28906 1.356145 -63.26439
v -82.11421 1.356145 -63.4159
v -81.98913 1.356145 -63.61053
v -81.92395 1.356145 -63.83252
v -81.92395 1.356145 -64.06388
v -81.98913 1.356145 -64.28587
v -82.11421 1.356145 -64.48051
v -82.28906 1.356145 -64.63201
v -82.49952 1.356145 -64.72813
v -82.72852 1.356145 -64.76105
v -82.95753 1.356145 -64.72813
v -83.16798 1.356145 -64.63201
v -83.34283 1.356145 -64.48051
v -83.46792 1.356145 -64.28587
v -83.5331 1.356145 -64.06388
v -83.5331 1.356145 -63.83252
v -83.46792 1.356145 -63.61053
v -83.34283 1.356145 -63.4159
v -83.16798 1.356145 -63.26439
v -82.95753 1.356145 -63.16828
v -82.47794 1.24801 -63.09481
v -82.24767 1.24801 -63.19998
v -82.05635 1.24801 -63.36576
v -81.91949 1.24801 -63.57872
v -81.84816 1.24801 -63.82162
v -81.84816 1.24801 -64.07478
v -81.91949 1.24801 -64.31767
v -82.05635 1.24801 -64.53064
v -82.24767 1.24801 -64.69643
v -82.47794 1.24801 -64.80159
v -82.72852 1.24801 -64.83762
v -82.9791 1.24801 -64.80159
v -83.20937 1.24801 -64.69643
v -83.4007 1.24801 -64.53064
v -83.53756 1.24801 -64.31767
v -83.60889 1.24801 -64.07478
v -83.60889 1.24801 -63.82162
v -83.53756 1.24801 -63.57872
v -83.4007 1.24801 -63.36576
v -83.20937 1.24801 -63.19998
v -82.9791 1.24801 -63.09481
v -82.72852 1.24801 -63.05879
#end vertices

#begin 706 textures vertices 
vt 0.00390625 0.3486194 0
vt 0.2323534 0.6893445 0
vt 0.9831033 0.02177423 0
vt 0.9956503 0.4185231 0
vt 0.08315396 0.4388501 0
vt 0.9688739 0.1394566 0
vt 0.4643092 0.5407657 0
vt 0.7317455 0.4466034 0
vt 0.6167181 0.7269195 0
vt 0.1873068 0.7267911 0
vt 0.5629172 0.726399 0
vt 0.5091541 0.7261447 0
vt 0.455451 0.7260537 0
vt 0.4017902 0.7260584 0
vt 0.3481548 0.7261294 0
vt 0.2945333 0.7262616 0
vt 0.2409181 0.7264701 0
vt 0.6336887 0.1704119 0
vt 0.3655795 0.274463 0
vt 0.6018097 0.189944 0
vt 0.5729209 0.2085406 0
vt 0.5414084 0.2284181 0
vt 0.5076629 0.2481451 0
vt 0.4713141 0.2636851 0
vt 0.4355995 0.2702807 0
vt 0.3995792 0.2762309 0
vt 0.7057431 0.4529571 0
vt 0.4891535 0.5293972 0
vt 0.6783912 0.4604443 0
vt 0.6511486 0.4686732 0
vt 0.6239657 0.4775712 0
vt 0.5967898 0.4870353 0
vt 0.5695701 0.4969485 0
vt 0.5425381 0.5072643 0
vt 0.515726 0.5180641 0
vt 0.09581156 0.4550693 0
vt 0.9684625 0.1597465 0
vt 0.3426837 0.2885833 0
vt 0.6685506 0.1685022 0
vt 0.6397785 0.1891447 0
vt 0.6135356 0.2062021 0
vt 0.5835608 0.2229959 0
vt 0.5509603 0.2390948 0
vt 0.5169077 0.2540848 0
vt 0.4825888 0.267556 0
vt 0.4456252 0.2757187 0
vt 0.4106196 0.281895 0
vt 0.3786742 0.2856274 0
vt 0.6153863 0.8357211 0
vt 0.6179356 0.8413368 0
vt 0.5656702 0.8421801 0
vt 0.5678627 0.8478706 0
vt 0.5128666 0.8470695 0
vt 0.5144336 0.852823 0
vt 0.457884 0.8500972 0
vt 0.458697 0.8558912 0
vt 0.4017777 0.8511435 0
vt 0.4017782 0.8569511 0
vt 0.3456607 0.8501715 0
vt 0.3448477 0.8559644 0
vt 0.2906459 0.8472125 0
vt 0.2890745 0.8529648 0
vt 0.2377946 0.8423697 0
vt 0.2355872 0.8480635 0
vt 0.1854571 0.8414997 0
vt 0.1880688 0.8358541 0
vt 0.1802431 0.2098328 0
vt 0.1799517 0.2100776 0
vt 0.4076755 0.5717347 0
vt 0.4079721 0.571587 0
vt 0.7557276 0.008450496 0
vt 0.7553405 0.00844026 0
vt 0.7933515 0.4346375 0
vt 0.793672 0.4345808 0
vt 0.7437749 0.1348885 0
vt 0.7441863 0.1348648 0
vt 0.2617626 0.3073483 0
vt 0.2620842 0.3071191 0
vt 0.6176611 0.00390625 0
vt 0.6675549 0.7274467 0
vt 0.1363416 0.7272138 0
vt 0.1357144 0.7272158 0
vt 0.133256 0.932882 0
vt 0.1338787 0.9329704 0
vt 0.133718 0.9335583 0
vt 0.6694707 0.9325275 0
vt 0.6690149 0.9331919 0
vt 0.6688472 0.932606 0
vt 0.2419206 0.1649632 0
vt 0.2416387 0.1652007 0
vt 0.6780034 0.007134864 0
vt 0.677636 0.007119438 0
vt 0.6640194 0.1395905 0
vt 0.6641773 0.1400816 0
vt 0.3266926 0.265249 0
vt 0.3267788 0.265687 0
vt 0.1855906 0.9523659 0
vt 0.1856606 0.951743 0
vt 0.6179283 0.9515943 0
vt 0.6180062 0.9522152 0
vt 0.2320455 0.9651332 0
vt 0.2319876 0.965756 0
vt 0.2849209 0.9750505 0
vt 0.2848787 0.9756738 0
vt 0.3422776 0.9811327 0
vt 0.3422558 0.981757 0
vt 0.4019138 0.9831623 0
vt 0.4019147 0.9837868 0
vt 0.4615397 0.9810716 0
vt 0.4615635 0.9816957 0
vt 0.5188643 0.9749415 0
vt 0.5189087 0.9755645 0
vt 0.5716756 0.9649994 0
vt 0.5717364 0.9656215 0
vt 0.7437122 0.1576194 0
vt 0.7433274 0.1576458 0
vt 0.2757549 0.3255667 0
vt 0.2754288 0.3257798 0
vt 0.974213 0.08413065 0
vt 0.9742683 0.08367038 0
vt 0.9746565 0.08046496 0
vt 0.9747156 0.08000172 0
vt 0.74955 0.07330016 0
vt 0.7489981 0.07329749 0
vt 0.7488344 0.07279444 0
vt 0.749617 0.07281345 0
vt 0.7487582 0.06941508 0
vt 0.7487048 0.06891127 0
vt 0.7488965 0.068938 0
vt 0.7489223 0.06942352 0
vt 0.2222146 0.2601634 0
vt 0.2217629 0.2604809 0
vt 0.2214281 0.260116 0
vt 0.2220525 0.2596638 0
vt 0.2200558 0.2569051 0
vt 0.2197954 0.2564898 0
vt 0.2199424 0.2563744 0
vt 0.2201891 0.2568103 0
vt 0.04435534 0.3923337 0
vt 0.04467339 0.3926804 0
vt 0.04688488 0.3950798 0
vt 0.04719884 0.3954257 0
vt 0.6676057 0.8286375 0
vt 0.6667508 0.8283678 0
vt 0.6673825 0.8278513 0
vt 0.6701974 0.8330951 0
vt 0.6704038 0.833935 0
vt 0.6697809 0.8335735 0
vt 0.2791545 0.2171478 0
vt 0.2796337 0.2167821 0
vt 0.2798401 0.2172769 0
vt 0.2795139 0.2175463 0
vt 0.2776816 0.2143645 0
vt 0.2773938 0.2139154 0
vt 0.2776243 0.2137674 0
vt 0.2778657 0.2142178 0
vt 0.6753035 0.06920836 0
vt 0.6750823 0.06917935 0
vt 0.6750579 0.06865702 0
vt 0.6753211 0.06867469 0
vt 0.6754599 0.07239561 0
vt 0.675348 0.07293117 0
vt 0.6749083 0.07289816 0
vt 0.6748411 0.0723562 0
vt 0.1337824 0.8325782 0
vt 0.1341942 0.8330644 0
vt 0.1335667 0.8334144 0
vt 0.1363558 0.8282074 0
vt 0.1365727 0.8274352 0
vt 0.1372047 0.827955 0
vt 0.6875135 0.9941114 0
vt 0.727622 0.4504802 0
vt 0.9960938 0.4910104 0
vt 0.9940826 0.4881572 0
vt 0.9725131 0.5072961 0
vt 0.97222 0.5069376 0
vt 0.9727493 0.5068658 0
vt 0.9618668 0.9938164 0
vt 0.964299 0.9911798 0
vt 0.9427023 0.972276 0
vt 0.9430472 0.971964 0
vt 0.9432253 0.97242 0
vt 0.9590375 0.9893206 0
vt 0.9592558 0.989391 0
vt 0.9591433 0.9895069 0
vt 0.9906056 0.492204 0
vt 0.9907366 0.4920326 0
vt 0.9908316 0.4921606 0
vt 0.9266592 0.9572074 0
vt 0.9269983 0.9569029 0
vt 0.9271753 0.9573553 0
vt 0.9546405 0.5201559 0
vt 0.954352 0.5198063 0
vt 0.9548754 0.5197298 0
vt 0.9380334 0.9689627 0
vt 0.938232 0.9690725 0
vt 0.9381979 0.9691027 0
vt 0.9671427 0.5096409 0
vt 0.9673235 0.5095242 0
vt 0.9673554 0.509556 0
vt 0.923051 0.9546181 0
vt 0.9228894 0.9544787 0
vt 0.9230869 0.9545876 0
vt 0.9502304 0.5220321 0
vt 0.9504094 0.5219154 0
vt 0.9504422 0.5219486 0
vt 0.6872049 0.9880883 0
vt 0.6872171 0.9883372 0
vt 0.7265013 0.4561826 0
vt 0.7264532 0.4564271 0
vt 0.6862264 0.9712128 0
vt 0.686243 0.9714621 0
vt 0.7232612 0.4728654 0
vt 0.7232106 0.47311 0
vt 0.6858649 0.9647684 0
vt 0.6858806 0.965021 0
vt 0.7220088 0.4791352 0
vt 0.7219592 0.4793834 0
vt 0.6851429 0.9527908 0
vt 0.6851605 0.9530444 0
vt 0.7197585 0.4909459 0
vt 0.7197083 0.491195 0
vt 0.6848393 0.9474072 0
vt 0.6848558 0.9476638 0
vt 0.7187575 0.4961991 0
vt 0.7187085 0.4964514 0
vt 0.1206498 0.9103559 0
vt 0.1236343 0.578053 0
vt 0.1186244 0.8735433 0
vt 0.116923 0.8329735 0
vt 0.1160274 0.7896944 0
vt 0.1160095 0.7449921 0
vt 0.1169272 0.7002673 0
vt 0.1188442 0.6568814 0
vt 0.1215249 0.6159305 0
vt 0.5915317 0.03430769 0
vt 0.5822773 0.03430769 0
vt 0.572029 0.03430769 0
vt 0.561087 0.03430769 0
vt 0.5497889 0.03430769 0
vt 0.5384909 0.03430769 0
vt 0.5275488 0.03430769 0
vt 0.5173005 0.03430769 0
vt 0.5080462 0.03430769 0
vt 0.1212387 0.9533263 0
vt 0.1213372 0.9527774 0
vt 0.1196555 0.5331461 0
vt 0.1195138 0.5326003 0
vt 0.1111129 0.506008 0
vt 0.4977828 0.03430769 0
vt 0.6017951 0.03430769 0
vt 0.6019751 0.03430769 0
vt 0.4976027 0.01258776 0
vt 0.4977828 0.01242894 0
vt 0.4977828 0.01258776 0
vt 0.04259794 0.5466349 0
vt 0.0421629 0.5463597 0
vt 0.04254767 0.5462733 0
vt 0.03330639 0.6138324 0
vt 0.03265019 0.6138524 0
vt 0.03620089 0.5794378 0
vt 0.03683321 0.5795465 0
vt 0.03121221 0.6543259 0
vt 0.0305685 0.6543706 0
vt 0.02995331 0.6985089 0
vt 0.02931725 0.6985342 0
vt 0.02934314 0.7444291 0
vt 0.02870951 0.7444254 0
vt 0.02939887 0.7903809 0
vt 0.028765 0.7903477 0
vt 0.03013505 0.8347101 0
vt 0.02949645 0.8346558 0
vt 0.03174732 0.8756541 0
vt 0.03109539 0.8756269 0
vt 0.03505545 0.9109652 0
vt 0.03441124 0.9110894 0
vt 0.5822773 0.01242894 0
vt 0.5822773 0.01258776 0
vt 0.572029 0.01242894 0
vt 0.572029 0.01258776 0
vt 0.561087 0.01242894 0
vt 0.561087 0.01258776 0
vt 0.5497889 0.01242894 0
vt 0.5497889 0.01258776 0
vt 0.5384909 0.01242894 0
vt 0.5384909 0.01258776 0
vt 0.5275488 0.01242894 0
vt 0.5275488 0.01258776 0
vt 0.5173005 0.01242894 0
vt 0.5173005 0.01258776 0
vt 0.5080462 0.01258776 0
vt 0.5080462 0.01242894 0
vt 0.0407108 0.9459392 0
vt 0.04036672 0.945708 0
vt 0.04076448 0.9455608 0
vt 0.6017951 0.01258776 0
vt 0.6017951 0.01242894 0
vt 0.6019751 0.01258776 0
vt 0.5915317 0.01242894 0
vt 0.5915317 0.01258776 0
vt 0.09640335 0.004036834 0
vt 0.09525382 0.1542329 0
vt 0.09097873 0.003991452 0
vt 0.09004949 0.1542168 0
vt 0.08557467 0.003960679 0
vt 0.08484405 0.1542037 0
vt 0.08018372 0.003939632 0
vt 0.07963939 0.1541938 0
vt 0.07480297 0.003923025 0
vt 0.07443549 0.1541867 0
vt 0.06943025 0.003910923 0
vt 0.06923069 0.1541823 0
vt 0.06405949 0.00390625 0
vt 0.06402505 0.1541813 0
vt 0.0586866 0.003906881 0
vt 0.05882075 0.1541834 0
vt 0.05331379 0.003909642 0
vt 0.05361569 0.1541884 0
vt 0.04793347 0.003920313 0
vt 0.04840987 0.1541968 0
vt 0.04254067 0.003938641 0
vt 0.04320508 0.1542085 0
vt 0.03713215 0.003963217 0
vt 0.03800128 0.1542229 0
vt 0.03170426 0.003997949 0
vt 0.03279661 0.15424 0
vt 0.02624687 0.004050211 0
vt 0.02759093 0.1542602 0
vt 0.02074893 0.004123708 0
vt 0.02238585 0.154283 0
vt 0.01520038 0.004222808 0
vt 0.01718087 0.1543078 0
vt 0.009590255 0.004357395 0
vt 0.0119733 0.1543339 0
vt 0.00390625 0.004532547 0
vt 0.1212765 0.1543464 0
vt 0.1184968 0.004444317 0
vt 0.1160712 0.1543205 0
vt 0.1128947 0.004292185 0
vt 0.1108664 0.1542954 0
vt 0.1073525 0.004179105 0
vt 0.1056613 0.1542722 0
vt 0.1018588 0.004097725 0
vt 0.1004571 0.1542515 0
vt 0.09593438 0.02643444 0
vt 0.09062166 0.02641799 0
vt 0.08530695 0.02640902 0
vt 0.07998975 0.02635889 0
vt 0.07467026 0.0263171 0
vt 0.06935061 0.02632747 0
vt 0.06403154 0.02634168 0
vt 0.05871102 0.02630574 0
vt 0.05339183 0.02633116 0
vt 0.04807437 0.02636518 0
vt 0.04275738 0.02635861 0
vt 0.03744162 0.02636205 0
vt 0.03213 0.02642084 0
vt 0.02682401 0.02648949 0
vt 0.02152394 0.02652292 0
vt 0.01623469 0.02657648 0
vt 0.01096775 0.02670703 0
vt 0.005738246 0.02687513 0
vt 0.1171053 0.02672564 0
vt 0.1118339 0.02664234 0
vt 0.106544 0.02659048 0
vt 0.101243 0.0265062 0
vt 0.09067072 0.02343958 0
vt 0.08534276 0.02339115 0
vt 0.08001525 0.02338061 0
vt 0.07468878 0.02338156 0
vt 0.06936151 0.02335263 0
vt 0.06403396 0.02333156 0
vt 0.05870977 0.02336337 0
vt 0.05338085 0.02335353 0
vt 0.04805226 0.02334729 0
vt 0.04272474 0.02337836 0
vt 0.03739762 0.02342234 0
vt 0.03206812 0.02343985 0
vt 0.02673502 0.02346814 0
vt 0.0213937 0.02354081 0
vt 0.016028 0.02363741 0
vt 0.01059762 0.02373897 0
vt 0.1230637 0.02403736 0
vt 0.1174705 0.02380066 0
vt 0.1120389 0.02367133 0
vt 0.1066727 0.02357467 0
vt 0.1013312 0.02352606 0
vt 0.0959995 0.02349564 0
vt 0.4784841 0.5626768 0
vt 0.4794135 0.7128973 0
vt 0.4838871 0.5626429 0
vt 0.484618 0.712884 0
vt 0.4892761 0.5626204 0
vt 0.4898236 0.7128739 0
vt 0.4946569 0.562606 0
vt 0.4950282 0.7128671 0
vt 0.5000313 0.5625952 0
vt 0.5002322 0.712863 0
vt 0.5054006 0.5625886 0
vt 0.5054371 0.7128617 0
vt 0.5107704 0.5625895 0
vt 0.5106428 0.7128639 0
vt 0.5161449 0.562596 0
vt 0.5158476 0.7128694 0
vt 0.5215258 0.5626056 0
vt 0.5210515 0.7128778 0
vt 0.5269153 0.5626205 0
vt 0.526256 0.712889 0
vt 0.5323204 0.5626459 0
vt 0.5314614 0.7129034 0
vt 0.537748 0.5626825 0
vt 0.5366655 0.7129208 0
vt 0.5432009 0.5627305 0
vt 0.5418707 0.7129411 0
vt 0.5486963 0.5628001 0
vt 0.5470755 0.7129641 0
vt 0.5542432 0.562894 0
vt 0.5522799 0.7129889 0
vt 0.5598521 0.5630216 0
vt 0.5574868 0.7130151 0
vt 0.4453125 0.5632865 0
vt 0.5626986 0.7130403 0
vt 0.4509662 0.563125 0
vt 0.4533936 0.7130015 0
vt 0.4565696 0.5629764 0
vt 0.458597 0.7129766 0
vt 0.462111 0.5628618 0
vt 0.4638009 0.7129531 0
vt 0.4676038 0.5627794 0
vt 0.469005 0.7129318 0
vt 0.4730572 0.5627198 0
vt 0.4742099 0.7129132 0
vt 0.4788395 0.5850852 0
vt 0.484155 0.5850724 0
vt 0.4894717 0.5850692 0
vt 0.4947902 0.5850253 0
vt 0.5001105 0.5849898 0
vt 0.5054306 0.585007 0
vt 0.5107497 0.5850298 0
vt 0.5160692 0.58501 0
vt 0.5213888 0.5849985 0
vt 0.5267062 0.5850399 0
vt 0.5320207 0.5850873 0
vt 0.5373335 0.5850896 0
vt 0.5426402 0.5851646 0
vt 0.547941 0.585198 0
vt 0.553231 0.5852484 0
vt 0.5584991 0.5853704 0
vt 0.5637272 0.58556 0
vt 0.452354 0.5854202 0
vt 0.4576259 0.5852972 0
vt 0.4629174 0.5852424 0
vt 0.4682188 0.5851937 0
vt 0.4735264 0.5851618 0
vt 0.4841168 0.5820934 0
vt 0.4894453 0.5820517 0
vt 0.494773 0.5820474 0
vt 0.5000996 0.5820544 0
vt 0.5054271 0.5820315 0
vt 0.5107548 0.5820137 0
vt 0.5160822 0.5820324 0
vt 0.5214088 0.582062 0
vt 0.5267369 0.5820627 0
vt 0.5320658 0.5820729 0
vt 0.5373933 0.5821361 0
vt 0.5427275 0.582149 0
vt 0.5480692 0.582217 0
vt 0.5534343 0.5823112 0
vt 0.5588651 0.5824146 0
vt 0.4463955 0.5827139 0
vt 0.4519901 0.5824644 0
vt 0.4574211 0.5823649 0
vt 0.462786 0.5822722 0
vt 0.4681277 0.5822094 0
vt 0.4734607 0.5821476 0
vt 0.4787873 0.5821399 0
vt 0.4167158 0.004036827 0
vt 0.4155663 0.1542329 0
vt 0.4112912 0.003991446 0
vt 0.410362 0.1542168 0
vt 0.4058872 0.003960675 0
vt 0.4051565 0.1542037 0
vt 0.4004962 0.00393963 0
vt 0.3999519 0.1541938 0
vt 0.3951155 0.003923023 0
vt 0.394748 0.1541866 0
vt 0.3897428 0.003910923 0
vt 0.3895432 0.1541823 0
vt 0.384372 0.00390625 0
vt 0.3843375 0.1541813 0
vt 0.3789991 0.00390688 0
vt 0.3791332 0.1541834 0
vt 0.3736263 0.00390964 0
vt 0.3739282 0.1541884 0
vt 0.368246 0.00392031 0
vt 0.3687224 0.1541968 0
vt 0.3628532 0.003938636 0
vt 0.3635176 0.1542085 0
vt 0.3574447 0.00396321 0
vt 0.3583138 0.1542229 0
vt 0.3520168 0.003997941 0
vt 0.3531091 0.15424 0
vt 0.3465594 0.004050201 0
vt 0.3479034 0.1542602 0
vt 0.3410614 0.004123694 0
vt 0.3426984 0.154283 0
vt 0.3355129 0.004222791 0
vt 0.3374934 0.1543078 0
vt 0.3299028 0.004357377 0
vt 0.3322858 0.1543339 0
vt 0.3242188 0.004532527 0
vt 0.4415889 0.1543464 0
vt 0.4388093 0.004444301 0
vt 0.4363836 0.1543205 0
vt 0.4332072 0.004292171 0
vt 0.4311789 0.1542954 0
vt 0.427665 0.004179094 0
vt 0.4259738 0.1542722 0
vt 0.4221713 0.004097716 0
vt 0.4207696 0.1542515 0
vt 0.4162469 0.02643443 0
vt 0.4109341 0.02641798 0
vt 0.4056194 0.02640901 0
vt 0.4003023 0.02635888 0
vt 0.3949828 0.02631709 0
vt 0.3896631 0.02632747 0
vt 0.384344 0.02634167 0
vt 0.3790235 0.02630573 0
vt 0.3737043 0.02633116 0
vt 0.3683869 0.02636517 0
vt 0.3630699 0.0263586 0
vt 0.3577541 0.02636204 0
vt 0.3524425 0.02642083 0
vt 0.3471365 0.02648948 0
vt 0.3418364 0.02652291 0
vt 0.3365472 0.02657647 0
vt 0.3312803 0.02670703 0
vt 0.3260508 0.02687513 0
vt 0.4374178 0.02672563 0
vt 0.4321464 0.02664233 0
vt 0.4268565 0.02659047 0
vt 0.4215555 0.02650619 0
vt 0.4109832 0.02343958 0
vt 0.4056553 0.02339115 0
vt 0.4003277 0.02338061 0
vt 0.3950013 0.02338156 0
vt 0.389674 0.02335263 0
vt 0.3843465 0.02333156 0
vt 0.3790223 0.02336336 0
vt 0.3736933 0.02335353 0
vt 0.3683648 0.02334729 0
vt 0.3630372 0.02337835 0
vt 0.3577101 0.02342233 0
vt 0.3523806 0.02343984 0
vt 0.3470475 0.02346813 0
vt 0.3417062 0.0235408 0
vt 0.3363405 0.02363739 0
vt 0.3309101 0.02373895 0
vt 0.4433762 0.02403734 0
vt 0.437783 0.02380064 0
vt 0.4323514 0.02367131 0
vt 0.4269852 0.02357467 0
vt 0.4216437 0.02352605 0
vt 0.416312 0.02349563 0
vt 0.6074107 0.5053958 0
vt 0.6083402 0.6556279 0
vt 0.612816 0.5053628 0
vt 0.6135454 0.6556145 0
vt 0.6182091 0.5053423 0
vt 0.6187503 0.6556043 0
vt 0.6235914 0.505328 0
vt 0.6239548 0.6555971 0
vt 0.6289671 0.5053198 0
vt 0.6291589 0.6555927 0
vt 0.6343359 0.5053163 0
vt 0.6343645 0.6555915 0
vt 0.6397069 0.5053203 0
vt 0.6395695 0.6555937 0
vt 0.6450803 0.505327 0
vt 0.6447741 0.6555989 0
vt 0.6504608 0.5053382 0
vt 0.649978 0.6556068 0
vt 0.6558492 0.5053545 0
vt 0.6551826 0.6556177 0
vt 0.6612528 0.5053808 0
vt 0.6603882 0.6556317 0
vt 0.666679 0.5054178 0
vt 0.6655924 0.6556486 0
vt 0.6721305 0.5054658 0
vt 0.6707978 0.6556684 0
vt 0.6776246 0.5055351 0
vt 0.6760027 0.6556909 0
vt 0.6831705 0.5056286 0
vt 0.6812072 0.6557152 0
vt 0.6887788 0.5057557 0
vt 0.6864141 0.6557408 0
vt 0.5742188 0.5060393 0
vt 0.6916259 0.6557653 0
vt 0.5798736 0.5058637 0
vt 0.5823189 0.6557343 0
vt 0.5854805 0.505708 0
vt 0.5875227 0.6557089 0
vt 0.5910259 0.5055875 0
vt 0.5927268 0.655685 0
vt 0.596523 0.505501 0
vt 0.5979311 0.6556632 0
vt 0.6019805 0.5054394 0
vt 0.6031362 0.6556442 0
vt 0.6077661 0.5278171 0
vt 0.6130806 0.5278174 0
vt 0.6183972 0.5277736 0
vt 0.6237154 0.5277462 0
vt 0.6290354 0.5277207 0
vt 0.634355 0.5277536 0
vt 0.6396747 0.5277362 0
vt 0.6449943 0.5277321 0
vt 0.6503142 0.5277265 0
vt 0.6556317 0.5277708 0
vt 0.6609463 0.5278197 0
vt 0.6662592 0.5278229 0
vt 0.671566 0.5278983 0
vt 0.6768669 0.5279319 0
vt 0.6821569 0.5279822 0
vt 0.687425 0.5281038 0
vt 0.6926531 0.5282927 0
vt 0.581285 0.5281609 0
vt 0.586556 0.5280288 0
vt 0.5918465 0.5279705 0
vt 0.5971471 0.5279208 0
vt 0.6024539 0.5278897 0
vt 0.6130455 0.5248028 0
vt 0.6183742 0.5247889 0
vt 0.6237036 0.5247737 0
vt 0.6290305 0.52478 0
vt 0.6343561 0.5247436 0
vt 0.6396836 0.5247542 0
vt 0.6450122 0.5247618 0
vt 0.6503376 0.524792 0
vt 0.6556645 0.5247943 0
vt 0.6609928 0.5248059 0
vt 0.66632 0.5248699 0
vt 0.671654 0.5248832 0
vt 0.6769955 0.5249512 0
vt 0.6823605 0.5250452 0
vt 0.6877912 0.5251481 0
vt 0.5753312 0.5254665 0
vt 0.5809189 0.5251938 0
vt 0.5863484 0.525094 0
vt 0.5917138 0.5249993 0
vt 0.5970557 0.5249353 0
vt 0.6023889 0.5248734 0
vt 0.6077169 0.524864 0
vt 0.3551638 0.2147371 0
vt 0.6187923 0.06545997 0
vt 0.6071569 0.1127845 0
vt 0.3250187 0.1774214 0
vt 0.5672841 0.1457007 0
vt 0.2911685 0.1278221 0
vt 0.6187444 0.06503802 0
vt 0.6072681 0.1125062 0
vt 0.5871433 0.1303196 0
vt 0.5419028 0.1610452 0
vt 0.514216 0.1775481 0
vt 0.4853315 0.1932931 0
vt 0.455889 0.2057508 0
vt 0.32324 0.1749199 0
vt 0.4270204 0.2134685 0
vt 0.4001258 0.2193137 0
vt 0.3774953 0.2224336 0
vt 0.3554387 0.2148213 0
vt 0.6681822 0.7274504 0
vt 0.6182896 0.06236113 0
vt 0.618239 0.06192288 0
vt 0.3229827 0.1745639 0
vt 0.32476 0.1770852 0
vt 0.01065691 0.576789 0
vt 0.02695619 0.5299834 0
vt 0.004412868 0.8315701 0
vt 0.02642206 0.5310434 0
vt 0.02499874 0.9613949 0
vt 0.02569719 0.9622966 0
vt 0.008881097 0.9116246 0
vt 0.005562848 0.8723604 0
vt 0.003910268 0.7886244 0
vt 0.00390625 0.7443193 0
vt 0.004366562 0.6999991 0
vt 0.005190338 0.656949 0
vt 0.006634596 0.6159019 0
vt 0.4976027 0.03430769 0
vt 0.1158724 0.982597 0
vt 0.006761551 0.1543587 0
vt 0.1223403 0.02692155 0
vt 0.1241516 0.004611183 0
vt 0.4444641 0.004611166 0
vt 0.005030594 0.02400786 0
vt 0.4471192 0.58561 0
vt 0.5644401 0.5826569 0
vt 0.6944605 0.5059218 0
vt 0.448188 0.7130272 0
vt 0.565534 0.5631884 0
vt 0.3270741 0.1543586 0
vt 0.4426527 0.02692154 0
vt 0.3253431 0.02400784 0
vt 0.5760495 0.5283289 0
vt 0.5771125 0.6557605 0
vt 0.6933661 0.5253897 0
#end 706 textures vertices 

#begin 289 normals 
vn 1 -0 -0
vn 0.4548 -0.2742 -0.8473
vn 0.705 -0.4156 -0.5746
vn 0.4583 -0.5952 -0.6601
vn 0.454 -0.2445 0.8568
vn 0.4628 -0.5708 0.6782
vn 0.705 -0.4156 0.5746
vn 0.4702 0.2768 -0.838
vn 0.8428 0.2621 -0.4701
vn 0.7288 0.5448 -0.4148
vn 0.4146 0.5552 -0.721
vn 0.7585 0.5533 -0.3443
vn 0.8012 0.2958 -0.5202
vn 0.5277 0.3063 -0.7923
vn 0.3503 0.5659 -0.7463
vn 0.8428 0.2621 0.4701
vn 0.4702 0.2768 0.838
vn 0.4146 0.5552 0.721
vn 0.7288 0.5448 0.4148
vn 0.3503 0.5659 0.7463
vn 0.5277 0.3063 0.7923
vn 0.8012 0.2958 0.5202
vn 0.7585 0.5533 0.3443
vn 0.5331 0.3463 0.7719
vn 0.7508 0.1843 0.6343
vn 0.5519 0.1426 0.8217
vn 0.4601 0.348 0.8168
vn 0.4777 0.1553 0.8647
vn 0.673 0.2221 0.7055
vn 0.7608 0.4756 -0.4415
vn 0.4481 0.4735 -0.7583
vn 0.3741 0.2262 -0.8994
vn 0.784 0.2474 -0.5693
vn 0.7813 0.4893 -0.3875
vn 0.8088 0.2569 -0.5291
vn 0.5214 0.2513 -0.8155
vn 0.3958 0.4806 -0.7826
vn 0.7813 0.4893 0.3875
vn 0.3958 0.4805 0.7826
vn 0.5214 0.2513 0.8155
vn 0.8088 0.2569 0.5291
vn 0.7608 0.4756 0.4415
vn 0.7924 0.2457 0.5584
vn 0.3877 0.2264 0.8936
vn 0.4481 0.4735 0.7583
vn 0.4601 0.348 -0.8168
vn 0.673 0.2221 -0.7055
vn 0.4777 0.1553 -0.8647
vn 0.5331 0.3463 -0.7719
vn 0.5518 0.1426 -0.8217
vn 0.7508 0.1843 -0.6343
vn 0.7071 -0 -0.7071
vn 0.7071 -0 0.7071
vn 0.2542 -0.1598 0.9539
vn 0.1965 -0.2001 0.9599
vn 0.2207 -0.2075 -0.953
vn 0.2153 -0.2126 -0.9531
vn 0.7 -0.6786 -0.2223
vn 0.7065 -0.6875 -0.1683
vn 0.707 -0.6884 -0.1622
vn 0.7009 -0.6796 -0.2166
vn 0.7108 -0.6956 -0.1048
vn 0.7109 -0.6959 -0.102
vn 0.7124 -0.7 -0.0505
vn 0.7124 -0.7001 -0.0493
vn 0.7128 -0.7014 -0
vn 0.7124 -0.7 0.0505
vn 0.7124 -0.7001 0.0493
vn 0.7108 -0.6956 0.1048
vn 0.7109 -0.6959 0.102
vn 0.7065 -0.6874 0.1683
vn 0.707 -0.6884 0.1622
vn 0.7 -0.6786 0.2223
vn 0.7009 -0.6796 0.2166
vn -0 0.3423 -0.9396
vn -0 0.3422 -0.9396
vn -0 0.3423 0.9396
vn 0.7105 -0 -0.7037
vn 0.7038 -0 0.7104
vn 0.7104 -0 0.7038
vn 0.7038 -0 -0.7104
vn 0.7159 -0 0.6982
vn 0.7159 -0 -0.6982
vn -0 -0 1
vn 1 -0 -0.0094
vn -0 -0 -1
vn 1 -0 0.0094
vn -0.0001 -0.9516 -0.3074
vn -0 -0.9423 -0.3347
vn 0.0007 -0.9428 0.3335
vn 0.0003 -0.9518 0.3068
vn -0.0002 -0.9724 -0.2334
vn -0.0002 -0.9724 -0.2335
vn -0.0002 -0.9724 0.2335
vn -0.0002 -0.9724 0.2334
vn -0.0003 -0.9891 -0.1469
vn -0.0003 -0.9891 -0.147
vn -0.0004 -0.9975 -0.0711
vn -0.0004 -1 -0
vn -0.0004 -0.9975 0.0711
vn -0.0003 -0.9891 0.1469
vn -0.0003 -0.9891 0.147
vn -0 0.6432 -0.7657
vn 0.8107 0.5854 0.0039
vn 0.8107 0.5854 -0.0039
vn -0 0.6432 0.7657
vn -0 0.5522 0.8337
vn -0 0.5522 -0.8337
vn 0.3015 0.9045 0.3015
vn 0.3015 0.9045 -0.3015
vn 0.5773 0.5774 -0.5774
vn 0.5773 0.5774 0.5774
vn 0.3015 0.9046 0.3015
vn 0.5774 0.5773 -0.5773
vn 0.5774 0.5773 0.5773
vn -0 0.7071 -0.7071
vn 0.7071 -0 -0.7071
vn 0.7071 0.7071 -0
vn 0.7071 -0 0.7071
vn -0 0.7072 -0.7071
vn -0 0.7071 0.7071
vn -0 0.7072 0.7071
vn 1 -0 -0
vn -0 -0 1
vn -0 1 -0
vn -0 -0 -1
vn 0.4536 0.3573 0.8164
vn 0.7029 0.4209 0.5734
vn 0.4473 0.6655 0.5974
vn 0.4788 -0.8196 0.3148
vn 0.8273 -0.463 0.318
vn 0.4835 -0.5685 0.6656
vn 0.4835 -0.5685 -0.6656
vn 0.8273 -0.463 -0.318
vn 0.4787 -0.8196 -0.3148
vn 0.4473 0.6655 -0.5974
vn 0.7029 0.4209 -0.5734
vn 0.4536 0.3573 -0.8164
vn -0 -0.8169 0.5768
vn -0 -0.8169 -0.5767
vn -0 0.5863 -0.8101
vn 0.7063 -0.6892 -0.1616
vn 0.6993 -0.6811 -0.217
vn 0.6984 -0.6801 -0.2228
vn 0.7054 -0.6883 -0.1693
vn 0.7115 -0.6953 -0.1012
vn 0.7113 -0.695 -0.1054
vn 0.714 -0.6984 -0.0488
vn 0.714 -0.6983 -0.0507
vn 0.7148 -0.6994 -0
vn 0.714 -0.6984 0.0488
vn 0.714 -0.6983 0.0507
vn 0.7115 -0.6953 0.1012
vn 0.7113 -0.695 0.1054
vn 0.7063 -0.6892 0.1616
vn 0.7054 -0.6883 0.1693
vn 0.6993 -0.6811 0.217
vn 0.6984 -0.6801 0.2228
vn 0.7065 0.6918 0.1493
vn 0.7004 0.6849 0.2009
vn 0.6997 0.684 0.2062
vn 0.7058 0.6911 0.1557
vn 0.7109 0.697 0.0941
vn 0.7107 0.6967 0.0977
vn 0.7131 0.6996 0.0455
vn 0.713 0.6995 0.0472
vn 0.7137 0.7004 -0
vn 0.7131 0.6996 -0.0455
vn 0.713 0.6995 -0.0472
vn 0.7109 0.697 -0.0941
vn 0.7107 0.6967 -0.0977
vn 0.7065 0.6918 -0.1493
vn 0.7058 0.6911 -0.1557
vn 0.7004 0.6849 -0.2009
vn 0.6997 0.684 -0.2062
vn -0 0.5863 0.8101
vn -0 -0.9516 0.3074
vn -0 -0.9423 0.3347
vn -0 -0 -1
vn -0 -0 1
vn -0 -0.9423 -0.3347
vn -0 -0.9516 -0.3074
vn -0 0.9585 0.285
vn -0 0.9499 0.3125
vn -0 0.9499 -0.3125
vn -0 0.9585 -0.285
vn 1 -0 -0
vn -0 -0.9724 -0.2335
vn -0 -0.9891 -0.1469
vn -0 -0.9975 -0.0711
vn -0 -1 -0
vn -0 -0.9975 0.0711
vn -0 -0.9891 0.1469
vn -0 -0.9724 0.2335
vn -0 0.9766 -0.2153
vn -0 0.9907 -0.1363
vn -0 0.9978 -0.0661
vn -0 1 -0
vn -0 0.9978 0.0661
vn -0 0.9907 0.1363
vn -0 0.9766 0.2153
vn -0 -0 -1
vn 0.2817 -0 -0.9595
vn 0.5406 -0 -0.8413
vn 0.7557 -0 -0.6549
vn 0.9096 -0 -0.4154
vn 0.9898 -0 -0.1423
vn 0.9898 -0 0.1423
vn 0.9096 -0 0.4154
vn 0.7557 -0 0.6549
vn 0.5406 -0 0.8413
vn 0.2817 -0 0.9595
vn -0 -0 1
vn -0.2817 -0 0.9595
vn -0.5406 -0 0.8413
vn -0.7557 -0 0.6549
vn -0.9096 -0 0.4154
vn -0.9898 -0 0.1423
vn -0.9898 -0 -0.1423
vn -0.9096 -0 -0.4154
vn -0.7557 -0 -0.6549
vn -0.5406 -0 -0.8413
vn -0.2817 -0 -0.9595
vn -0.2299 0.5779 -0.7831
vn -0 0.5779 -0.8161
vn -0.4412 0.5779 -0.6866
vn -0.6168 0.5779 -0.5345
vn -0.7424 0.5779 -0.339
vn -0.8078 0.5779 -0.1161
vn -0.8078 0.5779 0.1161
vn -0.7424 0.5779 0.339
vn -0.6168 0.5779 0.5345
vn -0.4412 0.5779 0.6866
vn -0.2299 0.5779 0.7831
vn -0 0.5779 0.8161
vn 0.2299 0.5779 0.7831
vn 0.4412 0.5779 0.6866
vn 0.6168 0.5779 0.5345
vn 0.7424 0.5779 0.339
vn 0.8078 0.5779 0.1161
vn 0.8078 0.5779 -0.1161
vn 0.7424 0.5779 -0.339
vn 0.6168 0.5779 -0.5345
vn 0.4412 0.5779 -0.6866
vn 0.2299 0.5779 -0.7831
vn -0 -0 -1
vn 0.2817 -0 -0.9595
vn 0.5406 -0 -0.8413
vn 0.7557 -0 -0.6549
vn 0.9096 -0 -0.4154
vn 0.9898 -0 -0.1423
vn 0.9898 -0 0.1423
vn 0.9096 -0 0.4154
vn 0.7557 -0 0.6549
vn 0.5406 -0 0.8413
vn 0.2817 -0 0.9595
vn -0 -0 1
vn -0.2817 -0 0.9595
vn -0.5406 -0 0.8413
vn -0.7557 -0 0.6549
vn -0.9096 -0 0.4154
vn -0.9898 -0 0.1423
vn -0.9898 -0 -0.1423
vn -0.9096 -0 -0.4154
vn -0.7557 -0 -0.6549
vn -0.5406 -0 -0.8413
vn -0.2817 -0 -0.9595
vn -0.2299 0.5779 -0.7831
vn -0 0.5779 -0.8161
vn -0.4412 0.5779 -0.6866
vn -0.6168 0.5779 -0.5345
vn -0.7424 0.5779 -0.339
vn -0.8078 0.5779 -0.1161
vn -0.8078 0.5779 0.1161
vn -0.7424 0.5779 0.339
vn -0.6168 0.5779 0.5345
vn -0.4412 0.5779 0.6866
vn -0.2299 0.5779 0.7831
vn -0 0.5779 0.8161
vn 0.2299 0.5779 0.7831
vn 0.4412 0.5779 0.6866
vn 0.6168 0.5779 0.5345
vn 0.7424 0.5779 0.339
vn 0.8078 0.5779 0.1161
vn 0.8078 0.5779 -0.1161
vn 0.7424 0.5779 -0.339
vn 0.6168 0.5779 -0.5345
vn 0.4412 0.5779 -0.6866
vn 0.2299 0.5779 -0.7831
#end 289 normals 

#begin 509 faces
o Cube:015
s 1
f 40/40/1 27/27/1 29/29/1 41/41/1 
f 41/41/1 29/29/1 30/30/1 42/42/1 
f 42/42/1 30/30/1 31/31/1 43/43/1 
f 43/43/1 31/31/1 32/32/1 44/44/1 
f 44/44/1 32/32/1 33/33/1 45/45/1 
f 45/45/1 33/33/1 34/34/1 46/46/1 
f 46/46/1 34/34/1 35/35/1 47/47/1 
f 47/47/1 35/35/1 28/28/1 48/48/1 
f 9/9/1 49/49/1 51/51/1 11/11/1 
f 12/12/1 53/53/1 55/55/1 13/13/1 
f 13/13/1 55/55/1 57/57/1 14/14/1 
f 14/14/1 57/57/1 59/59/1 15/15/1 
f 15/15/1 59/59/1 61/61/1 16/16/1 
f 16/16/1 61/61/1 63/63/1 17/17/1 
f 17/17/1 63/63/1 66/66/1 10/10/1 
f 7/7/1 38/38/1 48/48/1 28/28/1 
f 27/27/1 40/40/1 39/39/1 8/8/1 
f 11/11/1 51/51/1 53/53/1 12/12/1 
f 64/64/1 65/65/1 66/66/1 63/63/1 
f 62/62/1 64/64/1 63/63/1 61/61/1 
f 60/60/1 62/62/1 61/61/1 59/59/1 
f 58/58/1 60/60/1 59/59/1 57/57/1 
f 56/56/1 58/58/1 57/57/1 55/55/1 
f 54/54/1 56/56/1 55/55/1 53/53/1 
f 52/52/1 54/54/1 53/53/1 51/51/1 
f 50/50/1 52/52/1 51/51/1 49/49/1 
f 83/83/2 84/84/3 85/85/4 
f 86/86/5 87/87/6 88/88/7 
f 123/123/8 124/124/9 125/125/10 126/126/11 
f 127/127/12 128/128/13 129/129/14 130/130/15 
f 131/131/16 132/132/17 133/133/18 134/134/19 
f 135/135/20 136/136/21 137/137/22 138/138/23 
f 143/143/24 144/144/25 145/145/26 
f 146/146/27 147/147/28 148/148/29 
f 149/149/30 150/150/31 151/151/32 152/152/33 
f 153/153/34 154/154/35 155/155/36 156/156/37 
f 157/157/38 158/158/39 159/159/40 160/160/41 
f 161/161/42 162/162/43 163/163/44 164/164/45 
f 165/165/46 166/166/47 167/167/48 
f 168/168/49 169/169/50 170/170/51 
f 116/116/52 75/75/52 76/76/52 115/115/52 
f 118/118/53 77/77/53 78/78/53 117/117/53 
f 86/660/5 93/93/54 94/94/55 87/655/6 
f 95/95/56 83/653/2 85/670/4 96/96/57 
f 98/98/58 101/101/59 102/102/60 97/97/61 
f 101/101/59 103/103/62 104/104/63 102/102/60 
f 103/103/62 105/105/64 106/106/65 104/104/63 
f 105/105/64 107/107/66 108/108/66 106/106/65 
f 107/107/66 109/109/67 110/110/68 108/108/66 
f 109/109/67 111/111/69 112/112/70 110/110/68 
f 111/111/69 113/113/71 114/114/72 112/112/70 
f 113/113/71 99/99/73 100/100/74 114/114/72 
f 87/87/6 100/100/74 99/99/73 88/88/7 
f 97/97/61 85/85/4 84/84/3 98/98/58 
f 73/73/52 116/116/52 115/115/52 74/74/52 
f 69/69/53 118/118/53 117/117/53 70/70/53 
f 143/143/24 146/146/27 148/148/29 144/144/25 
f 165/165/46 168/168/49 170/170/51 166/166/47 
f 149/149/30 153/153/34 156/156/37 150/150/31 
f 155/155/36 169/674/50 168/666/49 156/156/37 
f 167/656/48 151/151/32 150/150/31 165/675/46 
f 152/152/33 131/131/16 134/134/19 149/149/30 
f 133/133/18 135/135/20 138/138/23 134/134/19 
f 137/137/22 154/154/35 153/153/34 138/138/23 
f 157/157/38 161/161/42 164/164/45 158/158/39 
f 163/163/44 147/654/28 146/659/27 164/164/45 
f 145/673/26 159/159/40 158/158/39 143/672/24 
f 119/119/75 123/123/8 126/126/11 120/120/75 
f 125/125/10 127/127/12 130/130/15 126/126/11 
f 129/129/14 122/122/76 121/121/76 130/130/15 
f 132/132/17 142/142/77 141/141/77 133/133/18 
f 139/139/77 136/136/21 135/135/20 140/140/77 
f 124/124/9 162/162/43 161/161/42 125/125/10 
f 160/160/41 128/128/13 127/127/12 157/157/38 
f 128/128/13 72/72/78 71/71/78 129/129/14 
f 75/75/52 124/124/9 123/123/8 76/76/52 
f 159/159/40 92/92/79 91/91/79 160/160/41 
f 93/93/54 163/163/44 162/162/43 94/94/55 
f 67/67/80 137/137/22 136/136/21 68/68/80 
f 89/89/81 155/155/36 154/154/35 90/90/81 
f 131/131/16 78/78/53 77/77/53 132/132/17 
f 151/151/32 95/95/56 96/96/57 152/152/33 
f 147/147/28 86/86/5 88/88/7 148/148/29 
f 144/144/25 80/80/82 79/671/82 145/145/26 
f 81/81/83 170/170/51 169/169/50 82/82/83 
f 166/166/47 84/84/3 83/83/2 167/167/48 
f 68/68/84 136/136/84 139/139/84 1/1/84 
f 90/90/85 154/154/85 137/137/85 67/67/85 
f 118/118/84 69/69/84 2/2/84 36/36/84 
f 38/38/1 7/7/1 70/70/1 117/117/1 
f 3/3/86 122/122/86 129/129/86 71/71/86 
f 72/72/87 128/128/87 160/160/87 91/91/87 
f 37/37/86 4/4/86 74/74/86 115/115/86 
f 116/116/1 73/73/1 8/8/1 39/39/1 
f 6/6/86 37/37/86 115/115/86 76/76/86 
f 124/124/1 75/75/1 94/94/1 162/162/1 
f 119/119/86 6/6/86 76/76/86 123/123/86 
f 75/75/1 116/116/1 39/39/1 94/94/1 
f 77/77/84 118/118/84 36/36/84 5/5/84 
f 132/132/84 77/77/84 5/5/84 142/142/84 
f 96/96/1 38/38/1 117/117/1 78/78/1 
f 152/152/1 96/96/1 78/78/1 131/131/1 
f 92/92/84 159/159/84 145/673/84 79/79/84 
f 49/49/1 9/9/1 80/80/1 144/144/1 
f 155/155/86 89/89/86 82/658/86 169/674/86 
f 170/170/1 81/81/1 10/10/1 66/66/1 
f 19/19/88 96/96/89 85/670/89 97/669/88 
f 84/84/1 166/166/1 65/65/1 98/98/1 
f 95/95/86 151/151/86 167/656/86 83/653/86 
f 163/163/84 93/93/84 86/660/84 147/654/84 
f 94/94/90 18/18/91 100/661/91 87/655/90 
f 99/99/1 50/50/1 148/148/1 88/88/1 
f 19/19/88 97/669/88 102/668/92 26/26/93 
f 64/64/1 101/101/1 98/98/1 65/65/1 
f 50/50/1 99/99/1 113/113/1 52/52/1 
f 20/20/94 114/657/95 100/661/91 18/18/91 
f 26/26/93 102/668/92 104/667/96 25/25/97 
f 62/62/1 103/103/1 101/101/1 64/64/1 
f 25/25/97 104/667/96 106/665/98 24/24/98 
f 60/60/1 105/105/1 103/103/1 62/62/1 
f 24/24/98 106/665/98 108/664/99 23/23/99 
f 58/58/1 107/107/1 105/105/1 60/60/1 
f 23/23/99 108/664/99 110/663/100 22/22/100 
f 56/56/1 109/109/1 107/107/1 58/58/1 
f 22/22/100 110/663/100 112/662/101 21/21/102 
f 54/54/1 111/111/1 109/109/1 56/56/1 
f 21/21/102 112/662/101 114/657/95 20/20/94 
f 52/52/1 113/113/1 111/111/1 54/54/1 
f 120/120/103 126/126/103 130/130/103 121/121/103 
f 125/125/104 161/161/104 157/157/104 127/127/104 
f 149/149/105 134/134/105 138/138/105 153/153/105 
f 133/133/106 141/141/106 140/140/106 135/135/106 
f 49/49/1 144/144/1 148/148/1 50/50/1 
f 164/164/107 146/659/107 143/672/107 158/158/107 
f 156/156/108 168/666/108 165/675/108 150/150/108 
f 170/170/1 66/66/1 65/65/1 166/166/1 
o Cube:635
s 0
f 175/175/109 176/176/109 177/177/109 
f 180/180/110 181/181/110 182/182/110 
f 183/183/111 184/184/111 185/185/111 
f 186/186/112 187/187/112 188/188/112 
f 189/189/110 190/190/110 191/191/110 
f 192/192/113 193/193/113 194/194/113 
f 195/195/114 196/196/114 197/197/114 
f 198/198/115 199/199/115 200/200/115 
f 201/201/114 202/202/114 203/203/114 
f 204/204/115 205/205/115 206/206/115 
f 207/207/116 183/183/116 185/185/116 208/208/116 
f 184/184/117 179/179/117 178/178/117 185/185/117 
f 183/183/118 186/186/118 188/188/118 184/184/118 
f 187/187/119 174/174/119 173/173/119 188/188/119 
f 211/211/116 180/180/116 182/182/116 212/212/116 
f 181/181/118 175/175/118 177/177/118 182/182/118 
f 215/215/116 195/195/116 197/197/116 216/216/116 
f 195/195/118 198/198/118 200/200/118 196/196/118 
f 175/175/119 200/200/119 199/199/119 176/176/119 
f 196/196/117 181/181/117 180/180/117 197/197/117 
f 219/219/120 189/189/120 191/191/120 220/220/120 
f 190/190/118 192/192/118 194/194/118 191/191/118 
f 223/223/116 202/202/116 201/201/116 224/224/116 
f 202/202/118 204/204/118 206/206/118 203/203/118 
f 189/189/117 201/201/117 203/203/117 190/190/117 
f 205/205/119 193/193/119 192/192/119 206/206/119 
f 186/186/121 210/210/121 209/209/121 187/187/121 
f 176/176/121 214/214/121 213/213/121 177/177/121 
f 198/198/121 218/218/121 217/217/121 199/199/121 
f 193/193/122 222/222/122 221/221/122 194/194/122 
f 204/204/121 226/226/121 225/225/121 205/205/121 
f 179/179/123 184/184/123 188/188/123 173/173/123 
f 174/174/124 187/187/124 209/209/124 172/172/124 
f 175/175/123 181/181/123 196/196/123 200/200/123 
f 182/182/125 177/177/125 186/186/125 183/183/125 
f 214/214/124 176/176/124 199/199/124 217/217/124 
f 177/177/125 213/213/125 210/210/125 186/186/125 
f 171/171/126 208/208/126 185/185/126 178/178/126 
f 180/180/126 211/211/126 216/216/126 197/197/126 
f 212/212/125 182/182/125 183/183/125 207/207/125 
f 189/189/126 219/219/126 224/224/126 201/201/126 
f 191/191/125 194/194/125 198/198/125 195/195/125 
f 220/220/125 191/191/125 195/195/125 215/215/125 
f 192/192/123 190/190/123 203/203/123 206/206/123 
f 222/222/124 193/193/124 205/205/124 225/225/124 
f 194/194/125 221/221/125 218/218/125 198/198/125 
f 202/202/125 223/223/125 226/226/125 204/204/125 
o Cube:636
s 1
f 253/253/127 254/254/128 255/255/129 
f 256/256/130 257/257/131 258/258/132 
f 293/293/133 294/294/134 295/295/135 
f 296/296/136 297/297/137 298/298/138 
f 258/258/132 248/248/139 247/247/139 256/256/130 
f 295/295/135 246/246/140 245/245/140 293/293/133 
f 251/251/141 296/296/136 298/298/138 252/252/141 
f 253/677/127 258/258/132 257/257/131 254/679/128 
f 260/260/142 261/261/143 262/262/144 259/259/145 
f 264/264/146 260/260/142 259/259/145 263/263/147 
f 266/266/148 264/264/146 263/263/147 265/265/149 
f 268/268/150 266/266/148 265/265/149 267/267/150 
f 270/270/151 268/268/150 267/267/150 269/269/152 
f 272/272/153 270/270/151 269/269/152 271/271/154 
f 274/274/155 272/272/153 271/271/154 273/273/156 
f 276/276/157 274/274/155 273/273/156 275/275/158 
f 294/294/134 276/276/157 275/275/158 295/295/135 
f 256/256/130 262/262/144 261/261/143 257/257/131 
f 293/293/133 298/681/138 297/680/137 294/294/134 
f 290/290/159 291/291/160 292/292/161 289/289/162 
f 288/288/163 290/290/159 289/289/162 287/287/164 
f 286/286/165 288/288/163 287/287/164 285/285/166 
f 284/284/167 286/286/165 285/285/166 283/283/167 
f 282/282/168 284/284/167 283/283/167 281/281/169 
f 280/280/170 282/282/168 281/281/169 279/279/171 
f 278/278/172 280/280/170 279/279/171 277/277/173 
f 300/300/174 278/278/172 277/277/173 299/299/175 
f 254/254/128 292/292/161 291/291/160 255/255/129 
f 299/299/175 297/297/137 296/296/136 300/300/174 
f 249/689/176 253/253/127 255/255/129 250/250/176 
f 227/227/177 246/246/178 295/295/178 275/275/177 
f 245/245/179 252/690/179 298/681/179 293/293/179 
f 249/249/180 248/248/180 258/258/180 253/677/180 
f 247/247/181 228/228/182 262/262/182 256/256/181 
f 244/244/183 250/250/184 255/255/184 291/291/183 
f 251/251/185 236/236/186 300/300/186 296/296/185 
f 254/679/187 257/257/187 261/261/187 292/676/187 
f 228/228/182 235/235/188 259/259/188 262/262/182 
f 264/264/187 287/687/187 289/688/187 260/260/187 
f 260/260/187 289/688/187 292/676/187 261/261/187 
f 235/235/188 234/234/189 263/263/189 259/259/188 
f 234/234/189 233/233/190 265/265/190 263/263/189 
f 266/266/187 285/686/187 287/687/187 264/264/187 
f 268/268/187 283/685/187 285/686/187 266/266/187 
f 233/233/190 232/232/191 267/267/191 265/265/190 
f 232/232/191 231/231/192 269/269/192 267/267/191 
f 270/270/187 281/684/187 283/685/187 268/268/187 
f 272/272/187 279/678/187 281/684/187 270/270/187 
f 231/231/192 230/230/193 271/271/193 269/269/192 
f 274/274/187 277/683/187 279/678/187 272/272/187 
f 230/230/193 229/229/194 273/273/194 271/271/193 
f 229/229/194 227/227/177 275/275/177 273/273/194 
f 276/276/187 299/682/187 277/683/187 274/274/187 
f 299/682/187 276/276/187 294/294/187 297/680/187 
f 237/237/195 238/238/196 280/280/196 278/278/195 
f 236/236/186 237/237/195 278/278/195 300/300/186 
f 238/238/196 239/239/197 282/282/197 280/280/196 
f 239/239/197 240/240/198 284/284/198 282/282/197 
f 240/240/198 241/241/199 286/286/199 284/284/198 
f 241/241/199 242/242/200 288/288/200 286/286/199 
f 242/242/200 243/243/201 290/290/201 288/288/200 
f 243/243/201 244/244/183 291/291/183 290/290/201 
o Cylinder:081
s 1
f 345/345/202 302/302/202 304/304/203 346/346/203 
f 346/346/203 304/304/203 306/306/204 347/347/204 
f 347/347/204 306/306/204 308/308/205 348/348/205 
f 348/348/205 308/308/205 310/310/206 349/349/206 
f 349/349/206 310/310/206 312/312/207 350/350/207 
f 350/350/207 312/312/207 314/314/208 351/351/208 
f 351/351/208 314/314/208 316/316/209 352/352/209 
f 352/352/209 316/316/209 318/318/210 353/353/210 
f 353/353/210 318/318/210 320/320/211 354/354/211 
f 354/354/211 320/320/211 322/322/212 355/355/212 
f 355/355/212 322/322/212 324/324/213 356/356/213 
f 356/356/213 324/324/213 326/326/214 357/357/214 
f 357/357/214 326/326/214 328/328/215 358/358/215 
f 358/358/215 328/328/215 330/330/216 359/359/216 
f 359/359/216 330/330/216 332/332/217 360/360/217 
f 360/360/217 332/332/217 334/334/218 361/361/218 
f 361/361/218 334/334/218 336/691/219 362/362/219 
f 362/692/219 336/336/219 338/338/220 363/363/220 
f 363/363/220 338/338/220 340/340/221 364/364/221 
f 364/364/221 340/340/221 342/342/222 365/365/222 
f 365/365/222 342/342/222 344/344/223 366/366/223 
f 366/366/223 344/344/223 302/302/202 345/345/202 
f 387/387/224 366/366/224 345/345/225 388/388/225 
f 386/386/226 365/365/226 366/366/224 387/387/224 
f 385/385/227 364/364/227 365/365/226 386/386/226 
f 384/384/228 363/363/228 364/364/227 385/385/227 
f 383/383/229 362/692/229 363/363/228 384/384/228 
f 382/382/230 361/361/230 362/362/229 383/695/229 
f 381/381/231 360/360/231 361/361/230 382/382/230 
f 380/380/232 359/359/232 360/360/231 381/381/231 
f 379/379/233 358/358/233 359/359/232 380/380/232 
f 378/378/234 357/357/234 358/358/233 379/379/233 
f 377/377/235 356/356/235 357/357/234 378/378/234 
f 376/376/236 355/355/236 356/356/235 377/377/235 
f 375/375/237 354/354/237 355/355/236 376/376/236 
f 374/374/238 353/353/238 354/354/237 375/375/237 
f 373/373/239 352/352/239 353/353/238 374/374/238 
f 372/372/240 351/351/240 352/352/239 373/373/239 
f 371/371/241 350/350/241 351/351/240 372/372/240 
f 370/370/242 349/349/242 350/350/241 371/371/241 
f 369/369/243 348/348/243 349/349/242 370/370/242 
f 368/368/244 347/347/244 348/348/243 369/369/243 
f 367/367/245 346/346/245 347/347/244 368/368/244 
f 388/388/225 345/345/225 346/346/245 367/367/245 
f 301/301/202 388/388/202 367/367/203 303/303/203 
f 303/303/203 367/367/203 368/368/204 305/305/204 
f 305/305/204 368/368/204 369/369/205 307/307/205 
f 307/307/205 369/369/205 370/370/206 309/309/206 
f 309/309/206 370/370/206 371/371/207 311/311/207 
f 311/311/207 371/371/207 372/372/208 313/313/208 
f 313/313/208 372/372/208 373/373/209 315/315/209 
f 315/315/209 373/373/209 374/374/210 317/317/210 
f 317/317/210 374/374/210 375/375/211 319/319/211 
f 319/319/211 375/375/211 376/376/212 321/321/212 
f 321/321/212 376/376/212 377/377/213 323/323/213 
f 323/323/213 377/377/213 378/378/214 325/325/214 
f 325/325/214 378/378/214 379/379/215 327/327/215 
f 327/327/215 379/379/215 380/380/216 329/329/216 
f 329/329/216 380/380/216 381/381/217 331/331/217 
f 331/331/217 381/381/217 382/382/218 333/333/218 
f 333/333/218 382/382/218 383/695/219 335/335/219 
f 335/693/219 383/383/219 384/384/220 337/337/220 
f 337/337/220 384/384/220 385/385/221 339/339/221 
f 339/339/221 385/385/221 386/386/222 341/341/222 
f 341/341/222 386/386/222 387/387/223 343/343/223 
f 343/343/223 387/387/223 388/388/202 301/301/202 
f 433/433/213 434/434/212 392/392/212 390/390/213 
f 434/434/212 435/435/211 394/394/211 392/392/212 
f 435/435/211 436/436/210 396/396/210 394/394/211 
f 436/436/210 437/437/209 398/398/209 396/396/210 
f 437/437/209 438/438/208 400/400/208 398/398/209 
f 438/438/208 439/439/207 402/402/207 400/400/208 
f 439/439/207 440/440/206 404/404/206 402/402/207 
f 440/440/206 441/441/205 406/406/205 404/404/206 
f 441/441/205 442/442/204 408/408/204 406/406/205 
f 442/442/204 443/443/203 410/410/203 408/408/204 
f 443/443/203 444/444/202 412/412/202 410/410/203 
f 444/444/202 445/445/223 414/414/223 412/412/202 
f 445/445/223 446/446/222 416/416/222 414/414/223 
f 446/446/222 447/447/221 418/418/221 416/416/222 
f 447/447/221 448/448/220 420/420/220 418/418/221 
f 448/448/220 449/449/219 422/422/219 420/420/220 
f 449/696/219 450/450/218 424/424/218 422/699/219 
f 450/450/218 451/451/217 426/426/217 424/424/218 
f 451/451/217 452/452/216 428/428/216 426/426/217 
f 452/452/216 453/453/215 430/430/215 428/428/216 
f 453/453/215 454/454/214 432/432/214 430/430/215 
f 454/454/214 433/433/213 390/390/213 432/432/214 
f 475/475/234 476/476/235 433/433/235 454/454/234 
f 474/474/233 475/475/234 454/454/234 453/453/233 
f 473/473/232 474/474/233 453/453/233 452/452/232 
f 472/472/231 473/473/232 452/452/232 451/451/231 
f 471/471/230 472/472/231 451/451/231 450/450/230 
f 470/470/229 471/471/230 450/450/230 449/696/229 
f 469/469/228 470/697/229 449/449/229 448/448/228 
f 468/468/227 469/469/228 448/448/228 447/447/227 
f 467/467/226 468/468/227 447/447/227 446/446/226 
f 466/466/224 467/467/226 446/446/226 445/445/224 
f 465/465/225 466/466/224 445/445/224 444/444/225 
f 464/464/245 465/465/225 444/444/225 443/443/245 
f 463/463/244 464/464/245 443/443/245 442/442/244 
f 462/462/243 463/463/244 442/442/244 441/441/243 
f 461/461/242 462/462/243 441/441/243 440/440/242 
f 460/460/241 461/461/242 440/440/242 439/439/241 
f 459/459/240 460/460/241 439/439/241 438/438/240 
f 458/458/239 459/459/240 438/438/240 437/437/239 
f 457/457/238 458/458/239 437/437/239 436/436/238 
f 456/456/237 457/457/238 436/436/238 435/435/237 
f 455/455/236 456/456/237 435/435/237 434/434/236 
f 476/476/235 455/455/236 434/434/236 433/433/235 
f 389/389/213 391/391/212 455/455/212 476/476/213 
f 391/391/212 393/393/211 456/456/211 455/455/212 
f 393/393/211 395/395/210 457/457/210 456/456/211 
f 395/395/210 397/397/209 458/458/209 457/457/210 
f 397/397/209 399/399/208 459/459/208 458/458/209 
f 399/399/208 401/401/207 460/460/207 459/459/208 
f 401/401/207 403/403/206 461/461/206 460/460/207 
f 403/403/206 405/405/205 462/462/205 461/461/206 
f 405/405/205 407/407/204 463/463/204 462/462/205 
f 407/407/204 409/409/203 464/464/203 463/463/204 
f 409/409/203 411/411/202 465/465/202 464/464/203 
f 411/411/202 413/413/223 466/466/223 465/465/202 
f 413/413/223 415/415/222 467/467/222 466/466/223 
f 415/415/222 417/417/221 468/468/221 467/467/222 
f 417/417/221 419/419/220 469/469/220 468/468/221 
f 419/419/220 421/700/219 470/697/219 469/469/220 
f 421/421/219 423/423/218 471/471/218 470/470/219 
f 423/423/218 425/425/217 472/472/217 471/471/218 
f 425/425/217 427/427/216 473/473/216 472/472/217 
f 427/427/216 429/429/215 474/474/215 473/473/216 
f 429/429/215 431/431/214 475/475/214 474/474/215 
f 431/431/214 389/389/213 476/476/213 475/475/214 
o Cylinder:082
s 1
f 521/521/246 478/478/246 480/480/247 522/522/247 
f 522/522/247 480/480/247 482/482/248 523/523/248 
f 523/523/248 482/482/248 484/484/249 524/524/249 
f 524/524/249 484/484/249 486/486/250 525/525/250 
f 525/525/250 486/486/250 488/488/251 526/526/251 
f 526/526/251 488/488/251 490/490/252 527/527/252 
f 527/527/252 490/490/252 492/492/253 528/528/253 
f 528/528/253 492/492/253 494/494/254 529/529/254 
f 529/529/254 494/494/254 496/496/255 530/530/255 
f 530/530/255 496/496/255 498/498/256 531/531/256 
f 531/531/256 498/498/256 500/500/257 532/532/257 
f 532/532/257 500/500/257 502/502/258 533/533/258 
f 533/533/258 502/502/258 504/504/259 534/534/259 
f 534/534/259 504/504/259 506/506/260 535/535/260 
f 535/535/260 506/506/260 508/508/261 536/536/261 
f 536/536/261 508/508/261 510/510/262 537/537/262 
f 537/537/262 510/510/262 512/701/263 538/538/263 
f 538/702/263 512/512/263 514/514/264 539/539/264 
f 539/539/264 514/514/264 516/516/265 540/540/265 
f 540/540/265 516/516/265 518/518/266 541/541/266 
f 541/541/266 518/518/266 520/520/267 542/542/267 
f 542/542/267 520/520/267 478/478/246 521/521/246 
f 563/563/268 542/542/268 521/521/269 564/564/269 
f 562/562/270 541/541/270 542/542/268 563/563/268 
f 561/561/271 540/540/271 541/541/270 562/562/270 
f 560/560/272 539/539/272 540/540/271 561/561/271 
f 559/559/273 538/702/273 539/539/272 560/560/272 
f 558/558/274 537/537/274 538/538/273 559/703/273 
f 557/557/275 536/536/275 537/537/274 558/558/274 
f 556/556/276 535/535/276 536/536/275 557/557/275 
f 555/555/277 534/534/277 535/535/276 556/556/276 
f 554/554/278 533/533/278 534/534/277 555/555/277 
f 553/553/279 532/532/279 533/533/278 554/554/278 
f 552/552/280 531/531/280 532/532/279 553/553/279 
f 551/551/281 530/530/281 531/531/280 552/552/280 
f 550/550/282 529/529/282 530/530/281 551/551/281 
f 549/549/283 528/528/283 529/529/282 550/550/282 
f 548/548/284 527/527/284 528/528/283 549/549/283 
f 547/547/285 526/526/285 527/527/284 548/548/284 
f 546/546/286 525/525/286 526/526/285 547/547/285 
f 545/545/287 524/524/287 525/525/286 546/546/286 
f 544/544/288 523/523/288 524/524/287 545/545/287 
f 543/543/289 522/522/289 523/523/288 544/544/288 
f 564/564/269 521/521/269 522/522/289 543/543/289 
f 477/477/246 564/564/246 543/543/247 479/479/247 
f 479/479/247 543/543/247 544/544/248 481/481/248 
f 481/481/248 544/544/248 545/545/249 483/483/249 
f 483/483/249 545/545/249 546/546/250 485/485/250 
f 485/485/250 546/546/250 547/547/251 487/487/251 
f 487/487/251 547/547/251 548/548/252 489/489/252 
f 489/489/252 548/548/252 549/549/253 491/491/253 
f 491/491/253 549/549/253 550/550/254 493/493/254 
f 493/493/254 550/550/254 551/551/255 495/495/255 
f 495/495/255 551/551/255 552/552/256 497/497/256 
f 497/497/256 552/552/256 553/553/257 499/499/257 
f 499/499/257 553/553/257 554/554/258 501/501/258 
f 501/501/258 554/554/258 555/555/259 503/503/259 
f 503/503/259 555/555/259 556/556/260 505/505/260 
f 505/505/260 556/556/260 557/557/261 507/507/261 
f 507/507/261 557/557/261 558/558/262 509/509/262 
f 509/509/262 558/558/262 559/703/263 511/511/263 
f 511/694/263 559/559/263 560/560/264 513/513/264 
f 513/513/264 560/560/264 561/561/265 515/515/265 
f 515/515/265 561/561/265 562/562/266 517/517/266 
f 517/517/266 562/562/266 563/563/267 519/519/267 
f 519/519/267 563/563/267 564/564/246 477/477/246 
f 609/609/257 610/610/256 568/568/256 566/566/257 
f 610/610/256 611/611/255 570/570/255 568/568/256 
f 611/611/255 612/612/254 572/572/254 570/570/255 
f 612/612/254 613/613/253 574/574/253 572/572/254 
f 613/613/253 614/614/252 576/576/252 574/574/253 
f 614/614/252 615/615/251 578/578/251 576/576/252 
f 615/615/251 616/616/250 580/580/250 578/578/251 
f 616/616/250 617/617/249 582/582/249 580/580/250 
f 617/617/249 618/618/248 584/584/248 582/582/249 
f 618/618/248 619/619/247 586/586/247 584/584/248 
f 619/619/247 620/620/246 588/588/246 586/586/247 
f 620/620/246 621/621/267 590/590/267 588/588/246 
f 621/621/267 622/622/266 592/592/266 590/590/267 
f 622/622/266 623/623/265 594/594/265 592/592/266 
f 623/623/265 624/624/264 596/596/264 594/594/265 
f 624/624/264 625/625/263 598/598/263 596/596/264 
f 625/704/263 626/626/262 600/600/262 598/705/263 
f 626/626/262 627/627/261 602/602/261 600/600/262 
f 627/627/261 628/628/260 604/604/260 602/602/261 
f 628/628/260 629/629/259 606/606/259 604/604/260 
f 629/629/259 630/630/258 608/608/258 606/606/259 
f 630/630/258 609/609/257 566/566/257 608/608/258 
f 651/651/278 652/652/279 609/609/279 630/630/278 
f 650/650/277 651/651/278 630/630/278 629/629/277 
f 649/649/276 650/650/277 629/629/277 628/628/276 
f 648/648/275 649/649/276 628/628/276 627/627/275 
f 647/647/274 648/648/275 627/627/275 626/626/274 
f 646/646/273 647/647/274 626/626/274 625/704/273 
f 645/645/272 646/706/273 625/625/273 624/624/272 
f 644/644/271 645/645/272 624/624/272 623/623/271 
f 643/643/270 644/644/271 623/623/271 622/622/270 
f 642/642/268 643/643/270 622/622/270 621/621/268 
f 641/641/269 642/642/268 621/621/268 620/620/269 
f 640/640/289 641/641/269 620/620/269 619/619/289 
f 639/639/288 640/640/289 619/619/289 618/618/288 
f 638/638/287 639/639/288 618/618/288 617/617/287 
f 637/637/286 638/638/287 617/617/287 616/616/286 
f 636/636/285 637/637/286 616/616/286 615/615/285 
f 635/635/284 636/636/285 615/615/285 614/614/284 
f 634/634/283 635/635/284 614/614/284 613/613/283 
f 633/633/282 634/634/283 613/613/283 612/612/282 
f 632/632/281 633/633/282 612/612/282 611/611/281 
f 631/631/280 632/632/281 611/611/281 610/610/280 
f 652/652/279 631/631/280 610/610/280 609/609/279 
f 565/565/257 567/567/256 631/631/256 652/652/257 
f 567/567/256 569/569/255 632/632/255 631/631/256 
f 569/569/255 571/571/254 633/633/254 632/632/255 
f 571/571/254 573/573/253 634/634/253 633/633/254 
f 573/573/253 575/575/252 635/635/252 634/634/253 
f 575/575/252 577/577/251 636/636/251 635/635/252 
f 577/577/251 579/579/250 637/637/250 636/636/251 
f 579/579/250 581/581/249 638/638/249 637/637/250 
f 581/581/249 583/583/248 639/639/248 638/638/249 
f 583/583/248 585/585/247 640/640/247 639/639/248 
f 585/585/247 587/587/246 641/641/246 640/640/247 
f 587/587/246 589/589/267 642/642/267 641/641/246 
f 589/589/267 591/591/266 643/643/266 642/642/267 
f 591/591/266 593/593/265 644/644/265 643/643/266 
f 593/593/265 595/595/264 645/645/264 644/644/265 
f 595/595/264 597/698/263 646/706/263 645/645/264 
f 597/597/263 599/599/262 647/647/262 646/646/263 
f 599/599/262 601/601/261 648/648/261 647/647/262 
f 601/601/261 603/603/260 649/649/260 648/648/261 
f 603/603/260 605/605/259 650/650/259 649/649/260 
f 605/605/259 607/607/258 651/651/258 650/650/259 
f 607/607/258 565/565/257 652/652/257 651/651/258 
#end 509 faces

#ZOMPROPERTIES_04{
#ZOMPROPERTIES_04 table {Mesh table {SymPlane table {Point vector3d 0 0 0 Normal vector3d 1 0 0 Threshold double 0.01 
#ZOMPROPERTIES_04 Enabled bool false EdgeID int -1 SymEdgeID int -1 UPos double 0.5 LocalMode bool false } RootGroup C
#ZOMPROPERTIES_04 SubMeshGroup {Children table {Tile_0_0 CSubMeshGroup {Children table {} BBoxUV box3d 0 0 0 0 0 0 BBo
#ZOMPROPERTIES_04 x3D box3d 0 0 0 0 0 0 Area3D double 0 AreaUV double 0.755666 IsRoot bool false Properties table {Sel
#ZOMPROPERTIES_04 ected bool false Box box3d 0 1 0 1 0 1 U int 0 V int 0 NU int 0 NV int 0 Tiling vector3d 1 1 1 TileR
#ZOMPROPERTIES_04 atioMode string "1:1" Overflow string "Off" Pack table {BoxFrameEdit bool false Behavior string "Fre
#ZOMPROPERTIES_04 e" } } IsTile bool true PolyIDs ints { 183 210 217 244 243 242 241 240 239 237 238 218 189 186 211 2
#ZOMPROPERTIES_04 09 208 207 206 205 204 203 202 212 443 444 445 446 447 448 449 450 451 452 453 454 455 456 457 458 4
#ZOMPROPERTIES_04 71 502 501 500 499 498 497 496 495 494 493 492 491 490 489 488 487 508 507 506 505 504 503 470 459 4
#ZOMPROPERTIES_04 60 461 462 463 464 465 466 467 468 469 486 485 484 483 482 481 480 479 478 477 476 475 474 473 472 3
#ZOMPROPERTIES_04 11 312 313 314 315 316 317 318 319 320 321 322 323 324 325 326 339 370 369 368 367 366 365 364 363 3
#ZOMPROPERTIES_04 62 361 360 359 358 357 356 355 376 375 374 373 372 371 338 327 328 329 330 331 332 333 334 335 336 3
#ZOMPROPERTIES_04 37 354 353 352 351 350 349 348 347 346 345 344 343 342 341 340 377 378 379 380 381 382 383 384 385 3
#ZOMPROPERTIES_04 86 387 388 389 390 391 392 393 404 405 436 435 434 433 432 431 430 429 428 427 426 425 424 423 422 4
#ZOMPROPERTIES_04 21 442 441 440 439 438 403 402 395 396 397 398 399 400 401 394 420 419 418 417 416 415 414 413 412 4
#ZOMPROPERTIES_04 11 410 409 408 407 406 437 245 246 247 248 249 250 251 252 253 254 255 256 257 258 259 260 261 272 2
#ZOMPROPERTIES_04 73 304 303 302 301 300 299 298 297 296 295 294 293 292 291 290 289 310 309 308 307 306 271 262 263 2
#ZOMPROPERTIES_04 64 265 266 267 268 269 270 288 287 286 285 284 283 282 281 280 279 278 277 276 275 274 305 184 200 2
#ZOMPROPERTIES_04 16 187 220 191 222 219 190 221 225 226 229 230 232 235 236 201 185 188 214 213 234 233 231 228 227 2
#ZOMPROPERTIES_04 24 223 193 194 195 196 197 198 199 192 215 8 17 9 10 11 12 13 14 105 84 39 57 38 85 107 113 117 119 
#ZOMPROPERTIES_04 121 123 125 127 114 111 82 33 56 32 83 103 27 132 52 25 51 24 50 23 49 22 48 47 21 46 20 45 19 44 18
#ZOMPROPERTIES_04  53 135 26 136 163 172 162 168 149 167 147 138 148 146 175 150 174 152 142 153 169 151 155 143 154 1
#ZOMPROPERTIES_04 71 164 181 165 180 166 182 158 176 156 178 177 157 179 159 160 161 140 144 145 141 137 170 173 139 0
#ZOMPROPERTIES_04  1 2 3 4 5 6 7 15 89 55 88 98 99 80 41 101 81 108 60 134 59 104 79 87 78 31 71 86 131 70 62 30 61 13
#ZOMPROPERTIES_04 0 58 63 35 34 43 106 112 116 118 120 122 124 126 115 110 42 77 37 72 95 75 28 68 129 73 36 64 133 66
#ZOMPROPERTIES_04  102 76 91 74 90 69 128 29 65 67 96 94 40 97 93 16 54 92 109 100 } } } BBoxUV box3d 0 0 0 0 0 0 BBox
#ZOMPROPERTIES_04 3D box3d 0 0 0 0 0 0 Area3D double 0 AreaUV double 0 IsRoot bool true Properties table {Selected boo
#ZOMPROPERTIES_04 l false Box box3d 0 1 0 1 0 1 U int 0 V int 0 NU int 1 NV int 1 Tiling vector3d 1 1 1 TileRatioMode 
#ZOMPROPERTIES_04 string "1:1" Overflow string "Off" Pack table {Rotate table {Mode int 0 Min double 0 Max double 90 S
#ZOMPROPERTIES_04 tep double 0 } PaddingSize double 0.0078125 MarginSize double 0.00390625 Resolution int 256 MapResol
#ZOMPROPERTIES_04 ution int 2048 Scaling table {TexelDensity double 1024 Mode int 2 } LayoutScalingMode int 2 MaxMutat
#ZOMPROPERTIES_04 ions int 1 } } IsTile bool false PolyIDs ints { } } Maps table {Density table {PrimType string "Poly
#ZOMPROPERTIES_04 gon" Size int 1 DefaultValue double 1 ScaleType string "Log" MergeMode string "Average" MinValue dou
#ZOMPROPERTIES_04 ble 0.1 MaxValue double 4 Data doubles { r 509 1 } } Pin table {PrimType string "Vertex" Size int 1 
#ZOMPROPERTIES_04 DefaultValue double 0 ScaleType string "Normalized" MergeMode string "Max" MinValue double 0 MaxValu
#ZOMPROPERTIES_04 e double 1 Data doubles { r 706 0 } } Protect table {PrimType string "Vertex" Size int 1 DefaultValu
#ZOMPROPERTIES_04 e double 0 ScaleType string "Normalized" MergeMode string "Average" MinValue double -1 MaxValue doub
#ZOMPROPERTIES_04 le 1 Data doubles { r 706 0 } } } } }
#ZOMPROPERTIES_04}


#ZOMSCENE_01{
#ZOMSCENE_01 CScene {Settings table {AxisSystem table {UpVector string "y" } Unit string "cm" TexelDensityDisplay
#ZOMSCENE_01 Unit string "tx/cm" } }
#ZOMSCENE_01}

#begin 0 fatal error vertex (that RizomUV cannot handle)
#end 0 fatal error vertex (that RizomUV cannot handle)

#begin 0 error vertex
#end 0 error vertex
