#File written by RizomUV 2022.1.57.gfabcfb8. Compilation :Sep 28 2022,23:52:22
mtllib E4 low.mtl
#begin vertices
v 33.82053 -0.27592 35.40441
v 33.82053 19.23443 35.40441
v 21.65201 19.23443 35.40441
v 33.82053 -0.27592 14.07036
v 33.82053 19.23443 14.07036
v 21.65201 -0.27592 14.07036
v 21.65201 19.23443 14.07036
v 21.65201 19.23443 16.52607
v 21.65201 19.23443 19.79228
v 21.65201 19.23443 29.68249
v 21.65201 19.23443 32.94869
v 21.65201 19.23443 23.10428
v 21.65201 19.23443 26.37048
v 33.82053 -0.27592 16.52607
v 33.82053 -0.27592 19.79228
v 33.82053 -0.27592 29.68249
v 33.82053 -0.27592 32.94869
v 33.82053 -0.27592 23.10428
v 33.82053 -0.27592 26.37048
v 33.82053 19.23443 32.94869
v 33.82053 19.23443 29.68249
v 33.82053 19.23443 19.79228
v 33.82053 19.23443 16.52607
v 33.82053 19.23443 26.37048
v 33.82053 19.23443 23.10428
v 21.65201 19.23443 32.32944
v 21.65201 19.23443 30.30174
v 33.59846 19.23443 30.30174
v 33.59845 19.23443 32.32944
v 33.59845 -0.27592 32.32944
v 33.59846 -0.27592 30.30174
v 33.59846 19.23443 23.72353
v 33.59846 19.23443 25.75123
v 21.65201 19.23443 25.75123
v 21.65201 19.23443 23.72353
v 33.59846 -0.27592 25.75123
v 33.59846 -0.27592 23.72353
v 33.59846 19.23443 17.14532
v 33.59846 19.23443 19.17302
v 21.65201 19.23443 19.17302
v 21.65201 19.23443 17.14532
v 33.59846 -0.27592 19.17303
v 33.59846 -0.27592 17.14532
v 33.515 17.59883 28.94176
v 33.515 17.59883 27.11121
v 33.515 16.52028 28.92176
v 33.515 16.54028 28.94176
v 33.515 16.54028 27.11121
v 33.515 16.52028 27.13121
v 34.10607 16.52028 28.92176
v 34.12607 16.54028 28.92176
v 34.10607 16.54028 28.94176
v 34.10607 17.59883 28.94176
v 34.12607 17.59883 28.92176
v 34.10607 16.52028 27.13121
v 34.10607 16.54028 27.11121
v 34.12607 16.54028 27.13121
v 34.12607 17.59883 27.13121
v 34.10607 17.59883 27.11121
v 33.515 12.63476 28.94176
v 33.515 12.63476 27.11121
v 33.515 11.55622 28.92176
v 33.515 11.57622 28.94176
v 33.515 11.57622 27.11121
v 33.515 11.55622 27.13121
v 34.10607 11.55622 28.92176
v 34.12607 11.57622 28.92176
v 34.10607 11.57622 28.94176
v 34.10607 12.63476 28.94176
v 34.12607 12.63476 28.92176
v 34.10607 11.55622 27.13121
v 34.10607 11.57622 27.11121
v 34.12607 11.57622 27.13121
v 34.12607 12.63476 27.13121
v 34.10607 12.63476 27.11121
v 33.515 4.831229 28.94176
v 33.515 4.831229 27.11121
v 33.515 3.752682 28.92176
v 33.515 3.772682 28.94176
v 33.515 3.772682 27.11121
v 33.515 3.752682 27.13121
v 34.10607 3.752682 28.92176
v 34.12607 3.772682 28.92176
v 34.10607 3.772682 28.94176
v 34.10607 4.831229 28.94176
v 34.12607 4.831229 28.92176
v 34.10607 3.752682 27.13121
v 34.10607 3.772682 27.11121
v 34.12607 3.772682 27.13121
v 34.12607 4.831229 27.13121
v 34.10607 4.831229 27.11121
v 33.515 10.01853 22.36356
v 33.515 10.01853 20.533
v 33.515 8.939981 22.34356
v 33.515 8.95998 22.36356
v 33.515 8.95998 20.533
v 33.515 8.939981 20.553
v 34.10607 8.939981 22.34356
v 34.12607 8.95998 22.34356
v 34.10607 8.95998 22.36356
v 34.10607 10.01853 22.36356
v 34.12607 10.01853 22.34356
v 34.10607 8.939981 20.553
v 34.10607 8.95998 20.533
v 34.12607 8.95998 20.553
v 34.12607 10.01853 20.553
v 34.10607 10.01853 20.533
v 33.515 15.01267 16.21349
v 33.515 15.01267 14.38294
v 33.515 13.93413 16.19349
v 33.515 13.95413 16.21349
v 33.515 13.95413 14.38294
v 33.515 13.93413 14.40294
v 34.10607 13.93413 16.19349
v 34.12607 13.95413 16.19349
v 34.10607 13.95413 16.21349
v 34.10607 15.01267 16.21349
v 34.12607 15.01267 16.19349
v 34.10607 13.93413 14.40294
v 34.10607 13.95413 14.38294
v 34.12607 13.95413 14.40294
v 34.12607 15.01267 14.40294
v 34.10607 15.01267 14.38294
#end vertices

#begin 123 textures vertices 
vt 0.9341884 0.00390625 0
vt 0.3523405 0.03749444 0
vt 0.00390625 0.154268 0
vt 0.9542279 0.6640091 0
vt 0.4559148 0.5739372 0
vt 0.8372075 0.9960938 0
vt 0.2683329 0.8203938 0
vt 0.2074522 0.7438359 0
vt 0.1489535 0.6362783 0
vt 0.04595528 0.320938 0
vt 0.0220473 0.2243403 0
vt 0.1064519 0.5277957 0
vt 0.07234655 0.4234434 0
vt 0.9636595 0.5830508 0
vt 0.9675139 0.475859 0
vt 0.9490196 0.1724581 0
vt 0.9401078 0.07493433 0
vt 0.9644897 0.3723349 0
vt 0.9575657 0.2710202 0
vt 0.3626713 0.1065863 0
vt 0.3769859 0.1976377 0
vt 0.425601 0.4487594 0
vt 0.4442441 0.5224932 0
vt 0.3923065 0.2853384 0
vt 0.4078119 0.3693814 0
vt 0.02656088 0.2423669 0
vt 0.04129028 0.3022535 0
vt 0.3716215 0.1810829 0
vt 0.3628258 0.1252019 0
vt 0.9417605 0.0940034 0
vt 0.9472559 0.1531244 0
vt 0.4023236 0.3544524 0
vt 0.3928506 0.3028009 0
vt 0.07835805 0.4430045 0
vt 0.09925214 0.5077585 0
vt 0.9590095 0.2907579 0
vt 0.9634231 0.3521826 0
vt 0.4383538 0.5100586 0
vt 0.4270566 0.4646665 0
vt 0.1589554 0.6566619 0
vt 0.1949486 0.7234699 0
vt 0.9672125 0.496651 0
vt 0.9653312 0.5617242 0
vt 0.1504264 0.08554505 0
vt 0.1026701 0.00390625 0
vt 0.1141048 0.08822145 0
vt 0.1154469 0.08878935 0
vt 0.08312742 0.03610189 0
vt 0.08301919 0.03754939 0
vt 0.1237774 0.07426843 0
vt 0.1243597 0.07378613 0
vt 0.1242351 0.07442623 0
vt 0.1512236 0.06690632 0
vt 0.1510646 0.06582811 0
vt 0.09776336 0.03521299 0
vt 0.09787718 0.03461034 0
vt 0.09843937 0.03488817 0
vt 0.1212354 0.01441526 0
vt 0.1203484 0.01384117 0
vt 0.07119674 0.4857487 0
vt 0.02363452 0.4039936 0
vt 0.03487356 0.4883281 0
vt 0.03620505 0.4889175 0
vt 0.004017855 0.4361428 0
vt 0.00390625 0.4375899 0
vt 0.04457486 0.4744126 0
vt 0.04515958 0.4739252 0
vt 0.04503951 0.4745569 0
vt 0.0720395 0.4671096 0
vt 0.07188326 0.4660309 0
vt 0.01865588 0.4352879 0
vt 0.01877108 0.4346856 0
vt 0.01933263 0.4349647 0
vt 0.0421759 0.4145455 0
vt 0.04129027 0.4139694 0
vt 0.07956751 0.07465525 0
vt 0.01679691 0.00390625 0
vt 0.04447296 0.08436644 0
vt 0.04589995 0.08466141 0
vt 0.00390625 0.03929684 0
vt 0.004101602 0.04073463 0
vt 0.05123471 0.06879427 0
vt 0.05170974 0.06820729 0
vt 0.05172015 0.06885855 0
vt 0.07671124 0.05621878 0
vt 0.07635341 0.05519136 0
vt 0.01809307 0.03556734 0
vt 0.01810118 0.03495125 0
vt 0.0186979 0.035117 0
vt 0.03706096 0.01058799 0
vt 0.0360789 0.01019802 0
vt 0.07119675 0.5781417 0
vt 0.02363444 0.4963866 0
vt 0.03487362 0.5807212 0
vt 0.03620508 0.5813105 0
vt 0.004017847 0.5285359 0
vt 0.00390625 0.529983 0
vt 0.04457491 0.5668055 0
vt 0.04515961 0.5663182 0
vt 0.04503955 0.5669499 0
vt 0.07203952 0.5595026 0
vt 0.07188328 0.5584239 0
vt 0.01865588 0.527681 0
vt 0.01877107 0.5270786 0
vt 0.01933262 0.5273578 0
vt 0.04217585 0.5069385 0
vt 0.04129022 0.5063624 0
vt 0.134487 0.6594551 0
vt 0.08692483 0.5777 0
vt 0.09816392 0.6620345 0
vt 0.09949534 0.6626238 0
vt 0.0673082 0.6098492 0
vt 0.0671966 0.6112964 0
vt 0.1078652 0.6481189 0
vt 0.1084499 0.6476316 0
vt 0.1083298 0.6482632 0
vt 0.1353298 0.640816 0
vt 0.1351736 0.6397374 0
vt 0.08194623 0.6089943 0
vt 0.08206142 0.608392 0
vt 0.08262298 0.6086711 0
vt 0.1054662 0.5882519 0
vt 0.1045806 0.5876757 0
#end 123 textures vertices 

#begin 60 normals 
vn -0 1 -0
vn -0 -0 -1
vn 1 -0 -0
vn 0.9413 -0 0.3376
vn 0.9413 -0 -0.3376
vn 1 -0 -0
vn -0 -0 -1
vn -0 -0 1
vn 0.5774 -0.5774 0.5774
vn 0.5774 -0.5774 -0.5774
vn -0 -0.7071 -0.7071
vn 0.7071 -0 -0.7071
vn 0.7071 -0.7071 -0
vn 0.7071 -0 0.7071
vn -0 -0.7071 0.7071
vn -0 -1 -0
vn 1 -0 -0
vn -0 -0 -1
vn -0 -0 1
vn 0.5774 -0.5774 0.5774
vn 0.5774 -0.5774 -0.5774
vn -0 -0.7071 -0.7071
vn 0.7071 -0 -0.7071
vn 0.7071 -0.7071 -0
vn 0.7071 -0 0.7071
vn -0 -0.7071 0.7071
vn -0 -1 -0
vn 1 -0 -0
vn -0 -0 -1
vn -0 -0 1
vn 0.5774 -0.5774 0.5774
vn 0.5774 -0.5774 -0.5774
vn -0 -0.7071 -0.7071
vn 0.7071 -0 -0.7071
vn 0.7071 -0.7071 -0
vn 0.7071 -0 0.7071
vn -0 -0.7071 0.7071
vn -0 -1 -0
vn 1 -0 -0
vn -0 -0 -1
vn -0 -0 1
vn 0.5774 -0.5774 0.5774
vn 0.5774 -0.5774 -0.5774
vn -0 -0.7071 -0.7071
vn 0.7071 -0 -0.7071
vn 0.7071 -0.7071 -0
vn 0.7071 -0 0.7071
vn -0 -0.7071 0.7071
vn -0 -1 -0
vn 1 -0 -0
vn -0 -0 -1
vn -0 -0 1
vn 0.5774 -0.5774 0.5774
vn 0.5774 -0.5774 -0.5774
vn -0 -0.7071 -0.7071
vn 0.7071 -0 -0.7071
vn 0.7071 -0.7071 -0
vn 0.7071 -0 0.7071
vn -0 -0.7071 0.7071
vn -0 -1 -0
#end 60 normals 

#begin 82 faces
o Cube:016
s 0
f 10/10/1 21/21/1 24/24/1 13/13/1 
f 6/6/2 7/7/2 5/5/2 4/4/2 
f 21/21/3 16/16/3 19/19/3 24/24/3 
f 25/25/3 18/18/3 15/15/3 22/22/3 
f 12/12/1 25/25/1 22/22/1 9/9/1 
f 11/11/1 3/3/1 2/2/1 20/20/1 
f 7/7/1 8/8/1 23/23/1 5/5/1 
f 17/17/3 20/20/3 2/2/3 1/1/3 
f 4/4/3 5/5/3 23/23/3 14/14/3 
f 28/28/4 31/31/4 16/16/4 21/21/4 
f 23/23/1 8/8/1 41/41/1 38/38/1 
f 25/25/1 12/12/1 35/35/1 32/32/1 
f 20/20/5 17/17/5 30/30/5 29/29/5 
f 18/18/4 25/25/4 32/32/4 37/37/4 
f 14/14/4 23/23/4 38/38/4 43/43/4 
f 27/27/1 28/28/1 21/21/1 10/10/1 
f 33/33/1 34/34/1 13/13/1 24/24/1 
f 36/36/5 33/33/5 24/24/5 19/19/5 
f 39/39/1 40/40/1 9/9/1 22/22/1 
f 42/42/5 39/39/5 22/22/5 15/15/5 
f 31/31/3 28/28/3 29/29/3 30/30/3 
f 28/28/1 27/27/1 26/26/1 29/29/1 
f 33/33/3 36/36/3 37/37/3 32/32/3 
f 34/34/1 33/33/1 32/32/1 35/35/1 
f 39/39/3 42/42/3 43/43/3 38/38/3 
f 40/40/1 39/39/1 38/38/1 41/41/1 
f 11/11/1 20/20/1 29/29/1 26/26/1 
o Cube:128
s 0
f 57/57/6 58/58/6 54/54/6 51/51/6 
f 48/48/7 45/45/7 59/59/7 56/56/7 
f 52/52/8 53/53/8 44/44/8 47/47/8 
f 50/50/9 51/51/9 52/52/9 
f 55/55/10 56/56/10 57/57/10 
f 55/55/11 49/49/11 48/48/11 56/56/11 
f 58/58/12 57/57/12 56/56/12 59/59/12 
f 50/50/13 55/55/13 57/57/13 51/51/13 
f 53/53/14 52/52/14 51/51/14 54/54/14 
f 46/46/15 50/50/15 52/52/15 47/47/15 
f 49/49/16 55/55/16 50/50/16 46/46/16 
o Cube:129
s 0
f 73/73/17 74/74/17 70/70/17 67/67/17 
f 64/64/18 61/61/18 75/75/18 72/72/18 
f 68/68/19 69/69/19 60/60/19 63/63/19 
f 66/66/20 67/67/20 68/68/20 
f 71/71/21 72/72/21 73/73/21 
f 71/71/22 65/65/22 64/64/22 72/72/22 
f 74/74/23 73/73/23 72/72/23 75/75/23 
f 66/66/24 71/71/24 73/73/24 67/67/24 
f 69/69/25 68/68/25 67/67/25 70/70/25 
f 62/62/26 66/66/26 68/68/26 63/63/26 
f 65/65/27 71/71/27 66/66/27 62/62/27 
o Cube:130
s 0
f 89/89/28 90/90/28 86/86/28 83/83/28 
f 80/80/29 77/77/29 91/91/29 88/88/29 
f 84/84/30 85/85/30 76/76/30 79/79/30 
f 82/82/31 83/83/31 84/84/31 
f 87/87/32 88/88/32 89/89/32 
f 87/87/33 81/81/33 80/80/33 88/88/33 
f 90/90/34 89/89/34 88/88/34 91/91/34 
f 82/82/35 87/87/35 89/89/35 83/83/35 
f 85/85/36 84/84/36 83/83/36 86/86/36 
f 78/78/37 82/82/37 84/84/37 79/79/37 
f 81/81/38 87/87/38 82/82/38 78/78/38 
o Cube:131
s 0
f 105/105/39 106/106/39 102/102/39 99/99/39 
f 96/96/40 93/93/40 107/107/40 104/104/40 
f 100/100/41 101/101/41 92/92/41 95/95/41 
f 98/98/42 99/99/42 100/100/42 
f 103/103/43 104/104/43 105/105/43 
f 103/103/44 97/97/44 96/96/44 104/104/44 
f 106/106/45 105/105/45 104/104/45 107/107/45 
f 98/98/46 103/103/46 105/105/46 99/99/46 
f 101/101/47 100/100/47 99/99/47 102/102/47 
f 94/94/48 98/98/48 100/100/48 95/95/48 
f 97/97/49 103/103/49 98/98/49 94/94/49 
o Cube:132
s 0
f 121/121/50 122/122/50 118/118/50 115/115/50 
f 112/112/51 109/109/51 123/123/51 120/120/51 
f 116/116/52 117/117/52 108/108/52 111/111/52 
f 114/114/53 115/115/53 116/116/53 
f 119/119/54 120/120/54 121/121/54 
f 119/119/55 113/113/55 112/112/55 120/120/55 
f 122/122/56 121/121/56 120/120/56 123/123/56 
f 114/114/57 119/119/57 121/121/57 115/115/57 
f 117/117/58 116/116/58 115/115/58 118/118/58 
f 110/110/59 114/114/59 116/116/59 111/111/59 
f 113/113/60 119/119/60 114/114/60 110/110/60 
#end 82 faces

#ZOMPROPERTIES_04{
#ZOMPROPERTIES_04 table {Mesh table {SymPlane table {Point vector3d 0 0 0 Normal vector3d 1 0 0 Threshold double 0.01 
#ZOMPROPERTIES_04 Enabled bool false EdgeID int -1 SymEdgeID int -1 UPos double 0.5 LocalMode bool false } RootGroup C
#ZOMPROPERTIES_04 SubMeshGroup {Children table {Tile_0_0 CSubMeshGroup {Children table {} BBoxUV box3d 0 0 0 0 0 0 BBo
#ZOMPROPERTIES_04 x3D box3d 0 0 0 0 0 0 Area3D double 0 AreaUV double 0.735538 IsRoot bool false Properties table {Sel
#ZOMPROPERTIES_04 ected bool false Box box3d 0 1 0 1 0 1 U int 0 V int 0 NU int 0 NV int 0 Tiling vector3d 1 1 1 TileR
#ZOMPROPERTIES_04 atioMode string "1:1" Overflow string "Off" Pack table {BoxFrameEdit bool false Behavior string "Fre
#ZOMPROPERTIES_04 e" } } IsTile bool true PolyIDs ints { 71 79 74 78 81 76 72 77 75 80 73 60 68 63 67 70 65 61 66 64 6
#ZOMPROPERTIES_04 9 62 38 46 41 45 48 43 39 44 42 47 40 49 57 52 56 59 54 53 50 55 58 51 27 35 30 34 37 32 28 33 31 36
#ZOMPROPERTIES_04  29 0 16 23 11 4 18 25 10 6 1 8 14 24 19 3 13 22 17 2 9 20 12 7 5 26 21 15 } } } BBoxUV box3d 0 0 0 
#ZOMPROPERTIES_04 0 0 0 BBox3D box3d 0 0 0 0 0 0 Area3D double 0 AreaUV double 0.0170589 IsRoot bool true Properties t
#ZOMPROPERTIES_04 able {Selected bool false Box box3d 0 1 0 1 0 1 U int 0 V int 0 NU int 1 NV int 1 Tiling vector3d 1 
#ZOMPROPERTIES_04 1 1 TileRatioMode string "1:1" Overflow string "Off" Pack table {Rotate table {Mode int 0 Min double
#ZOMPROPERTIES_04  0 Max double 90 Step double 0 } PaddingSize double 0.0078125 MarginSize double 0.00390625 Resolutio
#ZOMPROPERTIES_04 n int 256 MapResolution int 2048 Scaling table {TexelDensity double 1024 Mode int 2 } LayoutScalingM
#ZOMPROPERTIES_04 ode int 2 MaxMutations int 1 } } IsTile bool false PolyIDs ints { } } Maps table {Density table {Pri
#ZOMPROPERTIES_04 mType string "Polygon" Size int 1 DefaultValue double 1 ScaleType string "Log" MergeMode string "Ave
#ZOMPROPERTIES_04 rage" MinValue double 0.1 MaxValue double 4 Data doubles { r 82 1 } } Pin table {PrimType string "Ve
#ZOMPROPERTIES_04 rtex" Size int 1 DefaultValue double 0 ScaleType string "Normalized" MergeMode string "Max" MinValue
#ZOMPROPERTIES_04  double 0 MaxValue double 1 Data doubles { r 123 0 } } Protect table {PrimType string "Vertex" Size 
#ZOMPROPERTIES_04 int 1 DefaultValue double 0 ScaleType string "Normalized" MergeMode string "Average" MinValue double
#ZOMPROPERTIES_04  -1 MaxValue double 1 Data doubles { r 123 0 } } } } }
#ZOMPROPERTIES_04}


#ZOMSCENE_01{
#ZOMSCENE_01 CScene {Settings table {AxisSystem table {UpVector string "y" } Unit string "cm" TexelDensityDisplay
#ZOMSCENE_01 Unit string "tx/cm" } }
#ZOMSCENE_01}

#begin 0 fatal error vertex (that RizomUV cannot handle)
#end 0 fatal error vertex (that RizomUV cannot handle)

#begin 0 error vertex
#end 0 error vertex
