#File written by RizomUV 2022.1.57.gfabcfb8. Compilation :Sep 28 2022,23:52:22
mtllib E5 Low.mtl
#begin vertices
v 32.53284 -0.251141 -57.12259
v 32.61909 17.72667 -57.12259
v 44.87386 -0.251141 -57.12259
v 44.78761 17.72667 -57.12259
v 32.53284 -0.251141 -35.78854
v 32.61909 17.72667 -35.78854
v 44.87386 -0.251141 -35.78854
v 44.78761 17.72667 -35.78854
v 44.78761 3.770257 -57.12259
v 44.87386 3.600819 -57.12259
v 44.87386 3.600819 -35.78854
v 44.78761 3.770257 -35.78854
v 32.53284 3.60082 -57.12259
v 32.61909 3.770258 -57.12259
v 32.61909 3.770257 -35.78854
v 32.53284 3.600819 -35.78854
#end vertices

#begin 16 textures vertices 
vt 0.00390625 0.4433779 0
vt 0.374667 0.4433779 0
vt 0.9960938 0.4433779 0
vt 0.625333 0.4433779 0
vt 0.00390625 0.00390625 0
vt 0.374667 0.00390625 0
vt 0.9960938 0.00390625 0
vt 0.625333 0.00390625 0
vt 0.9128286 0.4433779 0
vt 0.9167451 0.4433779 0
vt 0.9167451 0.00390625 0
vt 0.9128286 0.00390625 0
vt 0.08325487 0.4433779 0
vt 0.08717138 0.4433779 0
vt 0.08717138 0.00390625 0
vt 0.08325487 0.00390625 0
#end 16 textures vertices 

#begin 5 normals 
vn -1 -0 -0
vn -0 1 -0
vn 1 -0 -0
vn 0.8912 0.4536 -0
vn -0.8912 0.4536 -0
#end 5 normals 

#begin 7 faces
o Cube:021
s 0
f 15/15/1 6/6/1 2/2/1 14/14/1 
f 5/5/1 16/16/1 13/13/1 1/1/1 
f 8/8/2 4/4/2 2/2/2 6/6/2 
f 9/9/3 4/4/3 8/8/3 12/12/3 
f 9/9/4 12/12/4 11/11/4 10/10/4 
f 15/15/5 14/14/5 13/13/5 16/16/5 
f 3/3/3 10/10/3 11/11/3 7/7/3 
#end 7 faces

#ZOMPROPERTIES_04{
#ZOMPROPERTIES_04 table {Mesh table {SymPlane table {Point vector3d 0 0 0 Normal vector3d 1 0 0 Threshold double 0.01 
#ZOMPROPERTIES_04 Enabled bool false EdgeID int -1 SymEdgeID int -1 UPos double 0.5 LocalMode bool false } RootGroup C
#ZOMPROPERTIES_04 SubMeshGroup {Children table {Tile_0_0 CSubMeshGroup {Children table {} BBoxUV box3d 0 0 0 0 0 0 BBo
#ZOMPROPERTIES_04 x3D box3d 0 0 0 0 0 0 Area3D double 0 AreaUV double 0.436038 IsRoot bool false Properties table {Sel
#ZOMPROPERTIES_04 ected bool false Box box3d 0 1 0 1 0 1 U int 0 V int 0 NU int 0 NV int 0 Tiling vector3d 1 1 1 TileR
#ZOMPROPERTIES_04 atioMode string "1:1" Overflow string "Off" Pack table {BoxFrameEdit bool false Behavior string "Fre
#ZOMPROPERTIES_04 e" } } IsTile bool true PolyIDs ints { 0 2 3 4 6 5 1 } } } BBoxUV box3d 0 0 0 0 0 0 BBox3D box3d 0 0
#ZOMPROPERTIES_04  0 0 0 0 Area3D double 0 AreaUV double 0 IsRoot bool true Properties table {Selected bool false Box 
#ZOMPROPERTIES_04 box3d 0 1 0 1 0 1 U int 0 V int 0 NU int 1 NV int 1 Tiling vector3d 1 1 1 TileRatioMode string "1:1"
#ZOMPROPERTIES_04  Overflow string "Off" Pack table {Rotate table {Mode int 0 Min double 0 Max double 90 Step double 0
#ZOMPROPERTIES_04  } PaddingSize double 0.0078125 MarginSize double 0.00390625 Resolution int 256 MapResolution int 20
#ZOMPROPERTIES_04 48 Scaling table {TexelDensity double 1024 Mode int 2 } LayoutScalingMode int 2 MaxMutations int 1 }
#ZOMPROPERTIES_04  } IsTile bool false PolyIDs ints { } } Maps table {Density table {PrimType string "Polygon" Size in
#ZOMPROPERTIES_04 t 1 DefaultValue double 1 ScaleType string "Log" MergeMode string "Average" MinValue double 0.1 MaxV
#ZOMPROPERTIES_04 alue double 4 Data doubles { r 7 1 } } Pin table {PrimType string "Vertex" Size int 1 DefaultValue d
#ZOMPROPERTIES_04 ouble 0 ScaleType string "Normalized" MergeMode string "Max" MinValue double 0 MaxValue double 1 Dat
#ZOMPROPERTIES_04 a doubles { r 16 0 } } Protect table {PrimType string "Vertex" Size int 1 DefaultValue double 0 Scal
#ZOMPROPERTIES_04 eType string "Normalized" MergeMode string "Average" MinValue double -1 MaxValue double 1 Data doubl
#ZOMPROPERTIES_04 es { r 16 0 } } } } }
#ZOMPROPERTIES_04}


#ZOMSCENE_01{
#ZOMSCENE_01 CScene {Settings table {AxisSystem table {UpVector string "y" } Unit string "cm" TexelDensityDisplay
#ZOMSCENE_01 Unit string "tx/cm" } }
#ZOMSCENE_01}

#begin 0 fatal error vertex (that RizomUV cannot handle)
#end 0 fatal error vertex (that RizomUV cannot handle)

#begin 0 error vertex
#end 0 error vertex
