#File written by RizomUV 2022.1.57.gfabcfb8. Compilation :Sep 28 2022,23:52:22
mtllib Esquina.mtl
#begin vertices
v 0 -1.304343 1.713994
v 0 -1.304343 3.713994
v 0 -0.568958 3.713994
v 0 -0.447562 3.713994
v 0 -0.447562 1.713994
v 0 -0.568958 1.713994
v 0.064094 -1.478923 3.713994
v 0.064094 -1.478923 1.713994
v 0.024758 -1.304343 1.713994
v 0.064094 -1.343679 1.713994
v 0.052573 -1.315864 1.713994
v 0.064094 -1.343679 3.713994
v 0.024758 -1.304343 3.713994
v 0.052573 -1.315864 3.713994
v 0.040473 -0.568958 3.713994
v 0.043275 -0.566155 3.713994
v 0.043275 -0.450364 3.713994
v 0.040473 -0.447562 3.713994
v 0.043275 -0.566155 1.713994
v 0.040473 -0.568958 1.713994
v 0.040473 -0.447562 1.713994
v 0.043275 -0.450364 1.713994
v 0.063981 1.478923 3.713994
v 0.063981 1.478923 1.713994
v -0 1.463988 3.713994
v 0.014935 1.478923 3.713994
v 0.00314 1.465262 3.713994
v 0.005827 1.467099 3.713994
v 0.008486 1.474906 3.713994
v 0.011458 1.477198 3.713994
v 0.014935 1.478923 1.713994
v -0 1.463988 1.713994
v 0.011458 1.477198 1.713994
v 0.008486 1.474906 1.713994
v 0.005827 1.467099 1.713994
v 0.00314 1.465262 1.713994
v -0.000545 -1.304343 3.716732
v -0.000545 -0.568958 3.716732
v -0.000545 -0.447562 3.716732
v 0.05867 -1.478923 3.741259
v 0.05867 -1.343679 3.741259
v 0.022329 -1.304343 3.726206
v 0.048026 -1.315864 3.73685
v 0.036847 -0.568958 3.73222
v 0.039436 -0.566155 3.733292
v 0.039436 -0.450364 3.733292
v 0.036847 -0.447562 3.73222
v 0.058566 1.478923 3.741216
v -0.000545 1.463988 3.716732
v 0.013253 1.478923 3.722447
v 0.002356 1.465262 3.717933
v 0.004839 1.467099 3.718961
v 0.007295 1.474906 3.719979
v 0.010041 1.477198 3.721116
v -0.002096 -1.304343 3.719053
v -0.002096 -0.568958 3.719053
v -0.002096 -0.447562 3.719053
v 0.043225 -1.478923 3.764374
v 0.043225 -1.343679 3.764374
v 0.015411 -1.304343 3.736559
v 0.035079 -1.315864 3.756227
v 0.026523 -0.568958 3.747671
v 0.028504 -0.566155 3.749653
v 0.028504 -0.450364 3.749653
v 0.026523 -0.447562 3.747671
v 0.043145 1.478923 3.764294
v -0.002096 1.463988 3.719053
v 0.008465 1.478923 3.729613
v 0.000125 1.465262 3.721273
v 0.002024 1.467099 3.723173
v 0.003904 1.474906 3.725053
v 0.006006 1.477198 3.727155
v -0.004417 -1.304343 3.720604
v -0.004417 -0.568958 3.720604
v -0.004417 -0.447562 3.720604
v 0.02011 -1.478923 3.779819
v 0.02011 -1.343679 3.779819
v 0.005057 -1.304343 3.743477
v 0.015702 -1.315864 3.769175
v 0.011071 -0.568958 3.757996
v 0.012144 -0.566155 3.760585
v 0.012144 -0.450364 3.760585
v 0.011071 -0.447562 3.757996
v 0.020067 1.478923 3.779714
v -0.004417 1.463988 3.720604
v 0.001298 1.478923 3.734402
v -0.003215 1.465262 3.723505
v -0.002187 1.467099 3.725987
v -0.00117 1.474906 3.728444
v -3.2e-05 1.477198 3.731189
v -0.007155 -1.478923 3.785242
v -0.007155 -1.343679 3.785242
v -0.007155 1.463988 3.721148
v -0.007155 1.467099 3.726975
v -2.007155 -0.447562 3.761621
v -2.007155 -0.450364 3.764424
v -2.007155 -0.566155 3.764424
v -2.007155 -0.568958 3.761621
v -2.007155 -1.315864 3.773721
v -2.007155 -1.304343 3.745906
v -2.007155 -1.343679 3.785242
v -0.007155 -1.315864 3.773721
v -0.007155 -1.304343 3.745907
v -2.007155 -1.478923 3.785242
v -0.007155 -0.568958 3.721148
v -0.007155 -0.447562 3.721148
v -2.007155 -0.447562 3.721148
v -2.007155 -0.568958 3.721148
v -2.007155 -1.304343 3.721148
v -0.007155 -1.304343 3.721149
v -0.007155 -0.566155 3.764424
v -0.007155 -0.568958 3.761621
v -0.007155 -0.447562 3.761621
v -0.007155 -0.450364 3.764424
v -2.007155 1.478923 3.785129
v -0.007155 1.478923 3.785129
v -2.007155 1.463988 3.721148
v -2.007155 1.478923 3.736083
v -2.007155 1.465262 3.724289
v -2.007155 1.467099 3.726975
v -2.007155 1.474906 3.729634
v -2.007155 1.477197 3.732606
v -0.007155 1.478923 3.736083
v -0.007155 1.477197 3.732606
v -0.007155 1.474906 3.729634
v -0.007155 1.465262 3.724289
v 0.028658 -1.40191 3.712625
v 0.021658 -1.40191 3.719625
v 0.021658 -1.40191 3.313994
v 0.028658 -1.40191 3.320994
v 0.021658 -0.555255 3.719625
v 0.028658 -0.555255 3.712625
v 0.028658 -0.555255 3.320994
v 0.021658 -0.555255 3.313994
v 0.028658 -1.40191 3.306994
v 0.021658 -1.40191 3.313994
v 0.021658 -1.40191 2.913994
v 0.028658 -1.40191 2.920994
v 0.021658 -0.555255 3.313994
v 0.028658 -0.555255 3.306994
v 0.028658 -0.555255 2.920994
v 0.021658 -0.555255 2.913994
v 0.028658 -1.40191 2.906994
v 0.021658 -1.40191 2.913994
v 0.021658 -1.40191 2.513995
v 0.028658 -1.40191 2.520995
v 0.021658 -0.555255 2.913994
v 0.028658 -0.555255 2.906994
v 0.028658 -0.555255 2.520995
v 0.021658 -0.555255 2.513995
v 0.028658 -1.40191 2.506995
v 0.021658 -1.40191 2.513995
v 0.021658 -1.40191 2.113995
v 0.028658 -1.40191 2.120995
v 0.021658 -0.555255 2.513995
v 0.028658 -0.555255 2.506995
v 0.028658 -0.555255 2.120995
v 0.021658 -0.555255 2.113995
v 0.028658 -1.40191 2.106995
v 0.021658 -1.40191 2.113995
v 0.021658 -1.40191 1.713996
v 0.028658 -1.40191 1.720996
v 0.021658 -0.555255 2.113995
v 0.028658 -0.555255 2.106995
v 0.028658 -0.555255 1.720996
v 0.021658 -0.555255 1.713996
v -0.009632 -1.40191 3.719625
v -0.009632 -0.555255 3.719625
v -0.009632 -1.40191 3.313994
v -0.009632 -0.555255 3.313994
v -0.009632 -1.40191 2.913994
v -0.009632 -0.555255 2.913994
v -0.009632 -1.40191 2.513995
v -0.009632 -0.555255 2.513995
v -0.009632 -1.40191 2.113995
v -0.009632 -0.555255 2.113995
v -2.000155 -1.304343 3.752299
v -2.007155 -1.304343 3.745299
v -1.607156 -1.304343 3.745299
v -1.614156 -1.304343 3.752299
v -2.007155 -0.457689 3.745299
v -2.000155 -0.457689 3.752299
v -1.614156 -0.457689 3.752299
v -1.607156 -0.457689 3.745299
v -1.600156 -1.304343 3.752299
v -1.607156 -1.304343 3.745299
v -1.207156 -1.304343 3.745299
v -1.214156 -1.304343 3.752299
v -1.607156 -0.457689 3.745299
v -1.600156 -0.457689 3.752299
v -1.214156 -0.457689 3.752299
v -1.207156 -0.457689 3.745299
v -1.200156 -1.304343 3.752299
v -1.207156 -1.304343 3.745299
v -0.807157 -1.304343 3.745299
v -0.814157 -1.304343 3.752299
v -1.207156 -0.457689 3.745299
v -1.200156 -0.457689 3.752299
v -0.814157 -0.457689 3.752299
v -0.807157 -0.457689 3.745299
v -0.800157 -1.304343 3.752299
v -0.807157 -1.304343 3.745299
v -0.407157 -1.304343 3.745299
v -0.414157 -1.304343 3.752299
v -0.807157 -0.457689 3.745299
v -0.800157 -0.457689 3.752299
v -0.414157 -0.457688 3.752299
v -0.407157 -0.457688 3.745299
v -0.400157 -1.304343 3.752299
v -0.407157 -1.304343 3.745299
v -0.00186 -1.304343 3.745299
v -0.00886 -1.304343 3.752299
v -0.407157 -0.457688 3.745299
v -0.400157 -0.457688 3.752299
v -0.00886 -0.457688 3.752299
v -0.00186 -0.457688 3.745299
v -0.00186 -1.304343 3.709235
v -0.00186 -0.457688 3.709235
#end vertices

#begin 218 textures vertices 
vt 0.995838 0.06641474 0
vt 0.5032257 0.05713428 0
vt 0.5035872 0.2407151 0
vt 0.5026854 0.2918119 0
vt 0.995838 0.2945716 0
vt 0.995838 0.2447366 0
vt 0.5157503 0.00390625 0
vt 0.995838 0.00390625 0
vt 0.995838 0.06037231 0
vt 0.995838 0.04565236 0
vt 0.995838 0.05301968 0
vt 0.5131132 0.03625328 0
vt 0.5076468 0.05106355 0
vt 0.5107119 0.0436671 0
vt 0.510122 0.2507276 0
vt 0.5101882 0.2515876 0
vt 0.5102441 0.2810519 0
vt 0.5101353 0.2818562 0
vt 0.995838 0.2555624 0
vt 0.995838 0.2545968 0
vt 0.995838 0.2847298 0
vt 0.995838 0.2837644 0
vt 0.5084346 0.7874783 0
vt 0.995838 0.7795243 0
vt 0.5015318 0.7699555 0
vt 0.5057413 0.7754894 0
vt 0.5016548 0.7707889 0
vt 0.5017728 0.7715891 0
vt 0.5020581 0.7736167 0
vt 0.5031591 0.7745378 0
vt 0.995838 0.7675262 0
vt 0.995838 0.7620312 0
vt 0.995838 0.7665786 0
vt 0.995838 0.7656626 0
vt 0.995838 0.7636507 0
vt 0.995838 0.7628571 0
vt 0.5023498 0.05712565 0
vt 0.5028164 0.2407188 0
vt 0.5019713 0.2917925 0
vt 0.5088977 0.00390625 0
vt 0.5076573 0.03512917 0
vt 0.5043409 0.05021921 0
vt 0.5063102 0.04259315 0
vt 0.5055416 0.2509801 0
vt 0.5056369 0.2517772 0
vt 0.5057344 0.2807822 0
vt 0.5056678 0.2815275 0
vt 0.5038333 0.788805 0
vt 0.5008074 0.7699827 0
vt 0.5032283 0.7763505 0
vt 0.5008369 0.7709943 0
vt 0.5008879 0.771897 0
vt 0.5010514 0.7741798 0
vt 0.5022271 0.7752433 0
vt 0.5014734 0.0571283 0
vt 0.5020451 0.2407114 0
vt 0.5012569 0.2917811 0
vt 0.5014221 0.00390625 0
vt 0.5014626 0.03497996 0
vt 0.5014807 0.04998746 0
vt 0.501503 0.04228019 0
vt 0.5019432 0.2509769 0
vt 0.5019883 0.2517831 0
vt 0.5013358 0.2806418 0
vt 0.5013704 0.2814186 0
vt 0.4998376 0.7894276 0
vt 0.5000829 0.7700037 0
vt 0.500004 0.7765268 0
vt 0.5000511 0.7710518 0
vt 0.5000476 0.7720026 0
vt 0.5000424 0.7743534 0
vt 0.5000256 0.7754268 0
vt 0.5005972 0.0571497 0
vt 0.501274 0.2406806 0
vt 0.5005425 0.2917849 0
vt 0.4949782 0.00390625 0
vt 0.4963067 0.03517087 0
vt 0.4988403 0.0501718 0
vt 0.4969707 0.04262948 0
vt 0.4977602 0.2508741 0
vt 0.4977323 0.2516439 0
vt 0.4971383 0.2806085 0
vt 0.4972269 0.2813886 0
vt 0.4961115 0.7890364 0
vt 0.4993584 0.7700185 0
vt 0.4966993 0.7761817 0
vt 0.4992781 0.771011 0
vt 0.4992068 0.7719226 0
vt 0.4990211 0.7741694 0
vt 0.4972486 0.7751765 0
vt 0.4881592 0.00390625 0
vt 0.4909684 0.03628974 0
vt 0.4986337 0.7700271 0
vt 0.4983389 0.7716524 0
vt 0.005280139 0.2812161 0
vt 0.005280139 0.2802607 0
vt 0.005280139 0.2523648 0
vt 0.005280139 0.2514077 0
vt 0.005280139 0.04951714 0
vt 0.005280139 0.05685357 0
vt 0.005280139 0.04215771 0
vt 0.4928037 0.04370015 0
vt 0.4956437 0.05109919 0
vt 0.005280139 0.00390625 0
vt 0.5005017 0.240649 0
vt 0.4998277 0.291791 0
vt 0.005280139 0.2909636 0
vt 0.005280139 0.2416565 0
vt 0.005280139 0.06287306 0
vt 0.4997214 0.05718306 0
vt 0.4938034 0.2513027 0
vt 0.4938485 0.2504756 0
vt 0.4928196 0.2817146 0
vt 0.4927121 0.2807949 0
vt 0.005280139 0.7663595 0
vt 0.4914823 0.7874598 0
vt 0.005280139 0.7489086 0
vt 0.005280139 0.754388 0
vt 0.005280139 0.7497325 0
vt 0.005280139 0.7505237 0
vt 0.005280139 0.7525298 0
vt 0.005280139 0.753443 0
vt 0.4935323 0.7755352 0
vt 0.4959399 0.7745873 0
vt 0.4979865 0.7736705 0
vt 0.4984832 0.7708564 0
vt 0.01346953 0.8005806 0
vt 0.0111859 0.8005806 0
vt 0.106095 0.8005806 0
vt 0.1038114 0.8005806 0
vt 0.0111859 0.9958879 0
vt 0.01346953 0.9958879 0
vt 0.1038114 0.9958879 0
vt 0.106095 0.9958879 0
vt 0.7142231 0.8007428 0
vt 0.7119395 0.8007428 0
vt 0.8055496 0.8007428 0
vt 0.803266 0.8007428 0
vt 0.7119395 0.9960501 0
vt 0.7142231 0.9960501 0
vt 0.803266 0.9960501 0
vt 0.8055496 0.9960501 0
vt 0.4099365 0.8006432 0
vt 0.4076529 0.8006432 0
vt 0.5012628 0.8006432 0
vt 0.4989792 0.8006432 0
vt 0.4076529 0.9959505 0
vt 0.4099365 0.9959505 0
vt 0.4989792 0.9959505 0
vt 0.5012628 0.9959505 0
vt 0.6125792 0.8006432 0
vt 0.6102955 0.8006432 0
vt 0.7039057 0.8006432 0
vt 0.7016221 0.8006432 0
vt 0.6102955 0.9959505 0
vt 0.6125792 0.9959505 0
vt 0.7016221 0.9959505 0
vt 0.7039057 0.9959505 0
vt 0.5109757 0.8006432 0
vt 0.5086921 0.8006432 0
vt 0.602302 0.8006432 0
vt 0.6000184 0.8006432 0
vt 0.5086921 0.9959505 0
vt 0.5109757 0.9959505 0
vt 0.6000184 0.9959505 0
vt 0.602302 0.9959505 0
vt 0.003967889 0.8005806 0
vt 0.003967889 0.9958879 0
vt 0.7047214 0.8007428 0
vt 0.7047214 0.9960501 0
vt 0.4004349 0.8006432 0
vt 0.4004349 0.9959505 0
vt 0.6030775 0.8006432 0
vt 0.6030775 0.9959505 0
vt 0.5014741 0.8006432 0
vt 0.5014741 0.9959505 0
vt 0.902978 0.8006433 0
vt 0.9006943 0.8006433 0
vt 0.9943042 0.8006433 0
vt 0.9920206 0.8006433 0
vt 0.9006943 0.9959504 0
vt 0.902978 0.9959504 0
vt 0.9920206 0.9959504 0
vt 0.9943042 0.9959504 0
vt 0.110617 0.8005807 0
vt 0.1083334 0.8005807 0
vt 0.2019436 0.8005807 0
vt 0.1996599 0.8005807 0
vt 0.1083334 0.9958878 0
vt 0.110617 0.9958878 0
vt 0.1996599 0.9958878 0
vt 0.2019436 0.9958878 0
vt 0.2045426 0.7994436 0
vt 0.2022456 0.7994436 0
vt 0.2964046 0.7994436 0
vt 0.2941076 0.7994436 0
vt 0.2022456 0.9958964 0
vt 0.2045426 0.9958964 0
vt 0.2941076 0.9958964 0
vt 0.2964046 0.9958964 0
vt 0.8084732 0.8006433 0
vt 0.8061896 0.8006433 0
vt 0.8997998 0.8006433 0
vt 0.8975161 0.8006433 0
vt 0.8061896 0.9959504 0
vt 0.8084732 0.9959504 0
vt 0.8975161 0.9959504 0
vt 0.8997998 0.9959504 0
vt 0.2991853 0.8006432 0
vt 0.2969016 0.8006432 0
vt 0.3917337 0.8006432 0
vt 0.3894501 0.8006432 0
vt 0.2969016 0.9959505 0
vt 0.2991853 0.9959505 0
vt 0.3894501 0.9959505 0
vt 0.3917337 0.9959505 0
vt 0.400053 0.8006432 0
vt 0.400053 0.9959505 0
#end 218 textures vertices 

#begin 114 normals 
vn 0.9952 -0 0.098
vn 1 -0 -0
vn 0.9768 0.192 0.0951
vn 0.9808 0.1951 -0
vn 0.9239 0.3827 -0
vn 0.9199 0.381 0.0929
vn 0.3824 0.9233 0.0357
vn 0.3827 0.9239 -0
vn 0.1951 0.9808 -0
vn 0.2066 0.9782 0.0216
vn -0 1 -0
vn 0.7071 0.7071 -0
vn 0.7052 0.7052 0.0728
vn 0.7055 0.7055 0.0666
vn 0.7052 -0.7052 0.0728
vn 0.7071 -0.7071 -0
vn 0.7055 -0.7055 0.0666
vn -0 -1 -0
vn 0.2283 -0.9736 -0
vn 0.2145 -0.9765 0.02
vn 0.5249 -0.8496 0.0518
vn 0.5301 -0.848 -0
vn 0.6094 -0.7904 0.0632
vn 0.6106 -0.7919 -0
vn 0.9466 -0.3224 -0
vn 0.9427 -0.3211 0.091
vn 0.9423 -0.3209 0.0948
vn 0.5645 -0.8254 -0
vn 0.5637 -0.8243 0.0529
vn 0.4775 -0.8773 0.0477
vn 0.473 -0.8811 -0
vn 0.3757 -0.9259 0.0394
vn 0.376 -0.9266 -0
vn 0.9239 -0 0.3827
vn 0.2017 0.9759 0.0835
vn 0.4464 -0.8755 0.1849
vn 0.3474 -0.9266 0.1439
vn 0.3536 0.9239 0.1464
vn 0.8745 -0.3224 0.3623
vn 0.1856 -0.9796 0.0769
vn 0.6533 0.7071 0.2706
vn 0.4815 -0.8535 0.1994
vn 0.9069 0.1906 0.3757
vn 0.5215 -0.8254 0.216
vn 0.8536 0.3827 0.3536
vn 0.6533 -0.7071 0.2706
vn 0.5641 -0.7919 0.2337
vn 0.6533 0.3827 0.6533
vn 0.6941 0.1906 0.6941
vn 0.7071 -0 0.7071
vn 0.1544 0.9759 0.1544
vn 0.2706 0.9239 0.2706
vn 0.1421 -0.9796 0.142
vn 0.3685 -0.8535 0.3685
vn 0.4317 -0.792 0.4318
vn 0.6693 -0.3224 0.6694
vn 0.5 0.7071 0.5
vn 0.3991 -0.8254 0.3991
vn 0.3417 -0.8755 0.3417
vn 0.5 -0.7071 0.5
vn 0.2659 -0.9266 0.2659
vn 0.0769 -0.9796 0.1856
vn 0.1994 -0.8535 0.4815
vn 0.3757 0.1906 0.9069
vn 0.3827 -0 0.9239
vn 0.2337 -0.792 0.5641
vn 0.0835 0.9759 0.2017
vn 0.3622 -0.3224 0.8746
vn 0.2706 0.7071 0.6533
vn 0.216 -0.8254 0.5215
vn 0.1849 -0.8755 0.4464
vn 0.2706 -0.7071 0.6533
vn 0.1439 -0.9266 0.3474
vn 0.3536 0.3827 0.8536
vn 0.1464 0.9239 0.3536
vn 0.091 -0.3211 0.9427
vn 0.0947 -0.3209 0.9423
vn 0.0728 0.7052 0.7052
vn 0.0666 0.7055 0.7055
vn 0.0529 -0.8243 0.5637
vn 0.0477 -0.8773 0.4775
vn 0.0666 -0.7056 0.7055
vn 0.0728 -0.7053 0.7052
vn 0.0394 -0.9259 0.3757
vn 0.098 -0 0.9952
vn 0.02 -0.9765 0.2145
vn 0.0929 0.381 0.9199
vn 0.0951 0.192 0.9768
vn 0.0216 0.9782 0.2066
vn 0.0357 0.9233 0.3824
vn 0.0518 -0.8496 0.5249
vn 0.0632 -0.7904 0.6094
vn -0 -0 1
vn -0 -0.9736 0.2282
vn -0 -0.8811 0.473
vn -0 -0.9266 0.376
vn -0 -0.8254 0.5645
vn -0 -0.3224 0.9466
vn -0 -0.848 0.5301
vn -0 -0.792 0.6106
vn -0 -0.7071 0.7071
vn -0 0.7071 0.7071
vn -0 0.9808 0.1951
vn -0 0.1951 0.9808
vn -0 0.9239 0.3827
vn -0 0.3827 0.9239
vn 0.7071 -0 0.7071
vn 0.7071 -0 -0.7071
vn 1 -0 -0
vn -0 -0 1
vn -0.7071 -0 0.7071
vn 0.7071 -0 0.7071
vn -0 -0 1
vn 1 -0 -0
#end 114 normals 

#begin 138 faces
o Plane:002
s 1
f 3/3/1 2/2/1 1/1/2 6/6/2 
f 12/12/3 10/10/4 11/11/5 14/14/6 
f 14/14/7 11/11/8 9/9/9 13/13/10 
f 12/12/3 7/7/1 8/8/2 10/10/4 
f 1/1/11 2/2/11 13/13/10 9/9/9 
f 21/21/12 18/18/13 17/17/14 22/22/12 
f 15/15/15 20/20/16 19/19/16 16/16/17 
f 16/16/1 19/19/2 22/22/2 17/17/1 
f 3/3/18 6/6/18 20/20/18 15/15/18 
f 5/5/11 4/4/11 18/18/11 21/21/11 
f 31/31/19 26/26/20 30/30/21 33/33/22 
f 33/33/22 30/30/21 29/29/23 34/34/24 
f 34/34/25 29/29/26 28/28/27 35/35/25 
f 35/35/28 28/28/29 27/27/30 36/36/31 
f 36/36/31 27/27/30 25/25/32 32/32/33 
f 26/26/20 31/31/19 24/24/18 23/23/18 
f 25/25/1 4/4/1 5/5/2 32/32/2 
f 2/2/1 3/3/1 38/38/34 37/37/34 
f 13/13/10 2/2/11 37/37/11 42/42/35 
f 25/25/32 27/27/30 51/51/36 49/49/37 
f 14/14/7 13/13/10 42/42/35 43/43/38 
f 16/16/1 17/17/1 46/46/34 45/45/34 
f 28/28/27 29/29/26 53/53/39 52/52/39 
f 26/26/20 23/23/18 48/48/18 50/50/40 
f 17/17/14 18/18/13 47/47/41 46/46/41 
f 30/30/21 26/26/20 50/50/40 54/54/42 
f 3/3/18 15/15/18 44/44/18 38/38/18 
f 4/4/1 25/25/1 49/49/34 39/39/34 
f 7/7/1 12/12/3 41/41/43 40/40/34 
f 27/27/30 28/28/29 52/52/44 51/51/36 
f 12/12/3 14/14/6 43/43/45 41/41/43 
f 15/15/15 16/16/17 45/45/46 44/44/46 
f 29/29/23 30/30/21 54/54/42 53/53/47 
f 18/18/11 4/4/11 39/39/11 47/47/11 
f 38/38/18 44/44/18 62/62/18 56/56/18 
f 41/41/43 43/43/45 61/61/48 59/59/49 
f 39/39/34 49/49/34 67/67/50 57/57/50 
f 47/47/11 39/39/11 57/57/11 65/65/11 
f 43/43/38 42/42/35 60/60/51 61/61/52 
f 54/54/42 50/50/40 68/68/53 72/72/54 
f 40/40/34 41/41/43 59/59/49 58/58/50 
f 53/53/47 54/54/42 72/72/54 71/71/55 
f 42/42/35 37/37/11 55/55/11 60/60/51 
f 52/52/39 53/53/39 71/71/56 70/70/56 
f 46/46/41 47/47/41 65/65/57 64/64/57 
f 51/51/36 52/52/44 70/70/58 69/69/59 
f 44/44/46 45/45/46 63/63/60 62/62/60 
f 49/49/37 51/51/36 69/69/59 67/67/61 
f 45/45/34 46/46/34 64/64/50 63/63/50 
f 37/37/34 38/38/34 56/56/50 55/55/50 
f 50/50/40 48/48/18 66/66/18 68/68/53 
f 72/72/54 68/68/53 86/86/62 90/90/63 
f 58/58/50 59/59/49 77/77/64 76/76/65 
f 71/71/55 72/72/54 90/90/63 89/89/66 
f 60/60/51 55/55/11 73/73/11 78/78/67 
f 70/70/56 71/71/56 89/89/68 88/88/68 
f 64/64/57 65/65/57 83/83/69 82/82/69 
f 69/69/59 70/70/58 88/88/70 87/87/71 
f 62/62/60 63/63/60 81/81/72 80/80/72 
f 67/67/61 69/69/59 87/87/71 85/85/73 
f 63/63/50 64/64/50 82/82/65 81/81/65 
f 55/55/50 56/56/50 74/74/65 73/73/65 
f 68/68/53 66/66/18 84/84/18 86/86/62 
f 56/56/18 62/62/18 80/80/18 74/74/18 
f 59/59/49 61/61/48 79/79/74 77/77/64 
f 57/57/50 67/67/50 85/85/65 75/75/65 
f 65/65/11 57/57/11 75/75/11 83/83/11 
f 61/61/52 60/60/51 78/78/67 79/79/75 
f 88/88/68 89/89/68 125/125/76 94/94/77 
f 82/82/69 83/83/69 113/113/78 114/114/79 
f 87/87/71 88/88/70 94/94/80 126/126/81 
f 80/80/72 81/81/72 111/111/82 112/112/83 
f 85/85/73 87/87/71 126/126/81 93/93/84 
f 81/81/65 82/82/65 114/114/85 111/111/85 
f 73/73/65 74/74/65 105/105/85 110/110/85 
f 86/86/62 84/84/18 116/116/18 123/123/86 
f 74/74/18 80/80/18 112/112/18 105/105/18 
f 77/77/64 79/79/74 102/102/87 92/92/88 
f 75/75/65 85/85/65 93/93/85 106/106/85 
f 83/83/11 75/75/11 106/106/11 113/113/11 
f 79/79/75 78/78/67 103/103/89 102/102/90 
f 90/90/63 86/86/62 123/123/86 124/124/91 
f 76/76/65 77/77/64 92/92/88 91/91/85 
f 89/89/66 90/90/63 124/124/91 125/125/92 
f 78/78/67 73/73/11 110/110/11 103/103/89 
f 117/117/93 107/107/93 106/106/85 93/93/85 
f 118/118/94 123/123/86 116/116/18 115/115/18 
f 126/126/81 119/119/95 117/117/96 93/93/84 
f 94/94/80 120/120/97 119/119/95 126/126/81 
f 125/125/76 121/121/98 120/120/98 94/94/77 
f 124/124/91 122/122/99 121/121/100 125/125/92 
f 123/123/86 118/118/94 122/122/99 124/124/91 
f 106/106/11 107/107/11 95/95/11 113/113/11 
f 108/108/18 105/105/18 112/112/18 98/98/18 
f 97/97/93 111/111/85 114/114/85 96/96/93 
f 98/98/101 112/112/83 111/111/82 97/97/101 
f 113/113/78 95/95/102 96/96/102 114/114/79 
f 110/110/11 109/109/11 100/100/103 103/103/89 
f 101/101/104 104/104/93 91/91/85 92/92/88 
f 99/99/105 102/102/90 103/103/89 100/100/103 
f 101/101/104 92/92/88 102/102/87 99/99/106 
f 108/108/93 109/109/93 110/110/85 105/105/85 
o Plane:003
s 1
f 127/127/107 132/132/107 131/131/107 128/128/107 
f 133/133/108 130/130/108 129/129/108 134/134/108 
f 132/132/109 127/127/109 130/130/109 133/133/109 
f 135/135/107 140/140/107 139/139/107 136/136/107 
f 141/141/108 138/138/108 137/137/108 142/142/108 
f 140/140/109 135/135/109 138/138/109 141/141/109 
f 143/143/107 148/148/107 147/147/107 144/144/107 
f 149/149/108 146/146/108 145/145/108 150/150/108 
f 148/148/109 143/143/109 146/146/109 149/149/109 
f 151/151/107 156/156/107 155/155/107 152/152/107 
f 157/157/108 154/154/108 153/153/108 158/158/108 
f 156/156/109 151/151/109 154/154/109 157/157/109 
f 159/159/107 164/164/107 163/163/107 160/160/107 
f 165/165/108 162/162/108 161/161/108 166/166/108 
f 164/164/109 159/159/109 162/162/109 165/165/109 
f 128/128/110 131/131/110 168/168/110 167/167/110 
f 144/144/110 147/147/110 172/172/110 171/171/110 
f 160/160/110 163/163/110 176/176/110 175/175/110 
f 136/136/110 139/139/110 170/170/110 169/169/110 
f 152/152/110 155/155/110 174/174/110 173/173/110 
o Plane:004
s 1
f 177/177/111 182/182/111 181/181/111 178/178/111 
f 183/183/112 180/180/112 179/179/112 184/184/112 
f 182/182/113 177/177/113 180/180/113 183/183/113 
f 185/185/111 190/190/111 189/189/111 186/186/111 
f 191/191/112 188/188/112 187/187/112 192/192/112 
f 190/190/113 185/185/113 188/188/113 191/191/113 
f 193/193/111 198/198/111 197/197/111 194/194/111 
f 199/199/112 196/196/112 195/195/112 200/200/112 
f 198/198/113 193/193/113 196/196/113 199/199/113 
f 201/201/111 206/206/111 205/205/111 202/202/111 
f 207/207/112 204/204/112 203/203/112 208/208/112 
f 206/206/113 201/201/113 204/204/113 207/207/113 
f 209/209/111 214/214/111 213/213/111 210/210/111 
f 215/215/112 212/212/112 211/211/112 216/216/112 
f 214/214/113 209/209/113 212/212/113 215/215/113 
f 216/216/114 211/211/114 217/217/114 218/218/114 
#end 138 faces

#ZOMPROPERTIES_04{
#ZOMPROPERTIES_04 table {Mesh table {SymPlane table {Point vector3d 0 0 0 Normal vector3d 1 0 0 Threshold double 0.01 
#ZOMPROPERTIES_04 Enabled bool false EdgeID int -1 SymEdgeID int -1 UPos double 0.5 LocalMode bool false } RootGroup C
#ZOMPROPERTIES_04 SubMeshGroup {Children table {Tile_0_0 CSubMeshGroup {Children table {} BBoxUV box3d 0 0 0 0 0 0 BBo
#ZOMPROPERTIES_04 x3D box3d 0 0 0 0 0 0 Area3D double 0 AreaUV double 0.961324 IsRoot bool false Properties table {Sel
#ZOMPROPERTIES_04 ected bool false Box box3d 0 1 0 1 0 1 U int 0 V int 0 NU int 0 NV int 0 Tiling vector3d 1 1 1 TileR
#ZOMPROPERTIES_04 atioMode string "1:1" Overflow string "Off" Pack table {BoxFrameEdit bool false Behavior string "Fre
#ZOMPROPERTIES_04 e" } } IsTile bool true PolyIDs ints { 122 124 123 125 127 126 131 133 132 128 130 129 108 110 109 1
#ZOMPROPERTIES_04 18 114 116 115 119 111 113 112 121 105 107 106 120 102 104 103 117 134 136 135 137 0 4 18 42 54 61 7
#ZOMPROPERTIES_04 4 84 80 67 64 35 38 30 1 2 3 28 40 20 52 82 98 100 99 77 97 101 93 95 71 76 63 58 60 73 69 96 92 85 
#ZOMPROPERTIES_04 87 88 89 90 91 86 75 62 50 23 15 10 25 32 11 12 13 14 16 9 5 24 21 48 7 6 8 31 26 34 17 46 44 37 66 
#ZOMPROPERTIES_04 56 65 78 59 72 70 57 55 43 41 39 53 83 81 51 22 45 29 47 19 68 36 27 33 79 94 49 } } } BBoxUV box3d 
#ZOMPROPERTIES_04 0 0 0 0 0 0 BBox3D box3d 0 0 0 0 0 0 Area3D double 0 AreaUV double 0 IsRoot bool true Properties tab
#ZOMPROPERTIES_04 le {Selected bool false Box box3d 0 1 0 1 0 1 U int 0 V int 0 NU int 1 NV int 1 Tiling vector3d 1 1 
#ZOMPROPERTIES_04 1 TileRatioMode string "1:1" Overflow string "Off" Pack table {Rotate table {Mode int 0 Min double 0
#ZOMPROPERTIES_04  Max double 90 Step double 0 } PaddingSize double 0.0078125 MarginSize double 0.00390625 Resolution 
#ZOMPROPERTIES_04 int 256 MapResolution int 2048 Scaling table {TexelDensity double 1024 Mode int 2 } LayoutScalingMod
#ZOMPROPERTIES_04 e int 2 MaxMutations int 1 } } IsTile bool false PolyIDs ints { } } Maps table {Density table {PrimT
#ZOMPROPERTIES_04 ype string "Polygon" Size int 1 DefaultValue double 1 ScaleType string "Log" MergeMode string "Avera
#ZOMPROPERTIES_04 ge" MinValue double 0.1 MaxValue double 4 Data doubles { r 138 1 } } Pin table {PrimType string "Ver
#ZOMPROPERTIES_04 tex" Size int 1 DefaultValue double 0 ScaleType string "Normalized" MergeMode string "Max" MinValue 
#ZOMPROPERTIES_04 double 0 MaxValue double 1 Data doubles { r 218 0 } } Protect table {PrimType string "Vertex" Size i
#ZOMPROPERTIES_04 nt 1 DefaultValue double 0 ScaleType string "Normalized" MergeMode string "Average" MinValue double 
#ZOMPROPERTIES_04 -1 MaxValue double 1 Data doubles { r 218 0 } } } } }
#ZOMPROPERTIES_04}


#ZOMSCENE_01{
#ZOMSCENE_01 CScene {Settings table {AxisSystem table {UpVector string "y" } Unit string "cm" TexelDensityDisplay
#ZOMSCENE_01 Unit string "tx/cm" } }
#ZOMSCENE_01}

#begin 0 fatal error vertex (that RizomUV cannot handle)
#end 0 fatal error vertex (that RizomUV cannot handle)

#begin 0 error vertex
#end 0 error vertex
