#File written by RizomUV 2022.1.57.gfabcfb8. Compilation :Sep 28 2022,23:52:22
mtllib Esquina adentro.mtl
#begin vertices
v -1.148889 -1.328913 9.954558
v -1.155889 -1.328913 9.961558
v -1.155889 -1.328913 9.527752
v -1.148889 -1.328913 9.534752
v -1.155889 -0.552272 9.961558
v -1.148889 -0.552272 9.954558
v -1.148889 -0.552272 9.534752
v -1.155889 -0.552272 9.527752
v -1.148889 -1.328913 9.520751
v -1.155889 -1.328913 9.527752
v -1.155889 -1.328913 9.127752
v -1.148889 -1.328913 9.134752
v -1.155889 -0.552272 9.527752
v -1.148889 -0.552272 9.520751
v -1.148889 -0.552272 9.134752
v -1.155889 -0.552272 9.127752
v -1.148889 -1.328913 9.120752
v -1.155889 -1.328913 9.127752
v -1.155889 -1.328913 8.727753
v -1.148889 -1.328913 8.734753
v -1.155889 -0.552272 9.127752
v -1.148889 -0.552272 9.120752
v -1.148889 -0.552272 8.734753
v -1.155889 -0.552272 8.727753
v -1.148889 -1.328913 8.720753
v -1.155889 -1.328913 8.727753
v -1.155889 -1.328913 8.327753
v -1.148889 -1.328913 8.334753
v -1.155889 -0.552272 8.727753
v -1.148889 -0.552272 8.720753
v -1.148889 -0.552272 8.334753
v -1.155889 -0.552272 8.327753
v -1.148889 -1.328913 8.320753
v -1.155889 -1.328913 8.327753
v -1.155889 -1.328913 7.927753
v -1.148889 -1.328913 7.934753
v -1.155889 -0.552272 8.327753
v -1.148889 -0.552272 8.320753
v -1.148889 -0.552272 7.934753
v -1.155889 -0.552272 7.927753
v -1.180886 -1.304342 7.933125
v -1.180886 -1.304342 9.933125
v -1.180887 -0.568956 9.933125
v -1.180887 -0.44756 9.933125
v -1.180887 -0.44756 7.933125
v -1.180887 -0.568956 7.933125
v -1.116793 -1.478921 9.933125
v -1.116793 -1.478921 7.933125
v -1.156128 -1.304342 7.933125
v -1.116793 -1.343677 7.933125
v -1.128314 -1.315863 7.933125
v -1.116793 -1.343677 9.933125
v -1.156128 -1.304342 9.933125
v -1.128314 -1.315863 9.933125
v -1.140414 -0.568956 9.933125
v -1.137611 -0.566154 9.933125
v -1.137611 -0.450363 9.933125
v -1.140414 -0.44756 9.933125
v -1.137611 -0.566154 7.933125
v -1.140414 -0.568956 7.933125
v -1.140414 -0.44756 7.933125
v -1.137611 -0.450363 7.933125
v -1.116906 1.478924 9.933125
v -1.116906 1.478924 7.933125
v -1.180887 1.463989 9.933125
v -1.165952 1.478924 9.933125
v -1.177746 1.465263 9.933125
v -1.17506 1.467101 9.933125
v -1.172401 1.474908 9.933125
v -1.169429 1.477199 9.933125
v -1.165952 1.478924 7.933125
v -1.180887 1.463989 7.933125
v -1.169429 1.477199 7.933125
v -1.172401 1.474908 7.933125
v -1.17506 1.467101 7.933125
v -1.177746 1.465263 7.933125
v -1.175598 -1.304342 9.95971
v -1.175598 -0.568956 9.95971
v -1.175598 -0.44756 9.95971
v -1.116384 -1.478921 9.935183
v -1.116384 -1.343677 9.935183
v -1.152725 -1.304342 9.950235
v -1.127028 -1.315863 9.939591
v -1.138206 -0.568956 9.944221
v -1.135617 -0.566154 9.94315
v -1.135617 -0.450363 9.94315
v -1.138206 -0.44756 9.944221
v -1.116488 1.478924 9.935225
v -1.175599 1.463989 9.95971
v -1.1618 1.478924 9.953995
v -1.172697 1.465263 9.958508
v -1.170215 1.467101 9.95748
v -1.167759 1.474908 9.956463
v -1.165013 1.477199 9.955325
v -1.160539 -1.304342 9.982247
v -1.160539 -0.568956 9.982247
v -1.160539 -0.44756 9.982247
v -1.115218 -1.478921 9.936926
v -1.115218 -1.343677 9.936926
v -1.143033 -1.304342 9.964741
v -1.123365 -1.315863 9.945073
v -1.131921 -0.568956 9.953629
v -1.129939 -0.566154 9.951647
v -1.129939 -0.450363 9.951647
v -1.131921 -0.44756 9.953629
v -1.115298 1.478924 9.937006
v -1.16054 1.463989 9.982247
v -1.149979 1.478924 9.971686
v -1.158319 1.465263 9.980026
v -1.156419 1.467101 9.978127
v -1.154539 1.474908 9.976247
v -1.152438 1.477199 9.974146
v -1.138002 -1.304342 9.997306
v -1.138002 -0.568956 9.997306
v -1.138002 -0.44756 9.997306
v -1.113475 -1.478921 9.938091
v -1.113475 -1.343677 9.938091
v -1.128528 -1.304342 9.974432
v -1.117883 -1.315863 9.948735
v -1.122514 -0.568956 9.959914
v -1.121441 -0.566154 9.957325
v -1.121441 -0.450363 9.957325
v -1.122514 -0.44756 9.959914
v -1.113518 1.478924 9.938195
v -1.138002 1.463989 9.997306
v -1.132287 1.478924 9.983508
v -1.1368 1.465263 9.994405
v -1.135772 1.467101 9.991922
v -1.134755 1.474908 9.989466
v -1.133617 1.477199 9.986721
v -1.111418 -1.478921 9.9385
v -1.111418 -1.343677 9.9385
v -1.111418 -0.568956 9.962121
v -1.111418 -0.566154 9.959318
v -1.111418 -0.450363 9.959318
v -1.111418 -0.44756 9.962121
v -1.111418 1.478924 9.938613
v -1.111418 1.463989 10.00259
v -1.111418 1.465263 9.999454
v -1.111418 1.474908 9.994108
v -1.111418 -1.304342 10.00259
v 0.883207 -1.304343 9.997219
v 0.883207 -0.568958 9.997219
v 0.883207 -0.447562 9.997219
v -1.111418 -0.44756 10.00259
v -1.111418 -0.568956 10.00259
v 0.883207 -1.478923 9.933125
v -1.111418 -1.304342 9.977836
v -1.111418 -1.315863 9.950022
v 0.883207 -1.343679 9.933125
v 0.883207 -1.304343 9.972461
v 0.883207 -1.315865 9.944646
v 0.883207 -0.568958 9.956746
v 0.883207 -0.566155 9.953943
v 0.883207 -0.450364 9.953943
v 0.883207 -0.447562 9.956746
v 0.883207 1.478922 9.933238
v 0.883207 1.463987 9.997219
v 0.883207 1.478922 9.982284
v 0.883207 1.465262 9.994079
v 0.883207 1.467099 9.991392
v 0.883207 1.474906 9.988733
v 0.883207 1.477197 9.985761
v -1.111418 1.478924 9.987659
v -1.111418 1.477199 9.991137
v -1.111418 1.467101 9.996767
v 0.876207 -1.303349 9.963661
v 0.883207 -1.303349 9.970661
v 0.483208 -1.303349 9.970661
v 0.490208 -1.303349 9.963661
v 0.883207 -0.526707 9.970661
v 0.876207 -0.526707 9.963661
v 0.490207 -0.526707 9.963661
v 0.483207 -0.526707 9.970661
v 0.476208 -1.303349 9.963661
v 0.483208 -1.303349 9.970661
v 0.083208 -1.303349 9.970661
v 0.090208 -1.303349 9.963661
v 0.483207 -0.526707 9.970661
v 0.476207 -0.526707 9.963661
v 0.090208 -0.526707 9.963661
v 0.083208 -0.526707 9.970661
v 0.076208 -1.303349 9.963661
v 0.083208 -1.303349 9.970661
v -0.316792 -1.303349 9.970661
v -0.309792 -1.303349 9.963661
v 0.083208 -0.526707 9.970661
v 0.076208 -0.526707 9.963661
v -0.309792 -0.526707 9.963661
v -0.316792 -0.526707 9.970661
v -0.323792 -1.303349 9.963661
v -0.316791 -1.303349 9.970661
v -0.716791 -1.303349 9.970661
v -0.709791 -1.303349 9.963661
v -0.316791 -0.526707 9.970661
v -0.323792 -0.526707 9.963661
v -0.709791 -0.526707 9.963661
v -0.716791 -0.526707 9.970661
v -0.723791 -1.303349 9.963661
v -0.716791 -1.303349 9.970661
v -1.156996 -1.303349 9.970661
v -1.149996 -1.303349 9.963661
v -0.716791 -0.526707 9.970661
v -0.723791 -0.526707 9.963661
v -1.149996 -0.526707 9.963661
v -1.156996 -0.526707 9.970661
#end vertices

#begin 206 textures vertices 
vt 0.3968486 0.8099621 0
vt 0.3945003 0.8099621 0
vt 0.4987837 0.8099621 0
vt 0.4964354 0.8099621 0
vt 0.3945003 0.9941975 0
vt 0.3968486 0.9941975 0
vt 0.4964354 0.9941975 0
vt 0.4987837 0.9941975 0
vt 0.1040615 0.8099621 0
vt 0.1017129 0.8099621 0
vt 0.1979768 0.8099621 0
vt 0.1956285 0.8099621 0
vt 0.1017129 0.9941975 0
vt 0.1040615 0.9941975 0
vt 0.1956285 0.9941975 0
vt 0.1979768 0.9941975 0
vt 0.006549363 0.8099621 0
vt 0.004200997 0.8099621 0
vt 0.1004647 0.8099621 0
vt 0.09811636 0.8099621 0
vt 0.004200997 0.9941975 0
vt 0.006549363 0.9941975 0
vt 0.09811636 0.9941975 0
vt 0.1004647 0.9941975 0
vt 0.2016922 0.8099621 0
vt 0.1993438 0.8099621 0
vt 0.2956078 0.8099621 0
vt 0.2932594 0.8099621 0
vt 0.1993438 0.9941975 0
vt 0.2016922 0.9941975 0
vt 0.2932594 0.9941975 0
vt 0.2956078 0.9941975 0
vt 0.299946 0.8099621 0
vt 0.2975976 0.8099621 0
vt 0.3938616 0.8099621 0
vt 0.3915132 0.8099621 0
vt 0.2975976 0.9941975 0
vt 0.299946 0.9941975 0
vt 0.3915132 0.9941975 0
vt 0.3938616 0.9941975 0
vt 0.9960938 0.05163066 0
vt 0.5057008 0.05808524 0
vt 0.5108329 0.2414248 0
vt 0.5110456 0.2827761 0
vt 0.9960938 0.2787596 0
vt 0.9960938 0.2272731 0
vt 0.493235 0.00390625 0
vt 0.9960938 0.00390625 0
vt 0.9960938 0.04552065 0
vt 0.9960938 0.03073344 0
vt 0.9960938 0.03811619 0
vt 0.4952152 0.03784131 0
vt 0.5006639 0.0521994 0
vt 0.4969948 0.04506366 0
vt 0.5046486 0.2506256 0
vt 0.5045934 0.2513552 0
vt 0.5059605 0.2726449 0
vt 0.5061009 0.2733688 0
vt 0.9960938 0.2384306 0
vt 0.9960938 0.2374356 0
vt 0.9960938 0.2685488 0
vt 0.9960938 0.267552 0
vt 0.5069743 0.7545961 0
vt 0.9960938 0.7503813 0
vt 0.5138574 0.7377941 0
vt 0.5121413 0.7437843 0
vt 0.5136038 0.7386957 0
vt 0.5133603 0.7395617 0
vt 0.5127344 0.7417554 0
vt 0.5124446 0.7427529 0
vt 0.9960938 0.7384516 0
vt 0.9960938 0.7329497 0
vt 0.9960938 0.7375047 0
vt 0.9960938 0.7365888 0
vt 0.9960938 0.7345743 0
vt 0.9960938 0.7337787 0
vt 0.499814 0.05850477 0
vt 0.5036855 0.2414703 0
vt 0.5048198 0.2830466 0
vt 0.4928754 0.00390625 0
vt 0.4942864 0.03785989 0
vt 0.4972994 0.05285166 0
vt 0.4951978 0.04540178 0
vt 0.5008957 0.2505092 0
vt 0.5008747 0.2513725 0
vt 0.5020402 0.2728092 0
vt 0.5021524 0.2736649 0
vt 0.5044296 0.754308 0
vt 0.5075452 0.7373105 0
vt 0.5068217 0.7429236 0
vt 0.5074676 0.7381313 0
vt 0.5073827 0.7389271 0
vt 0.5071097 0.7409953 0
vt 0.5069783 0.7419445 0
vt 0.493928 0.05867688 0
vt 0.4965395 0.2415229 0
vt 0.4985998 0.2832376 0
vt 0.4925155 0.00390625 0
vt 0.4932934 0.03787614 0
vt 0.4937743 0.05302441 0
vt 0.4934958 0.04546965 0
vt 0.4971214 0.250821 0
vt 0.4971419 0.2514904 0
vt 0.498089 0.2728628 0
vt 0.4981256 0.2735304 0
vt 0.5018523 0.7542252 0
vt 0.5012232 0.7370696 0
vt 0.5014057 0.7424248 0
vt 0.5012496 0.737854 0
vt 0.5012743 0.7386123 0
vt 0.5013436 0.7405931 0
vt 0.501374 0.7414961 0
vt 0.4884218 0.05855481 0
vt 0.4897665 0.2417107 0
vt 0.4923803 0.2833114 0
vt 0.4921555 0.00390625 0
vt 0.4924306 0.03787232 0
vt 0.4902404 0.05294582 0
vt 0.4917905 0.04548302 0
vt 0.4933489 0.2508324 0
vt 0.4934051 0.2515802 0
vt 0.4941352 0.2729291 0
vt 0.4941179 0.2736749 0
vt 0.4992778 0.7540453 0
vt 0.4948947 0.7370823 0
vt 0.4960228 0.7426757 0
vt 0.4950296 0.7378977 0
vt 0.4951745 0.7386863 0
vt 0.4956021 0.7407462 0
vt 0.4958015 0.7416916 0
vt 0.4917953 0.00390625 0
vt 0.4916349 0.03785176 0
vt 0.489575 0.2509621 0
vt 0.4896696 0.2516885 0
vt 0.4901915 0.2729625 0
vt 0.4901027 0.2736904 0
vt 0.4967564 0.7540694 0
vt 0.4885694 0.7373574 0
vt 0.4889026 0.7382519 0
vt 0.490024 0.7412919 0
vt 0.4825455 0.05823168 0
vt 0.00390625 0.05670801 0
vt 0.00390625 0.2460975 0
vt 0.00390625 0.2974464 0
vt 0.4861586 0.2832819 0
vt 0.4826162 0.2419691 0
vt 0.00390625 0.00390625 0
vt 0.486774 0.0523005 0
vt 0.4897361 0.04510773 0
vt 0.00390625 0.03577301 0
vt 0.00390625 0.05058864 0
vt 0.00390625 0.0431706 0
vt 0.00390625 0.2562348 0
vt 0.00390625 0.2572279 0
vt 0.00390625 0.2862887 0
vt 0.00390625 0.2872832 0
vt 0.00390625 0.7642578 0
vt 0.00390625 0.7470651 0
vt 0.00390625 0.7525033 0
vt 0.00390625 0.7478846 0
vt 0.00390625 0.7486713 0
vt 0.00390625 0.7506625 0
vt 0.00390625 0.7515676 0
vt 0.4907796 0.7433065 0
vt 0.4903945 0.7422821 0
vt 0.4892209 0.7391118 0
vt 0.9914502 0.9941976 0
vt 0.9937986 0.9941976 0
vt 0.8975347 0.9941976 0
vt 0.8998831 0.9941976 0
vt 0.9937986 0.8099619 0
vt 0.9914502 0.8099619 0
vt 0.8998831 0.8099619 0
vt 0.8975347 0.8099619 0
vt 0.8029975 0.8099619 0
vt 0.8006491 0.8099619 0
vt 0.896913 0.8099619 0
vt 0.8945646 0.8099619 0
vt 0.8006491 0.9941976 0
vt 0.8029975 0.9941976 0
vt 0.8945646 0.9941976 0
vt 0.896913 0.9941976 0
vt 0.7976591 0.9941976 0
vt 0.8000075 0.9941976 0
vt 0.7037435 0.9941976 0
vt 0.7060919 0.9941976 0
vt 0.8000075 0.8099619 0
vt 0.7976591 0.8099619 0
vt 0.7060919 0.8099619 0
vt 0.7037435 0.8099619 0
vt 0.6091866 0.8099619 0
vt 0.6068381 0.8099619 0
vt 0.703102 0.8099619 0
vt 0.7007536 0.8099619 0
vt 0.6068381 0.9941976 0
vt 0.6091866 0.9941976 0
vt 0.7007536 0.9941976 0
vt 0.703102 0.9941976 0
vt 0.6035119 0.9941976 0
vt 0.6058603 0.9941976 0
vt 0.5000588 0.9941976 0
vt 0.5024072 0.9941976 0
vt 0.6058603 0.8099619 0
vt 0.6035119 0.8099619 0
vt 0.5024072 0.8099619 0
vt 0.5000588 0.8099619 0
#end 206 textures vertices 

#begin 115 normals 
vn 0.7071 -0 0.7071
vn 0.7071 -0 -0.7071
vn 1 -0 -0
vn 0.9952 -0 -0.098
vn 1 -0 -0
vn 0.9757 0.1966 -0.0973
vn 0.9808 0.1951 -0
vn 0.9239 0.3827 -0
vn 0.9203 0.3812 -0.0885
vn 0.3824 0.9231 -0.0401
vn 0.3827 0.9239 -0
vn 0.1951 0.9808 -0
vn 0.1832 0.9829 -0.0171
vn -0 1 -0
vn 0.7071 0.7071 -0
vn 0.7055 0.7055 -0.0666
vn 0.7052 0.7052 -0.0728
vn 0.7055 -0.7055 -0.0666
vn 0.7071 -0.7071 -0
vn 0.7052 -0.7052 -0.0728
vn -0 -1 -0
vn 0.2283 -0.9736 -0
vn 0.2415 -0.9701 -0.0252
vn 0.5336 -0.844 -0.0532
vn 0.5301 -0.848 -0
vn 0.6096 -0.7906 -0.0573
vn 0.6106 -0.7919 -0
vn 0.9466 -0.3224 -0
vn 0.9423 -0.3209 -0.0947
vn 0.9427 -0.3211 -0.091
vn 0.5645 -0.8254 -0
vn 0.5635 -0.824 -0.0586
vn 0.4672 -0.8829 -0.046
vn 0.473 -0.8811 -0
vn 0.3758 -0.9261 -0.035
vn 0.376 -0.9266 -0
vn 0.9239 -0 -0.3827
vn 0.1584 0.9852 -0.0656
vn 0.4273 -0.8866 -0.177
vn 0.3474 -0.9266 -0.1439
vn 0.3536 0.9239 -0.1464
vn 0.8745 -0.3224 -0.3623
vn 0.2355 -0.967 -0.0976
vn 0.6533 0.7071 -0.2706
vn 0.4977 -0.8425 -0.2062
vn 0.9052 0.1999 -0.375
vn 0.5215 -0.8254 -0.216
vn 0.8535 0.3827 -0.3536
vn 0.6533 -0.7071 -0.2706
vn 0.5641 -0.7919 -0.2337
vn 0.6533 0.3827 -0.6533
vn 0.6928 0.1999 -0.6928
vn 0.7071 -0 -0.7071
vn 0.1212 0.9852 -0.1212
vn 0.2706 0.9239 -0.2706
vn 0.1803 -0.967 -0.1803
vn 0.381 -0.8425 -0.381
vn 0.4318 -0.7919 -0.4318
vn 0.6693 -0.3224 -0.6694
vn 0.5 0.7071 -0.5
vn 0.3992 -0.8254 -0.3992
vn 0.327 -0.8866 -0.327
vn 0.5 -0.7071 -0.5
vn 0.2659 -0.9266 -0.2659
vn 0.0975 -0.967 -0.2355
vn 0.2062 -0.8425 -0.4977
vn 0.3749 0.1999 -0.9052
vn 0.3826 -0 -0.9239
vn 0.2337 -0.792 -0.5641
vn 0.0656 0.9852 -0.1584
vn 0.3622 -0.3224 -0.8745
vn 0.3622 -0.3224 -0.8746
vn 0.2706 0.7071 -0.6533
vn 0.216 -0.8254 -0.5215
vn 0.177 -0.8866 -0.4273
vn 0.2706 -0.7071 -0.6533
vn 0.1439 -0.9266 -0.3474
vn 0.3827 -0 -0.9239
vn 0.3535 0.3827 -0.8536
vn 0.1464 0.9239 -0.3536
vn 0.0935 -0.321 -0.9425
vn 0.0897 -0.3211 -0.9428
vn 0.0656 0.7056 -0.7056
vn 0.0718 0.7053 -0.7053
vn 0.0578 -0.8241 -0.5636
vn 0.0454 -0.883 -0.4672
vn 0.0718 -0.7053 -0.7053
vn 0.0656 -0.7056 -0.7056
vn 0.0345 -0.9261 -0.3758
vn 0.0967 -0 -0.9953
vn 0.0249 -0.97 -0.2417
vn 0.0873 0.3812 -0.9204
vn 0.0959 0.1966 -0.9758
vn 0.0168 0.983 -0.1831
vn 0.0395 0.9232 -0.3824
vn 0.0525 -0.844 -0.5337
vn 0.0966 -0 -0.9953
vn 0.0564 -0.7907 -0.6096
vn -0.0027 -0 -1
vn -0.0026 0.195 -0.9808
vn -0.0025 0.3827 -0.9239
vn -0.001 0.9239 -0.3827
vn -0.0005 0.9807 -0.1954
vn -0.0019 0.7071 -0.7071
vn -0.0019 -0.7071 -0.7071
vn -0.0006 -0.9737 -0.2279
vn -0.0014 -0.848 -0.53
vn -0.0016 -0.7919 -0.6106
vn -0.0026 -0.3224 -0.9466
vn -0.0015 -0.8254 -0.5645
vn -0.0013 -0.881 -0.4731
vn -0.001 -0.9266 -0.376
vn 0.7071 -0 -0.7071
vn -0.7071 -0 -0.7071
vn -0 -0 -1
#end 115 normals 

#begin 132 faces
o Plane:009
s 1
f 1/1/1 6/6/1 5/5/1 2/2/1 
f 7/7/2 4/4/2 3/3/2 8/8/2 
f 6/6/3 1/1/3 4/4/3 7/7/3 
f 9/9/1 14/14/1 13/13/1 10/10/1 
f 15/15/2 12/12/2 11/11/2 16/16/2 
f 14/14/3 9/9/3 12/12/3 15/15/3 
f 17/17/1 22/22/1 21/21/1 18/18/1 
f 23/23/2 20/20/2 19/19/2 24/24/2 
f 22/22/3 17/17/3 20/20/3 23/23/3 
f 25/25/1 30/30/1 29/29/1 26/26/1 
f 31/31/2 28/28/2 27/27/2 32/32/2 
f 30/30/3 25/25/3 28/28/3 31/31/3 
f 33/33/1 38/38/1 37/37/1 34/34/1 
f 39/39/2 36/36/2 35/35/2 40/40/2 
f 38/38/3 33/33/3 36/36/3 39/39/3 
o Plane:017
s 1
f 43/43/4 42/42/4 41/41/5 46/46/5 
f 52/52/6 50/50/7 51/51/8 54/54/9 
f 54/54/10 51/51/11 49/49/12 53/53/13 
f 52/52/6 47/47/4 48/48/5 50/50/7 
f 41/41/14 42/42/14 53/53/13 49/49/12 
f 61/61/15 58/58/16 57/57/17 62/62/15 
f 55/55/18 60/60/19 59/59/19 56/56/20 
f 56/56/4 59/59/5 62/62/5 57/57/4 
f 43/43/21 46/46/21 60/60/21 55/55/21 
f 45/45/14 44/44/14 58/58/14 61/61/14 
f 71/71/22 66/66/23 70/70/24 73/73/25 
f 73/73/25 70/70/24 69/69/26 74/74/27 
f 74/74/28 69/69/29 68/68/30 75/75/28 
f 75/75/31 68/68/32 67/67/33 76/76/34 
f 76/76/34 67/67/33 65/65/35 72/72/36 
f 66/66/23 71/71/22 64/64/21 63/63/21 
f 65/65/4 44/44/4 45/45/5 72/72/5 
f 42/42/4 43/43/4 78/78/37 77/77/37 
f 53/53/13 42/42/14 77/77/14 82/82/38 
f 65/65/35 67/67/33 91/91/39 89/89/40 
f 54/54/10 53/53/13 82/82/38 83/83/41 
f 56/56/4 57/57/4 86/86/37 85/85/37 
f 68/68/30 69/69/29 93/93/42 92/92/42 
f 66/66/23 63/63/21 88/88/21 90/90/43 
f 57/57/17 58/58/16 87/87/44 86/86/44 
f 70/70/24 66/66/23 90/90/43 94/94/45 
f 43/43/21 55/55/21 84/84/21 78/78/21 
f 44/44/4 65/65/4 89/89/37 79/79/37 
f 47/47/4 52/52/6 81/81/46 80/80/37 
f 67/67/33 68/68/32 92/92/47 91/91/39 
f 52/52/6 54/54/9 83/83/48 81/81/46 
f 55/55/18 56/56/20 85/85/49 84/84/49 
f 69/69/26 70/70/24 94/94/45 93/93/50 
f 58/58/14 44/44/14 79/79/14 87/87/14 
f 78/78/21 84/84/21 102/102/21 96/96/21 
f 81/81/46 83/83/48 101/101/51 99/99/52 
f 79/79/37 89/89/37 107/107/53 97/97/53 
f 87/87/14 79/79/14 97/97/14 105/105/14 
f 83/83/41 82/82/38 100/100/54 101/101/55 
f 94/94/45 90/90/43 108/108/56 112/112/57 
f 80/80/37 81/81/46 99/99/52 98/98/53 
f 93/93/50 94/94/45 112/112/57 111/111/58 
f 82/82/38 77/77/14 95/95/14 100/100/54 
f 92/92/42 93/93/42 111/111/59 110/110/59 
f 86/86/44 87/87/44 105/105/60 104/104/60 
f 91/91/39 92/92/47 110/110/61 109/109/62 
f 84/84/49 85/85/49 103/103/63 102/102/63 
f 89/89/40 91/91/39 109/109/62 107/107/64 
f 85/85/37 86/86/37 104/104/53 103/103/53 
f 77/77/37 78/78/37 96/96/53 95/95/53 
f 90/90/43 88/88/21 106/106/21 108/108/56 
f 112/112/57 108/108/56 126/126/65 130/130/66 
f 98/98/53 99/99/52 117/117/67 116/116/68 
f 111/111/58 112/112/57 130/130/66 129/129/69 
f 100/100/54 95/95/14 113/113/14 118/118/70 
f 110/110/59 111/111/59 129/129/71 128/128/72 
f 104/104/60 105/105/60 123/123/73 122/122/73 
f 109/109/62 110/110/61 128/128/74 127/127/75 
f 102/102/63 103/103/63 121/121/76 120/120/76 
f 107/107/64 109/109/62 127/127/75 125/125/77 
f 103/103/53 104/104/53 122/122/78 121/121/78 
f 95/95/53 96/96/53 114/114/78 113/113/78 
f 108/108/56 106/106/21 124/124/21 126/126/65 
f 96/96/21 102/102/21 120/120/21 114/114/21 
f 99/99/52 101/101/51 119/119/79 117/117/67 
f 97/97/53 107/107/53 125/125/78 115/115/78 
f 105/105/14 97/97/14 115/115/14 123/123/14 
f 101/101/55 100/100/54 118/118/70 119/119/80 
f 128/128/72 129/129/71 140/140/81 166/166/82 
f 122/122/73 123/123/73 136/136/83 135/135/84 
f 127/127/75 128/128/74 166/166/85 139/139/86 
f 120/120/76 121/121/76 134/134/87 133/133/88 
f 125/125/77 127/127/75 139/139/86 138/138/89 
f 121/121/78 122/122/78 135/135/90 134/134/90 
f 113/113/78 114/114/78 146/146/90 141/141/90 
f 126/126/65 124/124/21 137/137/21 164/164/91 
f 114/114/21 120/120/21 133/133/21 146/146/21 
f 117/117/67 119/119/79 149/149/92 132/132/93 
f 115/115/78 125/125/78 138/138/90 145/145/90 
f 123/123/14 115/115/14 145/145/14 136/136/14 
f 119/119/80 118/118/70 148/148/94 149/149/95 
f 130/130/66 126/126/65 164/164/91 165/165/96 
f 116/116/68 117/117/67 132/132/93 131/131/97 
f 129/129/69 130/130/66 165/165/96 140/140/98 
f 118/118/70 113/113/14 141/141/14 148/148/94 
f 143/143/99 142/142/99 141/141/90 146/146/90 
f 150/150/100 132/132/93 149/149/92 152/152/101 
f 152/152/102 149/149/95 148/148/94 151/151/103 
f 150/150/100 147/147/99 131/131/97 132/132/93 
f 141/141/14 142/142/14 151/151/103 148/148/94 
f 136/136/83 156/156/104 155/155/104 135/135/84 
f 153/153/105 133/133/88 134/134/87 154/154/105 
f 154/154/99 134/134/90 135/135/90 155/155/99 
f 143/143/21 146/146/21 133/133/21 153/153/21 
f 145/145/14 144/144/14 156/156/14 136/136/14 
f 164/164/91 159/159/106 163/163/107 165/165/96 
f 165/165/96 163/163/107 162/162/108 140/140/98 
f 140/140/81 162/162/109 161/161/109 166/166/82 
f 166/166/85 161/161/110 160/160/111 139/139/86 
f 139/139/86 160/160/111 158/158/112 138/138/89 
f 159/159/106 164/164/91 137/137/21 157/157/21 
f 158/158/99 144/144/99 145/145/90 138/138/90 
o Plane:006
s 1
f 167/167/113 172/172/113 171/171/113 168/168/113 
f 173/173/114 170/170/114 169/169/114 174/174/114 
f 172/172/115 167/167/115 170/170/115 173/173/115 
f 175/175/113 180/180/113 179/179/113 176/176/113 
f 181/181/114 178/178/114 177/177/114 182/182/114 
f 180/180/115 175/175/115 178/178/115 181/181/115 
f 183/183/113 188/188/113 187/187/113 184/184/113 
f 189/189/114 186/186/114 185/185/114 190/190/114 
f 188/188/115 183/183/115 186/186/115 189/189/115 
f 191/191/113 196/196/113 195/195/113 192/192/113 
f 197/197/114 194/194/114 193/193/114 198/198/114 
f 196/196/115 191/191/115 194/194/115 197/197/115 
f 199/199/113 204/204/113 203/203/113 200/200/113 
f 205/205/114 202/202/114 201/201/114 206/206/114 
f 204/204/115 199/199/115 202/202/115 205/205/115 
#end 132 faces

#ZOMPROPERTIES_04{
#ZOMPROPERTIES_04 table {Mesh table {SymPlane table {Point vector3d 0 0 0 Normal vector3d 1 0 0 Threshold double 0.01 
#ZOMPROPERTIES_04 Enabled bool false EdgeID int -1 SymEdgeID int -1 UPos double 0.5 LocalMode bool false } RootGroup C
#ZOMPROPERTIES_04 SubMeshGroup {Children table {Tile_0_0 CSubMeshGroup {Children table {} BBoxUV box3d 0 0 0 0 0 0 BBo
#ZOMPROPERTIES_04 x3D box3d 0 0 0 0 0 0 Area3D double 0 AreaUV double 0.926629 IsRoot bool false Properties table {Sel
#ZOMPROPERTIES_04 ected bool false Box box3d 0 1 0 1 0 1 U int 0 V int 0 NU int 0 NV int 0 Tiling vector3d 1 1 1 TileR
#ZOMPROPERTIES_04 atioMode string "1:1" Overflow string "Off" Pack table {BoxFrameEdit bool false Behavior string "Fre
#ZOMPROPERTIES_04 e" } } IsTile bool true PolyIDs ints { 6 8 7 3 5 4 9 11 10 12 14 13 117 119 118 120 122 121 126 128 
#ZOMPROPERTIES_04 127 123 125 124 0 2 1 129 131 130 15 19 33 35 17 16 18 43 55 50 79 92 97 103 101 102 104 99 69 76 78
#ZOMPROPERTIES_04  91 108 100 106 107 105 109 116 114 113 85 83 98 111 112 110 115 90 96 66 77 65 38 30 25 40 47 37 27
#ZOMPROPERTIES_04  28 44 34 62 74 87 72 60 80 51 52 48 42 31 24 29 20 22 21 23 46 61 63 75 88 71 84 81 94 93 73 59 36 
#ZOMPROPERTIES_04 39 49 41 58 70 68 56 26 54 86 64 32 89 57 53 82 95 67 45 } } } BBoxUV box3d 0 0 0 0 0 0 BBox3D box3d
#ZOMPROPERTIES_04  0 0 0 0 0 0 Area3D double 0 AreaUV double 0 IsRoot bool true Properties table {Selected bool false 
#ZOMPROPERTIES_04 Box box3d 0 1 0 1 0 1 U int 0 V int 0 NU int 1 NV int 1 Tiling vector3d 1 1 1 TileRatioMode string "
#ZOMPROPERTIES_04 1:1" Overflow string "Off" Pack table {Rotate table {Mode int 0 Min double 0 Max double 90 Step doub
#ZOMPROPERTIES_04 le 0 } PaddingSize double 0.0078125 MarginSize double 0.00390625 Resolution int 256 MapResolution in
#ZOMPROPERTIES_04 t 2048 Scaling table {TexelDensity double 1024 Mode int 2 } LayoutScalingMode int 2 MaxMutations int
#ZOMPROPERTIES_04  1 } } IsTile bool false PolyIDs ints { } } Maps table {Density table {PrimType string "Polygon" Siz
#ZOMPROPERTIES_04 e int 1 DefaultValue double 1 ScaleType string "Log" MergeMode string "Average" MinValue double 0.1 
#ZOMPROPERTIES_04 MaxValue double 4 Data doubles { r 132 1 } } Pin table {PrimType string "Vertex" Size int 1 DefaultV
#ZOMPROPERTIES_04 alue double 0 ScaleType string "Normalized" MergeMode string "Max" MinValue double 0 MaxValue double
#ZOMPROPERTIES_04  1 Data doubles { r 206 0 } } Protect table {PrimType string "Vertex" Size int 1 DefaultValue double
#ZOMPROPERTIES_04  0 ScaleType string "Normalized" MergeMode string "Average" MinValue double -1 MaxValue double 1 Dat
#ZOMPROPERTIES_04 a doubles { r 206 0 } } } } }
#ZOMPROPERTIES_04}


#ZOMSCENE_01{
#ZOMSCENE_01 CScene {Settings table {AxisSystem table {UpVector string "y" } Unit string "cm" TexelDensityDisplay
#ZOMSCENE_01 Unit string "tx/cm" } }
#ZOMSCENE_01}

#begin 0 fatal error vertex (that RizomUV cannot handle)
#end 0 fatal error vertex (that RizomUV cannot handle)

#begin 0 error vertex
#end 0 error vertex
