#File written by RizomUV 2022.1.57.gfabcfb8. Compilation :Sep 28 2022,23:52:22
mtllib Piso esquina.mtl
#begin vertices
v 0.064094 -1.47892 3.713994
v 2.064094 -1.47892 3.713994
v 0.064094 -1.47892 1.713994
v 2.064094 -1.47892 1.713994
v 0.058666 -1.47892 3.741281
v 2.064094 -1.47892 4.569613
v 0.043209 -1.47892 3.764414
v 2.064094 -1.47892 5.785096
v 0.020075 -1.47892 3.779871
v 0.992787 -1.47892 5.785299
v -0.007212 -1.47892 3.785299
v -0.007213 -1.47892 5.785299
v -2.007213 -1.47892 5.785299
v -2.007213 -1.47892 3.785299
#end vertices

#begin 14 textures vertices 
vt 0.5084454 0.5086886 0
vt 0.9956231 0.5089161 0
vt 0.5082179 0.9958663 0
vt 0.9953956 0.9960938 0
vt 0.5071263 0.5020412 0
vt 0.9957204 0.3004968 0
vt 0.5033638 0.4964045 0
vt 0.9958586 0.004418741 0
vt 0.4977304 0.4926367 0
vt 0.7349002 0.004247449 0
vt 0.4910842 0.4913114 0
vt 0.4913114 0.004133716 0
vt 0.004133716 0.00390625 0
vt 0.00390625 0.4910839 0
#end 14 textures vertices 

#begin 1 normals 
vn -0 1 -0
#end 1 normals 

#begin 6 faces
o Plane:011
s 0
f 1/1/1 2/2/1 4/4/1 3/3/1 
f 1/1/1 5/5/1 6/6/1 2/2/1 
f 5/5/1 7/7/1 8/8/1 6/6/1 
f 7/7/1 9/9/1 10/10/1 8/8/1 
f 9/9/1 11/11/1 12/12/1 10/10/1 
f 13/13/1 12/12/1 11/11/1 14/14/1 
#end 6 faces

#ZOMPROPERTIES_04{
#ZOMPROPERTIES_04 table {Mesh table {SymPlane table {Point vector3d 0 0 0 Normal vector3d 1 0 0 Threshold double 0.01 
#ZOMPROPERTIES_04 Enabled bool false EdgeID int -1 SymEdgeID int -1 UPos double 0.5 LocalMode bool false } RootGroup C
#ZOMPROPERTIES_04 SubMeshGroup {Children table {Tile_0_0 CSubMeshGroup {Children table {} BBoxUV box3d 0 0 0 0 0 0 BBo
#ZOMPROPERTIES_04 x3D box3d 0 0 0 0 0 0 Area3D double 0 AreaUV double 0.729015 IsRoot bool false Properties table {Sel
#ZOMPROPERTIES_04 ected bool false Box box3d 0 1 0 1 0 1 U int 0 V int 0 NU int 0 NV int 0 Tiling vector3d 1 1 1 TileR
#ZOMPROPERTIES_04 atioMode string "1:1" Overflow string "Off" Pack table {BoxFrameEdit bool false Behavior string "Fre
#ZOMPROPERTIES_04 e" } } IsTile bool true PolyIDs ints { 0 1 2 3 4 5 } } } BBoxUV box3d 0 0 0 0 0 0 BBox3D box3d 0 0 0
#ZOMPROPERTIES_04  0 0 0 Area3D double 0 AreaUV double 0 IsRoot bool true Properties table {Selected bool false Box bo
#ZOMPROPERTIES_04 x3d 0 1 0 1 0 1 U int 0 V int 0 NU int 1 NV int 1 Tiling vector3d 1 1 1 TileRatioMode string "1:1" O
#ZOMPROPERTIES_04 verflow string "Off" Pack table {Rotate table {Mode int 0 Min double 0 Max double 90 Step double 0 }
#ZOMPROPERTIES_04  PaddingSize double 0.0078125 MarginSize double 0.00390625 Resolution int 256 MapResolution int 2048
#ZOMPROPERTIES_04  Scaling table {TexelDensity double 1024 Mode int 2 } LayoutScalingMode int 2 MaxMutations int 1 } }
#ZOMPROPERTIES_04  IsTile bool false PolyIDs ints { } } Maps table {Density table {PrimType string "Polygon" Size int 
#ZOMPROPERTIES_04 1 DefaultValue double 1 ScaleType string "Log" MergeMode string "Average" MinValue double 0.1 MaxVal
#ZOMPROPERTIES_04 ue double 4 Data doubles { r 6 1 } } Pin table {PrimType string "Vertex" Size int 1 DefaultValue dou
#ZOMPROPERTIES_04 ble 0 ScaleType string "Normalized" MergeMode string "Max" MinValue double 0 MaxValue double 1 Data 
#ZOMPROPERTIES_04 doubles { r 14 0 } } Protect table {PrimType string "Vertex" Size int 1 DefaultValue double 0 ScaleT
#ZOMPROPERTIES_04 ype string "Normalized" MergeMode string "Average" MinValue double -1 MaxValue double 1 Data doubles
#ZOMPROPERTIES_04  { r 14 0 } } } } }
#ZOMPROPERTIES_04}


#ZOMSCENE_01{
#ZOMSCENE_01 CScene {Settings table {AxisSystem table {UpVector string "y" } Unit string "cm" TexelDensityDisplay
#ZOMSCENE_01 Unit string "tx/cm" } }
#ZOMSCENE_01}

#begin 0 fatal error vertex (that RizomUV cannot handle)
#end 0 fatal error vertex (that RizomUV cannot handle)

#begin 0 error vertex
#end 0 error vertex
