#File written by RizomUV 2022.1.57.gfabcfb8. Compilation :Sep 28 2022,23:52:22
mtllib Piso puerta.mtl
#begin vertices
v 2.064094 -1.478923 -4.180599
v 0.064094 -1.478923 -4.180599
v 2.064094 -1.478923 -6.180599
v 0.064094 -1.478923 -6.180599
v 2.064094 -1.478923 -5.74048
v 2.064094 -1.478923 -4.618941
v 0.064094 -1.478923 -4.618941
v 0.064094 -1.478923 -5.74048
v -0.140692 -1.478923 -4.618941
v -0.140692 -1.478923 -5.74048
#end vertices

#begin 10 textures vertices 
vt 0.004079959 0.9039876 0
vt 0.9039876 0.9038139 0
vt 0.00390625 0.004079959 0
vt 0.9038139 0.00390625 0
vt 0.003944476 0.2021131 0
vt 0.004041787 0.706754 0
vt 0.9039495 0.7065803 0
vt 0.9038521 0.2019394 0
vt 0.9960938 0.7065625 0
vt 0.9959963 0.2019216 0
#end 10 textures vertices 

#begin 1 normals 
vn -0 1 -0
#end 1 normals 

#begin 4 faces
o Plane:025
s 0
f 5/5/1 8/8/1 7/7/1 6/6/1 
f 1/1/1 6/6/1 7/7/1 2/2/1 
f 5/5/1 3/3/1 4/4/1 8/8/1 
f 9/9/1 7/7/1 8/8/1 10/10/1 
#end 4 faces

#ZOMPROPERTIES_04{
#ZOMPROPERTIES_04 table {Mesh table {SymPlane table {Point vector3d 0 0 0 Normal vector3d 1 0 0 Threshold double 0.01 
#ZOMPROPERTIES_04 Enabled bool false EdgeID int -1 SymEdgeID int -1 UPos double 0.5 LocalMode bool false } RootGroup C
#ZOMPROPERTIES_04 SubMeshGroup {Children table {Tile_0_0 CSubMeshGroup {Children table {} BBoxUV box3d 0 0 0 0 0 0 BBo
#ZOMPROPERTIES_04 x3D box3d 0 0 0 0 0 0 Area3D double 0 AreaUV double 0.856334 IsRoot bool false Properties table {Sel
#ZOMPROPERTIES_04 ected bool false Box box3d 0 1 0 1 0 1 U int 0 V int 0 NU int 0 NV int 0 Tiling vector3d 1 1 1 TileR
#ZOMPROPERTIES_04 atioMode string "1:1" Overflow string "Off" Pack table {BoxFrameEdit bool false Behavior string "Fre
#ZOMPROPERTIES_04 e" } } IsTile bool true PolyIDs ints { 0 1 3 2 } } } BBoxUV box3d 0 0 0 0 0 0 BBox3D box3d 0 0 0 0 0
#ZOMPROPERTIES_04  0 Area3D double 0 AreaUV double 0 IsRoot bool true Properties table {Selected bool false Box box3d 
#ZOMPROPERTIES_04 0 1 0 1 0 1 U int 0 V int 0 NU int 1 NV int 1 Tiling vector3d 1 1 1 TileRatioMode string "1:1" Overf
#ZOMPROPERTIES_04 low string "Off" Pack table {Rotate table {Mode int 0 Min double 0 Max double 90 Step double 0 } Pad
#ZOMPROPERTIES_04 dingSize double 0.0078125 MarginSize double 0.00390625 Resolution int 256 MapResolution int 2048 Sca
#ZOMPROPERTIES_04 ling table {TexelDensity double 1024 Mode int 2 } LayoutScalingMode int 2 MaxMutations int 1 BoxFram
#ZOMPROPERTIES_04 eEdit bool false Behavior string "Free" } } IsTile bool false PolyIDs ints { } } Maps table {Density
#ZOMPROPERTIES_04  table {PrimType string "Polygon" Size int 1 DefaultValue double 1 ScaleType string "Log" MergeMode 
#ZOMPROPERTIES_04 string "Average" MinValue double 0.1 MaxValue double 4 Data doubles { r 4 1 } } Pin table {PrimType 
#ZOMPROPERTIES_04 string "Vertex" Size int 1 DefaultValue double 0 ScaleType string "Normalized" MergeMode string "Max
#ZOMPROPERTIES_04 " MinValue double 0 MaxValue double 1 Data doubles { r 10 0 } } Protect table {PrimType string "Vert
#ZOMPROPERTIES_04 ex" Size int 1 DefaultValue double 0 ScaleType string "Normalized" MergeMode string "Average" MinVal
#ZOMPROPERTIES_04 ue double -1 MaxValue double 1 Data doubles { r 10 0 } } } } }
#ZOMPROPERTIES_04}


#ZOMSCENE_01{
#ZOMSCENE_01 CScene {Settings table {AxisSystem table {UpVector string "y" } Unit string "cm" TexelDensityDisplay
#ZOMSCENE_01 Unit string "tx/cm" } }
#ZOMSCENE_01}

#begin 0 fatal error vertex (that RizomUV cannot handle)
#end 0 fatal error vertex (that RizomUV cannot handle)

#begin 0 error vertex
#end 0 error vertex
