#File written by RizomUV 2022.1.57.gfabcfb8. Compilation :Sep 28 2022,23:52:22
mtllib Puerta.mtl
#begin vertices
v 0 -1.304343 -4.180598
v 0 -0.568958 -4.180598
v 0 -0.447562 -4.180598
v 0.064094 -1.478923 -4.180598
v 0.064094 -1.343679 -4.180598
v 0.024758 -1.304343 -4.180598
v 0.052573 -1.315864 -4.180598
v 0.040473 -0.568958 -4.180598
v 0.043275 -0.566155 -4.180598
v 0.043275 -0.450364 -4.180598
v 0.040473 -0.447562 -4.180598
v 0.063981 1.478923 -4.180598
v -0 1.463988 -4.180598
v 0.014935 1.478923 -4.180598
v 0.00314 1.465262 -4.180598
v 0.005827 1.467099 -4.180598
v 0.008486 1.474906 -4.180598
v 0.011458 1.477198 -4.180598
v 0.063981 1.478923 -4.611849
v 0.014935 1.478923 -4.611849
v 0.011458 1.477198 -4.611849
v 0.008486 1.474906 -4.611849
v 0.005827 1.467099 -4.611849
v 0.00314 1.465262 -4.611849
v -0 1.463988 -4.611849
v -0 1.017486 -4.180598
v 0.064094 -1.478923 -4.609287
v 0.063356 -1.478923 -4.611099
v 0 -1.304343 -4.609287
v -0.000883 -1.304854 -4.611099
v 0 -0.568958 -4.609287
v -0.000875 -0.568564 -4.611099
v 0 -0.447562 -4.609287
v -0.000809 -0.447925 -4.611099
v 0.064094 -1.343679 -4.609287
v 0.063356 -1.344003 -4.611099
v 0.052573 -1.315864 -4.609287
v 0.051874 -1.316287 -4.611099
v 0.024758 -1.304343 -4.609287
v 0.024301 -1.304867 -4.611099
v 0.040473 -0.447562 -4.609287
v 0.039656 -0.447929 -4.611099
v 0.043275 -0.450364 -4.609287
v 0.042449 -0.450719 -4.611099
v 0.040473 -0.568958 -4.609287
v 0.039642 -0.568585 -4.611099
v 0.043275 -0.566155 -4.609287
v 0.042444 -0.565799 -4.611099
v -0 1.020048 -4.609287
v -0.000803 1.018236 -4.611099
v 0 -1.304343 -6.180598
v 0 -0.568958 -6.180598
v 0 -0.447562 -6.180598
v 0.064094 -1.478923 -6.180598
v 0.064094 -1.343679 -6.180598
v 0.024758 -1.304343 -6.180598
v 0.052573 -1.315864 -6.180598
v 0.040473 -0.568958 -6.180598
v 0.043275 -0.566155 -6.180598
v 0.043275 -0.450364 -6.180598
v 0.040473 -0.447562 -6.180598
v 0.063981 1.478923 -6.180598
v -0 1.463988 -6.180598
v 0.014935 1.478923 -6.180598
v 0.00314 1.465262 -6.180598
v 0.005827 1.467099 -6.180598
v 0.008486 1.474906 -6.180598
v 0.011458 1.477198 -6.180598
v 0.063981 1.478923 -5.749347
v 0.014935 1.478923 -5.749347
v 0.011458 1.477198 -5.749347
v 0.008486 1.474906 -5.749347
v 0.005827 1.467099 -5.749347
v 0.00314 1.465262 -5.749347
v -0 1.463988 -5.749347
v -0 1.017486 -6.180598
v 0.064094 -1.478923 -5.751909
v 0.063356 -1.478923 -5.750098
v 0 -1.304343 -5.751909
v -0.000883 -1.304854 -5.750098
v 0 -0.568958 -5.751909
v -0.000875 -0.568564 -5.750098
v 0 -0.447562 -5.751909
v -0.000809 -0.447925 -5.750098
v 0.064094 -1.343679 -5.751909
v 0.063356 -1.344003 -5.750098
v 0.052573 -1.315864 -5.751909
v 0.051874 -1.316287 -5.750098
v 0.024758 -1.304343 -5.751909
v 0.024301 -1.304867 -5.750098
v 0.040473 -0.447562 -5.751909
v 0.039656 -0.447929 -5.750098
v 0.043275 -0.450364 -5.751909
v 0.042449 -0.450719 -5.750098
v 0.040473 -0.568958 -5.751909
v 0.039642 -0.568585 -5.750098
v 0.043275 -0.566155 -5.751909
v 0.042444 -0.565799 -5.750098
v -0 1.020048 -5.751909
v -0.000803 1.018236 -5.750098
v 0.028658 -1.40191 -4.187603
v 0.021658 -1.40191 -4.180603
v 0.021658 -1.40191 -4.610088
v 0.028658 -1.40191 -4.603088
v 0.021658 -0.555255 -4.180603
v 0.028658 -0.555255 -4.187603
v 0.028658 -0.555255 -4.603088
v 0.021658 -0.555255 -4.610088
v -0.00465 -1.40191 -4.610088
v -0.00465 -0.555255 -4.610088
v 0.028658 -1.40191 -6.173595
v 0.021658 -1.40191 -6.180595
v 0.021658 -1.40191 -5.751109
v 0.028658 -1.40191 -5.758109
v 0.021658 -0.555255 -6.180595
v 0.028658 -0.555255 -6.173595
v 0.028658 -0.555255 -5.758109
v 0.021658 -0.555255 -5.751109
v -0.00465 -1.40191 -5.751109
v -0.00465 -0.555255 -5.751109
v -0.037292 -1.478923 -4.553314
v -0.037292 0.979973 -4.553314
v -0.037292 1.041086 -4.629752
v -0.037292 -1.478923 -5.807883
v -0.037292 0.979973 -5.807883
v -0.037292 1.041086 -5.731445
v 0.08084 -1.478923 -4.629229
v 0.08684 -1.478923 -4.623229
v 0.08084 0.974308 -4.629229
v 0.08084 0.980308 -4.635228
v 0.08684 0.986308 -4.623229
v 0.08684 -1.478923 -4.559314
v 0.08084 -1.478923 -4.553314
v 0.08684 0.98 -4.559314
v 0.08084 0.979973 -4.553314
v 0.08684 1.035086 -4.6297
v 0.08084 1.041086 -4.629752
v 0.08084 1.03482 -4.553724
v 0.08684 1.03484 -4.559724
v 0.08084 1.040841 -4.559769
v 0.08684 -1.478923 -5.737968
v 0.08084 -1.478923 -5.731968
v 0.08084 0.980308 -5.725968
v 0.08084 0.974308 -5.731968
v 0.08684 0.986308 -5.737968
v 0.08084 -1.478923 -5.807883
v 0.08684 -1.478923 -5.801883
v 0.08084 0.979973 -5.807883
v 0.08684 0.98 -5.801883
v 0.08684 1.035086 -5.731496
v 0.08084 1.041086 -5.731445
v 0.08084 1.03482 -5.807473
v 0.08084 1.040841 -5.801428
v 0.08684 1.03484 -5.801473
v -0.161423 -1.478923 -4.623229
v -0.155423 -1.478923 -4.629229
v -0.155424 0.980308 -4.635228
v -0.155424 0.974308 -4.629229
v -0.161424 0.986308 -4.623229
v -0.155423 -1.478923 -4.553314
v -0.161423 -1.478923 -4.559314
v -0.155424 0.979973 -4.553314
v -0.161424 0.98 -4.559314
v -0.155424 1.041086 -4.629752
v -0.161424 1.035086 -4.6297
v -0.155424 1.03482 -4.553724
v -0.155424 1.040841 -4.559769
v -0.161424 1.03484 -4.559724
v -0.155423 -1.478923 -5.731968
v -0.161423 -1.478923 -5.737968
v -0.155424 0.980308 -5.725968
v -0.161424 0.986308 -5.737968
v -0.155424 0.974308 -5.731968
v -0.161423 -1.478923 -5.801883
v -0.155423 -1.478923 -5.807883
v -0.161424 0.98 -5.801883
v -0.155424 0.979973 -5.807883
v -0.155424 1.041086 -5.731445
v -0.161424 1.035086 -5.731496
v -0.155424 1.03482 -5.807473
v -0.161424 1.03484 -5.801473
v -0.155424 1.040841 -5.801428
v -0.037292 1.03482 -4.553724
v -0.037292 1.040841 -4.559769
v -0.037292 1.040841 -5.801428
v -0.037292 1.03482 -5.807473
#end vertices

#begin 218 textures vertices 
vt 0.01940678 0.1006596 0
vt 0.01940678 0.3182467 0
vt 0.01940678 0.377219 0
vt 0.01940678 0.003585232 0
vt 0.01940678 0.07644171 0
vt 0.01940678 0.09367289 0
vt 0.01940678 0.08509814 0
vt 0.01940678 0.3298054 0
vt 0.01940678 0.3309495 0
vt 0.01940678 0.3644188 0
vt 0.01940678 0.3655637 0
vt 0.01940678 0.9952516 0
vt 0.01940678 0.9744213 0
vt 0.01940678 0.9815427 0
vt 0.01940678 0.975492 0
vt 0.01940678 0.9765206 0
vt 0.01940678 0.9791279 0
vt 0.01940678 0.9803149 0
vt 0.1428832 0.9952516 0
vt 0.1428347 0.9782366 0
vt 0.1428308 0.9770038 0
vt 0.1428269 0.9758116 0
vt 0.1428181 0.9731915 0
vt 0.1428147 0.9721574 0
vt 0.142811 0.9710807 0
vt 0.01940678 0.8352551 0
vt 0.1416102 0.003585232 0
vt 0.1423066 0.003585232 0
vt 0.1416102 0.05896869 0
vt 0.1423066 0.05867099 0
vt 0.1416102 0.2909903 0
vt 0.1423066 0.2909031 0
vt 0.1416102 0.3600666 0
vt 0.1423066 0.3599376 0
vt 0.1416102 0.03315109 0
vt 0.1423066 0.03286388 0
vt 0.1416102 0.04232385 0
vt 0.1423066 0.04213387 0
vt 0.1416102 0.05147091 0
vt 0.1423066 0.05128881 0
vt 0.1416102 0.3464852 0
vt 0.1423066 0.3465564 0
vt 0.1416102 0.3451532 0
vt 0.1423066 0.3449649 0
vt 0.1416102 0.3048131 0
vt 0.1423066 0.3045597 0
vt 0.1416102 0.3061502 0
vt 0.1423066 0.3061404 0
vt 0.1416102 0.8293786 0
vt 0.1423066 0.8287528 0
vt 0.5989657 0.1020576 0
vt 0.5989657 0.3194541 0
vt 0.5989657 0.378366 0
vt 0.5989657 0.004680478 0
vt 0.5989657 0.077896 0
vt 0.5989657 0.09508241 0
vt 0.5989657 0.08652173 0
vt 0.5989657 0.3310016 0
vt 0.5989657 0.3321445 0
vt 0.5989657 0.36558 0
vt 0.5989657 0.3667237 0
vt 0.5989657 0.9952516 0
vt 0.5989657 0.9755438 0
vt 0.5989657 0.9826612 0
vt 0.5989657 0.9766138 0
vt 0.5989657 0.9776418 0
vt 0.5989657 0.9802477 0
vt 0.5989657 0.981434 0
vt 0.4611642 0.9952516 0
vt 0.4612437 0.978735 0
vt 0.4612499 0.9775021 0
vt 0.4612558 0.9763098 0
vt 0.4612688 0.9736895 0
vt 0.4612739 0.9726553 0
vt 0.4612792 0.9715785 0
vt 0.5989657 0.8362144 0
vt 0.4575963 0.004680478 0
vt 0.4569661 0.004680478 0
vt 0.4575963 0.05997564 0
vt 0.4569661 0.05967629 0
vt 0.4575963 0.2918204 0
vt 0.4569661 0.2917314 0
vt 0.4575963 0.3608961 0
vt 0.4569661 0.3607657 0
vt 0.4575963 0.03416755 0
vt 0.4569661 0.03387565 0
vt 0.4575963 0.04334649 0
vt 0.4569661 0.04315412 0
vt 0.4575963 0.05248507 0
vt 0.4569661 0.05230135 0
vt 0.4575963 0.347315 0
vt 0.4569661 0.3473847 0
vt 0.4575963 0.3459829 0
vt 0.4569661 0.3457929 0
vt 0.4575963 0.3056437 0
vt 0.4569661 0.3053887 0
vt 0.4575963 0.3069807 0
vt 0.4569661 0.3069693 0
vt 0.4575963 0.830241 0
vt 0.4569661 0.8296128 0
vt 0.304037 0.0508303 0
vt 0.3007276 0.0508303 0
vt 0.4462429 0.0508303 0
vt 0.4429335 0.0508303 0
vt 0.3007276 0.3338668 0
vt 0.304037 0.3338668 0
vt 0.4429335 0.3338668 0
vt 0.4462429 0.3338668 0
vt 0.4550377 0.0508303 0
vt 0.4550377 0.3338668 0
vt 0.2960182 0.0508303 0
vt 0.2993276 0.0508303 0
vt 0.153812 0.0508303 0
vt 0.1571214 0.0508303 0
vt 0.2993276 0.3338668 0
vt 0.2960182 0.3338668 0
vt 0.1571214 0.3338668 0
vt 0.153812 0.3338668 0
vt 0.1450172 0.0508303 0
vt 0.1450172 0.3338668 0
vt 0.8195775 0.00390625 0
vt 0.8195491 0.6693751 0
vt 0.1616071 0.3681066 0
vt 0.6320491 0.004459911 0
vt 0.8076051 0.6681979 0
vt 0.1616071 0.7218878 0
vt 0.873433 0.003964132 0
vt 0.8711373 0.003961816 0
vt 0.8734124 0.6679926 0
vt 0.8736802 0.6702817 0
vt 0.7533058 0.9732629 0
vt 0.8538421 0.003943251 0
vt 0.8515459 0.003940775 0
vt 0.8538167 0.669399 0
vt 0.8515203 0.6693887 0
vt 0.2022662 0.3681066 0
vt 0.1995414 0.3681066 0
vt 0.1995414 0.3428945 0
vt 0.2022662 0.3456343 0
vt 0.1995414 0.3456343 0
vt 0.7521853 0.004485239 0
vt 0.7498906 0.004510543 0
vt 0.7534643 0.6749885 0
vt 0.7534302 0.670293 0
vt 0.7557296 0.6729036 0
vt 0.7717842 0.00426372 0
vt 0.7694835 0.004292028 0
vt 0.7754794 0.669452 0
vt 0.7731641 0.6695717 0
vt 0.2022662 0.7218878 0
vt 0.1995414 0.7218878 0
vt 0.1995414 0.7470999 0
vt 0.1995414 0.7443602 0
vt 0.2022662 0.7443602 0
vt 0.9396428 0.004021105 0
vt 0.9373472 0.004023343 0
vt 0.9371233 0.6702076 0
vt 0.9373777 0.6679318 0
vt 0.9396743 0.6710619 0
vt 0.9592345 0.00400105 0
vt 0.9569383 0.004003387 0
vt 0.9592691 0.6693194 0
vt 0.9569727 0.6693293 0
vt 0.2069719 0.3675757 0
vt 0.2042389 0.3675757 0
vt 0.2069719 0.3422879 0
vt 0.2069719 0.3450359 0
vt 0.2042389 0.3450359 0
vt 0.6860202 0.004550757 0
vt 0.6837255 0.004547593 0
vt 0.6887911 0.6754929 0
vt 0.6865522 0.6734203 0
vt 0.6888224 0.6707947 0
vt 0.6664271 0.004519763 0
vt 0.6641264 0.004513432 0
vt 0.6690803 0.6702583 0
vt 0.6667633 0.6701618 0
vt 0.2069719 0.7224187 0
vt 0.2042389 0.7224187 0
vt 0.2069719 0.7477066 0
vt 0.2042389 0.7449586 0
vt 0.2069719 0.7449586 0
vt 0.24502 0.3422879 0
vt 0.24502 0.3450359 0
vt 0.24502 0.7449586 0
vt 0.6331219 0.68331 0
vt 0.8195559 0.6842207 0
vt 0.1616071 0.3456343 0
vt 0.9912391 0.6693089 0
vt 0.1616071 0.7470999 0
vt 0.9912038 0.003969169 0
vt 0.1616071 0.7443602 0
vt 0.6346543 0.6691838 0
vt 0.8038242 0.00390625 0
vt 0.24502 0.7224187 0
vt 0.24502 0.3675757 0
vt 0.6633972 0.6824872 0
vt 0.6722005 0.9704984 0
vt 0.6652263 0.6813996 0
vt 0.24502 0.7477066 0
vt 0.9569387 0.6841617 0
vt 0.9592405 0.6841518 0
vt 0.6739528 0.678455 0
vt 0.991233 0.6841586 0
vt 0.7788376 0.6819134 0
vt 0.8727999 0.6843559 0
vt 0.8094988 0.6818999 0
vt 0.7683496 0.6775791 0
vt 0.1616071 0.3428945 0
vt 0.8538452 0.6842331 0
vt 0.7769734 0.6807367 0
vt 0.851543 0.6842233 0
vt 0.7510508 0.9699921 0
vt 0.6877151 0.9687422 0
vt 0.8711154 0.6711349 0
vt 0.7665504 0.9718597 0
vt 0.9379859 0.6842818 0
vt 0.6854232 0.9719807 0
#end 218 textures vertices 

#begin 78 normals 
vn 0.9143 -0.4051 -0
vn -0 -1 -0
vn 0.4445 -0.8958 -0
vn 0.6106 -0.7919 -0
vn 0.9466 -0.3224 -0
vn 0.5645 -0.8254 -0
vn 0.376 -0.9266 -0
vn 0.9137 -0 -0.4064
vn -0 0.9803 -0.1976
vn -0.0002 -0.9784 -0.2069
vn 0.9093 -0 -0.4161
vn 0.6399 -0.6417 -0.4228
vn 0.6419 0.6422 -0.419
vn 0.0002 0.9616 -0.2746
vn 0.9261 -0 -0.3772
vn 0.3597 0.8684 -0.3414
vn 0.844 0.3496 -0.4066
vn 0.8996 -0 -0.4367
vn 1 -0 -0
vn -0 1 -0
vn 0.9239 0.3827 -0
vn 0.3827 0.9239 -0
vn 0.7071 0.7071 -0
vn 0.9137 -0 0.4064
vn -0 0.9803 0.1976
vn -0.0002 -0.9784 0.2069
vn 0.9093 -0 0.4161
vn 0.6399 -0.6417 0.4228
vn 0.6419 0.6422 0.419
vn 0.0002 0.9616 0.2746
vn 0.9261 -0 0.3772
vn 0.3597 0.8684 0.3414
vn 0.8441 0.3496 0.4066
vn 0.8996 -0 0.4367
vn 0.7071 -0.7071 -0
vn 0.7071 -0 0.7071
vn 0.7071 -0 -0.7071
vn 1 -0 -0
vn -0 -0 -1
vn -0 -0 1
vn 0.9045 -0.3015 -0.3015
vn 0.5753 0.5795 0.5772
vn 0.9045 -0.3015 0.3015
vn 0.5753 0.5795 -0.5772
vn -0.9045 -0.3015 -0.3015
vn -0.5753 0.5795 0.5772
vn -0.9045 -0.3015 0.3015
vn -0.5753 0.5795 -0.5772
vn 0.7071 -0 0.7071
vn 0.7071 0.0053 0.7071
vn 0.7071 0.7071 0.0025
vn 0.7071 -0 -0.7071
vn 0.7071 -0.7071 -0
vn 0.7071 0.0053 -0.7071
vn 0.7071 0.7071 -0
vn 0.7071 0.7071 -0.0025
vn -0.7071 -0 0.7071
vn -0.7071 0.0053 0.7071
vn -0.7071 0.7071 0.0025
vn -0 0.7085 0.7057
vn -0 -0.7071 -0.7071
vn -0.7071 -0 -0.7071
vn -0.7071 -0.7071 -0
vn -0.7071 0.0053 -0.7071
vn -0.7071 0.7071 -0
vn -0.7071 0.7071 -0.0025
vn -0 0.7085 -0.7057
vn -0 -0.7071 0.7071
vn 1 -0 -0
vn -0 -0 -1
vn -0 -1 -0
vn -0 -0 1
vn -0 0.0075 1
vn -0 1 -0
vn -0 1 0.0035
vn -0 0.0075 -1
vn -0 1 -0.0035
vn -1 -0 -0
#end 78 normals 

#begin 135 faces
o Plane:022
s 0
f 50/50/1 100/100/1 99/99/1 49/49/1 
f 14/14/2 20/20/2 19/19/2 12/12/2 
f 20/20/3 14/14/3 18/18/3 21/21/3 
f 21/21/4 18/18/4 17/17/4 22/22/4 
f 22/22/5 17/17/5 16/16/5 23/23/5 
f 23/23/6 16/16/6 15/15/6 24/24/6 
f 71/71/4 21/21/4 22/22/4 72/72/4 
f 72/72/5 22/22/5 23/23/5 73/73/5 
f 73/73/6 23/23/6 24/24/6 74/74/6 
f 74/74/7 24/24/7 25/25/7 75/75/7 
f 20/20/2 70/70/2 69/69/2 19/19/2 
f 49/49/8 33/33/8 34/34/8 50/50/8 
f 33/33/9 41/41/9 42/42/9 34/34/9 
f 45/45/10 31/31/10 32/32/10 46/46/10 
f 43/43/11 47/47/11 48/48/11 44/44/11 
f 47/47/12 45/45/12 46/46/12 48/48/12 
f 41/41/13 43/43/13 44/44/13 42/42/13 
f 29/29/14 39/39/14 40/40/14 30/30/14 
f 35/35/15 27/27/15 28/28/15 36/36/15 
f 39/39/16 37/37/16 38/38/16 40/40/16 
f 37/37/17 35/35/17 36/36/17 38/38/17 
f 31/31/18 29/29/18 30/30/18 32/32/18 
f 24/24/7 15/15/7 13/13/7 25/25/7 
f 5/5/19 4/4/19 27/27/19 35/35/19 
f 2/2/19 1/1/19 29/29/19 31/31/19 
f 29/29/20 1/1/20 6/6/20 39/39/20 
f 2/2/2 31/31/2 45/45/2 8/8/2 
f 26/26/19 3/3/19 33/33/19 49/49/19 
f 33/33/20 3/3/20 11/11/20 41/41/20 
f 5/5/21 35/35/21 37/37/21 7/7/21 
f 7/7/22 37/37/22 39/39/22 6/6/22 
f 41/41/23 11/11/23 10/10/23 43/43/23 
f 9/9/19 47/47/19 43/43/19 10/10/19 
f 26/26/19 49/49/19 25/25/19 13/13/19 
f 64/64/2 62/62/2 69/69/2 70/70/2 
f 70/70/3 71/71/3 68/68/3 64/64/3 
f 71/71/4 72/72/4 67/67/4 68/68/4 
f 72/72/5 73/73/5 66/66/5 67/67/5 
f 73/73/6 74/74/6 65/65/6 66/66/6 
f 74/74/7 75/75/7 63/63/7 65/65/7 
f 99/99/24 100/100/24 84/84/24 83/83/24 
f 83/83/25 84/84/25 92/92/25 91/91/25 
f 95/95/26 96/96/26 82/82/26 81/81/26 
f 93/93/27 94/94/27 98/98/27 97/97/27 
f 97/97/28 98/98/28 96/96/28 95/95/28 
f 91/91/29 92/92/29 94/94/29 93/93/29 
f 79/79/30 80/80/30 90/90/30 89/89/30 
f 85/85/31 86/86/31 78/78/31 77/77/31 
f 89/89/32 90/90/32 88/88/32 87/87/32 
f 87/87/33 88/88/33 86/86/33 85/85/33 
f 81/81/34 82/82/34 80/80/34 79/79/34 
f 55/55/19 85/85/19 77/77/19 54/54/19 
f 52/52/19 81/81/19 79/79/19 51/51/19 
f 79/79/20 89/89/20 56/56/20 51/51/20 
f 52/52/2 58/58/2 95/95/2 81/81/2 
f 76/76/19 99/99/19 83/83/19 53/53/19 
f 83/83/20 91/91/20 61/61/20 53/53/20 
f 55/55/21 57/57/21 87/87/21 85/85/21 
f 57/57/22 56/56/22 89/89/22 87/87/22 
f 91/91/23 93/93/23 60/60/23 61/61/23 
f 59/59/19 60/60/19 93/93/19 97/97/19 
f 58/58/35 59/59/35 97/97/35 95/95/35 
f 25/25/19 49/49/19 99/99/19 75/75/19 
f 8/8/35 45/45/35 47/47/35 9/9/35 
f 63/63/19 75/75/19 99/99/19 76/76/19 
f 70/70/3 20/20/3 21/21/3 71/71/3 
o Plane:023
s 1
f 101/101/36 106/106/36 105/105/36 102/102/36 
f 107/107/37 104/104/37 103/103/37 108/108/37 
f 106/106/38 101/101/38 104/104/38 107/107/38 
f 108/108/39 103/103/39 109/109/39 110/110/39 
f 111/111/37 112/112/37 115/115/37 116/116/37 
f 117/117/36 118/118/36 113/113/36 114/114/36 
f 116/116/38 117/117/38 114/114/38 111/111/38 
f 118/118/40 120/120/40 119/119/40 113/113/40 
o Plane:024
s 0
f 129/129/41 130/130/41 131/215/41 
f 138/138/42 139/139/42 140/140/42 
f 143/143/43 144/144/43 145/145/43 
f 152/152/44 153/153/44 154/154/44 
f 157/157/45 158/158/45 159/159/45 
f 166/166/46 167/167/46 168/168/46 
f 171/171/47 172/172/47 173/173/47 
f 180/180/48 181/181/48 182/182/48 
f 132/132/49 134/134/49 135/135/49 133/133/49 
f 134/134/50 139/210/50 138/212/50 135/135/50 
f 139/139/51 136/136/51 137/137/51 140/140/51 
f 131/215/52 128/128/52 127/127/52 129/129/52 
f 130/213/53 143/143/53 145/145/53 131/131/53 
f 146/146/52 148/148/52 149/149/52 147/147/52 
f 148/148/54 152/205/54 154/211/54 149/149/54 
f 136/136/55 150/150/55 151/151/55 137/137/55 
f 153/153/56 151/151/56 150/150/56 154/154/56 
f 144/144/49 142/142/49 141/141/49 145/145/49 
f 160/160/57 162/162/57 163/163/57 161/161/57 
f 162/162/58 166/202/58 168/201/58 163/163/58 
f 167/167/59 164/164/59 165/165/59 168/168/59 
f 184/184/60 167/167/60 166/166/60 183/183/60 
f 129/129/61 158/158/61 157/157/61 130/130/61 
f 158/158/62 156/156/62 155/155/62 159/159/62 
f 159/218/63 172/172/63 171/171/63 157/214/63 
f 174/174/62 176/176/62 177/177/62 175/175/62 
f 176/176/64 181/199/64 180/197/64 177/177/64 
f 164/164/65 178/178/65 179/179/65 165/165/65 
f 181/181/66 179/179/66 178/178/66 182/182/66 
f 186/200/67 180/180/67 182/182/67 185/185/67 
f 143/143/68 171/171/68 173/173/68 144/144/68 
f 172/172/57 170/170/57 169/169/57 173/173/57 
f 140/140/60 184/188/60 183/209/60 138/138/60 
f 152/152/67 186/190/67 185/192/67 153/153/67 
f 128/128/69 131/215/69 134/134/69 132/132/69 
f 127/127/70 156/156/70 158/158/70 129/129/70 
f 139/210/69 134/134/69 131/215/69 136/206/69 
f 131/131/69 145/145/69 150/208/69 136/216/69 
f 171/171/71 143/143/71 130/213/71 157/214/71 
f 135/135/72 122/122/72 121/121/72 133/133/72 
f 183/187/73 122/122/73 135/135/73 138/212/73 
f 151/151/74 126/126/74 123/123/74 137/137/74 
f 123/123/75 184/188/75 140/140/75 137/137/75 
f 141/141/69 147/147/69 149/149/69 145/145/69 
f 144/144/72 173/173/72 169/169/72 142/142/72 
f 154/211/69 150/208/69 145/145/69 149/149/69 
f 146/146/70 124/194/70 125/125/70 148/148/70 
f 186/207/76 152/205/76 148/148/76 125/125/76 
f 126/126/77 151/151/77 153/153/77 185/192/77 
f 155/155/78 161/161/78 163/163/78 159/159/78 
f 168/201/78 165/217/78 159/159/78 163/163/78 
f 165/198/78 179/203/78 172/172/78 159/218/78 
f 122/189/72 162/162/72 160/160/72 121/191/72 
f 166/202/73 162/162/73 122/189/73 183/204/73 
f 164/164/75 167/167/75 184/184/75 123/196/75 
f 126/195/74 178/178/74 164/164/74 123/196/74 
f 170/170/78 172/172/78 176/176/78 174/174/78 
f 181/199/78 176/176/78 172/172/78 179/203/78 
f 124/124/70 175/175/70 177/177/70 125/193/70 
f 180/197/76 186/186/76 125/193/76 177/177/76 
f 178/178/77 126/195/77 185/185/77 182/182/77 
#end 135 faces

#ZOMPROPERTIES_04{
#ZOMPROPERTIES_04 table {Mesh table {SymPlane table {Point vector3d 0 0 0 Normal vector3d 1 0 0 Threshold double 0.01 
#ZOMPROPERTIES_04 Enabled bool false EdgeID int -1 SymEdgeID int -1 UPos double 0.5 LocalMode bool false } RootGroup C
#ZOMPROPERTIES_04 SubMeshGroup {Children table {Tile_0_0 CSubMeshGroup {Children table {} BBoxUV box3d 0 0 0 0 0 0 BBo
#ZOMPROPERTIES_04 x3D box3d 0 0 0 0 0 0 Area3D double 0 AreaUV double 0.694927 IsRoot bool false Properties table {Sel
#ZOMPROPERTIES_04 ected bool false Box box3d 0 1 0 1 0 1 U int 0 V int 0 NU int 0 NV int 0 Tiling vector3d 1 1 1 TileR
#ZOMPROPERTIES_04 atioMode string "1:1" Overflow string "Off" Pack table {BoxFrameEdit bool false Behavior string "Fre
#ZOMPROPERTIES_04 e" } } IsTile bool true PolyIDs ints { 75 106 116 84 89 115 122 107 77 90 79 94 128 129 134 103 81 1
#ZOMPROPERTIES_04 02 101 95 66 68 67 69 70 72 71 73 74 96 78 97 123 124 93 127 126 92 109 85 108 82 113 114 83 110 76 
#ZOMPROPERTIES_04 91 118 105 130 99 100 133 132 131 125 98 112 86 80 104 117 119 111 88 121 120 87 0 11 12 16 14 15 63
#ZOMPROPERTIES_04  32 26 13 21 17 19 20 18 23 29 30 25 24 31 28 27 33 22 5 4 3 2 1 10 34 35 36 37 38 39 64 55 56 59 60
#ZOMPROPERTIES_04  43 44 42 50 46 53 58 48 49 47 51 57 52 54 61 45 41 40 9 8 7 6 65 62 } } } BBoxUV box3d 0 0 0 0 0 0 
#ZOMPROPERTIES_04 BBox3D box3d 0 0 0 0 0 0 Area3D double 0 AreaUV double 0 IsRoot bool true Properties table {Selected
#ZOMPROPERTIES_04  bool false Box box3d 0 1 0 1 0 1 U int 0 V int 0 NU int 1 NV int 1 Tiling vector3d 1 1 1 TileRatioM
#ZOMPROPERTIES_04 ode string "1:1" Overflow string "Off" Pack table {Rotate table {Mode int 0 Min double 0 Max double 
#ZOMPROPERTIES_04 90 Step double 0 } PaddingSize double 0.0078125 MarginSize double 0.00390625 Resolution int 256 MapR
#ZOMPROPERTIES_04 esolution int 2048 Scaling table {TexelDensity double 1024 Mode int 2 } LayoutScalingMode int 2 MaxM
#ZOMPROPERTIES_04 utations int 1 } } IsTile bool false PolyIDs ints { } } Maps table {Density table {PrimType string "
#ZOMPROPERTIES_04 Polygon" Size int 1 DefaultValue double 1 ScaleType string "Log" MergeMode string "Average" MinValue
#ZOMPROPERTIES_04  double 0.1 MaxValue double 4 Data doubles { r 135 1 } } Pin table {PrimType string "Vertex" Size in
#ZOMPROPERTIES_04 t 1 DefaultValue double 0 ScaleType string "Normalized" MergeMode string "Max" MinValue double 0 Max
#ZOMPROPERTIES_04 Value double 1 Data doubles { r 218 0 } } Protect table {PrimType string "Vertex" Size int 1 Default
#ZOMPROPERTIES_04 Value double 0 ScaleType string "Normalized" MergeMode string "Average" MinValue double -1 MaxValue 
#ZOMPROPERTIES_04 double 1 Data doubles { r 218 0 } } } } }
#ZOMPROPERTIES_04}


#ZOMSCENE_01{
#ZOMSCENE_01 CScene {Settings table {AxisSystem table {UpVector string "y" } Unit string "cm" TexelDensityDisplay
#ZOMSCENE_01 Unit string "tx/cm" } }
#ZOMSCENE_01}

#begin 0 fatal error vertex (that RizomUV cannot handle)
#end 0 fatal error vertex (that RizomUV cannot handle)

#begin 0 error vertex
#end 0 error vertex
